<svg version="1.1" id="Capa_1" xmlns="http://www.w3.org/2000/svg" xmlns:xlink="http://www.w3.org/1999/xlink" x="0px" y="0px"
     viewBox="0 0 399.83 399.83" style="enable-background:new 0 0 399.83 399.83;" xml:space="preserve">
<g id="XMLID_23_">
	<path id="XMLID_474_" d="M244.649,354.788c-14.007,4.934-29.06,7.627-44.733,7.627c-15.655,0-30.693-2.688-44.687-7.611
		c-5.56,9.071-12.557,17.174-20.762,24.061c20.077,8.71,42.206,13.55,65.448,13.55c23.236,0,45.361-4.838,65.435-13.544
		C257.064,371.891,250.128,363.731,244.649,354.788z"/>
    <path id="XMLID_475_" d="M112.006,125.046c-5.013-9.215-8.619-19.303-10.528-29.97C65.91,121.601,41.36,162.107,36.021,208.38
		c10.009-3.621,20.555-5.64,31.22-5.933C73.007,171.734,89.204,144.655,112.006,125.046z"/>
    <path id="XMLID_476_" d="M332.592,202.447c10.663,0.292,21.209,2.311,31.22,5.933c-5.34-46.272-29.889-86.779-65.457-113.304
		c-1.909,10.667-5.515,20.755-10.528,29.97C310.628,144.655,326.825,171.733,332.592,202.447z"/>
    <circle id="XMLID_477_" cx="199.916" cy="77.415" r="70"/>
    <path id="XMLID_478_" d="M35.012,241.792C1.531,261.122-9.94,303.934,9.39,337.414c12.966,22.457,36.495,35.012,60.688,35.012
		c11.874,0,23.911-3.025,34.934-9.39c33.48-19.33,44.952-62.143,25.622-95.622c-12.966-22.458-36.494-35.013-60.688-35.012
		C58.072,232.402,46.034,235.428,35.012,241.792z"/>
    <path id="XMLID_479_" d="M269.196,267.415c-19.329,33.48-7.858,76.291,25.622,95.621c11.025,6.365,23.059,9.391,34.935,9.391
		c24.191,0,47.722-12.556,60.687-35.012c19.329-33.48,7.859-76.293-25.622-95.623c-11.024-6.365-23.057-9.391-34.934-9.39
		C305.693,232.403,282.161,244.959,269.196,267.415z"/>
</g>
</svg>
