<?xml version="1.0" encoding="UTF-8" standalone="no"?>
<!DOCTYPE svg PUBLIC "-//W3C//DTD SVG 1.1//EN" "http://www.w3.org/Graphics/SVG/1.1/DTD/svg11.dtd">
<svg width="1272" height="185" viewBox="0 0 1272 185" version="1.1" xmlns="http://www.w3.org/2000/svg" xmlns:xlink="http://www.w3.org/1999/xlink">
  <g id="Logo">
    <path d="M0 19.1 L9.3 9.8 L9.3 178.1 L0 178.1 Z M27.8 11.3 L139 11.3 L139 2 L18.5 2 L18.5 11.3 L18.5 113.3 L120.9 113.3 L120.9 104 L27.8 104 Z M134.9 85.4 L46.3 85.4 L46.3 48.3 L122 48.3 L131.3 39 L46.3 39 L46.3 29.7 L139 29.7 L139 20.4 L46.3 20.4 L37 20.4 L37 94.5 L125.6 94.5 Z M18.5 127.1 L18.5 178.1 L27.8 178.1 L27.8 131.8 L37.1 131.8 L37.1 170.4 L46.4 161.1 L46.4 131.8 L121 131.8 L121 122.5 L18.5 122.5 Z M469.8 2 L469.8 108.6 C469.8 133.4 458.7 154.7 432.9 171.1 L432.7 170.8 C449.7 157.3 460.5 140.1 460.5 117.7 L460.5 2 L451.2 2 L451.2 117.5 C451.2 150.8 424.2 175.7 391 175.7 C357.8 175.7 330.8 150.7 330.8 117.5 L330.8 9.8 L321.5 19.1 L321.5 117.8 C321.5 156.2 352.6 185 391 185 C391.9 185 400.3 185 400.3 185 C438.1 185 479.1 157.1 479.1 108.8 C479.1 108.8 479.1 2.1 479.1 2.1 L469.8 2.1 Z M391 166.5 C419.1 166.5 442 145.7 442 117.5 L442 117.5 L442 9.8 L432.7 19.1 L432.7 108.6 C432.7 126.5 418.2 138.7 400.3 138.7 C382.4 138.7 367.9 126.5 367.9 108.6 L367.9 2 L358.6 2 L358.6 108.6 C358.6 131.6 377.3 148 400.3 148 C409.7 148 421.2 143.3 428.9 135.2 L429.1 135.5 C421.8 149 408.4 157.3 391 157.3 C368.1 157.3 349.5 140.7 349.3 117.9 L349.3 117.9 L349.3 2 L340 2 L340 117.9 L340 117.9 C340.2 145.8 363 166.5 391 166.5 Z M185.1 122.5 L161.7 178.1 L171 178.1 L171 178.1 L171 178.1 L182.7 150.3 L261.2 150.3 L272.9 178.1 L282.2 178.1 L266.5 141 L186.5 141 L190.4 131.7 L271.8 131.7 L291.3 178 L300.6 178 L277.2 122.4 L185.1 122.4 Z M198.7 2 L130.6 163.6 L136.5 171.6 L208 2 Z M235.8 2 L307.2 171.6 L313.1 163.6 L245 2 Z M179.7 113.2 L152.3 178.1 L143 178.1 L212.6 13 L250.9 103.9 L260.2 103.9 L217.2 2 L226.5 2 L273.3 113.2 Z M221.9 57.1 L202.1 104 L241.6 104 Z M183.6 104 L192.9 104 L217.3 46.1 L212.7 35.1 Z"/>
  </g>
  <g id="Name" style="display: var(--fau-logo-display-name">
    <path d="M558.8 7.7 L543 7.7 L543 16.4 L554.8 16.4 L554.8 22.1 L543 22.1 L543 37.1 L536.8 37.1 L536.8 2 L558.9 2 L558.9 7.7 Z M577.9 11.6 L576.9 17.7 C576.1 17.2 574.9 16.9 573.7 16.9 C569.5 16.9 568.5 20.2 568.5 24.1 L568.5 37.1 L562.6 37.1 L562.6 11.7 L568.4 11.7 L568.4 14.8 L568.5 14.8 C569.8 12.4 572.2 11 575.1 11 C575.9 11.1 577 11.2 577.9 11.6 Z M589.7 4 C589.7 6 588 7.5 585.9 7.5 C583.9 7.5 582.2 6 582.2 4 C582.2 1.9 583.9 0.4 585.9 0.4 C588 0.4 589.7 2 589.7 4 Z M588.9 37.2 L583 37.2 L583 11.7 L588.9 11.7 Z M617.8 33.6 C614.9 36.4 611.6 37.8 607.8 37.8 C600.2 37.8 595.2 32.5 595.2 24.4 C595.2 16.5 600 11.1 607.1 11.1 C613.9 11.1 618.4 16.2 618.4 24 C618.4 24.8 618.4 25.5 618.3 26.1 L601.1 26.1 C601.7 30.3 604.1 32.6 607.8 32.6 C610.1 32.6 611.9 31.7 614 29.6 Z M601.2 22.1 L612.7 22.1 C612.5 18.2 610.5 16 607.2 16 C603.7 16 601.7 18.2 601.2 22.1 Z M623.7 24.6 C623.7 16.4 627.8 11.1 634.1 11.1 C637.2 11.1 639.7 12.4 641.4 14.5 L641.5 14.5 L641.5 1.5 L647.5 0 L647.5 37.2 L641.7 37.2 L641.7 34.2 L641.6 34.2 C639.8 36.4 637.1 37.8 633.9 37.8 C627.9 37.8 623.7 32.8 623.7 24.6 Z M629.6 24.4 C629.6 29.6 631.8 32.4 635.6 32.4 C637.8 32.4 639.7 31.4 641.6 29.1 L641.6 19.8 C639.9 17.5 638 16.4 635.6 16.4 C631.6 16.5 629.6 19.3 629.6 24.4 Z M670.8 11.6 L669.8 17.7 C669 17.2 667.8 16.9 666.6 16.9 C662.4 16.9 661.4 20.2 661.4 24.1 L661.4 37.1 L655.5 37.1 L655.5 11.7 L661.3 11.7 L661.3 14.8 L661.4 14.8 C662.7 12.4 665.1 11 668 11 C668.8 11.1 669.8 11.2 670.8 11.6 Z M682.5 4 C682.5 6 680.8 7.5 678.7 7.5 C676.7 7.5 675 6 675 4 C675 1.9 676.7 0.4 678.7 0.4 C680.8 0.4 682.5 2 682.5 4 Z M681.7 37.2 L675.8 37.2 L675.8 11.7 L681.7 11.7 Z M709.4 33.7 C706.9 36.5 704 37.8 700.3 37.8 C693 37.8 688.1 32.6 688.1 24.6 C688.1 16.6 693 11.2 700.3 11.2 C704.1 11.2 707.2 12.7 709.5 15.5 L705.4 19.4 C703.9 17.5 702.3 16.6 700.4 16.6 C696.7 16.6 694.1 19.9 694.1 24.6 C694.1 29.3 696.6 32.4 700.3 32.4 C702.3 32.4 703.9 31.6 705.5 29.6 Z M736.7 37.2 L730.7 37.2 L730.7 22.6 C730.7 18.8 729.7 16.4 726.1 16.4 C722 16.4 720.8 19.7 720.8 22.5 L720.8 37.1 L714.8 37.1 L714.8 1.5 L720.8 0 L720.8 14.8 L720.9 14.8 C722.4 12.5 725 11.1 728.3 11.1 C734.2 11.1 736.7 15.5 736.7 21.4 L736.7 37.2 Z M756 24.4 L743.5 24.4 L743.5 18.7 L756 18.7 Z M772.3 2 L778.9 2 L791.9 37.2 L785.1 37.2 L782.5 29.6 L768.4 29.6 L765.8 37.2 L759.2 37.2 Z M780.6 24 L775.5 9.1 L775.4 9.1 L770.4 24 Z M803.2 37.2 L797.2 37.2 L797.2 1.4 L803.2 0.1 Z M832.4 33.6 C829.5 36.4 826.2 37.8 822.4 37.8 C814.8 37.8 809.8 32.5 809.8 24.4 C809.8 16.5 814.6 11.1 821.7 11.1 C828.5 11.1 833 16.2 833 24 C833 24.8 833 25.5 832.9 26.1 L815.7 26.1 C816.3 30.3 818.7 32.6 822.4 32.6 C824.7 32.6 826.5 31.7 828.6 29.6 Z M815.7 22.1 L827.2 22.1 C827 18.2 825 16 821.7 16 C818.3 16 816.2 18.2 815.7 22.1 Z M860.6 37.2 L853.8 37.2 L848.4 28.4 L848.3 28.4 L843 37.2 L836.3 37.2 L845 24 L837 11.8 L843.7 11.8 L848.5 19.6 L848.6 19.6 L853.3 11.8 L859.9 11.8 L851.9 23.9 Z M874.7 21.3 C876.3 21.3 877.8 21.5 879.7 21.9 L879.7 20.9 C879.7 17.7 877.7 16 874.1 16 C872.1 16 869.7 16.5 867.7 17.5 L866.2 12.6 C868.7 11.6 871.8 11.1 874.7 11.1 C881.8 11.1 885.5 14.4 885.5 20.9 L885.5 37.1 L879.9 37.1 L879.9 34.4 L879.8 34.4 C877.7 36.7 875.3 37.7 872.4 37.7 C867.3 37.7 864 34.6 864 29.6 C863.9 24.3 867.7 21.3 874.7 21.3 Z M873.9 33.3 C876.2 33.3 878.2 32.3 879.6 30.4 L879.6 25.9 C878.1 25.5 876.7 25.3 875.4 25.3 C871.7 25.3 869.5 26.8 869.5 29.5 C869.6 31.9 871.3 33.3 873.9 33.3 Z M914.9 37.2 L908.9 37.2 L908.9 22.6 C908.9 18.9 907.9 16.4 904.3 16.4 C900.1 16.4 899 19.8 899 22.5 L899 37.1 L893 37.1 L893 11.7 L898.9 11.7 L898.9 14.7 L899 14.7 C900.5 12.4 903.2 11 906.5 11 C912.3 11 914.9 15.2 914.9 21.3 Z M921.3 24.6 C921.3 16.4 925.4 11.1 931.7 11.1 C934.8 11.1 937.3 12.4 939 14.5 L939.1 14.5 L939.1 1.5 L945.1 0 L945.1 37.2 L939.3 37.2 L939.3 34.2 L939.2 34.2 C937.4 36.4 934.7 37.8 931.5 37.8 C925.5 37.8 921.3 32.8 921.3 24.6 Z M927.1 24.4 C927.1 29.6 929.3 32.4 933.1 32.4 C935.3 32.4 937.2 31.4 939.1 29.1 L939.1 19.8 C937.4 17.5 935.5 16.4 933.1 16.4 C929.2 16.5 927.1 19.3 927.1 24.4 Z M974.2 33.6 C971.3 36.4 968 37.8 964.2 37.8 C956.6 37.8 951.6 32.5 951.6 24.4 C951.6 16.5 956.4 11.1 963.5 11.1 C970.3 11.1 974.8 16.2 974.8 24 C974.8 24.8 974.8 25.5 974.7 26.1 L957.5 26.1 C958.1 30.3 960.5 32.6 964.2 32.6 C966.5 32.6 968.3 31.7 970.4 29.6 Z M957.5 22.1 L969 22.1 C968.8 18.2 966.8 16 963.5 16 C960.1 16 958 18.2 957.5 22.1 Z M996.7 11.6 L995.7 17.7 C994.9 17.2 993.7 16.9 992.5 16.9 C988.3 16.9 987.3 20.2 987.3 24.1 L987.3 37.1 L981.4 37.1 L981.4 11.7 L987.2 11.7 L987.2 14.8 L987.3 14.8 C988.6 12.4 991 11 993.9 11 C994.7 11.1 995.8 11.2 996.7 11.6 Z M1013 24.4 L1000.5 24.4 L1000.5 18.7 L1013 18.7 Z M1048 23.2 C1048 31.7 1043.7 37.7 1034.2 37.7 C1024.9 37.7 1020.6 31.7 1020.6 23.2 L1020.6 2 L1026.9 2 L1026.9 22.9 C1026.9 28.2 1029.1 31.8 1034.4 31.8 C1039.6 31.8 1041.6 28.3 1041.6 22.9 L1041.6 2 L1047.9 2 L1047.9 23.2 Z M1077.8 37.2 L1071.8 37.2 L1071.8 22.6 C1071.8 18.9 1070.8 16.4 1067.2 16.4 C1063 16.4 1061.9 19.8 1061.9 22.5 L1061.9 37.1 L1056 37.1 L1056 11.7 L1061.9 11.7 L1061.9 14.7 L1062 14.7 C1063.5 12.4 1066.2 11 1069.5 11 C1075.3 11 1077.9 15.2 1077.9 21.3 L1077.9 37.2 Z M1092.1 4 C1092.1 6 1090.4 7.5 1088.3 7.5 C1086.3 7.5 1084.6 6 1084.6 4 C1084.6 1.9 1086.3 0.4 1088.3 0.4 C1090.4 0.4 1092.1 2 1092.1 4 Z M1091.3 37.2 L1085.4 37.2 L1085.4 11.7 L1091.3 11.7 Z M1121 11.7 L1111.8 37.1 L1105.6 37.1 L1096.4 11.7 L1102.9 11.7 L1108.7 30.2 L1108.7 30.2 L1114.5 11.7 L1121 11.7 Z M1146.6 33.6 C1143.7 36.4 1140.4 37.8 1136.6 37.8 C1129 37.8 1124 32.5 1124 24.4 C1124 16.5 1128.8 11.1 1135.9 11.1 C1142.7 11.1 1147.2 16.2 1147.2 24 C1147.2 24.8 1147.2 25.5 1147.1 26.1 L1129.9 26.1 C1130.5 30.3 1132.9 32.6 1136.6 32.6 C1138.9 32.6 1140.7 31.7 1142.8 29.6 Z M1129.9 22.1 L1141.4 22.1 C1141.2 18.2 1139.2 16 1135.9 16 C1132.5 16 1130.4 18.2 1129.9 22.1 Z M1169.1 11.6 L1168.1 17.7 C1167.3 17.2 1166.1 16.9 1164.9 16.9 C1160.7 16.9 1159.7 20.2 1159.7 24.1 L1159.7 37.1 L1153.8 37.1 L1153.8 11.7 L1159.6 11.7 L1159.6 14.8 L1159.7 14.8 C1161 12.4 1163.4 11 1166.3 11 C1167.1 11.1 1168.2 11.2 1169.1 11.6 Z M1174.7 30 C1177.2 31.9 1179.7 32.9 1181.9 32.9 C1184.1 32.9 1185.6 31.9 1185.6 30.4 C1185.6 26 1172.9 27.6 1172.9 19.1 C1172.9 14.5 1176.7 11.2 1182.5 11.2 C1185.5 11.2 1188.6 12.1 1191.3 13.8 L1188.5 18.5 C1186.4 17 1184.4 16.2 1182.5 16.2 C1180.3 16.2 1178.9 17.2 1178.9 18.5 C1178.9 22.6 1191.6 21.2 1191.6 29.7 C1191.6 34.5 1187.6 37.7 1181.8 37.7 C1178.4 37.7 1175 36.7 1172 34.6 Z M1204.6 4 C1204.6 6 1202.9 7.5 1200.8 7.5 C1198.8 7.5 1197.1 6 1197.1 4 C1197.1 1.9 1198.8 0.4 1200.8 0.4 C1202.9 0.4 1204.6 2 1204.6 4 Z M1203.8 37.2 L1197.9 37.2 L1197.9 11.7 L1203.8 11.7 Z M1224.7 31.8 L1224.7 36.8 C1223.4 37.4 1221.5 37.8 1219.7 37.8 C1215.2 37.8 1212.8 35.3 1212.8 30.7 L1212.8 16.7 L1209 16.7 L1209 11.8 L1212.8 11.8 L1212.8 4.8 L1218.7 3.5 L1218.7 11.7 L1224.7 11.7 L1224.7 16.6 L1218.7 16.6 L1218.7 29.1 C1218.7 31.4 1219.5 32.4 1221.5 32.4 C1222.6 32.6 1223.7 32.3 1224.7 31.8 Z M1240.2 21.3 C1241.8 21.3 1243.3 21.5 1245.2 21.9 L1245.2 20.9 C1245.2 17.7 1243.2 16 1239.6 16 C1237.6 16 1235.2 16.5 1233.2 17.5 L1231.7 12.6 C1234.2 11.6 1237.3 11.1 1240.2 11.1 C1247.3 11.1 1251 14.4 1251 20.9 L1251 37.1 L1245.4 37.1 L1245.4 34.4 L1245.3 34.4 C1243.2 36.7 1240.8 37.7 1237.9 37.7 C1232.8 37.7 1229.5 34.6 1229.5 29.6 C1229.4 24.3 1233.2 21.3 1240.2 21.3 Z M1235.4 7.8 C1233.5 7.8 1232 6.3 1232 4.4 C1232 2.5 1233.5 1 1235.4 1 C1237.4 1 1239 2.5 1239 4.4 C1239 6.2 1237.4 7.8 1235.4 7.8 Z M1239.4 33.3 C1241.7 33.3 1243.7 32.3 1245.1 30.4 L1245.1 25.9 C1243.6 25.5 1242.2 25.3 1240.9 25.3 C1237.2 25.3 1235 26.8 1235 29.5 C1235.1 31.9 1236.8 33.3 1239.4 33.3 Z M1245.8 7.8 C1243.9 7.8 1242.4 6.3 1242.4 4.4 C1242.4 2.5 1244 1 1245.8 1 C1247.7 1 1249.3 2.5 1249.3 4.4 C1249.4 6.2 1247.8 7.8 1245.8 7.8 Z M1271.5 31.8 L1271.5 36.8 C1270.2 37.4 1268.3 37.8 1266.5 37.8 C1262 37.8 1259.6 35.3 1259.6 30.7 L1259.6 16.7 L1255.8 16.7 L1255.8 11.8 L1259.6 11.8 L1259.6 4.8 L1265.5 3.5 L1265.5 11.7 L1271.5 11.7 L1271.5 16.6 L1265.5 16.6 L1265.5 29.1 C1265.5 31.4 1266.3 32.4 1268.3 32.4 C1269.3 32.6 1270.5 32.3 1271.5 31.8 Z M559.7 97.2 L536.7 97.2 L536.7 62 L559 62 L559 67.7 L542.9 67.7 L542.9 76.1 L555.2 76.1 L555.2 81.6 L542.9 81.6 L542.9 91.4 L559.7 91.4 Z M581.3 71.6 L580.3 77.7 C579.5 77.2 578.3 76.9 577.1 76.9 C572.9 76.9 571.9 80.2 571.9 84.1 L571.9 97.1 L566 97.1 L566 71.7 L571.8 71.7 L571.8 74.8 L571.9 74.8 C573.2 72.4 575.6 71 578.5 71 C579.3 71.1 580.4 71.2 581.3 71.6 Z M592.4 97.2 L586.4 97.2 L586.4 61.4 L592.4 60.1 Z M609.4 81.3 C611 81.3 612.5 81.5 614.4 81.9 L614.4 80.9 C614.4 77.7 612.4 76 608.8 76 C606.8 76 604.4 76.5 602.4 77.5 L600.9 72.6 C603.4 71.6 606.5 71.1 609.4 71.1 C616.5 71.1 620.2 74.4 620.2 80.9 L620.2 97.1 L614.6 97.1 L614.6 94.4 L614.5 94.4 C612.4 96.7 610 97.7 607.1 97.7 C602 97.7 598.7 94.6 598.7 89.6 C598.6 84.3 602.5 81.3 609.4 81.3 Z M608.7 93.3 C611 93.3 613 92.3 614.4 90.4 L614.4 85.9 C612.9 85.5 611.5 85.3 610.2 85.3 C606.5 85.3 604.3 86.8 604.3 89.5 C604.3 91.9 606 93.3 608.7 93.3 Z M649.7 97.2 L643.7 97.2 L643.7 82.6 C643.7 78.9 642.7 76.4 639.1 76.4 C634.9 76.4 633.8 79.8 633.8 82.5 L633.8 97.1 L627.9 97.1 L627.9 71.7 L633.8 71.7 L633.8 74.7 L633.9 74.7 C635.4 72.4 638.1 71 641.4 71 C647.2 71 649.8 75.2 649.8 81.3 L649.8 97.2 Z M662.7 102.7 L664.1 102.7 C671.7 102.4 673.9 100.2 673.9 95.5 L673.9 93.8 L673.8 93.8 C672 96.1 669.2 97.3 666.2 97.3 C660.1 97.3 656.1 92.3 656.1 84.4 C656.1 76.4 660.2 71.1 666.4 71.1 C669.4 71.1 672.2 72.4 673.9 74.6 L674 74.6 L674 71.7 L679.9 71.7 L679.9 94.5 C679.9 102.7 675.7 106.8 664.7 107.3 L663.5 107.3 Z M661.9 84.3 C661.9 89.3 664.1 92.2 667.8 92.2 C670 92.2 671.9 91.1 673.8 88.9 L673.8 79.8 C672.1 77.6 670.1 76.5 667.8 76.5 C664.1 76.4 661.9 79.3 661.9 84.3 Z M708.9 93.6 C706 96.4 702.7 97.8 698.9 97.8 C691.3 97.8 686.3 92.5 686.3 84.4 C686.3 76.5 691.1 71.1 698.2 71.1 C705 71.1 709.5 76.2 709.5 84 C709.5 84.8 709.5 85.5 709.4 86.1 L692.2 86.1 C692.8 90.3 695.2 92.6 698.9 92.6 C701.2 92.6 703 91.7 705.1 89.6 Z M692.3 82.1 L703.8 82.1 C703.6 78.2 701.6 76 698.3 76 C694.8 76 692.8 78.2 692.3 82.1 Z M737.9 97.2 L731.9 97.2 L731.9 82.6 C731.9 78.9 730.9 76.4 727.3 76.4 C723.1 76.4 722 79.8 722 82.5 L722 97.1 L716 97.1 L716 71.7 L721.9 71.7 L721.9 74.7 L722 74.7 C723.5 72.4 726.2 71 729.5 71 C735.3 71 737.9 75.2 737.9 81.3 Z M757.3 84.4 L744.8 84.4 L744.8 78.7 L757.3 78.7 Z M765 62 L771.3 62 L787 86.5 L787.1 86.5 L786.9 62 L793 62 L793 97.2 L786.8 97.2 L771 72.5 L770.9 72.5 L771 97.2 L765 97.2 Z M807.1 87 C807.1 90.5 808.9 92.4 812.1 92.4 C815.3 92.4 817 90.6 817 87 L817 71.7 L823 71.7 L823 87.1 C823 93.8 819 97.7 812.1 97.7 C805.2 97.7 801.2 93.8 801.2 87.2 L801.2 71.7 L807.1 71.7 Z M806.8 67.8 C804.9 67.8 803.4 66.3 803.4 64.4 C803.4 62.5 804.9 61 806.8 61 C808.8 61 810.4 62.5 810.4 64.4 C810.4 66.2 808.8 67.8 806.8 67.8 Z M817.3 67.8 C815.4 67.8 813.9 66.3 813.9 64.4 C813.9 62.5 815.4 61 817.3 61 C819.3 61 820.8 62.5 820.8 64.4 C820.8 66.2 819.2 67.8 817.3 67.8 Z M846.1 71.6 L845.1 77.7 C844.3 77.2 843.1 76.9 841.9 76.9 C837.7 76.9 836.7 80.2 836.7 84.1 L836.7 97.1 L830.8 97.1 L830.8 71.7 L836.6 71.7 L836.6 74.8 L836.7 74.8 C838 72.4 840.4 71 843.3 71 C844.1 71.1 845.1 71.2 846.1 71.6 Z M872.9 97.2 L866.9 97.2 L866.9 82.6 C866.9 78.9 865.9 76.4 862.3 76.4 C858.1 76.4 857 79.8 857 82.5 L857 97.1 L851 97.1 L851 71.7 L856.9 71.7 L856.9 74.7 L857 74.7 C858.5 72.4 861.2 71 864.5 71 C870.3 71 872.9 75.2 872.9 81.3 Z M904.4 84.3 C904.4 92.5 900.3 97.8 894 97.8 C890.8 97.8 888.2 96.4 886.5 94.3 L886.4 94.3 L886.4 97.2 L880.6 97.2 L880.6 61.5 L886.6 60 L886.6 74.6 L886.7 74.6 C888.4 72.5 891 71.1 894.2 71.1 C900.2 71.1 904.4 76 904.4 84.3 Z M898.5 84.5 C898.5 79.3 896.4 76.5 892.6 76.5 C890.4 76.5 888.5 77.5 886.6 79.8 L886.6 89 C888.3 91.2 890.2 92.4 892.6 92.4 C896.4 92.4 898.5 89.6 898.5 84.5 Z M932.3 93.6 C929.4 96.4 926.1 97.8 922.3 97.8 C914.7 97.8 909.7 92.5 909.7 84.4 C909.7 76.5 914.5 71.1 921.6 71.1 C928.4 71.1 932.9 76.2 932.9 84 C932.9 84.8 932.9 85.5 932.8 86.1 L915.6 86.1 C916.2 90.3 918.6 92.6 922.3 92.6 C924.6 92.6 926.4 91.7 928.5 89.6 Z M915.6 82.1 L927.1 82.1 C926.9 78.2 924.9 76 921.6 76 C918.2 76 916.1 78.2 915.6 82.1 Z M954.8 71.6 L953.8 77.7 C953 77.2 951.8 76.9 950.6 76.9 C946.4 76.9 945.4 80.2 945.4 84.1 L945.4 97.1 L939.5 97.1 L939.5 71.7 L945.3 71.7 L945.3 74.8 L945.4 74.8 C946.7 72.4 949.1 71 952 71 C952.8 71.1 953.8 71.2 954.8 71.6 Z M964.8 102.7 L966.2 102.7 C973.8 102.4 976 100.2 976 95.5 L976 93.8 L975.9 93.8 C974.1 96.1 971.3 97.3 968.3 97.3 C962.2 97.3 958.2 92.3 958.2 84.4 C958.2 76.4 962.3 71.1 968.5 71.1 C971.5 71.1 974.3 72.4 976 74.6 L976.1 74.6 L976.1 71.7 L982 71.7 L982 94.5 C982 102.7 977.8 106.8 966.8 107.3 L965.6 107.3 Z M964 84.3 C964 89.3 966.2 92.2 969.9 92.2 C972.1 92.2 974 91.1 975.9 88.9 L975.9 79.8 C974.2 77.6 972.2 76.5 969.9 76.5 C966.2 76.4 964 79.3 964 84.3 Z"/>
  </g>
</svg>
