<?xml version="1.0" encoding="UTF-8" standalone="no"?>
<!-- Created with PhotoLine 21.01 (www.pl32.de) -->
<!DOCTYPE svg PUBLIC "-//W3C//DTD SVG 1.1//EN" "http://www.w3.org/Graphics/SVG/1.1/DTD/svg11.dtd">
<svg width="240" height="65" viewBox="0 0 240 65" version="1.1" xmlns="http://www.w3.org/2000/svg" xmlns:xlink="http://www.w3.org/1999/xlink">
  <g transform="matrix(0.957767 0 0 0.956021 0 0)">
    <path fill="#a36b0d" d="M250.51 61.74 L250.51 62.87 L247.27 62.87 L247.27 64.19 L250.25 64.19 L250.25 65.23 L247.27 65.23 L247.27 66.74 L250.58 66.74 L250.58 67.87 L245.92 67.87 L245.92 61.74 Z M244.38 67.87 L243.03 67.87 L243.03 61.74 L244.38 61.74 Z M239.79 67.83 C239.5 67.95 239.2 68.01 238.91 68.01 C238.44 68.01 238.01 67.93 237.64 67.77 C237.26 67.6 236.94 67.38 236.69 67.09 C236.43 66.81 236.23 66.47 236.09 66.08 C235.96 65.69 235.89 65.28 235.89 64.83 C235.89 64.37 235.96 63.95 236.09 63.55 C236.23 63.16 236.43 62.82 236.69 62.53 C236.94 62.23 237.26 62.01 237.64 61.84 C238.01 61.67 238.44 61.59 238.91 61.59 C239.22 61.59 239.53 61.64 239.82 61.73 C240.12 61.83 240.38 61.96 240.62 62.15 C240.86 62.33 241.06 62.56 241.21 62.83 C241.36 63.1 241.46 63.41 241.49 63.76 L240.2 63.76 C240.12 63.41 239.97 63.16 239.74 62.98 C239.51 62.81 239.23 62.73 238.91 62.73 C238.6 62.73 238.34 62.78 238.13 62.9 C237.92 63.02 237.75 63.18 237.62 63.37 C237.48 63.57 237.39 63.8 237.33 64.05 C237.27 64.3 237.24 64.56 237.24 64.83 C237.24 65.09 237.27 65.34 237.33 65.58 C237.39 65.83 237.48 66.05 237.62 66.24 C237.75 66.44 237.92 66.59 238.13 66.71 C238.34 66.83 238.6 66.89 238.91 66.89 C239.35 66.89 239.7 66.77 239.94 66.55 C240.18 66.32 240.33 65.99 240.37 65.56 L239.01 65.56 L239.01 64.56 L241.59 64.56 L241.59 67.88 L240.73 67.88 L240.59 67.18 C240.35 67.49 240.08 67.7 239.79 67.83 Z M228.99 63.55 C229.12 63.16 229.32 62.82 229.58 62.53 C229.84 62.23 230.15 62 230.53 61.84 C230.91 61.67 231.33 61.59 231.8 61.59 C232.27 61.59 232.7 61.67 233.07 61.84 C233.44 62 233.76 62.23 234.02 62.53 C234.27 62.82 234.47 63.16 234.61 63.55 C234.75 63.95 234.82 64.37 234.82 64.83 C234.82 65.28 234.75 65.69 234.61 66.08 C234.47 66.47 234.27 66.8 234.02 67.09 C233.76 67.38 233.44 67.6 233.07 67.77 C232.7 67.93 232.27 68.01 231.8 68.01 C231.33 68.01 230.91 67.93 230.53 67.77 C230.15 67.6 229.84 67.38 229.58 67.09 C229.32 66.8 229.12 66.47 228.99 66.08 C228.85 65.69 228.78 65.28 228.78 64.83 C228.78 64.37 228.85 63.95 228.99 63.55 Z M230.22 65.58 C230.28 65.83 230.38 66.05 230.51 66.24 C230.64 66.43 230.81 66.59 231.03 66.71 C231.24 66.83 231.5 66.89 231.8 66.89 C232.1 66.89 232.36 66.83 232.57 66.71 C232.78 66.59 232.96 66.44 233.09 66.24 C233.22 66.05 233.32 65.83 233.38 65.58 C233.44 65.34 233.47 65.09 233.47 64.83 C233.47 64.56 233.44 64.3 233.38 64.05 C233.32 63.8 233.22 63.57 233.09 63.37 C232.96 63.18 232.78 63.02 232.57 62.9 C232.36 62.78 232.1 62.72 231.8 62.72 C231.5 62.72 231.24 62.78 231.03 62.9 C230.81 63.02 230.64 63.17 230.51 63.37 C230.38 63.57 230.28 63.8 230.22 64.05 C230.16 64.3 230.13 64.56 230.13 64.83 C230.13 65.09 230.16 65.34 230.22 65.58 Z M225.15 61.74 L225.15 66.74 L228.14 66.74 L228.14 67.87 L223.79 67.87 L223.79 61.74 Z M216.76 63.55 C216.89 63.16 217.09 62.82 217.35 62.53 C217.61 62.23 217.92 62 218.3 61.84 C218.67 61.67 219.1 61.59 219.57 61.59 C220.04 61.59 220.47 61.67 220.84 61.84 C221.21 62 221.53 62.23 221.78 62.53 C222.04 62.82 222.24 63.16 222.38 63.55 C222.52 63.95 222.58 64.37 222.58 64.83 C222.58 65.28 222.52 65.69 222.38 66.08 C222.24 66.47 222.04 66.8 221.78 67.09 C221.53 67.38 221.21 67.6 220.84 67.77 C220.47 67.93 220.04 68.01 219.57 68.01 C219.1 68.01 218.67 67.93 218.3 67.77 C217.92 67.6 217.61 67.38 217.35 67.09 C217.09 66.8 216.89 66.47 216.76 66.08 C216.62 65.69 216.55 65.28 216.55 64.83 C216.55 64.37 216.62 63.95 216.76 63.55 Z M217.99 65.58 C218.05 65.83 218.15 66.05 218.28 66.24 C218.41 66.43 218.58 66.59 218.79 66.71 C219 66.83 219.26 66.89 219.57 66.89 C219.87 66.89 220.13 66.83 220.34 66.71 C220.55 66.59 220.72 66.44 220.86 66.24 C220.99 66.05 221.08 65.83 221.14 65.58 C221.2 65.34 221.23 65.09 221.23 64.83 C221.23 64.56 221.2 64.3 221.14 64.05 C221.08 63.8 220.99 63.57 220.86 63.37 C220.72 63.18 220.55 63.02 220.34 62.9 C220.13 62.78 219.87 62.72 219.57 62.72 C219.26 62.72 219 62.78 218.79 62.9 C218.58 63.02 218.41 63.17 218.28 63.37 C218.15 63.57 218.05 63.8 217.99 64.05 C217.93 64.3 217.9 64.56 217.9 64.83 C217.9 65.09 217.93 65.34 217.99 65.58 Z M215.48 61.74 L215.48 62.87 L212.24 62.87 L212.24 64.19 L215.22 64.19 L215.22 65.23 L212.24 65.23 L212.24 66.74 L215.55 66.74 L215.55 67.87 L210.89 67.87 L210.89 61.74 Z M205.51 61.74 L205.51 64.09 L208 64.09 L208 61.74 L209.35 61.74 L209.35 67.87 L208 67.87 L208 65.23 L205.51 65.23 L205.51 67.87 L204.16 67.87 L204.16 61.74 Z M198.07 62.87 L198.07 61.74 L203.1 61.74 L203.1 62.87 L201.26 62.87 L201.26 67.87 L199.91 67.87 L199.91 62.87 L198.07 62.87 Z M190.77 61.74 L190.77 64.09 L193.25 64.09 L193.25 61.74 L194.6 61.74 L194.6 67.87 L193.25 67.87 L193.25 65.23 L190.77 65.23 L190.77 67.87 L189.42 67.87 L189.42 61.74 Z M186.67 63.37 C186.59 63.24 186.49 63.13 186.37 63.03 C186.25 62.94 186.11 62.86 185.96 62.81 C185.81 62.75 185.65 62.72 185.48 62.72 C185.18 62.72 184.92 62.78 184.71 62.9 C184.49 63.02 184.32 63.17 184.19 63.37 C184.06 63.57 183.96 63.8 183.9 64.05 C183.84 64.3 183.81 64.56 183.81 64.83 C183.81 65.09 183.84 65.34 183.9 65.58 C183.96 65.83 184.06 66.05 184.19 66.24 C184.32 66.43 184.49 66.59 184.71 66.71 C184.92 66.83 185.18 66.89 185.48 66.89 C185.89 66.89 186.21 66.76 186.45 66.51 C186.68 66.25 186.82 65.92 186.87 65.51 L188.18 65.51 C188.15 65.89 188.06 66.24 187.91 66.55 C187.77 66.86 187.58 67.12 187.35 67.34 C187.11 67.56 186.84 67.73 186.52 67.84 C186.21 67.95 185.86 68.01 185.48 68.01 C185.01 68.01 184.59 67.93 184.21 67.77 C183.84 67.6 183.52 67.38 183.26 67.09 C183 66.81 182.81 66.47 182.67 66.08 C182.53 65.69 182.46 65.28 182.46 64.83 C182.46 64.37 182.53 63.95 182.67 63.55 C182.81 63.16 183 62.82 183.26 62.53 C183.52 62.23 183.84 62.01 184.21 61.84 C184.59 61.67 185.01 61.59 185.48 61.59 C185.82 61.59 186.14 61.64 186.44 61.74 C186.74 61.83 187.01 61.97 187.25 62.16 C187.48 62.35 187.68 62.58 187.84 62.85 C187.99 63.13 188.09 63.44 188.13 63.8 L186.82 63.8 C186.8 63.64 186.75 63.5 186.67 63.37 Z M181.28 67.87 L179.93 67.87 L179.93 61.74 L181.28 61.74 Z M178.55 61.74 L178.55 62.87 L175.31 62.87 L175.31 64.19 L178.29 64.19 L178.29 65.23 L175.31 65.23 L175.31 66.74 L178.62 66.74 L178.62 67.87 L173.96 67.87 L173.96 61.74 Z M170.77 61.74 C171.05 61.74 171.3 61.78 171.52 61.87 C171.74 61.96 171.93 62.08 172.09 62.23 C172.24 62.39 172.36 62.57 172.45 62.77 C172.53 62.97 172.57 63.19 172.57 63.43 C172.57 63.79 172.49 64.1 172.34 64.37 C172.19 64.63 171.94 64.83 171.6 64.97 L171.6 64.99 C171.76 65.03 171.9 65.1 172.01 65.2 C172.12 65.29 172.21 65.4 172.28 65.53 C172.35 65.66 172.4 65.8 172.43 65.96 C172.46 66.11 172.48 66.27 172.49 66.42 C172.5 66.52 172.5 66.63 172.51 66.77 C172.52 66.9 172.53 67.03 172.54 67.17 C172.55 67.31 172.58 67.44 172.61 67.56 C172.64 67.68 172.69 67.79 172.75 67.87 L171.4 67.87 C171.33 67.68 171.28 67.45 171.26 67.18 C171.25 66.91 171.22 66.65 171.18 66.41 C171.14 66.08 171.04 65.85 170.89 65.7 C170.74 65.55 170.5 65.48 170.16 65.48 L168.81 65.48 L168.81 67.87 L167.46 67.87 L167.46 61.74 L170.77 61.74 Z M170.29 64.51 C170.6 64.51 170.84 64.44 170.99 64.31 C171.15 64.17 171.22 63.94 171.22 63.63 C171.22 63.34 171.15 63.12 170.99 62.99 C170.84 62.85 170.6 62.78 170.29 62.78 L168.82 62.78 L168.82 64.51 L170.29 64.51 Z M166.1 61.74 L166.1 62.87 L162.86 62.87 L162.86 64.19 L165.84 64.19 L165.84 65.23 L162.86 65.23 L162.86 66.74 L166.17 66.74 L166.17 67.87 L161.51 67.87 L161.51 61.74 Z M157.91 66.82 C158.04 66.82 158.17 66.81 158.29 66.79 C158.41 66.76 158.51 66.72 158.6 66.66 C158.7 66.6 158.77 66.51 158.82 66.41 C158.88 66.31 158.91 66.18 158.91 66.02 C158.91 65.7 158.82 65.48 158.64 65.34 C158.46 65.21 158.23 65.14 157.93 65.14 L156.46 65.14 L156.46 66.82 L157.91 66.82 Z M158 61.74 C158.3 61.74 158.56 61.76 158.8 61.81 C159.04 61.86 159.25 61.95 159.42 62.07 C159.59 62.18 159.73 62.34 159.82 62.54 C159.92 62.73 159.96 62.97 159.96 63.26 C159.96 63.57 159.89 63.82 159.75 64.03 C159.61 64.24 159.4 64.41 159.13 64.54 C159.51 64.65 159.79 64.84 159.98 65.11 C160.16 65.38 160.26 65.71 160.26 66.09 C160.26 66.4 160.19 66.67 160.07 66.9 C159.95 67.12 159.79 67.31 159.59 67.45 C159.39 67.6 159.15 67.7 158.89 67.77 C158.63 67.84 158.36 67.87 158.09 67.87 L155.11 67.87 L155.11 61.74 Z M157.83 64.22 C158.07 64.22 158.27 64.16 158.42 64.05 C158.58 63.93 158.66 63.75 158.66 63.49 C158.66 63.34 158.63 63.23 158.58 63.14 C158.53 63.04 158.46 62.97 158.37 62.92 C158.29 62.87 158.19 62.83 158.08 62.81 C157.96 62.79 157.85 62.78 157.73 62.78 L156.46 62.78 L156.46 64.22 L157.83 64.22 Z M149.73 61.74 L149.73 64.09 L152.22 64.09 L152.22 61.74 L153.57 61.74 L153.57 67.87 L152.22 67.87 L152.22 65.23 L149.73 65.23 L149.73 67.87 L148.38 67.87 L148.38 61.74 Z M145.68 63.37 C145.6 63.24 145.49 63.13 145.37 63.03 C145.25 62.94 145.12 62.86 144.97 62.81 C144.81 62.75 144.65 62.72 144.49 62.72 C144.18 62.72 143.93 62.78 143.72 62.9 C143.5 63.02 143.33 63.17 143.2 63.37 C143.07 63.57 142.97 63.8 142.91 64.05 C142.85 64.3 142.82 64.56 142.82 64.83 C142.82 65.09 142.85 65.34 142.91 65.58 C142.97 65.83 143.07 66.05 143.2 66.24 C143.33 66.43 143.5 66.59 143.72 66.71 C143.93 66.83 144.19 66.89 144.49 66.89 C144.9 66.89 145.22 66.76 145.46 66.51 C145.69 66.25 145.83 65.92 145.88 65.51 L147.19 65.51 C147.15 65.89 147.07 66.24 146.92 66.55 C146.78 66.86 146.59 67.12 146.35 67.34 C146.12 67.56 145.84 67.73 145.53 67.84 C145.21 67.95 144.87 68.01 144.49 68.01 C144.02 68.01 143.6 67.93 143.22 67.77 C142.85 67.6 142.53 67.38 142.27 67.09 C142.01 66.81 141.82 66.47 141.68 66.08 C141.54 65.69 141.47 65.28 141.47 64.83 C141.47 64.37 141.54 63.95 141.68 63.55 C141.82 63.16 142.01 62.82 142.27 62.53 C142.53 62.23 142.85 62.01 143.22 61.84 C143.6 61.67 144.02 61.59 144.49 61.59 C144.83 61.59 145.15 61.64 145.45 61.74 C145.75 61.83 146.02 61.97 146.26 62.16 C146.49 62.35 146.69 62.58 146.85 62.85 C147 63.13 147.1 63.44 147.14 63.8 L145.83 63.8 C145.81 63.64 145.76 63.5 145.68 63.37 Z M138.7 61.74 L141 67.87 L139.6 67.87 L139.13 66.51 L136.84 66.51 L136.36 67.87 L135 67.87 L137.32 61.74 Z M138.78 65.5 L138.01 63.25 L137.99 63.25 L137.19 65.5 Z M135.05 61.74 L135.05 62.87 L132.09 62.87 L132.09 64.29 L134.66 64.29 L134.66 65.34 L132.09 65.34 L132.09 67.87 L130.74 67.87 L130.74 61.74 L135.05 61.74 Z M124.25 61.74 C124.64 61.74 125.01 61.8 125.35 61.92 C125.69 62.05 125.99 62.24 126.24 62.49 C126.49 62.74 126.68 63.06 126.82 63.44 C126.96 63.81 127.03 64.26 127.03 64.77 C127.03 65.22 126.97 65.63 126.86 66.01 C126.74 66.38 126.57 66.71 126.34 66.99 C126.11 67.26 125.82 67.48 125.47 67.63 C125.12 67.79 124.71 67.87 124.24 67.87 L121.6 67.87 L121.6 61.73 L124.25 61.73 Z M124.15 66.74 C124.35 66.74 124.54 66.71 124.72 66.64 C124.9 66.58 125.07 66.48 125.21 66.33 C125.35 66.18 125.47 65.99 125.55 65.76 C125.64 65.52 125.68 65.24 125.68 64.9 C125.68 64.59 125.65 64.31 125.59 64.06 C125.53 63.81 125.43 63.6 125.29 63.42 C125.16 63.24 124.98 63.11 124.75 63.01 C124.52 62.92 124.24 62.87 123.91 62.87 L122.95 62.87 L122.95 66.74 Z M116.16 61.74 L118.73 65.85 L118.74 65.85 L118.74 61.74 L120.01 61.74 L120.01 67.87 L118.66 67.87 L116.1 63.76 L116.09 63.76 L116.09 67.87 L114.82 67.87 L114.82 61.74 L116.16 61.74 Z M112.61 67.41 C112.15 67.81 111.51 68.01 110.69 68.01 C109.85 68.01 109.21 67.81 108.76 67.41 C108.3 67.01 108.07 66.39 108.07 65.55 L108.07 61.74 L109.42 61.74 L109.42 65.55 C109.42 65.72 109.44 65.88 109.46 66.04 C109.49 66.2 109.55 66.34 109.65 66.47 C109.74 66.59 109.86 66.69 110.03 66.77 C110.19 66.85 110.41 66.88 110.69 66.88 C111.17 66.88 111.5 66.78 111.68 66.56 C111.87 66.35 111.96 66.01 111.96 65.55 L111.96 61.74 L113.31 61.74 L113.31 65.55 C113.31 66.38 113.08 67 112.61 67.41 Z"/>
  </g>
  <g transform="matrix(0.957767 0 0 0.956021 0 0)">
    <path fill="#a36b0d" d="M231.48 53.55 L231.48 52.41 L236.51 52.41 L236.51 53.55 L234.67 53.55 L234.67 58.55 L233.32 58.55 L233.32 53.55 Z M229.39 52.41 L231.68 58.55 L230.28 58.55 L229.82 57.18 L227.52 57.18 L227.04 58.55 L225.68 58.55 L228 52.41 Z M229.46 56.18 L228.69 53.92 L228.67 53.92 L227.87 56.18 Z M230.14 51.72 L228.98 51.72 L228.98 50.72 L230.14 50.72 Z M228.37 51.72 L227.21 51.72 L227.21 50.72 L228.37 50.72 Z M220.81 53.55 L220.81 52.41 L225.84 52.41 L225.84 53.55 L224 53.55 L224 58.55 L222.65 58.55 L222.65 53.55 Z M218.04 52.41 L218.04 57.42 L221.03 57.42 L221.03 58.55 L216.69 58.55 L216.69 52.41 L218.04 52.41 Z M214.52 58.08 C214.06 58.49 213.41 58.69 212.59 58.69 C211.76 58.69 211.12 58.49 210.66 58.09 C210.21 57.68 209.98 57.06 209.98 56.23 L209.98 52.41 L211.33 52.41 L211.33 56.23 C211.33 56.39 211.34 56.56 211.37 56.72 C211.4 56.88 211.46 57.02 211.55 57.14 C211.65 57.27 211.77 57.37 211.94 57.44 C212.1 57.52 212.32 57.56 212.59 57.56 C213.08 57.56 213.41 57.45 213.59 57.24 C213.78 57.02 213.87 56.69 213.87 56.23 L213.87 52.41 L215.22 52.41 L215.22 56.23 C215.22 57.06 214.98 57.68 214.52 58.08 Z M204.86 52.41 L204.86 54.96 L207.26 52.41 L208.94 52.41 L206.55 54.84 L209.18 58.55 L207.48 58.55 L205.64 55.79 L204.86 56.57 L204.86 58.55 L203.51 58.55 L203.51 52.41 L204.86 52.41 Z M200.29 52.41 L202.58 58.55 L201.18 58.55 L200.72 57.18 L198.42 57.18 L197.94 58.55 L196.58 58.55 L198.9 52.41 Z M200.36 56.18 L199.59 53.92 L199.57 53.92 L198.77 56.18 Z M196.59 52.41 L196.59 53.55 L193.62 53.55 L193.62 54.97 L196.19 54.97 L196.19 56.01 L193.62 56.01 L193.62 58.55 L192.27 58.55 L192.27 52.41 L196.59 52.41 Z M188.53 52.41 L188.53 53.55 L185.28 53.55 L185.28 54.86 L188.26 54.86 L188.26 55.91 L185.28 55.91 L185.28 57.42 L188.59 57.42 L188.59 58.55 L183.94 58.55 L183.94 52.41 L188.53 52.41 Z M178.55 52.41 L178.55 54.77 L181.04 54.77 L181.04 52.41 L182.39 52.41 L182.39 58.55 L181.04 58.55 L181.04 55.9 L178.55 55.9 L178.55 58.55 L177.2 58.55 L177.2 52.41 Z M174.5 54.05 C174.42 53.92 174.31 53.81 174.19 53.71 C174.07 53.61 173.94 53.54 173.79 53.48 C173.63 53.43 173.48 53.4 173.31 53.4 C173 53.4 172.75 53.46 172.54 53.58 C172.32 53.69 172.15 53.85 172.02 54.05 C171.89 54.25 171.79 54.47 171.73 54.72 C171.67 54.98 171.64 55.24 171.64 55.51 C171.64 55.76 171.67 56.02 171.73 56.26 C171.79 56.5 171.89 56.72 172.02 56.92 C172.15 57.11 172.32 57.27 172.54 57.38 C172.75 57.5 173.01 57.56 173.31 57.56 C173.72 57.56 174.04 57.44 174.28 57.18 C174.51 56.93 174.65 56.6 174.7 56.19 L176.01 56.19 C175.97 56.57 175.89 56.92 175.74 57.23 C175.6 57.54 175.41 57.8 175.18 58.02 C174.94 58.23 174.66 58.4 174.35 58.52 C174.04 58.63 173.69 58.69 173.31 58.69 C172.84 58.69 172.42 58.61 172.04 58.44 C171.67 58.28 171.35 58.05 171.09 57.77 C170.83 57.48 170.64 57.14 170.5 56.76 C170.36 56.37 170.29 55.95 170.29 55.51 C170.29 55.05 170.36 54.62 170.5 54.23 C170.64 53.84 170.83 53.5 171.09 53.2 C171.35 52.91 171.67 52.68 172.04 52.52 C172.42 52.35 172.84 52.27 173.31 52.27 C173.65 52.27 173.97 52.31 174.27 52.41 C174.57 52.51 174.84 52.65 175.08 52.84 C175.31 53.02 175.51 53.25 175.67 53.53 C175.82 53.8 175.92 54.12 175.96 54.47 L174.65 54.47 C174.63 54.32 174.58 54.18 174.5 54.05 Z M165.61 57.04 C165.69 57.18 165.79 57.3 165.91 57.39 C166.03 57.47 166.18 57.54 166.34 57.58 C166.51 57.63 166.68 57.65 166.86 57.65 C166.98 57.65 167.11 57.64 167.25 57.62 C167.39 57.6 167.51 57.56 167.64 57.5 C167.76 57.44 167.85 57.36 167.94 57.27 C168.02 57.17 168.06 57.04 168.06 56.88 C168.06 56.72 168 56.58 167.9 56.48 C167.79 56.38 167.65 56.29 167.48 56.22 C167.31 56.15 167.11 56.09 166.9 56.04 C166.68 55.99 166.46 55.93 166.23 55.87 C166.01 55.81 165.78 55.74 165.56 55.66 C165.35 55.57 165.15 55.47 164.98 55.34 C164.81 55.2 164.67 55.04 164.56 54.84 C164.46 54.64 164.4 54.4 164.4 54.12 C164.4 53.81 164.47 53.53 164.6 53.3 C164.74 53.07 164.92 52.88 165.13 52.72 C165.35 52.57 165.6 52.45 165.87 52.38 C166.15 52.3 166.42 52.27 166.7 52.27 C167.02 52.27 167.33 52.3 167.62 52.37 C167.92 52.44 168.18 52.56 168.41 52.72 C168.64 52.88 168.82 53.09 168.95 53.34 C169.09 53.59 169.16 53.89 169.16 54.24 L167.85 54.24 C167.84 54.06 167.8 53.91 167.73 53.79 C167.67 53.67 167.58 53.57 167.47 53.5 C167.36 53.44 167.24 53.39 167.1 53.36 C166.96 53.33 166.8 53.32 166.64 53.32 C166.53 53.32 166.42 53.33 166.31 53.35 C166.2 53.37 166.1 53.41 166.01 53.47 C165.92 53.53 165.85 53.6 165.79 53.69 C165.74 53.77 165.71 53.88 165.71 54.01 C165.71 54.13 165.73 54.23 165.78 54.3 C165.82 54.38 165.91 54.45 166.05 54.51 C166.18 54.57 166.37 54.64 166.61 54.7 C166.84 54.76 167.16 54.84 167.54 54.94 C167.65 54.96 167.81 55 168.02 55.06 C168.22 55.13 168.42 55.22 168.62 55.35 C168.82 55.48 169 55.66 169.14 55.88 C169.29 56.1 169.36 56.38 169.36 56.73 C169.36 57.01 169.31 57.27 169.2 57.51 C169.09 57.75 168.93 57.96 168.71 58.13 C168.5 58.31 168.23 58.44 167.91 58.54 C167.6 58.64 167.23 58.69 166.81 58.69 C166.47 58.69 166.14 58.65 165.83 58.56 C165.51 58.48 165.23 58.35 164.98 58.17 C164.74 57.99 164.55 57.77 164.4 57.49 C164.26 57.22 164.19 56.89 164.2 56.51 L165.5 56.51 C165.5 56.72 165.54 56.89 165.61 57.04 Z M162.95 58.55 L161.6 58.55 L161.6 52.41 L162.95 52.41 Z M156.22 52.41 L156.22 54.77 L158.7 54.77 L158.7 52.41 L160.06 52.41 L160.06 58.55 L158.7 58.55 L158.7 55.9 L156.22 55.9 L156.22 58.55 L154.87 58.55 L154.87 52.41 Z M151.67 52.41 C152.05 52.41 152.38 52.47 152.65 52.58 C152.92 52.69 153.14 52.84 153.31 53.02 C153.47 53.21 153.6 53.42 153.68 53.65 C153.75 53.88 153.79 54.13 153.79 54.38 C153.79 54.63 153.75 54.87 153.68 55.11 C153.6 55.34 153.47 55.56 153.31 55.74 C153.14 55.92 152.92 56.07 152.65 56.18 C152.38 56.29 152.05 56.35 151.67 56.35 L150.25 56.35 L150.25 58.55 L148.9 58.55 L148.9 52.41 L151.67 52.41 Z M151.3 55.3 C151.45 55.3 151.6 55.29 151.75 55.27 C151.89 55.24 152.02 55.2 152.12 55.13 C152.23 55.07 152.32 54.97 152.39 54.85 C152.45 54.73 152.49 54.58 152.49 54.38 C152.49 54.18 152.45 54.03 152.39 53.91 C152.32 53.79 152.23 53.69 152.12 53.63 C152.02 53.56 151.89 53.52 151.75 53.49 C151.6 53.47 151.45 53.46 151.3 53.46 L150.25 53.46 L150.25 55.3 L151.3 55.3 Z M141.95 54.23 C142.08 53.84 142.28 53.5 142.54 53.2 C142.8 52.91 143.11 52.68 143.49 52.52 C143.86 52.35 144.29 52.27 144.76 52.27 C145.23 52.27 145.66 52.35 146.03 52.52 C146.4 52.68 146.72 52.91 146.98 53.2 C147.23 53.5 147.43 53.84 147.57 54.23 C147.71 54.62 147.77 55.05 147.77 55.51 C147.77 55.95 147.71 56.37 147.57 56.76 C147.43 57.14 147.23 57.48 146.98 57.77 C146.72 58.05 146.4 58.28 146.03 58.44 C145.66 58.61 145.23 58.69 144.76 58.69 C144.29 58.69 143.86 58.61 143.49 58.44 C143.11 58.28 142.8 58.05 142.54 57.77 C142.28 57.48 142.08 57.14 141.95 56.76 C141.81 56.37 141.74 55.95 141.74 55.51 C141.74 55.05 141.81 54.62 141.95 54.23 Z M143.18 56.26 C143.24 56.5 143.34 56.72 143.47 56.92 C143.6 57.11 143.77 57.27 143.98 57.38 C144.2 57.5 144.45 57.56 144.76 57.56 C145.06 57.56 145.32 57.5 145.53 57.38 C145.74 57.27 145.91 57.11 146.05 56.92 C146.18 56.72 146.28 56.5 146.34 56.26 C146.4 56.02 146.43 55.76 146.43 55.51 C146.43 55.24 146.4 54.98 146.34 54.72 C146.27 54.47 146.18 54.25 146.05 54.05 C145.91 53.85 145.74 53.69 145.53 53.58 C145.32 53.46 145.06 53.4 144.76 53.4 C144.45 53.4 144.2 53.46 143.98 53.58 C143.77 53.69 143.6 53.85 143.47 54.05 C143.34 54.25 143.24 54.47 143.18 54.72 C143.12 54.98 143.09 55.24 143.09 55.51 C143.09 55.76 143.12 56.02 143.18 56.26 Z M137.06 57.04 C137.14 57.18 137.23 57.3 137.36 57.39 C137.48 57.47 137.63 57.54 137.79 57.58 C137.96 57.63 138.13 57.65 138.31 57.65 C138.43 57.65 138.56 57.64 138.7 57.62 C138.83 57.6 138.96 57.56 139.08 57.5 C139.2 57.44 139.3 57.36 139.38 57.27 C139.46 57.17 139.5 57.04 139.5 56.88 C139.5 56.72 139.45 56.58 139.35 56.48 C139.24 56.38 139.1 56.29 138.93 56.22 C138.76 56.15 138.56 56.09 138.34 56.04 C138.13 55.99 137.91 55.93 137.68 55.87 C137.45 55.81 137.23 55.74 137.01 55.66 C136.79 55.57 136.6 55.47 136.43 55.34 C136.26 55.2 136.12 55.04 136.01 54.84 C135.9 54.64 135.85 54.4 135.85 54.12 C135.85 53.81 135.92 53.53 136.05 53.3 C136.19 53.07 136.36 52.88 136.58 52.72 C136.8 52.57 137.05 52.45 137.32 52.38 C137.6 52.3 137.87 52.27 138.15 52.27 C138.47 52.27 138.77 52.3 139.07 52.37 C139.37 52.44 139.63 52.56 139.86 52.72 C140.09 52.88 140.27 53.09 140.4 53.34 C140.54 53.59 140.6 53.89 140.6 54.24 L139.3 54.24 C139.29 54.06 139.25 53.91 139.18 53.79 C139.12 53.67 139.03 53.57 138.92 53.5 C138.81 53.44 138.69 53.39 138.54 53.36 C138.4 53.33 138.25 53.32 138.08 53.32 C137.98 53.32 137.87 53.33 137.76 53.35 C137.65 53.37 137.55 53.41 137.46 53.47 C137.37 53.53 137.3 53.6 137.24 53.69 C137.18 53.77 137.16 53.88 137.16 54.01 C137.16 54.13 137.18 54.23 137.22 54.3 C137.27 54.38 137.36 54.45 137.5 54.51 C137.63 54.57 137.82 54.64 138.05 54.7 C138.29 54.76 138.6 54.84 138.99 54.94 C139.1 54.96 139.26 55 139.46 55.06 C139.67 55.13 139.87 55.22 140.07 55.35 C140.27 55.48 140.44 55.66 140.59 55.88 C140.74 56.1 140.81 56.38 140.81 56.73 C140.81 57.01 140.76 57.27 140.65 57.51 C140.54 57.75 140.38 57.96 140.16 58.13 C139.95 58.31 139.68 58.44 139.36 58.54 C139.04 58.64 138.68 58.69 138.26 58.69 C137.92 58.69 137.59 58.65 137.27 58.56 C136.96 58.48 136.67 58.35 136.43 58.17 C136.19 57.99 135.99 57.77 135.85 57.49 C135.71 57.22 135.64 56.89 135.64 56.51 L136.95 56.51 C136.95 56.72 136.99 56.89 137.06 57.04 Z M128.89 54.23 C129.03 53.84 129.22 53.5 129.48 53.2 C129.74 52.91 130.06 52.68 130.43 52.52 C130.81 52.35 131.23 52.27 131.7 52.27 C132.18 52.27 132.6 52.35 132.97 52.52 C133.35 52.68 133.66 52.91 133.92 53.2 C134.18 53.5 134.37 53.84 134.51 54.23 C134.65 54.62 134.72 55.05 134.72 55.51 C134.72 55.95 134.65 56.37 134.51 56.76 C134.37 57.14 134.18 57.48 133.92 57.77 C133.66 58.05 133.35 58.28 132.97 58.44 C132.6 58.61 132.18 58.69 131.7 58.69 C131.23 58.69 130.81 58.61 130.43 58.44 C130.06 58.28 129.74 58.05 129.48 57.77 C129.22 57.48 129.03 57.14 128.89 56.76 C128.75 56.37 128.68 55.95 128.68 55.51 C128.68 55.05 128.75 54.62 128.89 54.23 Z M130.12 56.26 C130.18 56.5 130.28 56.72 130.41 56.92 C130.54 57.11 130.71 57.27 130.93 57.38 C131.14 57.5 131.4 57.56 131.7 57.56 C132 57.56 132.26 57.5 132.47 57.38 C132.68 57.27 132.86 57.11 132.99 56.92 C133.12 56.72 133.22 56.5 133.28 56.26 C133.34 56.02 133.37 55.76 133.37 55.51 C133.37 55.24 133.34 54.98 133.28 54.72 C133.22 54.47 133.12 54.25 132.99 54.05 C132.86 53.85 132.68 53.69 132.47 53.58 C132.26 53.46 132 53.4 131.7 53.4 C131.4 53.4 131.14 53.46 130.93 53.58 C130.71 53.69 130.54 53.85 130.41 54.05 C130.28 54.25 130.18 54.47 130.12 54.72 C130.06 54.98 130.03 55.24 130.03 55.51 C130.03 55.76 130.06 56.02 130.12 56.26 Z M125.13 52.41 L125.13 57.42 L128.12 57.42 L128.12 58.55 L123.78 58.55 L123.78 52.41 L125.13 52.41 Z M122.19 58.55 L120.84 58.55 L120.84 52.41 L122.19 52.41 Z M115.42 52.41 L115.42 54.77 L117.9 54.77 L117.9 52.41 L119.25 52.41 L119.25 58.55 L117.9 58.55 L117.9 55.9 L115.42 55.9 L115.42 58.55 L114.07 58.55 L114.07 52.41 Z M110.87 52.41 C111.25 52.41 111.58 52.47 111.85 52.58 C112.11 52.69 112.33 52.84 112.5 53.02 C112.67 53.21 112.8 53.42 112.87 53.65 C112.95 53.88 112.99 54.13 112.99 54.38 C112.99 54.63 112.95 54.87 112.87 55.11 C112.8 55.34 112.67 55.56 112.5 55.74 C112.33 55.92 112.11 56.07 111.85 56.18 C111.58 56.29 111.25 56.35 110.87 56.35 L109.45 56.35 L109.45 58.55 L108.1 58.55 L108.1 52.41 L110.87 52.41 Z M110.5 55.3 C110.65 55.3 110.8 55.29 110.94 55.27 C111.09 55.24 111.21 55.2 111.32 55.13 C111.43 55.07 111.52 54.97 111.58 54.85 C111.65 54.73 111.68 54.58 111.68 54.38 C111.68 54.18 111.65 54.03 111.58 53.91 C111.52 53.79 111.43 53.69 111.32 53.63 C111.21 53.56 111.09 53.52 110.94 53.49 C110.8 53.47 110.65 53.46 110.5 53.46 L109.45 53.46 L109.45 55.3 L110.5 55.3 Z"/>
  </g>
  <g transform="matrix(0.957767 0 0 0.956021 0 0)">
    <path fill="#003366" d="M210.99 42.24 C210.69 42.37 210.4 42.43 210.1 42.43 C209.63 42.43 209.21 42.35 208.83 42.18 C208.46 42.02 208.14 41.8 207.88 41.51 C207.62 41.22 207.43 40.89 207.29 40.5 C207.15 40.11 207.08 39.69 207.08 39.25 C207.08 38.79 207.15 38.36 207.29 37.97 C207.43 37.58 207.62 37.24 207.88 36.94 C208.14 36.65 208.46 36.42 208.83 36.26 C209.21 36.09 209.63 36.01 210.1 36.01 C210.41 36.01 210.72 36.05 211.01 36.15 C211.31 36.24 211.58 36.38 211.81 36.57 C212.05 36.75 212.25 36.98 212.4 37.25 C212.56 37.52 212.65 37.82 212.69 38.17 L211.4 38.17 C211.32 37.83 211.16 37.57 210.93 37.4 C210.7 37.23 210.43 37.14 210.1 37.14 C209.79 37.14 209.54 37.2 209.33 37.32 C209.11 37.44 208.94 37.59 208.81 37.79 C208.68 37.99 208.58 38.22 208.52 38.47 C208.46 38.72 208.43 38.98 208.43 39.25 C208.43 39.51 208.46 39.76 208.52 40 C208.58 40.25 208.68 40.46 208.81 40.66 C208.94 40.85 209.11 41.01 209.33 41.13 C209.54 41.25 209.8 41.3 210.1 41.3 C210.55 41.3 210.89 41.19 211.14 40.96 C211.38 40.74 211.52 40.41 211.56 39.98 L210.2 39.98 L210.2 38.97 L212.78 38.97 L212.78 42.29 L211.92 42.29 L211.78 41.6 C211.54 41.9 211.28 42.12 210.99 42.24 Z M204.28 36.15 C204.55 36.15 204.8 36.2 205.02 36.29 C205.24 36.38 205.43 36.5 205.59 36.65 C205.74 36.81 205.87 36.98 205.95 37.19 C206.03 37.39 206.07 37.61 206.07 37.85 C206.07 38.21 206 38.52 205.84 38.78 C205.69 39.05 205.45 39.25 205.1 39.39 L205.1 39.4 C205.27 39.45 205.41 39.52 205.51 39.61 C205.62 39.71 205.71 39.82 205.78 39.95 C205.85 40.08 205.9 40.22 205.93 40.38 C205.96 40.53 205.98 40.68 205.99 40.84 C206 40.94 206.01 41.05 206.01 41.18 C206.02 41.31 206.03 41.45 206.04 41.59 C206.06 41.72 206.08 41.86 206.11 41.98 C206.14 42.1 206.19 42.21 206.25 42.29 L204.9 42.29 C204.83 42.1 204.78 41.86 204.76 41.6 C204.75 41.33 204.72 41.07 204.69 40.82 C204.64 40.5 204.54 40.27 204.4 40.12 C204.25 39.97 204 39.89 203.66 39.89 L202.32 39.89 L202.32 42.29 L200.96 42.29 L200.96 36.15 L204.28 36.15 Z M203.8 38.93 C204.11 38.93 204.34 38.86 204.49 38.72 C204.65 38.59 204.72 38.36 204.72 38.05 C204.72 37.75 204.65 37.54 204.49 37.4 C204.34 37.27 204.11 37.2 203.8 37.2 L202.32 37.2 L202.32 38.93 L203.8 38.93 Z M199.56 36.15 L199.56 37.29 L196.32 37.29 L196.32 38.6 L199.29 38.6 L199.29 39.65 L196.32 39.65 L196.32 41.16 L199.63 41.16 L199.63 42.29 L194.97 42.29 L194.97 36.15 L199.56 36.15 Z M191.5 41.24 C191.63 41.24 191.75 41.23 191.87 41.2 C191.99 41.18 192.1 41.13 192.19 41.07 C192.28 41.01 192.36 40.93 192.41 40.83 C192.47 40.73 192.49 40.59 192.49 40.43 C192.49 40.12 192.4 39.89 192.23 39.76 C192.05 39.62 191.81 39.56 191.52 39.56 L190.05 39.56 L190.05 41.24 L191.5 41.24 Z M191.59 36.15 C191.88 36.15 192.15 36.18 192.39 36.23 C192.63 36.28 192.84 36.37 193.01 36.48 C193.18 36.6 193.32 36.76 193.41 36.95 C193.5 37.15 193.55 37.39 193.55 37.67 C193.55 37.98 193.48 38.24 193.34 38.45 C193.2 38.65 192.99 38.82 192.72 38.96 C193.1 39.06 193.38 39.25 193.56 39.53 C193.75 39.8 193.84 40.13 193.84 40.51 C193.84 40.82 193.78 41.09 193.66 41.31 C193.54 41.54 193.38 41.73 193.18 41.87 C192.97 42.01 192.74 42.12 192.48 42.19 C192.22 42.26 191.95 42.29 191.68 42.29 L188.7 42.29 L188.7 36.15 L191.59 36.15 Z M191.42 38.64 C191.66 38.64 191.86 38.58 192.01 38.46 C192.17 38.35 192.24 38.16 192.24 37.9 C192.24 37.76 192.22 37.64 192.17 37.55 C192.12 37.46 192.05 37.39 191.96 37.34 C191.87 37.29 191.78 37.25 191.66 37.23 C191.55 37.21 191.44 37.2 191.32 37.2 L190.05 37.2 L190.05 38.64 Z M183.31 36.15 L185.87 40.27 L185.89 40.27 L185.89 36.15 L187.15 36.15 L187.15 42.29 L185.81 42.29 L183.25 38.18 L183.23 38.18 L183.23 42.29 L181.97 42.29 L181.97 36.15 Z M178.78 36.15 C179.06 36.15 179.3 36.2 179.53 36.29 C179.75 36.38 179.93 36.5 180.09 36.65 C180.25 36.81 180.37 36.98 180.45 37.19 C180.54 37.39 180.58 37.61 180.58 37.85 C180.58 38.21 180.5 38.52 180.35 38.78 C180.2 39.05 179.95 39.25 179.61 39.39 L179.61 39.4 C179.77 39.45 179.91 39.52 180.02 39.61 C180.13 39.71 180.22 39.82 180.29 39.95 C180.35 40.08 180.4 40.22 180.44 40.38 C180.47 40.53 180.49 40.68 180.5 40.84 C180.51 40.94 180.51 41.05 180.52 41.18 C180.52 41.31 180.53 41.45 180.55 41.59 C180.56 41.72 180.58 41.86 180.62 41.98 C180.65 42.1 180.69 42.21 180.76 42.29 L179.41 42.29 C179.33 42.1 179.29 41.86 179.27 41.6 C179.25 41.33 179.23 41.07 179.19 40.82 C179.15 40.5 179.05 40.27 178.9 40.12 C178.75 39.97 178.51 39.89 178.17 39.89 L176.82 39.89 L176.82 42.29 L175.47 42.29 L175.47 36.15 L178.78 36.15 Z M178.3 38.93 C178.61 38.93 178.84 38.86 179 38.72 C179.15 38.59 179.23 38.36 179.23 38.05 C179.23 37.75 179.15 37.54 179 37.4 C178.84 37.27 178.61 37.2 178.3 37.2 L176.82 37.2 L176.82 38.93 L178.3 38.93 Z M173.39 41.82 C172.93 42.23 172.28 42.43 171.46 42.43 C170.63 42.43 169.99 42.23 169.53 41.83 C169.08 41.42 168.85 40.8 168.85 39.97 L168.85 36.15 L170.2 36.15 L170.2 39.97 C170.2 40.13 170.21 40.3 170.24 40.46 C170.27 40.62 170.33 40.76 170.42 40.88 C170.52 41.01 170.64 41.11 170.81 41.19 C170.97 41.26 171.19 41.3 171.46 41.3 C171.94 41.3 172.28 41.19 172.46 40.98 C172.64 40.76 172.74 40.43 172.74 39.97 L172.74 36.15 L174.09 36.15 L174.09 39.97 C174.09 40.8 173.85 41.42 173.39 41.82 Z M172.93 35.46 L171.77 35.46 L171.77 34.46 L172.93 34.46 Z M171.16 35.46 L170 35.46 L170 34.46 L171.16 34.46 Z M163.53 36.15 L166.09 40.27 L166.11 40.27 L166.11 36.15 L167.37 36.15 L167.37 42.29 L166.02 42.29 L163.47 38.18 L163.45 38.18 L163.45 42.29 L162.19 42.29 L162.19 36.15 Z M160.64 40.47 L158.05 40.47 L158.05 39.42 L160.64 39.42 Z M152.68 36.15 L155.24 40.27 L155.26 40.27 L155.26 36.15 L156.52 36.15 L156.52 42.29 L155.17 42.29 L152.62 38.18 L152.6 38.18 L152.6 42.29 L151.33 42.29 L151.33 36.15 Z M149.93 36.15 L149.93 37.29 L146.69 37.29 L146.69 38.6 L149.66 38.6 L149.66 39.65 L146.69 39.65 L146.69 41.16 L150 41.16 L150 42.29 L145.34 42.29 L145.34 36.15 L149.93 36.15 Z M142.22 42.24 C141.92 42.37 141.63 42.43 141.33 42.43 C140.86 42.43 140.44 42.35 140.06 42.18 C139.69 42.02 139.37 41.8 139.11 41.51 C138.85 41.22 138.66 40.89 138.52 40.5 C138.38 40.11 138.31 39.69 138.31 39.25 C138.31 38.79 138.38 38.36 138.52 37.97 C138.66 37.58 138.85 37.24 139.11 36.94 C139.37 36.65 139.69 36.42 140.06 36.26 C140.44 36.09 140.86 36.01 141.33 36.01 C141.65 36.01 141.95 36.05 142.25 36.15 C142.54 36.24 142.81 36.38 143.05 36.57 C143.28 36.75 143.48 36.98 143.63 37.25 C143.79 37.52 143.88 37.82 143.92 38.17 L142.63 38.17 C142.55 37.83 142.39 37.57 142.16 37.4 C141.93 37.23 141.66 37.14 141.33 37.14 C141.03 37.14 140.77 37.2 140.56 37.32 C140.34 37.44 140.17 37.59 140.04 37.79 C139.91 37.99 139.81 38.22 139.75 38.47 C139.69 38.72 139.66 38.98 139.66 39.25 C139.66 39.51 139.69 39.76 139.75 40 C139.81 40.25 139.91 40.46 140.04 40.66 C140.17 40.85 140.34 41.01 140.56 41.13 C140.77 41.25 141.03 41.3 141.33 41.3 C141.78 41.3 142.12 41.19 142.37 40.96 C142.61 40.74 142.75 40.41 142.79 39.98 L141.43 39.98 L141.43 38.97 L144.01 38.97 L144.01 42.29 L143.15 42.29 L143.02 41.6 C142.77 41.9 142.51 42.12 142.22 42.24 Z M133.34 36.15 L135.91 40.27 L135.92 40.27 L135.92 36.15 L137.19 36.15 L137.19 42.29 L135.84 42.29 L133.28 38.18 L133.27 38.18 L133.27 42.29 L132 42.29 L132 36.15 Z M128.94 36.15 L131.24 42.29 L129.84 42.29 L129.37 40.92 L127.08 40.92 L126.6 42.29 L125.24 42.29 L127.56 36.15 Z M129.02 39.92 L128.25 37.67 L128.23 37.67 L127.43 39.92 Z M121.69 36.15 L121.69 41.16 L124.68 41.16 L124.68 42.29 L120.34 42.29 L120.34 36.15 L121.69 36.15 Z M117.32 36.15 C117.6 36.15 117.84 36.2 118.06 36.29 C118.28 36.38 118.47 36.5 118.63 36.65 C118.79 36.81 118.91 36.98 118.99 37.19 C119.08 37.39 119.12 37.61 119.12 37.85 C119.12 38.21 119.04 38.52 118.89 38.78 C118.74 39.05 118.49 39.25 118.15 39.39 L118.15 39.4 C118.31 39.45 118.45 39.52 118.56 39.61 C118.67 39.71 118.76 39.82 118.82 39.95 C118.89 40.08 118.94 40.22 118.98 40.38 C119.01 40.53 119.03 40.68 119.04 40.84 C119.05 40.94 119.05 41.05 119.06 41.18 C119.06 41.31 119.07 41.45 119.09 41.59 C119.1 41.72 119.12 41.86 119.16 41.98 C119.19 42.1 119.23 42.21 119.3 42.29 L117.95 42.29 C117.87 42.1 117.83 41.86 117.81 41.6 C117.79 41.33 117.77 41.07 117.73 40.82 C117.69 40.5 117.59 40.27 117.44 40.12 C117.29 39.97 117.05 39.89 116.71 39.89 L115.36 39.89 L115.36 42.29 L114.01 42.29 L114.01 36.15 L117.32 36.15 Z M116.84 38.93 C117.15 38.93 117.38 38.86 117.53 38.72 C117.69 38.59 117.77 38.36 117.77 38.05 C117.77 37.75 117.69 37.54 117.53 37.4 C117.38 37.27 117.15 37.2 116.84 37.2 L115.36 37.2 L115.36 38.93 L116.84 38.93 Z M112.69 36.15 L112.69 37.29 L109.45 37.29 L109.45 38.6 L112.42 38.6 L112.42 39.65 L109.45 39.65 L109.45 41.16 L112.76 41.16 L112.76 42.29 L108.1 42.29 L108.1 36.15 L112.69 36.15 Z"/>
  </g>
  <g transform="matrix(0.957767 0 0 0.956021 0 0)">
    <path fill="#003366" d="M161.99 28 L161.99 26.87 L167.02 26.87 L167.02 28 L165.18 28 L165.18 33.01 L163.83 33.01 L163.83 28 Z M159.83 26.87 L162.12 33.01 L160.72 33.01 L160.26 31.64 L157.96 31.64 L157.48 33.01 L156.12 33.01 L158.44 26.87 Z M159.9 30.63 L159.13 28.38 L159.11 28.38 L158.31 30.63 Z M160.58 26.18 L159.42 26.18 L159.42 25.17 L160.58 25.17 Z M158.81 26.18 L157.65 26.18 L157.65 25.17 L158.81 25.17 Z M151.19 28 L151.19 26.87 L156.22 26.87 L156.22 28 L154.38 28 L154.38 33.01 L153.02 33.01 L153.02 28 Z M150.1 33.01 L148.75 33.01 L148.75 26.87 L150.1 26.87 Z M143.83 31.49 C143.9 31.64 144 31.75 144.12 31.84 C144.25 31.93 144.39 31.99 144.56 32.04 C144.72 32.08 144.9 32.1 145.07 32.1 C145.19 32.1 145.32 32.09 145.46 32.07 C145.6 32.05 145.73 32.01 145.85 31.96 C145.97 31.9 146.07 31.82 146.15 31.72 C146.23 31.62 146.27 31.49 146.27 31.34 C146.27 31.17 146.22 31.04 146.11 30.93 C146.01 30.83 145.87 30.74 145.69 30.68 C145.52 30.61 145.33 30.55 145.11 30.49 C144.89 30.44 144.67 30.39 144.45 30.32 C144.22 30.27 143.99 30.2 143.78 30.11 C143.56 30.03 143.36 29.92 143.19 29.79 C143.02 29.66 142.88 29.49 142.78 29.3 C142.67 29.1 142.62 28.86 142.62 28.58 C142.62 28.26 142.68 27.99 142.82 27.76 C142.95 27.52 143.13 27.33 143.35 27.18 C143.56 27.02 143.81 26.91 144.09 26.83 C144.36 26.76 144.64 26.72 144.91 26.72 C145.23 26.72 145.54 26.76 145.84 26.83 C146.13 26.9 146.39 27.02 146.62 27.18 C146.85 27.34 147.03 27.54 147.17 27.79 C147.3 28.04 147.37 28.34 147.37 28.7 L146.06 28.7 C146.05 28.52 146.01 28.36 145.95 28.24 C145.88 28.12 145.79 28.03 145.68 27.96 C145.58 27.89 145.45 27.84 145.31 27.81 C145.17 27.78 145.02 27.77 144.85 27.77 C144.74 27.77 144.63 27.78 144.52 27.8 C144.42 27.83 144.32 27.87 144.23 27.92 C144.14 27.98 144.07 28.05 144.01 28.14 C143.95 28.22 143.92 28.33 143.92 28.47 C143.92 28.59 143.94 28.68 143.99 28.76 C144.04 28.83 144.13 28.9 144.26 28.96 C144.4 29.03 144.58 29.09 144.82 29.15 C145.06 29.22 145.37 29.3 145.75 29.39 C145.87 29.42 146.03 29.46 146.23 29.52 C146.43 29.58 146.64 29.68 146.84 29.81 C147.04 29.94 147.21 30.12 147.36 30.34 C147.5 30.56 147.58 30.84 147.58 31.18 C147.58 31.46 147.52 31.72 147.41 31.96 C147.31 32.21 147.14 32.41 146.93 32.59 C146.71 32.76 146.45 32.9 146.13 33 C145.81 33.09 145.44 33.14 145.02 33.14 C144.69 33.14 144.36 33.1 144.04 33.02 C143.72 32.94 143.44 32.8 143.2 32.63 C142.95 32.45 142.76 32.22 142.62 31.95 C142.47 31.67 142.41 31.35 142.41 30.97 L143.72 30.97 C143.72 31.17 143.75 31.35 143.83 31.49 Z M139.65 26.87 C139.92 26.87 140.17 26.91 140.39 27 C140.61 27.09 140.8 27.21 140.96 27.37 C141.12 27.52 141.24 27.7 141.32 27.9 C141.4 28.11 141.44 28.33 141.44 28.56 C141.44 28.92 141.37 29.23 141.22 29.5 C141.06 29.76 140.82 29.96 140.47 30.1 L140.47 30.12 C140.64 30.16 140.78 30.23 140.89 30.33 C140.99 30.42 141.08 30.53 141.15 30.66 C141.22 30.79 141.27 30.93 141.3 31.09 C141.33 31.24 141.36 31.4 141.37 31.55 C141.37 31.65 141.38 31.76 141.38 31.9 C141.39 32.03 141.4 32.16 141.41 32.3 C141.43 32.44 141.45 32.57 141.48 32.69 C141.51 32.81 141.56 32.92 141.62 33.01 L140.27 33.01 C140.2 32.81 140.15 32.58 140.14 32.31 C140.12 32.04 140.09 31.78 140.06 31.54 C140.01 31.21 139.92 30.98 139.77 30.83 C139.62 30.68 139.37 30.61 139.04 30.61 L137.69 30.61 L137.69 33.01 L136.34 33.01 L136.34 26.87 Z M139.17 29.64 C139.48 29.64 139.71 29.58 139.86 29.44 C140.02 29.3 140.1 29.08 140.1 28.77 C140.1 28.47 140.02 28.25 139.86 28.12 C139.71 27.98 139.48 27.92 139.17 27.92 L137.69 27.92 L137.69 29.64 L139.17 29.64 Z M135.02 26.87 L135.02 28 L131.78 28 L131.78 29.32 L134.75 29.32 L134.75 30.37 L131.78 30.37 L131.78 31.87 L135.09 31.87 L135.09 33.01 L130.43 33.01 L130.43 26.87 Z M125.87 33.01 L123.88 26.87 L125.27 26.87 L126.64 31.18 L126.65 31.18 L128.04 26.87 L129.43 26.87 L127.39 33.01 Z M122.91 33.01 L121.56 33.01 L121.56 26.87 L122.91 26.87 Z M116.21 26.87 L118.77 30.99 L118.79 30.99 L118.79 26.87 L120.06 26.87 L120.06 33.01 L118.71 33.01 L116.15 28.9 L116.14 28.9 L116.14 33.01 L114.87 33.01 L114.87 26.87 Z M112.65 32.54 C112.19 32.94 111.55 33.14 110.73 33.14 C109.9 33.14 109.25 32.94 108.8 32.54 C108.34 32.14 108.11 31.52 108.11 30.68 L108.11 26.87 L109.46 26.87 L109.46 30.68 C109.46 30.85 109.48 31.01 109.51 31.17 C109.54 31.33 109.6 31.48 109.69 31.6 C109.78 31.72 109.91 31.82 110.07 31.9 C110.23 31.98 110.45 32.02 110.73 32.02 C111.21 32.02 111.54 31.91 111.73 31.69 C111.91 31.48 112 31.14 112 30.68 L112 26.87 L113.35 26.87 L113.35 30.68 C113.35 31.52 113.12 32.13 112.65 32.54 Z"/>
  </g>
  <g transform="matrix(0.957767 0 0 0.956021 0 0)">
    <path fill="#003366" d="M214.65 17.47 C214.93 17.47 215.17 17.51 215.4 17.6 C215.62 17.69 215.8 17.81 215.96 17.97 C216.12 18.12 216.24 18.3 216.32 18.5 C216.41 18.71 216.45 18.93 216.45 19.16 C216.45 19.52 216.37 19.83 216.22 20.1 C216.07 20.36 215.82 20.56 215.47 20.7 L215.47 20.72 C215.64 20.76 215.78 20.83 215.89 20.93 C216 21.02 216.09 21.13 216.15 21.26 C216.22 21.39 216.27 21.53 216.3 21.69 C216.34 21.84 216.36 22 216.37 22.15 C216.37 22.25 216.38 22.37 216.39 22.5 C216.39 22.63 216.4 22.76 216.42 22.9 C216.43 23.04 216.45 23.17 216.48 23.29 C216.52 23.42 216.56 23.52 216.63 23.61 L215.28 23.61 C215.2 23.41 215.16 23.18 215.14 22.91 C215.12 22.64 215.1 22.38 215.06 22.14 C215.02 21.82 214.92 21.58 214.77 21.43 C214.62 21.28 214.38 21.21 214.04 21.21 L212.69 21.21 L212.69 23.61 L211.34 23.61 L211.34 17.47 L214.65 17.47 M214.17 20.24 C214.48 20.24 214.71 20.18 214.87 20.04 C215.02 19.9 215.1 19.68 215.1 19.37 C215.1 19.07 215.02 18.85 214.87 18.72 C214.71 18.58 214.48 18.52 214.17 18.52 L212.69 18.52 L212.69 20.24 Z M210.06 17.47 L210.06 18.6 L206.82 18.6 L206.82 19.92 L209.8 19.92 L209.8 20.97 L206.82 20.97 L206.82 22.47 L210.13 22.47 L210.13 23.61 L205.47 23.61 L205.47 17.47 Z M201.58 17.47 C201.97 17.47 202.34 17.53 202.68 17.66 C203.02 17.78 203.32 17.97 203.57 18.22 C203.82 18.48 204.01 18.79 204.15 19.17 C204.29 19.55 204.36 19.99 204.36 20.5 C204.36 20.95 204.3 21.36 204.19 21.74 C204.08 22.12 203.9 22.44 203.67 22.72 C203.44 23 203.15 23.21 202.8 23.37 C202.45 23.53 202.05 23.61 201.58 23.61 L198.93 23.61 L198.93 17.47 Z M201.48 22.47 C201.68 22.47 201.87 22.44 202.05 22.38 C202.23 22.31 202.4 22.21 202.54 22.06 C202.68 21.92 202.8 21.73 202.88 21.49 C202.97 21.26 203.01 20.97 203.01 20.63 C203.01 20.32 202.98 20.04 202.92 19.79 C202.86 19.54 202.76 19.33 202.62 19.15 C202.49 18.97 202.31 18.84 202.08 18.74 C201.85 18.65 201.57 18.6 201.24 18.6 L200.28 18.6 L200.28 22.47 L201.48 22.47 Z M193.64 17.47 L196.2 21.59 L196.22 21.59 L196.22 17.47 L197.49 17.47 L197.49 23.61 L196.14 23.61 L193.58 19.5 L193.56 19.5 L193.56 23.61 L192.3 23.61 L192.3 17.47 L193.64 17.47 Z M189.2 17.47 L191.5 23.61 L190.1 23.61 L189.63 22.24 L187.34 22.24 L186.86 23.61 L185.5 23.61 L187.82 17.47 Z M189.28 21.23 L188.51 18.98 L188.49 18.98 L187.69 21.23 Z M179.33 17.47 L180.9 17.47 L182.1 19.43 L183.35 17.47 L184.83 17.47 L182.86 20.4 L185 23.61 L183.39 23.61 L182.05 21.48 L180.68 23.61 L179.17 23.61 L181.31 20.39 Z M178.29 17.47 L178.29 18.6 L175.05 18.6 L175.05 19.92 L178.03 19.92 L178.03 20.97 L175.05 20.97 L175.05 22.47 L178.36 22.47 L178.36 23.61 L173.7 23.61 L173.7 17.47 Z M169.63 17.47 L169.63 22.47 L172.62 22.47 L172.62 23.61 L168.28 23.61 L168.28 17.47 Z M165.06 17.47 L167.35 23.61 L165.95 23.61 L165.49 22.24 L163.19 22.24 L162.71 23.61 L161.35 23.61 L163.67 17.47 Z M165.13 21.23 L164.36 18.98 L164.34 18.98 L163.54 21.23 Z M160.7 21.78 L158.12 21.78 L158.12 20.73 L160.7 20.73 Z M152.75 17.47 L152.75 19.82 L155.23 19.82 L155.23 17.47 L156.58 17.47 L156.58 23.61 L155.23 23.61 L155.23 20.96 L152.75 20.96 L152.75 23.61 L151.4 23.61 L151.4 17.47 Z M148.65 19.11 C148.57 18.98 148.47 18.86 148.35 18.77 C148.23 18.67 148.09 18.59 147.94 18.54 C147.79 18.48 147.63 18.46 147.46 18.46 C147.16 18.46 146.9 18.51 146.69 18.63 C146.48 18.75 146.31 18.91 146.17 19.11 C146.04 19.3 145.95 19.53 145.89 19.78 C145.82 20.03 145.8 20.29 145.8 20.56 C145.8 20.82 145.82 21.07 145.89 21.31 C145.95 21.56 146.04 21.78 146.17 21.97 C146.31 22.17 146.48 22.32 146.69 22.44 C146.9 22.56 147.16 22.62 147.46 22.62 C147.88 22.62 148.2 22.49 148.43 22.24 C148.66 21.99 148.8 21.65 148.86 21.24 L150.16 21.24 C150.13 21.63 150.04 21.97 149.9 22.28 C149.75 22.59 149.56 22.85 149.33 23.07 C149.09 23.29 148.82 23.46 148.5 23.57 C148.19 23.69 147.84 23.74 147.46 23.74 C146.99 23.74 146.57 23.66 146.2 23.5 C145.82 23.33 145.5 23.11 145.25 22.82 C144.99 22.54 144.79 22.2 144.65 21.81 C144.51 21.43 144.45 21.01 144.45 20.56 C144.45 20.1 144.51 19.68 144.65 19.29 C144.79 18.89 144.99 18.55 145.25 18.26 C145.5 17.97 145.82 17.74 146.2 17.57 C146.57 17.4 146.99 17.32 147.46 17.32 C147.8 17.32 148.12 17.37 148.42 17.47 C148.72 17.57 148.99 17.71 149.23 17.89 C149.47 18.08 149.67 18.31 149.82 18.59 C149.97 18.86 150.07 19.18 150.11 19.53 L148.81 19.53 C148.78 19.38 148.73 19.23 148.65 19.11 Z M143.26 23.61 L141.91 23.61 L141.91 17.47 L143.26 17.47 Z M138.75 17.47 C139.03 17.47 139.28 17.51 139.5 17.6 C139.72 17.69 139.91 17.81 140.07 17.97 C140.22 18.12 140.34 18.3 140.43 18.5 C140.51 18.71 140.55 18.93 140.55 19.16 C140.55 19.52 140.47 19.83 140.32 20.1 C140.17 20.36 139.92 20.56 139.58 20.7 L139.58 20.72 C139.74 20.76 139.88 20.83 139.99 20.93 C140.1 21.02 140.19 21.13 140.26 21.26 C140.33 21.39 140.38 21.53 140.41 21.69 C140.44 21.84 140.46 22 140.47 22.15 C140.48 22.25 140.48 22.37 140.49 22.5 C140.5 22.63 140.51 22.76 140.52 22.9 C140.53 23.04 140.56 23.17 140.59 23.29 C140.62 23.42 140.67 23.52 140.73 23.61 L139.38 23.61 C139.31 23.41 139.26 23.18 139.24 22.91 C139.22 22.64 139.2 22.38 139.17 22.14 C139.12 21.82 139.02 21.58 138.87 21.43 C138.72 21.28 138.48 21.21 138.14 21.21 L136.79 21.21 L136.79 23.61 L135.44 23.61 L135.44 17.47 L138.75 17.47 Z M138.27 20.24 C138.58 20.24 138.81 20.18 138.97 20.04 C139.12 19.9 139.2 19.68 139.2 19.37 C139.2 19.07 139.12 18.85 138.97 18.72 C138.81 18.58 138.58 18.52 138.27 18.52 L136.79 18.52 L136.79 20.24 Z M131.56 17.47 C131.96 17.47 132.33 17.53 132.67 17.66 C133.01 17.78 133.3 17.97 133.55 18.22 C133.8 18.48 134 18.79 134.14 19.17 C134.28 19.55 134.35 19.99 134.35 20.5 C134.35 20.95 134.29 21.36 134.18 21.74 C134.06 22.12 133.89 22.44 133.66 22.72 C133.42 23 133.14 23.21 132.79 23.37 C132.44 23.53 132.03 23.61 131.56 23.61 L128.92 23.61 L128.92 17.47 Z M131.47 22.47 C131.66 22.47 131.85 22.44 132.04 22.38 C132.22 22.31 132.38 22.21 132.53 22.06 C132.67 21.92 132.78 21.73 132.87 21.49 C132.96 21.26 133 20.97 133 20.63 C133 20.32 132.97 20.04 132.91 19.79 C132.85 19.54 132.75 19.33 132.61 19.15 C132.47 18.97 132.29 18.84 132.07 18.74 C131.84 18.65 131.56 18.6 131.23 18.6 L130.27 18.6 L130.27 22.47 L131.47 22.47 Z M127.59 17.47 L127.59 18.6 L124.35 18.6 L124.35 19.92 L127.33 19.92 L127.33 20.97 L124.35 20.97 L124.35 22.47 L127.66 22.47 L127.66 23.61 L123 23.61 L123 17.47 Z M121.46 23.61 L120.11 23.61 L120.11 17.47 L121.46 17.47 Z M116.82 17.47 C117.1 17.47 117.34 17.51 117.56 17.6 C117.78 17.69 117.97 17.81 118.13 17.97 C118.29 18.12 118.41 18.3 118.49 18.5 C118.58 18.71 118.62 18.93 118.62 19.16 C118.62 19.52 118.54 19.83 118.39 20.1 C118.24 20.36 117.99 20.56 117.65 20.7 L117.65 20.72 C117.81 20.76 117.95 20.83 118.06 20.93 C118.17 21.02 118.26 21.13 118.32 21.26 C118.39 21.39 118.44 21.53 118.47 21.69 C118.51 21.84 118.53 22 118.54 22.15 C118.55 22.25 118.55 22.37 118.56 22.5 C118.56 22.63 118.57 22.76 118.59 22.9 C118.6 23.04 118.62 23.17 118.66 23.29 C118.69 23.42 118.73 23.52 118.8 23.61 L117.45 23.61 C117.37 23.41 117.33 23.18 117.31 22.91 C117.29 22.64 117.27 22.38 117.23 22.14 C117.19 21.82 117.09 21.58 116.94 21.43 C116.79 21.28 116.55 21.21 116.21 21.21 L114.86 21.21 L114.86 23.61 L113.51 23.61 L113.51 17.47 L116.82 17.47 Z M116.34 20.24 C116.65 20.24 116.88 20.18 117.03 20.04 C117.19 19.9 117.27 19.68 117.27 19.37 C117.27 19.07 117.19 18.85 117.03 18.72 C116.88 18.58 116.65 18.52 116.34 18.52 L114.86 18.52 L114.86 20.24 Z M112.41 17.47 L112.41 18.6 L109.45 18.6 L109.45 20.02 L112.02 20.02 L112.02 21.07 L109.45 21.07 L109.45 23.61 L108.1 23.61 L108.1 17.47 L112.41 17.47 Z"/>
  </g>
  <g transform="matrix(0.957767 0 0 0.956021 0 0)">
    <path fill="#003366" d="M94.65 39.38 L69.05 39.38 C70.63 40.66 72.45 41.63 74.37 42.3 L89.31 42.3 C91.25 41.63 93.07 40.66 94.65 39.38 Z"/>
  </g>
  <g transform="matrix(0.957767 0 0 0.956021 0 0)">
    <path fill="#003366" d="M24.19 37.92 L35.28 37.92 L35.3 37.87 L35.27 37.87 L36.18 35 L25.29 35 Z"/>
  </g>
  <g transform="matrix(0.957767 0 0 0.956021 0 0)">
    <path fill="#003366" d="M23.68 39.38 L22.57 42.3 L33.87 42.3 L34.84 39.38 Z"/>
  </g>
  <g transform="matrix(0.957767 0 0 0.956021 0 0)">
    <rect fill="#003366" x="0.01" y="39.38" width="10.58" height="2.92"/>
  </g>
  <g transform="matrix(0.957767 0 0 0.956021 0 0)">
    <rect fill="#003366" x="0.01" y="35" width="10.58" height="2.92"/>
  </g>
  <g transform="matrix(0.957767 0 0 0.956021 0 0)">
    <rect fill="#003366" x="0.01" y="30.63" width="10.58" height="2.92"/>
  </g>
  <g transform="matrix(0.957767 0 0 0.956021 0 0)">
    <rect fill="#003366" x="0.01" y="26.26" width="10.58" height="2.92"/>
  </g>
  <g transform="matrix(0.957767 0 0 0.956021 0 0)">
    <rect fill="#003366" x="0.01" y="13.13" width="10.58" height="2.92"/>
  </g>
  <g transform="matrix(0.957767 0 0 0.956021 0 0)">
    <rect fill="#003366" x="0.01" y="8.75" width="10.58" height="2.92"/>
  </g>
  <g transform="matrix(0.957767 0 0 0.956021 0 0)">
    <rect fill="#003366" x="0.01" y="0" width="32.36" height="2.91"/>
  </g>
  <g transform="matrix(0.957767 0 0 0.956021 0 0)">
    <rect fill="#003366" x="0.01" y="4.37" width="32.36" height="2.92"/>
  </g>
  <g transform="matrix(0.957767 0 0 0.956021 0 0)">
    <path fill="#003366" d="M42.91 13.13 L33.35 13.13 L32.25 16.04 L42.01 16.04 Z"/>
  </g>
  <g transform="matrix(0.957767 0 0 0.956021 0 0)">
    <path fill="#003366" d="M37.09 2.92 L50.28 2.92 L49.15 0 L38.19 0 Z"/>
  </g>
  <g transform="matrix(0.957767 0 0 0.956021 0 0)">
    <path fill="#003366" d="M35.48 7.29 L51.92 7.29 L50.79 4.37 L36.58 4.37 Z"/>
  </g>
  <g transform="matrix(0.957767 0 0 0.956021 0 0)">
    <path fill="#003366" d="M44.26 11.67 L53.57 11.67 L52.44 8.75 L34.97 8.75 L33.86 11.67 L43.32 11.67 L43.73 10.33 L43.85 10.33 Z"/>
  </g>
  <g transform="matrix(0.957767 0 0 0.956021 0 0)">
    <path fill="#003366" d="M45.57 16.04 L55.22 16.04 L54.09 13.13 L44.67 13.13 Z"/>
  </g>
  <g transform="matrix(0.957767 0 0 0.956021 0 0)">
    <path fill="#a36b0d" d="M46.87 20.41 L56.87 20.41 L55.74 17.5 L45.98 17.5 Z"/>
  </g>
  <g transform="matrix(0.957767 0 0 0.956021 0 0)">
    <path fill="#a36b0d" d="M48.18 24.79 L58.53 24.79 L57.39 21.87 L47.28 21.87 Z"/>
  </g>
  <g transform="matrix(0.957767 0 0 0.956021 0 0)">
    <path fill="#003366" d="M27.41 29.17 L60.17 29.17 L59.04 26.26 L28.52 26.26 Z"/>
  </g>
  <g transform="matrix(0.957767 0 0 0.956021 0 0)">
    <path fill="#003366" d="M25.8 33.55 L61.82 33.55 L60.69 30.63 L26.9 30.63 Z"/>
  </g>
  <g transform="matrix(0.957767 0 0 0.956021 0 0)">
    <path fill="#003366" d="M52.39 37.92 L63.48 37.92 L62.34 35 L51.41 35 Z"/>
  </g>
  <g transform="matrix(0.957767 0 0 0.956021 0 0)">
    <path fill="#003366" d="M52.8 39.38 L53.76 42.3 L65.12 42.3 L63.99 39.38 Z"/>
  </g>
  <g transform="matrix(0.957767 0 0 0.956021 0 0)">
    <rect fill="#003366" x="63.91" y="0" width="10.59" height="2.91"/>
  </g>
  <g transform="matrix(0.957767 0 0 0.956021 0 0)">
    <rect fill="#003366" x="63.91" y="4.37" width="10.59" height="2.92"/>
  </g>
  <g transform="matrix(0.957767 0 0 0.956021 0 0)">
    <rect fill="#003366" x="63.91" y="8.76" width="10.59" height="2.92"/>
  </g>
  <g transform="matrix(0.957767 0 0 0.956021 0 0)">
    <rect fill="#003366" x="63.91" y="13.13" width="10.59" height="2.92"/>
  </g>
  <g transform="matrix(0.957767 0 0 0.956021 0 0)">
    <rect fill="#a36b0d" x="63.91" y="17.5" width="10.59" height="2.91"/>
  </g>
  <g transform="matrix(0.957767 0 0 0.956021 0 0)">
    <rect fill="#a36b0d" x="63.91" y="21.87" width="10.59" height="2.92"/>
  </g>
  <g transform="matrix(0.957767 0 0 0.956021 0 0)">
    <path fill="#003366" d="M64 29.17 L74.7 29.17 C74.57 28.42 74.5 27.61 74.5 26.76 L74.5 26.26 L63.91 26.26 L63.91 27.63 C63.91 28.17 63.95 28.67 64 29.17 Z"/>
  </g>
  <g transform="matrix(0.957767 0 0 0.956021 0 0)">
    <path fill="#003366" d="M64.94 33.55 L77.02 33.55 C76.08 32.81 75.44 31.81 75.04 30.63 L64.17 30.63 C64.34 31.67 64.59 32.65 64.94 33.55 Z"/>
  </g>
  <g transform="matrix(0.957767 0 0 0.956021 0 0)">
    <path fill="#003366" d="M98.16 35 L65.54 35 C66.11 36.09 66.81 37.06 67.61 37.92 L96.09 37.92 C96.89 37.06 97.6 36.09 98.16 35 Z"/>
  </g>
  <g transform="matrix(0.957767 0 0 0.956021 0 0)">
    <path fill="#003366" d="M99.54 30.63 L88.66 30.63 C88.26 31.81 87.62 32.81 86.67 33.55 L98.76 33.55 C99.11 32.65 99.36 31.67 99.54 30.63 Z"/>
  </g>
  <g transform="matrix(0.957767 0 0 0.956021 0 0)">
    <rect fill="#003366" x="89.2" y="0" width="10.59" height="2.91"/>
  </g>
  <g transform="matrix(0.957767 0 0 0.956021 0 0)">
    <rect fill="#003366" x="89.2" y="4.37" width="10.59" height="2.92"/>
  </g>
  <g transform="matrix(0.957767 0 0 0.956021 0 0)">
    <rect fill="#003366" x="89.2" y="8.76" width="10.59" height="2.92"/>
  </g>
  <g transform="matrix(0.957767 0 0 0.956021 0 0)">
    <rect fill="#003366" x="89.2" y="13.13" width="10.59" height="2.92"/>
  </g>
  <g transform="matrix(0.957767 0 0 0.956021 0 0)">
    <rect fill="#a36b0d" x="89.2" y="17.5" width="10.59" height="2.91"/>
  </g>
  <g transform="matrix(0.957767 0 0 0.956021 0 0)">
    <rect fill="#a36b0d" x="89.2" y="21.87" width="10.59" height="2.92"/>
  </g>
  <g transform="matrix(0.957767 0 0 0.956021 0 0)">
    <path fill="#003366" d="M99.8 27.63 L99.8 26.26 L89.2 26.26 L89.2 26.76 C89.2 27.61 89.14 28.42 89.01 29.17 L99.71 29.17 C99.75 28.67 99.8 28.17 99.8 27.63 Z"/>
  </g>
  <g transform="matrix(0.957767 0 0 0.956021 0 0)">
    <path fill="#a36b0d" d="M0 21.87 L0 24.78 L39.4 24.78 L40.29 21.87 Z"/>
  </g>
  <g transform="matrix(0.957767 0 0 0.956021 0 0)">
    <path fill="#a36b0d" d="M0 17.5 L0 20.41 L40.7 20.41 L41.6 17.5 Z"/>
  </g>
</svg>
