<?xml version="1.0" encoding="UTF-8" standalone="no"?>
<!-- Created with PhotoLine 21.01 (www.pl32.de) -->
<!DOCTYPE svg PUBLIC "-//W3C//DTD SVG 1.1//EN" "http://www.w3.org/Graphics/SVG/1.1/DTD/svg11.dtd">
<svg width="240" height="64" viewBox="0 0 240 64" version="1.1" xmlns="http://www.w3.org/2000/svg" xmlns:xlink="http://www.w3.org/1999/xlink">
  <g transform="matrix(1.078065 0 0 1.084524 0 0)">
    <path fill="#0381a2" d="M217.2 53.57 L217.2 52.43 L222.24 52.43 L222.24 53.57 L220.4 53.57 L220.4 58.57 L219.04 58.57 L219.04 53.57 Z M215.11 52.43 L217.4 58.58 L216 58.58 L215.54 57.21 L213.24 57.21 L212.76 58.58 L211.4 58.58 L213.72 52.43 Z M215.18 56.2 L214.41 53.95 L214.39 53.95 L213.59 56.2 Z M215.86 51.75 L214.7 51.75 L214.7 50.74 L215.86 50.74 Z M214.09 51.75 L212.93 51.75 L212.93 50.74 L214.09 50.74 Z M206.52 53.57 L206.52 52.43 L211.56 52.43 L211.56 53.57 L209.71 53.57 L209.71 58.57 L208.36 58.57 L208.36 53.57 Z M203.75 52.43 L203.75 57.44 L206.75 57.44 L206.75 58.58 L202.4 58.58 L202.4 52.43 Z M200.23 58.1 C199.77 58.51 199.13 58.71 198.31 58.71 C197.48 58.71 196.83 58.51 196.37 58.11 C195.92 57.71 195.69 57.08 195.69 56.25 L195.69 52.43 L197.04 52.43 L197.04 56.25 C197.04 56.42 197.06 56.58 197.08 56.74 C197.11 56.9 197.17 57.04 197.27 57.16 C197.36 57.29 197.49 57.39 197.65 57.47 C197.81 57.54 198.03 57.58 198.31 57.58 C198.79 57.58 199.12 57.48 199.3 57.26 C199.49 57.05 199.58 56.71 199.58 56.25 L199.58 52.43 L200.93 52.43 L200.93 56.25 C200.93 57.08 200.7 57.7 200.23 58.1 Z M190.57 52.43 L190.57 54.98 L192.97 52.43 L194.66 52.43 L192.26 54.86 L194.89 58.58 L193.2 58.58 L191.35 55.81 L190.57 56.6 L190.57 58.58 L189.22 58.58 L189.22 52.43 Z M185.99 52.43 L188.29 58.58 L186.89 58.58 L186.42 57.21 L184.13 57.21 L183.65 58.58 L182.29 58.58 L184.61 52.43 Z M186.07 56.2 L185.3 53.95 L185.28 53.95 L184.48 56.2 Z M182.3 52.43 L182.3 53.57 L179.33 53.57 L179.33 54.99 L181.9 54.99 L181.9 56.04 L179.33 56.04 L179.33 58.58 L177.98 58.58 L177.98 52.43 Z M174.23 52.43 L174.23 53.57 L170.99 53.57 L170.99 54.88 L173.96 54.88 L173.96 55.94 L170.99 55.94 L170.99 57.44 L174.3 57.44 L174.3 58.58 L169.64 58.58 L169.64 52.43 Z M164.25 52.43 L164.25 54.79 L166.74 54.79 L166.74 52.43 L168.09 52.43 L168.09 58.58 L166.74 58.58 L166.74 55.93 L164.25 55.93 L164.25 58.58 L162.9 58.58 L162.9 52.43 Z M160.32 54.07 C160.24 53.94 160.14 53.83 160.02 53.73 C159.9 53.63 159.76 53.56 159.61 53.5 C159.46 53.45 159.3 53.42 159.13 53.42 C158.83 53.42 158.57 53.48 158.36 53.6 C158.15 53.72 157.98 53.87 157.85 54.07 C157.71 54.27 157.62 54.5 157.56 54.75 C157.49 55 157.46 55.26 157.46 55.53 C157.46 55.79 157.49 56.04 157.56 56.28 C157.62 56.53 157.71 56.75 157.85 56.94 C157.98 57.14 158.15 57.29 158.36 57.41 C158.57 57.53 158.83 57.59 159.13 57.59 C159.55 57.59 159.87 57.46 160.1 57.21 C160.33 56.96 160.48 56.62 160.53 56.21 L161.84 56.21 C161.8 56.59 161.71 56.94 161.57 57.25 C161.42 57.56 161.24 57.82 161 58.04 C160.77 58.26 160.49 58.43 160.18 58.54 C159.86 58.66 159.52 58.71 159.14 58.71 C158.67 58.71 158.24 58.63 157.87 58.47 C157.49 58.31 157.18 58.08 156.92 57.79 C156.66 57.51 156.46 57.17 156.32 56.78 C156.18 56.39 156.12 55.98 156.12 55.53 C156.12 55.07 156.18 54.65 156.32 54.25 C156.46 53.86 156.66 53.52 156.92 53.23 C157.18 52.93 157.49 52.71 157.87 52.54 C158.24 52.37 158.67 52.29 159.14 52.29 C159.48 52.29 159.79 52.34 160.1 52.44 C160.4 52.54 160.67 52.68 160.91 52.86 C161.14 53.05 161.34 53.28 161.5 53.55 C161.65 53.83 161.75 54.15 161.79 54.5 L160.48 54.5 C160.45 54.34 160.4 54.2 160.32 54.07 Z M151.48 57.06 C151.55 57.21 151.65 57.32 151.78 57.41 C151.9 57.5 152.04 57.56 152.21 57.61 C152.38 57.65 152.55 57.67 152.73 57.67 C152.85 57.67 152.98 57.66 153.12 57.64 C153.25 57.62 153.38 57.58 153.5 57.53 C153.62 57.47 153.73 57.39 153.81 57.29 C153.88 57.19 153.92 57.06 153.92 56.91 C153.92 56.74 153.87 56.61 153.77 56.5 C153.66 56.4 153.52 56.32 153.35 56.25 C153.18 56.18 152.98 56.12 152.77 56.06 C152.55 56.01 152.33 55.96 152.1 55.89 C151.88 55.83 151.65 55.76 151.43 55.68 C151.21 55.6 151.02 55.49 150.85 55.36 C150.67 55.23 150.54 55.06 150.43 54.86 C150.33 54.67 150.27 54.43 150.27 54.15 C150.27 53.83 150.34 53.56 150.47 53.33 C150.61 53.09 150.79 52.9 151 52.75 C151.22 52.59 151.47 52.47 151.74 52.4 C152.01 52.33 152.29 52.29 152.57 52.29 C152.88 52.29 153.2 52.33 153.49 52.39 C153.79 52.46 154.05 52.58 154.28 52.75 C154.51 52.91 154.69 53.11 154.82 53.36 C154.96 53.61 155.03 53.91 155.03 54.27 L153.72 54.27 C153.7 54.08 153.67 53.93 153.6 53.81 C153.54 53.69 153.45 53.59 153.34 53.53 C153.23 53.46 153.11 53.41 152.96 53.38 C152.82 53.35 152.67 53.34 152.5 53.34 C152.4 53.34 152.29 53.35 152.18 53.37 C152.07 53.39 151.97 53.43 151.88 53.49 C151.79 53.55 151.72 53.62 151.66 53.71 C151.6 53.79 151.57 53.9 151.57 54.03 C151.57 54.15 151.6 54.25 151.64 54.33 C151.69 54.4 151.78 54.47 151.91 54.53 C152.05 54.59 152.23 54.66 152.48 54.72 C152.71 54.78 153.02 54.87 153.41 54.96 C153.52 54.98 153.68 55.02 153.89 55.08 C154.09 55.15 154.29 55.24 154.49 55.37 C154.69 55.5 154.87 55.68 155.01 55.9 C155.16 56.12 155.23 56.4 155.23 56.75 C155.23 57.03 155.18 57.29 155.07 57.53 C154.96 57.77 154.8 57.98 154.58 58.15 C154.37 58.33 154.1 58.47 153.78 58.56 C153.47 58.66 153.1 58.71 152.68 58.71 C152.34 58.71 152.01 58.67 151.69 58.58 C151.38 58.5 151.1 58.37 150.85 58.19 C150.61 58.01 150.41 57.79 150.27 57.51 C150.13 57.23 150.06 56.91 150.07 56.53 L151.37 56.53 C151.37 56.74 151.4 56.92 151.48 57.06 Z M148.9 58.57 L147.55 58.57 L147.55 52.43 L148.9 52.43 Z M142.16 52.43 L144.72 56.55 L144.74 56.55 L144.74 52.43 L146 52.43 L146 58.58 L144.65 58.58 L142.1 54.46 L142.08 54.46 L142.08 58.58 L140.81 58.58 L140.81 52.43 Z M139.27 58.57 L137.92 58.57 L137.92 52.43 L139.27 52.43 Z M134.72 53.57 L131.68 53.57 L131.68 52.43 L136.52 52.43 L136.52 53.5 L133.22 57.44 L136.6 57.44 L136.6 58.57 L131.43 58.57 L131.43 57.51 Z M130.24 58.57 L128.89 58.57 L128.89 52.43 L130.24 52.43 Z M124.91 52.43 C125.31 52.43 125.68 52.5 126.02 52.62 C126.36 52.75 126.65 52.94 126.9 53.19 C127.15 53.44 127.35 53.75 127.49 54.13 C127.63 54.51 127.7 54.95 127.7 55.47 C127.7 55.91 127.64 56.33 127.53 56.7 C127.41 57.08 127.24 57.41 127 57.68 C126.77 57.96 126.48 58.17 126.14 58.33 C125.79 58.49 125.38 58.57 124.91 58.57 L122.26 58.57 L122.26 52.42 L124.91 52.42 Z M124.82 57.44 C125.01 57.44 125.2 57.41 125.38 57.34 C125.57 57.28 125.73 57.17 125.87 57.03 C126.02 56.88 126.13 56.69 126.22 56.46 C126.3 56.22 126.35 55.94 126.35 55.6 C126.35 55.29 126.32 55.01 126.25 54.76 C126.19 54.51 126.1 54.3 125.96 54.12 C125.82 53.94 125.64 53.81 125.41 53.71 C125.18 53.61 124.91 53.57 124.57 53.57 L123.61 53.57 L123.61 57.44 L124.82 57.44 Z M120.94 52.43 L120.94 53.57 L117.7 53.57 L117.7 54.88 L120.67 54.88 L120.67 55.94 L117.7 55.94 L117.7 57.44 L121.01 57.44 L121.01 58.58 L116.35 58.58 L116.35 52.43 Z M110.04 52.43 L111.48 56.66 L111.5 56.66 L112.86 52.43 L114.76 52.43 L114.76 58.58 L113.49 58.58 L113.49 54.22 L113.47 54.22 L111.97 58.58 L110.93 58.58 L109.42 54.27 L109.4 54.27 L109.4 58.58 L108.14 58.58 L108.14 52.43 Z"/>
    <path fill="#003366" d="M211.07 42.26 C210.78 42.38 210.48 42.45 210.18 42.45 C209.71 42.45 209.29 42.36 208.91 42.2 C208.54 42.04 208.22 41.81 207.96 41.53 C207.71 41.24 207.51 40.9 207.37 40.51 C207.23 40.13 207.16 39.71 207.16 39.26 C207.16 38.8 207.23 38.38 207.37 37.99 C207.51 37.59 207.71 37.25 207.96 36.96 C208.22 36.67 208.54 36.44 208.91 36.27 C209.29 36.11 209.71 36.02 210.18 36.02 C210.5 36.02 210.81 36.07 211.1 36.17 C211.4 36.26 211.66 36.4 211.9 36.59 C212.14 36.77 212.34 37 212.49 37.26 C212.65 37.53 212.74 37.84 212.77 38.19 L211.48 38.19 C211.4 37.85 211.25 37.59 211.02 37.42 C210.79 37.25 210.51 37.16 210.18 37.16 C209.88 37.16 209.62 37.22 209.41 37.34 C209.2 37.46 209.03 37.62 208.9 37.81 C208.76 38.01 208.67 38.24 208.61 38.49 C208.55 38.74 208.52 39.01 208.52 39.27 C208.52 39.53 208.54 39.78 208.61 40.02 C208.67 40.27 208.76 40.49 208.9 40.68 C209.03 40.88 209.2 41.04 209.41 41.15 C209.62 41.27 209.88 41.33 210.18 41.33 C210.63 41.33 210.98 41.22 211.22 40.99 C211.46 40.76 211.61 40.43 211.65 40.01 L210.29 40.01 L210.29 39 L212.87 39 L212.87 42.32 L212.01 42.32 L211.87 41.62 C211.63 41.92 211.36 42.14 211.07 42.26 Z M204.36 36.17 C204.64 36.17 204.88 36.21 205.1 36.3 C205.32 36.39 205.51 36.51 205.67 36.67 C205.83 36.82 205.95 37 206.03 37.2 C206.11 37.41 206.16 37.63 206.16 37.86 C206.16 38.22 206.08 38.54 205.93 38.8 C205.77 39.06 205.53 39.26 205.18 39.4 L205.18 39.42 C205.35 39.47 205.49 39.54 205.6 39.63 C205.7 39.73 205.79 39.84 205.86 39.97 C205.93 40.1 205.98 40.24 206.01 40.39 C206.04 40.55 206.07 40.7 206.07 40.86 C206.08 40.96 206.09 41.07 206.09 41.2 C206.1 41.34 206.11 41.47 206.12 41.61 C206.14 41.75 206.16 41.87 206.19 42 C206.22 42.12 206.27 42.23 206.33 42.31 L204.98 42.31 C204.91 42.12 204.86 41.88 204.84 41.62 C204.82 41.35 204.8 41.09 204.77 40.84 C204.72 40.52 204.62 40.29 204.47 40.14 C204.33 39.99 204.08 39.91 203.74 39.91 L202.39 39.91 L202.39 42.31 L201.04 42.31 L201.04 36.17 L204.35 36.17 L204.35 36.17 Z M203.88 38.94 C204.19 38.94 204.42 38.88 204.58 38.74 C204.73 38.6 204.81 38.38 204.81 38.07 C204.81 37.77 204.73 37.55 204.58 37.42 C204.42 37.28 204.19 37.22 203.88 37.22 L202.4 37.22 L202.4 38.94 Z M199.64 36.17 L199.64 37.3 L196.4 37.3 L196.4 38.62 L199.38 38.62 L199.38 39.67 L196.4 39.67 L196.4 41.17 L199.71 41.17 L199.71 42.31 L195.05 42.31 L195.05 36.17 Z M191.57 41.26 C191.71 41.26 191.83 41.24 191.95 41.22 C192.07 41.2 192.18 41.15 192.27 41.09 C192.36 41.03 192.44 40.95 192.49 40.85 C192.55 40.74 192.57 40.61 192.57 40.45 C192.57 40.13 192.48 39.91 192.3 39.77 C192.12 39.64 191.89 39.57 191.6 39.57 L190.13 39.57 L190.13 41.26 L191.57 41.26 Z M191.67 36.17 C191.96 36.17 192.23 36.19 192.47 36.24 C192.71 36.3 192.92 36.38 193.09 36.5 C193.26 36.62 193.4 36.77 193.49 36.97 C193.58 37.16 193.63 37.4 193.63 37.69 C193.63 38 193.56 38.26 193.42 38.46 C193.28 38.67 193.07 38.84 192.8 38.97 C193.17 39.08 193.46 39.27 193.65 39.54 C193.83 39.81 193.92 40.14 193.92 40.53 C193.92 40.84 193.86 41.1 193.74 41.33 C193.62 41.56 193.46 41.74 193.26 41.89 C193.05 42.03 192.82 42.14 192.56 42.2 C192.3 42.27 192.03 42.31 191.76 42.31 L188.78 42.31 L188.78 36.16 L191.67 36.17 Z M191.5 38.65 C191.74 38.65 191.94 38.59 192.09 38.48 C192.25 38.37 192.32 38.18 192.32 37.92 C192.32 37.77 192.3 37.66 192.25 37.56 C192.19 37.47 192.12 37.4 192.04 37.35 C191.95 37.3 191.85 37.26 191.74 37.24 C191.63 37.22 191.51 37.21 191.39 37.21 L190.13 37.21 L190.13 38.65 Z M183.39 36.17 L185.95 40.29 L185.97 40.29 L185.97 36.17 L187.23 36.17 L187.23 42.31 L185.88 42.31 L183.33 38.2 L183.31 38.2 L183.31 42.31 L182.04 42.31 L182.04 36.17 Z M178.85 36.17 C179.13 36.17 179.38 36.21 179.6 36.3 C179.82 36.39 180.01 36.51 180.16 36.67 C180.32 36.82 180.44 37 180.52 37.2 C180.61 37.41 180.65 37.63 180.65 37.86 C180.65 38.22 180.57 38.54 180.42 38.8 C180.27 39.06 180.02 39.26 179.68 39.4 L179.68 39.42 C179.84 39.47 179.98 39.54 180.09 39.63 C180.2 39.73 180.29 39.84 180.36 39.97 C180.42 40.1 180.48 40.24 180.51 40.39 C180.54 40.55 180.56 40.7 180.57 40.86 C180.58 40.96 180.58 41.07 180.59 41.2 C180.6 41.34 180.6 41.47 180.62 41.61 C180.63 41.75 180.65 41.87 180.69 42 C180.71 42.12 180.77 42.23 180.83 42.31 L179.48 42.31 C179.4 42.12 179.36 41.88 179.34 41.62 C179.32 41.35 179.29 41.09 179.26 40.84 C179.21 40.52 179.12 40.29 178.97 40.14 C178.82 39.99 178.57 39.91 178.24 39.91 L176.89 39.91 L176.89 42.31 L175.54 42.31 L175.54 36.17 L178.85 36.17 L178.85 36.17 Z M178.37 38.94 C178.69 38.94 178.91 38.88 179.07 38.74 C179.22 38.6 179.3 38.38 179.3 38.07 C179.3 37.77 179.22 37.55 179.07 37.42 C178.91 37.28 178.68 37.22 178.37 37.22 L176.89 37.22 L176.89 38.94 Z M173.46 41.84 C173 42.24 172.36 42.44 171.53 42.44 C170.7 42.44 170.06 42.24 169.6 41.84 C169.15 41.44 168.92 40.82 168.92 39.98 L168.92 36.17 L170.27 36.17 L170.27 39.98 C170.27 40.15 170.28 40.31 170.31 40.47 C170.34 40.63 170.4 40.78 170.49 40.9 C170.58 41.02 170.71 41.12 170.88 41.2 C171.04 41.28 171.26 41.32 171.53 41.32 C172.01 41.32 172.35 41.21 172.53 41 C172.71 40.78 172.81 40.44 172.81 39.98 L172.81 36.17 L174.16 36.17 L174.16 39.98 C174.16 40.81 173.92 41.44 173.46 41.84 Z M173 35.48 L171.84 35.48 L171.84 34.47 L173 34.47 Z M171.23 35.48 L170.07 35.48 L170.07 34.47 L171.23 34.47 Z M163.6 36.17 L166.16 40.29 L166.18 40.29 L166.18 36.17 L167.44 36.17 L167.44 42.31 L166.09 42.31 L163.54 38.2 L163.52 38.2 L163.52 42.31 L162.25 42.31 L162.25 36.17 Z M160.7 40.48 L158.11 40.48 L158.11 39.43 L160.7 39.43 Z M152.74 36.17 L155.3 40.29 L155.32 40.29 L155.32 36.17 L156.58 36.17 L156.58 42.31 L155.23 42.31 L152.68 38.2 L152.66 38.2 L152.66 42.31 L151.39 42.31 L151.39 36.17 Z M149.99 36.17 L149.99 37.3 L146.75 37.3 L146.75 38.62 L149.72 38.62 L149.72 39.67 L146.75 39.67 L146.75 41.17 L150.06 41.17 L150.06 42.31 L145.4 42.31 L145.4 36.17 Z M142.27 42.26 C141.98 42.38 141.69 42.45 141.39 42.45 C140.91 42.45 140.49 42.36 140.12 42.2 C139.74 42.04 139.43 41.81 139.17 41.53 C138.91 41.24 138.71 40.9 138.57 40.51 C138.43 40.13 138.37 39.71 138.37 39.26 C138.37 38.8 138.43 38.38 138.57 37.99 C138.71 37.59 138.91 37.25 139.17 36.96 C139.43 36.67 139.74 36.44 140.12 36.27 C140.49 36.11 140.91 36.02 141.39 36.02 C141.7 36.02 142.01 36.07 142.3 36.17 C142.6 36.26 142.86 36.4 143.1 36.59 C143.34 36.77 143.54 37 143.69 37.26 C143.85 37.53 143.94 37.84 143.98 38.19 L142.69 38.19 C142.61 37.85 142.45 37.59 142.22 37.42 C141.99 37.25 141.71 37.16 141.39 37.16 C141.08 37.16 140.82 37.22 140.61 37.34 C140.4 37.46 140.23 37.62 140.1 37.81 C139.96 38.01 139.87 38.24 139.81 38.49 C139.75 38.74 139.72 39.01 139.72 39.27 C139.72 39.53 139.75 39.78 139.81 40.02 C139.87 40.27 139.96 40.49 140.1 40.68 C140.23 40.88 140.4 41.04 140.61 41.15 C140.83 41.27 141.08 41.33 141.39 41.33 C141.83 41.33 142.18 41.22 142.42 40.99 C142.66 40.76 142.81 40.43 142.85 40.01 L141.49 40.01 L141.49 39 L144.07 39 L144.07 42.32 L143.21 42.32 L143.07 41.62 C142.83 41.92 142.57 42.14 142.27 42.26 Z M133.4 36.17 L135.96 40.29 L135.98 40.29 L135.98 36.17 L137.24 36.17 L137.24 42.31 L135.89 42.31 L133.34 38.2 L133.32 38.2 L133.32 42.31 L132.05 42.31 L132.05 36.17 Z M128.99 36.17 L131.29 42.31 L129.89 42.31 L129.42 40.94 L127.13 40.94 L126.65 42.31 L125.29 42.31 L127.61 36.17 Z M129.07 39.93 L128.3 37.68 L128.28 37.68 L127.48 39.93 Z M121.74 36.17 L121.74 41.17 L124.73 41.17 L124.73 42.31 L120.39 42.31 L120.39 36.17 Z M117.37 36.17 C117.64 36.17 117.89 36.21 118.11 36.3 C118.33 36.39 118.52 36.51 118.68 36.67 C118.83 36.82 118.96 37 119.04 37.2 C119.12 37.41 119.16 37.63 119.16 37.86 C119.16 38.22 119.09 38.54 118.93 38.8 C118.78 39.06 118.53 39.26 118.19 39.4 L118.19 39.42 C118.36 39.47 118.49 39.54 118.6 39.63 C118.71 39.73 118.8 39.84 118.87 39.97 C118.94 40.1 118.99 40.24 119.02 40.39 C119.05 40.55 119.07 40.7 119.08 40.86 C119.09 40.96 119.1 41.07 119.1 41.2 C119.11 41.34 119.12 41.47 119.13 41.61 C119.15 41.75 119.17 41.87 119.2 42 C119.23 42.12 119.28 42.23 119.34 42.31 L117.99 42.31 C117.91 42.12 117.87 41.88 117.85 41.62 C117.83 41.35 117.81 41.09 117.77 40.84 C117.73 40.52 117.63 40.29 117.48 40.14 C117.33 39.99 117.09 39.91 116.75 39.91 L115.4 39.91 L115.4 42.31 L114.05 42.31 L114.05 36.17 L117.36 36.17 L117.36 36.17 Z M116.89 38.94 C117.2 38.94 117.43 38.88 117.58 38.74 C117.74 38.6 117.81 38.38 117.81 38.07 C117.81 37.77 117.74 37.55 117.58 37.42 C117.43 37.28 117.19 37.22 116.89 37.22 L115.41 37.22 L115.41 38.94 Z M112.73 36.17 L112.73 37.3 L109.49 37.3 L109.49 38.62 L112.47 38.62 L112.47 39.67 L109.49 39.67 L109.49 41.17 L112.8 41.17 L112.8 42.31 L108.14 42.31 L108.14 36.17 Z"/>
    <path fill="#003366" d="M162.06 28.01 L162.06 26.88 L167.09 26.88 L167.09 28.01 L165.25 28.01 L165.25 33.02 L163.9 33.02 L163.9 28.01 L162.06 28.01 M159.89 26.88 L162.19 33.02 L160.79 33.02 L160.32 31.65 L158.02 31.65 L157.54 33.02 L156.19 33.02 L158.51 26.88 L159.89 26.88 Z M159.97 30.64 L159.19 28.39 L159.17 28.39 L158.38 30.64 Z M160.65 26.19 L159.49 26.19 L159.49 25.18 L160.65 25.18 Z M158.88 26.19 L157.71 26.19 L157.71 25.18 L158.88 25.18 Z M151.25 28.01 L151.25 26.88 L156.28 26.88 L156.28 28.01 L154.44 28.01 L154.44 33.02 L153.08 33.02 L153.08 28.01 L151.25 28.01 Z M150.16 33.02 L148.81 33.02 L148.81 26.88 L150.16 26.88 Z M143.89 31.5 C143.96 31.65 144.06 31.76 144.18 31.85 C144.31 31.94 144.45 32.01 144.62 32.05 C144.78 32.09 144.96 32.11 145.13 32.11 C145.25 32.11 145.38 32.1 145.52 32.09 C145.66 32.06 145.79 32.02 145.91 31.97 C146.03 31.91 146.13 31.83 146.21 31.73 C146.29 31.63 146.33 31.51 146.33 31.35 C146.33 31.18 146.28 31.05 146.17 30.95 C146.07 30.84 145.93 30.76 145.76 30.69 C145.58 30.62 145.39 30.56 145.17 30.51 C144.95 30.46 144.73 30.4 144.51 30.34 C144.28 30.28 144.06 30.21 143.84 30.12 C143.62 30.04 143.43 29.94 143.25 29.8 C143.08 29.67 142.94 29.51 142.84 29.31 C142.73 29.11 142.68 28.87 142.68 28.59 C142.68 28.27 142.74 28 142.88 27.77 C143.02 27.53 143.19 27.34 143.41 27.19 C143.63 27.03 143.87 26.92 144.15 26.84 C144.42 26.77 144.7 26.73 144.97 26.73 C145.29 26.73 145.6 26.77 145.9 26.84 C146.19 26.91 146.46 27.03 146.68 27.19 C146.91 27.35 147.1 27.55 147.23 27.8 C147.37 28.05 147.43 28.35 147.43 28.71 L146.12 28.71 C146.11 28.53 146.07 28.37 146.01 28.25 C145.94 28.13 145.86 28.04 145.74 27.97 C145.64 27.9 145.51 27.85 145.37 27.82 C145.23 27.79 145.08 27.78 144.91 27.78 C144.8 27.78 144.69 27.79 144.58 27.81 C144.48 27.84 144.37 27.88 144.29 27.94 C144.2 27.99 144.12 28.06 144.07 28.15 C144.01 28.24 143.98 28.34 143.98 28.48 C143.98 28.6 144 28.7 144.05 28.77 C144.1 28.84 144.19 28.91 144.32 28.98 C144.45 29.04 144.64 29.1 144.88 29.17 C145.12 29.23 145.43 29.31 145.81 29.41 C145.93 29.43 146.08 29.47 146.29 29.53 C146.49 29.59 146.7 29.69 146.9 29.82 C147.1 29.95 147.27 30.13 147.42 30.35 C147.56 30.57 147.64 30.85 147.64 31.2 C147.64 31.47 147.58 31.74 147.48 31.98 C147.37 32.22 147.21 32.42 146.99 32.6 C146.78 32.78 146.51 32.91 146.19 33.01 C145.87 33.11 145.5 33.15 145.09 33.15 C144.75 33.15 144.42 33.11 144.1 33.03 C143.79 32.95 143.5 32.82 143.26 32.64 C143.02 32.46 142.82 32.23 142.68 31.96 C142.53 31.68 142.47 31.35 142.47 30.98 L143.78 30.98 C143.77 31.19 143.81 31.36 143.89 31.5 Z M139.71 26.88 C139.98 26.88 140.23 26.92 140.45 27.01 C140.67 27.1 140.86 27.22 141.02 27.38 C141.17 27.53 141.29 27.71 141.38 27.91 C141.46 28.12 141.5 28.34 141.5 28.57 C141.5 28.93 141.42 29.25 141.27 29.51 C141.12 29.77 140.87 29.97 140.53 30.11 L140.53 30.13 C140.69 30.18 140.83 30.25 140.94 30.34 C141.05 30.44 141.14 30.55 141.21 30.68 C141.28 30.81 141.33 30.95 141.36 31.1 C141.39 31.26 141.41 31.41 141.42 31.57 C141.43 31.67 141.43 31.78 141.44 31.91 C141.45 32.04 141.46 32.18 141.47 32.32 C141.48 32.45 141.5 32.59 141.54 32.71 C141.57 32.83 141.61 32.94 141.68 33.02 L140.33 33.02 C140.25 32.83 140.21 32.59 140.19 32.33 C140.17 32.06 140.15 31.8 140.11 31.55 C140.07 31.23 139.97 31 139.82 30.85 C139.67 30.7 139.43 30.62 139.09 30.62 L137.74 30.62 L137.74 33.02 L136.39 33.02 L136.39 26.88 L139.71 26.88 Z M139.22 29.65 C139.53 29.65 139.77 29.59 139.92 29.45 C140.07 29.31 140.15 29.09 140.15 28.78 C140.15 28.48 140.07 28.26 139.92 28.13 C139.77 27.99 139.53 27.93 139.22 27.93 L137.75 27.93 L137.75 29.66 L139.22 29.65 Z M135.07 26.88 L135.07 28.01 L131.83 28.01 L131.83 29.33 L134.81 29.33 L134.81 30.38 L131.83 30.38 L131.83 31.88 L135.14 31.88 L135.14 33.02 L130.48 33.02 L130.48 26.88 L135.07 26.88 Z M125.92 33.02 L123.94 26.88 L125.32 26.88 L126.69 31.19 L126.71 31.19 L128.09 26.88 L129.49 26.88 L127.45 33.02 Z M122.96 33.02 L121.61 33.02 L121.61 26.88 L122.96 26.88 Z M116.26 26.88 L118.82 31 L118.84 31 L118.84 26.88 L120.11 26.88 L120.11 33.02 L118.75 33.02 L116.2 28.91 L116.18 28.91 L116.18 33.02 L114.92 33.02 L114.92 26.88 L116.26 26.88 Z M112.7 32.55 C112.24 32.95 111.6 33.16 110.77 33.16 C109.94 33.16 109.3 32.95 108.84 32.55 C108.39 32.15 108.16 31.53 108.16 30.69 L108.16 26.88 L109.51 26.88 L109.51 30.69 C109.51 30.86 109.52 31.03 109.55 31.19 C109.58 31.34 109.64 31.49 109.73 31.61 C109.82 31.73 109.95 31.84 110.12 31.91 C110.28 31.99 110.5 32.03 110.77 32.03 C111.25 32.03 111.59 31.92 111.77 31.71 C111.96 31.49 112.04 31.15 112.04 30.7 L112.04 26.88 L113.4 26.88 L113.4 30.7 C113.4 31.53 113.16 32.15 112.7 32.55 Z"/>
    <path fill="#003366" d="M214.74 17.47 C215.01 17.47 215.26 17.52 215.48 17.61 C215.7 17.7 215.89 17.82 216.05 17.97 C216.21 18.13 216.33 18.31 216.41 18.51 C216.49 18.71 216.53 18.93 216.53 19.17 C216.53 19.53 216.46 19.84 216.3 20.11 C216.15 20.37 215.91 20.57 215.56 20.71 L215.56 20.73 C215.73 20.77 215.86 20.84 215.97 20.94 C216.08 21.03 216.17 21.14 216.24 21.27 C216.31 21.4 216.36 21.54 216.39 21.7 C216.42 21.85 216.44 22.01 216.45 22.16 C216.46 22.26 216.46 22.37 216.47 22.51 C216.48 22.64 216.49 22.77 216.5 22.91 C216.52 23.05 216.54 23.18 216.57 23.3 C216.6 23.42 216.65 23.53 216.71 23.62 L215.36 23.62 C215.29 23.42 215.24 23.19 215.22 22.92 C215.2 22.65 215.18 22.39 215.14 22.14 C215.1 21.82 215 21.59 214.85 21.44 C214.7 21.29 214.46 21.22 214.12 21.22 L212.77 21.22 L212.77 23.62 L211.42 23.62 L211.42 17.47 L214.74 17.47 M214.26 20.25 C214.57 20.25 214.8 20.18 214.95 20.05 C215.11 19.91 215.19 19.68 215.19 19.37 C215.19 19.08 215.11 18.86 214.95 18.73 C214.8 18.59 214.57 18.52 214.26 18.52 L212.78 18.52 L212.78 20.25 Z M210.15 17.47 L210.15 18.61 L206.91 18.61 L206.91 19.93 L209.88 19.93 L209.88 20.98 L206.91 20.98 L206.91 22.48 L210.22 22.48 L210.22 23.62 L205.56 23.62 L205.56 17.47 L210.15 17.47 Z M201.66 17.47 C202.05 17.47 202.42 17.54 202.76 17.66 C203.11 17.79 203.4 17.98 203.65 18.23 C203.9 18.48 204.09 18.8 204.23 19.18 C204.38 19.56 204.45 20 204.45 20.51 C204.45 20.96 204.39 21.37 204.27 21.75 C204.16 22.13 203.99 22.45 203.75 22.73 C203.52 23 203.23 23.22 202.89 23.38 C202.54 23.54 202.13 23.62 201.66 23.62 L199.01 23.62 L199.01 17.47 L201.66 17.47 Z M201.56 22.48 C201.76 22.48 201.95 22.45 202.13 22.39 C202.31 22.32 202.48 22.22 202.62 22.07 C202.77 21.93 202.88 21.74 202.96 21.5 C203.05 21.27 203.09 20.98 203.09 20.64 C203.09 20.33 203.06 20.05 203 19.8 C202.94 19.55 202.85 19.34 202.71 19.16 C202.57 18.98 202.39 18.85 202.16 18.75 C201.93 18.66 201.65 18.61 201.32 18.61 L200.36 18.61 L200.36 22.48 L201.56 22.48 Z M193.72 17.47 L196.28 21.59 L196.3 21.59 L196.3 17.47 L197.57 17.47 L197.57 23.62 L196.22 23.62 L193.66 19.5 L193.64 19.5 L193.64 23.62 L192.38 23.62 L192.38 17.47 L193.72 17.47 Z M189.28 17.47 L191.58 23.62 L190.18 23.62 L189.71 22.25 L187.41 22.25 L186.94 23.62 L185.58 23.62 L187.9 17.47 L189.28 17.47 Z M189.36 21.24 L188.58 18.99 L188.57 18.99 L187.77 21.24 Z M179.41 17.47 L180.97 17.47 L182.18 19.43 L183.42 17.47 L184.9 17.47 L182.93 20.41 L185.07 23.62 L183.47 23.62 L182.12 21.49 L180.76 23.62 L179.24 23.62 L181.39 20.4 Z M178.37 17.47 L178.37 18.61 L175.12 18.61 L175.12 19.93 L178.1 19.93 L178.1 20.98 L175.12 20.98 L175.12 22.48 L178.44 22.48 L178.44 23.62 L173.77 23.62 L173.77 17.47 L178.37 17.47 Z M169.7 17.47 L169.7 22.48 L172.69 22.48 L172.69 23.62 L168.35 23.62 L168.35 17.47 L169.7 17.47 Z M165.12 17.47 L167.42 23.62 L166.02 23.62 L165.56 22.25 L163.26 22.25 L162.78 23.62 L161.42 23.62 L163.74 17.47 L165.12 17.47 Z M165.2 21.24 L164.43 18.99 L164.41 18.99 L163.61 21.24 Z M160.77 21.79 L158.18 21.79 L158.18 20.74 L160.77 20.74 Z M152.81 17.47 L152.81 19.83 L155.29 19.83 L155.29 17.47 L156.65 17.47 L156.65 23.62 L155.29 23.62 L155.29 20.97 L152.81 20.97 L152.81 23.62 L151.46 23.62 L151.46 17.47 L152.81 17.47 Z M148.71 19.11 C148.63 18.98 148.53 18.87 148.41 18.77 C148.29 18.68 148.15 18.6 148 18.55 C147.85 18.49 147.69 18.46 147.52 18.46 C147.22 18.46 146.96 18.52 146.75 18.64 C146.54 18.76 146.37 18.92 146.23 19.11 C146.1 19.31 146 19.54 145.95 19.79 C145.88 20.04 145.85 20.3 145.85 20.57 C145.85 20.83 145.88 21.08 145.95 21.32 C146.01 21.57 146.1 21.79 146.23 21.98 C146.37 22.18 146.54 22.33 146.75 22.45 C146.96 22.57 147.22 22.63 147.52 22.63 C147.94 22.63 148.26 22.5 148.49 22.25 C148.72 22 148.87 21.66 148.92 21.25 L150.23 21.25 C150.19 21.63 150.1 21.98 149.96 22.29 C149.81 22.6 149.62 22.86 149.39 23.08 C149.16 23.3 148.88 23.47 148.57 23.58 C148.25 23.7 147.91 23.75 147.53 23.75 C147.06 23.75 146.63 23.67 146.26 23.51 C145.88 23.34 145.56 23.12 145.31 22.83 C145.05 22.55 144.85 22.21 144.71 21.82 C144.57 21.43 144.51 21.02 144.51 20.57 C144.51 20.11 144.57 19.69 144.71 19.29 C144.85 18.9 145.05 18.56 145.31 18.27 C145.56 17.97 145.88 17.74 146.26 17.58 C146.63 17.41 147.06 17.33 147.53 17.33 C147.86 17.33 148.18 17.38 148.49 17.47 C148.79 17.57 149.06 17.71 149.29 17.9 C149.53 18.09 149.73 18.32 149.88 18.59 C150.04 18.87 150.14 19.18 150.18 19.54 L148.87 19.54 C148.84 19.38 148.79 19.24 148.71 19.11 Z M143.32 23.62 L141.97 23.62 L141.97 17.47 L143.32 17.47 Z M138.81 17.47 C139.08 17.47 139.33 17.52 139.56 17.61 C139.78 17.7 139.96 17.82 140.12 17.97 C140.28 18.13 140.4 18.31 140.48 18.51 C140.56 18.71 140.61 18.93 140.61 19.17 C140.61 19.53 140.53 19.84 140.38 20.11 C140.23 20.37 139.98 20.57 139.63 20.71 L139.63 20.73 C139.8 20.77 139.94 20.84 140.05 20.94 C140.15 21.03 140.24 21.14 140.31 21.27 C140.38 21.4 140.43 21.54 140.46 21.7 C140.49 21.85 140.52 22.01 140.53 22.16 C140.53 22.26 140.54 22.37 140.54 22.51 C140.55 22.64 140.56 22.77 140.57 22.91 C140.59 23.05 140.61 23.18 140.64 23.3 C140.67 23.42 140.72 23.53 140.78 23.62 L139.43 23.62 C139.36 23.42 139.31 23.19 139.29 22.92 C139.28 22.65 139.25 22.39 139.22 22.14 C139.17 21.82 139.07 21.59 138.93 21.44 C138.78 21.29 138.53 21.22 138.2 21.22 L136.85 21.22 L136.85 23.62 L135.49 23.62 L135.49 17.47 L138.81 17.47 Z M138.33 20.25 C138.64 20.25 138.87 20.18 139.03 20.05 C139.18 19.91 139.26 19.68 139.26 19.37 C139.26 19.08 139.18 18.86 139.03 18.73 C138.87 18.59 138.64 18.52 138.33 18.52 L136.85 18.52 L136.85 20.25 Z M131.62 17.47 C132.01 17.47 132.38 17.54 132.72 17.66 C133.06 17.79 133.36 17.98 133.61 18.23 C133.86 18.48 134.05 18.8 134.19 19.18 C134.33 19.56 134.4 20 134.4 20.51 C134.4 20.96 134.35 21.37 134.23 21.75 C134.12 22.13 133.94 22.45 133.71 22.73 C133.48 23 133.19 23.22 132.84 23.38 C132.49 23.54 132.09 23.62 131.62 23.62 L128.97 23.62 L128.97 17.47 L131.62 17.47 Z M131.52 22.48 C131.72 22.48 131.91 22.45 132.09 22.39 C132.27 22.32 132.44 22.22 132.58 22.07 C132.72 21.93 132.84 21.74 132.92 21.5 C133.01 21.27 133.05 20.98 133.05 20.64 C133.05 20.33 133.02 20.05 132.96 19.8 C132.9 19.55 132.8 19.34 132.66 19.16 C132.53 18.98 132.35 18.85 132.12 18.75 C131.89 18.66 131.61 18.61 131.28 18.61 L130.32 18.61 L130.32 22.48 L131.52 22.48 Z M127.65 17.47 L127.65 18.61 L124.4 18.61 L124.4 19.93 L127.38 19.93 L127.38 20.98 L124.4 20.98 L124.4 22.48 L127.72 22.48 L127.72 23.62 L123.06 23.62 L123.06 17.47 L127.65 17.47 Z M121.51 23.62 L120.15 23.62 L120.15 17.47 L121.51 17.47 Z M116.87 17.47 C117.14 17.47 117.39 17.52 117.61 17.61 C117.83 17.7 118.02 17.82 118.18 17.97 C118.33 18.13 118.45 18.31 118.54 18.51 C118.62 18.71 118.66 18.93 118.66 19.17 C118.66 19.53 118.59 19.84 118.43 20.11 C118.28 20.37 118.03 20.57 117.69 20.71 L117.69 20.73 C117.86 20.77 117.99 20.84 118.1 20.94 C118.21 21.03 118.3 21.14 118.37 21.27 C118.44 21.4 118.49 21.54 118.52 21.7 C118.55 21.85 118.57 22.01 118.58 22.16 C118.59 22.26 118.6 22.37 118.6 22.51 C118.61 22.64 118.62 22.77 118.63 22.91 C118.65 23.05 118.67 23.18 118.7 23.3 C118.73 23.42 118.78 23.53 118.84 23.62 L117.49 23.62 C117.42 23.42 117.37 23.19 117.35 22.92 C117.33 22.65 117.31 22.39 117.27 22.14 C117.23 21.82 117.13 21.59 116.98 21.44 C116.83 21.29 116.59 21.22 116.25 21.22 L114.9 21.22 L114.9 23.62 L113.55 23.62 L113.55 17.47 L116.87 17.47 Z M116.39 20.25 C116.7 20.25 116.93 20.18 117.08 20.05 C117.24 19.91 117.31 19.68 117.31 19.37 C117.31 19.08 117.24 18.86 117.08 18.73 C116.93 18.59 116.69 18.52 116.39 18.52 L114.91 18.52 L114.91 20.25 Z M112.46 17.47 L112.46 18.61 L109.49 18.61 L109.49 20.03 L112.06 20.03 L112.06 21.08 L109.49 21.08 L109.49 23.62 L108.14 23.62 L108.14 17.47 L112.46 17.47 Z"/>
    <path fill="#003366" d="M94.69 39.4 L69.08 39.4 C70.65 40.68 72.48 41.64 74.4 42.31 L89.35 42.31 C91.29 41.64 93.11 40.68 94.69 39.4 Z"/>
    <path fill="#003366" d="M24.19 37.93 L35.29 37.93 L35.31 37.88 L35.28 37.88 L36.2 35.02 L25.3 35.02 Z"/>
    <path fill="#003366" d="M23.69 39.4 L22.58 42.31 L33.89 42.31 L34.85 39.4 Z"/>
    <rect fill="#003366" y="39.4" width="10.6" height="2.92"/>
    <rect fill="#003366" y="35.02" width="10.6" height="2.92"/>
    <rect fill="#003366" y="30.64" width="10.6" height="2.92"/>
    <rect fill="#003366" y="26.27" width="10.6" height="2.92"/>
    <rect fill="#003366" y="13.13" width="10.6" height="2.92"/>
    <rect fill="#003366" y="8.75" width="10.6" height="2.92"/>
    <rect fill="#003366" y="0" width="32.39" height="2.91"/>
    <rect fill="#003366" y="4.37" width="32.39" height="2.92"/>
    <path fill="#003366" d="M42.93 13.13 L33.37 13.13 L32.26 16.05 L42.03 16.05 Z"/>
    <path fill="#003366" d="M37.1 2.92 L50.29 2.92 L49.16 0 L38.21 0 Z"/>
    <path fill="#003366" d="M35.49 7.29 L51.95 7.29 L50.81 4.37 L36.6 4.37 Z"/>
    <path fill="#003366" d="M44.28 11.67 L53.6 11.67 L52.46 8.76 L34.98 8.76 L33.88 11.67 L43.34 11.67 L43.75 10.34 L43.87 10.34 Z"/>
    <path fill="#003366" d="M45.58 16.05 L55.25 16.05 L54.12 13.13 L44.69 13.13 Z"/>
    <path fill="#0381a2" d="M46.89 20.42 L56.9 20.42 L55.77 17.5 L46 17.5 Z"/>
    <path fill="#0381a2" d="M48.2 24.79 L58.55 24.79 L57.42 21.88 L47.3 21.88 Z"/>
    <path fill="#003366" d="M27.42 29.18 L60.2 29.18 L59.07 26.27 L28.53 26.27 Z"/>
    <path fill="#003366" d="M25.81 33.56 L61.85 33.56 L60.72 30.64 L26.91 30.64 Z"/>
    <path fill="#003366" d="M52.41 37.93 L63.5 37.93 L62.37 35.02 L51.43 35.02 Z"/>
    <path fill="#003366" d="M52.82 39.4 L53.78 42.31 L65.15 42.31 L64.02 39.4 Z"/>
    <rect fill="#003366" x="63.94" y="0" width="10.6" height="2.91"/>
    <rect fill="#003366" x="63.94" y="4.37" width="10.6" height="2.92"/>
    <rect fill="#003366" x="63.94" y="8.76" width="10.6" height="2.92"/>
    <rect fill="#003366" x="63.94" y="13.13" width="10.6" height="2.92"/>
    <rect fill="#0381a2" x="63.94" y="17.5" width="10.6" height="2.92"/>
    <rect fill="#0381a2" x="63.94" y="21.88" width="10.6" height="2.92"/>
    <path fill="#003366" d="M64.02 29.18 L74.73 29.18 C74.6 28.43 74.53 27.62 74.53 26.77 L74.53 26.27 L63.94 26.27 L63.94 27.64 C63.94 28.18 63.98 28.68 64.02 29.18 Z"/>
    <path fill="#003366" d="M64.97 33.56 L77.06 33.56 C76.11 32.83 75.48 31.83 75.07 30.64 L64.2 30.64 C64.37 31.68 64.62 32.66 64.97 33.56 Z"/>
    <path fill="#003366" d="M98.2 35.02 L65.57 35.02 C66.14 36.11 66.84 37.08 67.64 37.94 L96.13 37.94 C96.93 37.07 97.64 36.1 98.2 35.02 Z"/>
    <path fill="#003366" d="M99.58 30.64 L88.7 30.64 C88.3 31.83 87.65 32.83 86.71 33.56 L98.81 33.56 C99.15 32.66 99.4 31.68 99.58 30.64 Z"/>
    <rect fill="#003366" x="89.24" y="0" width="10.6" height="2.91"/>
    <rect fill="#003366" x="89.24" y="4.37" width="10.6" height="2.92"/>
    <rect fill="#003366" x="89.24" y="8.76" width="10.6" height="2.92"/>
    <rect fill="#003366" x="89.24" y="13.13" width="10.6" height="2.92"/>
    <rect fill="#0381a2" x="89.24" y="17.5" width="10.6" height="2.92"/>
    <rect fill="#0381a2" x="89.24" y="21.88" width="10.6" height="2.92"/>
    <path fill="#003366" d="M99.84 27.64 L99.84 26.27 L89.24 26.27 L89.24 26.77 C89.24 27.62 89.18 28.43 89.04 29.18 L99.75 29.18 C99.79 28.68 99.84 28.18 99.84 27.64 Z"/>
    <path fill="#0381a2" d="M0 21.88 L0 24.79 L39.41 24.79 L40.31 21.88 Z"/>
    <path fill="#0381a2" d="M0 17.5 L0 20.42 L40.72 20.42 L41.62 17.5 Z"/>
  </g>
</svg>
