<?xml version="1.0" encoding="UTF-8" standalone="no"?>
<!-- Created with PhotoLine 21.01 (www.pl32.de) -->
<!DOCTYPE svg PUBLIC "-//W3C//DTD SVG 1.1//EN" "http://www.w3.org/Graphics/SVG/1.1/DTD/svg11.dtd">
<svg width="227" height="65" viewBox="0 0 227 65" version="1.1" xmlns="http://www.w3.org/2000/svg" xmlns:xlink="http://www.w3.org/1999/xlink">
  <g transform="matrix(0.955445 0 0 0.955377 0 0)">
    <path fill="#048767" d="M147.36 62.89 L147.36 61.76 L152.39 61.76 L152.39 62.89 L150.55 62.89 L150.55 67.9 L149.2 67.9 L149.2 62.89 Z M145.27 61.76 L147.56 67.9 L146.16 67.9 L145.7 66.53 L143.4 66.53 L142.92 67.9 L141.56 67.9 L143.88 61.76 L145.27 61.76 Z M145.34 65.52 L144.57 63.27 L144.55 63.27 L143.75 65.52 Z M146.02 61.07 L144.86 61.07 L144.86 60.06 L146.02 60.06 Z M144.25 61.07 L143.09 61.07 L143.09 60.06 L144.25 60.06 Z M136.68 62.89 L136.68 61.76 L141.71 61.76 L141.71 62.89 L139.87 62.89 L139.87 67.9 L138.52 67.9 L138.52 62.89 Z M133.91 61.76 L133.91 66.76 L136.91 66.76 L136.91 67.9 L132.56 67.9 L132.56 61.76 L133.91 61.76 Z M130.39 67.43 C129.93 67.83 129.29 68.04 128.47 68.04 C127.64 68.04 126.99 67.84 126.54 67.43 C126.08 67.03 125.85 66.41 125.85 65.58 L125.85 61.76 L127.2 61.76 L127.2 65.58 C127.2 65.74 127.22 65.91 127.24 66.07 C127.27 66.23 127.33 66.37 127.43 66.49 C127.52 66.62 127.65 66.72 127.81 66.79 C127.97 66.87 128.19 66.91 128.47 66.91 C128.95 66.91 129.28 66.8 129.46 66.59 C129.65 66.37 129.74 66.03 129.74 65.58 L129.74 61.76 L131.09 61.76 L131.09 65.58 C131.09 66.41 130.86 67.03 130.39 67.43 Z M120.73 61.76 L120.73 64.3 L123.13 61.76 L124.82 61.76 L122.42 64.18 L125.05 67.9 L123.35 67.9 L121.5 65.14 L120.73 65.92 L120.73 67.9 L119.38 67.9 L119.38 61.76 L120.73 61.76 Z M116.15 61.76 L118.45 67.9 L117.05 67.9 L116.58 66.53 L114.29 66.53 L113.8 67.9 L112.44 67.9 L114.77 61.76 L116.15 61.76 Z M116.23 65.52 L115.46 63.27 L115.44 63.27 L114.64 65.52 Z M112.45 61.76 L112.45 62.89 L109.49 62.89 L109.49 64.31 L112.06 64.31 L112.06 65.36 L109.49 65.36 L109.49 67.9 L108.14 67.9 L108.14 61.76 L112.45 61.76 Z"/>
  </g>
  <g transform="matrix(0.955445 0 0 0.955377 0 0)">
    <path fill="#048767" d="M238.04 52.43 L238.04 53.57 L234.8 53.57 L234.8 54.88 L237.77 54.88 L237.77 55.93 L234.8 55.93 L234.8 57.44 L238.11 57.44 L238.11 58.57 L233.45 58.57 L233.45 52.43 L238.04 52.43 M228.15 52.43 L228.15 54.79 L230.63 54.79 L230.63 52.43 L231.98 52.43 L231.98 58.57 L230.63 58.57 L230.63 55.92 L228.15 55.92 L228.15 58.57 L226.8 58.57 L226.8 52.43 Z M224.13 54.07 C224.05 53.94 223.95 53.83 223.83 53.73 C223.71 53.63 223.58 53.56 223.42 53.5 C223.27 53.45 223.11 53.42 222.95 53.42 C222.64 53.42 222.38 53.48 222.17 53.6 C221.96 53.71 221.79 53.87 221.66 54.07 C221.53 54.27 221.43 54.49 221.37 54.75 C221.31 55 221.28 55.26 221.28 55.53 C221.28 55.79 221.31 56.04 221.37 56.28 C221.43 56.52 221.53 56.74 221.66 56.94 C221.79 57.13 221.96 57.29 222.17 57.41 C222.39 57.52 222.64 57.58 222.95 57.58 C223.36 57.58 223.68 57.46 223.91 57.2 C224.15 56.95 224.29 56.62 224.34 56.21 L225.65 56.21 C225.61 56.59 225.52 56.94 225.38 57.25 C225.24 57.56 225.05 57.82 224.81 58.04 C224.58 58.26 224.3 58.42 223.99 58.54 C223.67 58.65 223.33 58.71 222.95 58.71 C222.48 58.71 222.05 58.63 221.68 58.47 C221.3 58.3 220.99 58.08 220.73 57.79 C220.47 57.5 220.27 57.17 220.14 56.78 C220 56.39 219.93 55.97 219.93 55.53 C219.93 55.07 220 54.64 220.14 54.25 C220.27 53.86 220.47 53.52 220.73 53.22 C220.99 52.93 221.3 52.7 221.68 52.53 C222.05 52.37 222.48 52.29 222.95 52.29 C223.29 52.29 223.61 52.33 223.91 52.43 C224.21 52.53 224.48 52.67 224.72 52.86 C224.95 53.04 225.15 53.27 225.3 53.55 C225.46 53.82 225.56 54.14 225.6 54.49 L224.29 54.49 C224.27 54.34 224.21 54.2 224.13 54.07 Z M218.83 58.57 L217.48 58.57 L217.48 52.43 L218.83 52.43 Z M213.41 52.43 L213.41 57.44 L216.4 57.44 L216.4 58.57 L212.06 58.57 L212.06 52.43 Z M206.1 53.57 L206.1 52.43 L211.13 52.43 L211.13 53.57 L209.29 53.57 L209.29 58.57 L207.94 58.57 L207.94 53.57 Z M205.28 52.43 L205.28 53.57 L202.31 53.57 L202.31 54.99 L204.88 54.99 L204.88 56.04 L202.31 56.04 L202.31 58.57 L200.96 58.57 L200.96 52.43 L205.28 52.43 Z M197.73 52.43 L200.03 58.57 L198.63 58.57 L198.16 57.21 L195.87 57.21 L195.38 58.57 L194.03 58.57 L196.35 52.43 Z M197.81 56.2 L197.04 53.95 L197.02 53.95 L196.22 56.2 Z M189.21 52.43 L189.21 54.79 L191.7 54.79 L191.7 52.43 L193.05 52.43 L193.05 58.57 L191.7 58.57 L191.7 55.92 L189.21 55.92 L189.21 58.57 L187.86 58.57 L187.86 52.43 Z M185.11 54.07 C185.03 53.94 184.93 53.83 184.81 53.73 C184.69 53.63 184.55 53.56 184.4 53.5 C184.25 53.45 184.09 53.42 183.92 53.42 C183.62 53.42 183.36 53.48 183.15 53.6 C182.94 53.71 182.76 53.87 182.63 54.07 C182.5 54.27 182.4 54.49 182.34 54.75 C182.28 55 182.25 55.26 182.25 55.53 C182.25 55.79 182.28 56.04 182.34 56.28 C182.41 56.52 182.5 56.74 182.63 56.94 C182.76 57.13 182.94 57.29 183.15 57.41 C183.36 57.52 183.62 57.58 183.92 57.58 C184.34 57.58 184.66 57.46 184.89 57.2 C185.12 56.95 185.26 56.62 185.32 56.21 L186.62 56.21 C186.59 56.59 186.5 56.94 186.36 57.25 C186.21 57.56 186.02 57.82 185.79 58.04 C185.56 58.26 185.28 58.42 184.96 58.54 C184.65 58.65 184.3 58.71 183.92 58.71 C183.45 58.71 183.03 58.63 182.65 58.47 C182.28 58.3 181.96 58.08 181.7 57.79 C181.45 57.5 181.25 57.17 181.11 56.78 C180.97 56.39 180.9 55.97 180.9 55.53 C180.9 55.07 180.97 54.64 181.11 54.25 C181.25 53.86 181.45 53.52 181.7 53.22 C181.96 52.93 182.28 52.7 182.65 52.53 C183.03 52.37 183.45 52.29 183.92 52.29 C184.26 52.29 184.58 52.33 184.88 52.43 C185.18 52.53 185.45 52.67 185.69 52.86 C185.93 53.04 186.13 53.27 186.28 53.55 C186.44 53.82 186.53 54.14 186.57 54.49 L185.27 54.49 C185.24 54.34 185.19 54.2 185.11 54.07 Z M176.27 57.06 C176.34 57.2 176.44 57.32 176.57 57.41 C176.69 57.5 176.83 57.56 177 57.61 C177.17 57.65 177.34 57.67 177.52 57.67 C177.64 57.67 177.77 57.66 177.9 57.64 C178.04 57.62 178.17 57.58 178.29 57.52 C178.41 57.47 178.51 57.39 178.59 57.29 C178.67 57.19 178.71 57.06 178.71 56.9 C178.71 56.74 178.66 56.6 178.55 56.5 C178.45 56.4 178.31 56.31 178.14 56.24 C177.96 56.17 177.77 56.11 177.55 56.06 C177.33 56.01 177.11 55.95 176.89 55.89 C176.66 55.83 176.44 55.76 176.22 55.68 C176 55.6 175.81 55.49 175.63 55.36 C175.46 55.22 175.32 55.06 175.22 54.86 C175.11 54.66 175.06 54.42 175.06 54.14 C175.06 53.83 175.12 53.55 175.26 53.32 C175.39 53.09 175.57 52.9 175.79 52.74 C176.01 52.59 176.25 52.47 176.53 52.4 C176.8 52.32 177.08 52.29 177.35 52.29 C177.67 52.29 177.98 52.32 178.28 52.39 C178.57 52.46 178.84 52.58 179.06 52.74 C179.29 52.9 179.48 53.11 179.61 53.36 C179.75 53.61 179.81 53.91 179.81 54.26 L178.51 54.26 C178.49 54.08 178.45 53.93 178.39 53.81 C178.32 53.69 178.24 53.59 178.13 53.52 C178.02 53.46 177.89 53.41 177.75 53.38 C177.61 53.35 177.46 53.34 177.29 53.34 C177.18 53.34 177.07 53.35 176.97 53.37 C176.86 53.39 176.76 53.43 176.67 53.49 C176.58 53.55 176.51 53.62 176.45 53.71 C176.39 53.79 176.36 53.9 176.36 54.03 C176.36 54.15 176.39 54.25 176.43 54.32 C176.48 54.4 176.57 54.47 176.7 54.53 C176.84 54.59 177.02 54.66 177.26 54.72 C177.5 54.78 177.81 54.86 178.19 54.96 C178.31 54.98 178.47 55.02 178.67 55.08 C178.88 55.15 179.08 55.24 179.28 55.37 C179.48 55.5 179.65 55.68 179.8 55.9 C179.95 56.12 180.02 56.41 180.02 56.75 C180.02 57.03 179.96 57.29 179.85 57.53 C179.75 57.77 179.58 57.98 179.37 58.16 C179.15 58.33 178.89 58.47 178.57 58.56 C178.25 58.66 177.88 58.71 177.47 58.71 C177.13 58.71 176.8 58.67 176.48 58.58 C176.16 58.5 175.88 58.37 175.64 58.19 C175.39 58.01 175.2 57.79 175.06 57.51 C174.91 57.24 174.85 56.91 174.85 56.53 L176.16 56.53 C176.16 56.74 176.19 56.92 176.27 57.06 Z M169.77 52.43 L172.34 56.55 L172.35 56.55 L172.35 52.43 L173.62 52.43 L173.62 58.57 L172.27 58.57 L169.71 54.46 L169.7 54.46 L169.7 58.57 L168.43 58.57 L168.43 52.43 Z M167.07 52.43 L167.07 53.57 L163.82 53.57 L163.82 54.88 L166.8 54.88 L166.8 55.93 L163.82 55.93 L163.82 57.44 L167.14 57.44 L167.14 58.57 L162.47 58.57 L162.47 52.43 L167.07 52.43 Z M157.51 57.06 C157.59 57.2 157.69 57.32 157.81 57.41 C157.93 57.5 158.08 57.56 158.25 57.61 C158.41 57.65 158.58 57.67 158.76 57.67 C158.88 57.67 159.01 57.66 159.15 57.64 C159.29 57.62 159.42 57.58 159.54 57.52 C159.66 57.47 159.76 57.39 159.84 57.29 C159.92 57.19 159.96 57.06 159.96 56.9 C159.96 56.74 159.9 56.6 159.8 56.5 C159.69 56.4 159.55 56.31 159.38 56.24 C159.21 56.17 159.01 56.11 158.8 56.06 C158.58 56.01 158.36 55.95 158.13 55.89 C157.91 55.83 157.68 55.76 157.46 55.68 C157.25 55.6 157.05 55.49 156.88 55.36 C156.71 55.22 156.57 55.06 156.46 54.86 C156.36 54.66 156.3 54.42 156.3 54.14 C156.3 53.83 156.37 53.55 156.5 53.32 C156.64 53.09 156.82 52.9 157.03 52.74 C157.25 52.59 157.5 52.47 157.77 52.4 C158.05 52.32 158.32 52.29 158.6 52.29 C158.92 52.29 159.23 52.32 159.52 52.39 C159.82 52.46 160.08 52.58 160.31 52.74 C160.54 52.9 160.72 53.11 160.85 53.36 C160.99 53.61 161.06 53.91 161.06 54.26 L159.75 54.26 C159.74 54.08 159.7 53.93 159.63 53.81 C159.57 53.69 159.48 53.59 159.37 53.52 C159.26 53.46 159.14 53.41 159 53.38 C158.86 53.35 158.7 53.34 158.54 53.34 C158.43 53.34 158.32 53.35 158.21 53.37 C158.1 53.39 158 53.43 157.91 53.49 C157.82 53.55 157.75 53.62 157.69 53.71 C157.64 53.79 157.61 53.9 157.61 54.03 C157.61 54.15 157.63 54.25 157.68 54.32 C157.72 54.4 157.81 54.47 157.95 54.53 C158.08 54.59 158.27 54.66 158.51 54.72 C158.74 54.78 159.06 54.86 159.44 54.96 C159.55 54.98 159.71 55.02 159.92 55.08 C160.12 55.15 160.32 55.24 160.52 55.37 C160.72 55.5 160.9 55.68 161.04 55.9 C161.19 56.12 161.26 56.41 161.26 56.75 C161.26 57.03 161.21 57.29 161.1 57.53 C160.99 57.77 160.83 57.98 160.61 58.16 C160.4 58.33 160.13 58.47 159.82 58.56 C159.5 58.66 159.13 58.71 158.71 58.71 C158.37 58.71 158.04 58.67 157.73 58.58 C157.41 58.5 157.13 58.37 156.88 58.19 C156.64 58.01 156.45 57.79 156.3 57.51 C156.16 57.24 156.09 56.91 156.1 56.53 L157.4 56.53 C157.4 56.74 157.44 56.92 157.51 57.06 Z M151.56 57.06 C151.63 57.2 151.73 57.32 151.86 57.41 C151.98 57.5 152.12 57.56 152.29 57.61 C152.46 57.65 152.63 57.67 152.81 57.67 C152.93 57.67 153.06 57.66 153.19 57.64 C153.33 57.62 153.46 57.58 153.58 57.52 C153.7 57.47 153.8 57.39 153.88 57.29 C153.96 57.19 154 57.06 154 56.9 C154 56.74 153.95 56.6 153.84 56.5 C153.74 56.4 153.6 56.31 153.43 56.24 C153.25 56.17 153.06 56.11 152.84 56.06 C152.62 56.01 152.4 55.95 152.18 55.89 C151.95 55.83 151.73 55.76 151.51 55.68 C151.29 55.6 151.1 55.49 150.92 55.36 C150.75 55.22 150.61 55.06 150.51 54.86 C150.4 54.66 150.35 54.42 150.35 54.14 C150.35 53.83 150.42 53.55 150.55 53.32 C150.69 53.09 150.86 52.9 151.08 52.74 C151.3 52.59 151.54 52.47 151.82 52.4 C152.09 52.32 152.37 52.29 152.64 52.29 C152.96 52.29 153.27 52.32 153.57 52.39 C153.86 52.46 154.13 52.58 154.35 52.74 C154.58 52.9 154.77 53.11 154.9 53.36 C155.04 53.61 155.1 53.91 155.1 54.26 L153.8 54.26 C153.78 54.08 153.75 53.93 153.68 53.81 C153.61 53.69 153.53 53.59 153.42 53.52 C153.31 53.46 153.18 53.41 153.04 53.38 C152.9 53.35 152.75 53.34 152.58 53.34 C152.47 53.34 152.36 53.35 152.26 53.37 C152.15 53.39 152.05 53.43 151.96 53.49 C151.87 53.55 151.8 53.62 151.74 53.71 C151.68 53.79 151.65 53.9 151.65 54.03 C151.65 54.15 151.68 54.25 151.72 54.32 C151.77 54.4 151.86 54.47 151.99 54.53 C152.13 54.59 152.31 54.66 152.55 54.72 C152.79 54.78 153.1 54.86 153.49 54.96 C153.6 54.98 153.76 55.02 153.96 55.08 C154.17 55.15 154.37 55.24 154.57 55.37 C154.77 55.5 154.94 55.68 155.09 55.9 C155.24 56.12 155.31 56.41 155.31 56.75 C155.31 57.03 155.26 57.29 155.15 57.53 C155.04 57.77 154.88 57.98 154.66 58.16 C154.45 58.33 154.18 58.47 153.86 58.56 C153.54 58.66 153.17 58.71 152.76 58.71 C152.42 58.71 152.09 58.67 151.77 58.58 C151.45 58.5 151.17 58.37 150.93 58.19 C150.69 58.01 150.49 57.79 150.35 57.51 C150.21 57.24 150.14 56.91 150.14 56.53 L151.45 56.53 C151.45 56.74 151.48 56.92 151.56 57.06 Z M148.98 58.57 L147.63 58.57 L147.63 52.43 L148.98 52.43 Z M143.62 58.57 L142.58 54.39 L142.56 54.39 L141.54 58.57 L140.17 58.57 L138.55 52.43 L139.9 52.43 L140.87 56.61 L140.89 56.61 L141.96 52.43 L143.22 52.43 L144.27 56.66 L144.29 56.66 L145.29 52.43 L146.62 52.43 L144.97 58.57 Z M135.99 52.43 C136.26 52.43 136.51 52.48 136.73 52.57 C136.95 52.65 137.14 52.78 137.3 52.93 C137.46 53.09 137.58 53.26 137.66 53.47 C137.75 53.67 137.79 53.89 137.79 54.13 C137.79 54.49 137.71 54.8 137.56 55.06 C137.41 55.33 137.16 55.53 136.81 55.67 L136.81 55.68 C136.98 55.73 137.12 55.8 137.23 55.89 C137.34 55.99 137.42 56.1 137.49 56.23 C137.56 56.36 137.61 56.5 137.64 56.66 C137.68 56.81 137.7 56.96 137.71 57.12 C137.71 57.22 137.72 57.33 137.73 57.46 C137.73 57.6 137.74 57.73 137.76 57.87 C137.77 58.01 137.79 58.14 137.82 58.26 C137.86 58.38 137.9 58.49 137.97 58.57 L136.62 58.57 C136.54 58.38 136.5 58.15 136.48 57.88 C136.46 57.61 136.43 57.35 136.4 57.1 C136.35 56.78 136.26 56.55 136.11 56.4 C135.96 56.25 135.72 56.17 135.38 56.17 L134.03 56.17 L134.03 58.57 L132.68 58.57 L132.68 52.43 Z M135.51 55.21 C135.82 55.21 136.05 55.14 136.21 55 C136.36 54.87 136.44 54.64 136.44 54.33 C136.44 54.03 136.36 53.82 136.21 53.68 C136.05 53.55 135.82 53.48 135.51 53.48 L134.03 53.48 L134.03 55.21 L135.51 55.21 Z M130.64 58.1 C130.17 58.51 129.53 58.71 128.71 58.71 C127.88 58.71 127.24 58.51 126.78 58.11 C126.33 57.71 126.1 57.09 126.1 56.25 L126.1 52.43 L127.45 52.43 L127.45 56.25 C127.45 56.42 127.46 56.58 127.49 56.74 C127.52 56.9 127.58 57.04 127.67 57.17 C127.76 57.29 127.89 57.39 128.05 57.47 C128.22 57.54 128.44 57.58 128.71 57.58 C129.19 57.58 129.53 57.48 129.71 57.26 C129.89 57.05 129.98 56.71 129.98 56.25 L129.98 52.43 L131.34 52.43 L131.34 56.25 C131.34 57.08 131.1 57.7 130.64 58.1 Z M120.02 53.57 L120.02 52.43 L125.05 52.43 L125.05 53.57 L123.21 53.57 L123.21 58.57 L121.86 58.57 L121.86 53.57 Z M118.01 52.43 L120.31 58.57 L118.9 58.57 L118.44 57.21 L116.14 57.21 L115.66 58.57 L114.3 58.57 L116.62 52.43 Z M118.09 56.2 L117.31 53.95 L117.29 53.95 L116.49 56.2 Z M109.48 52.43 L112.04 56.55 L112.06 56.55 L112.06 52.43 L113.32 52.43 L113.32 58.57 L111.97 58.57 L109.42 54.46 L109.4 54.46 L109.4 58.57 L108.14 58.57 L108.14 52.43 Z"/>
  </g>
  <g transform="matrix(0.955445 0 0 0.955377 0 0)">
    <path fill="#003366" d="M211.06 42.26 C210.77 42.38 210.47 42.44 210.18 42.44 C209.71 42.44 209.28 42.36 208.91 42.2 C208.53 42.04 208.22 41.81 207.96 41.52 C207.7 41.24 207.5 40.9 207.36 40.51 C207.23 40.12 207.16 39.71 207.16 39.26 C207.16 38.8 207.23 38.38 207.36 37.98 C207.5 37.59 207.7 37.25 207.96 36.96 C208.22 36.66 208.53 36.44 208.91 36.27 C209.28 36.1 209.71 36.02 210.18 36.02 C210.49 36.02 210.8 36.07 211.09 36.16 C211.39 36.26 211.65 36.39 211.89 36.58 C212.13 36.76 212.33 36.99 212.48 37.26 C212.64 37.53 212.73 37.84 212.77 38.19 L211.48 38.19 C211.4 37.84 211.24 37.58 211.01 37.41 C210.78 37.24 210.5 37.16 210.18 37.16 C209.87 37.16 209.61 37.21 209.4 37.33 C209.19 37.45 209.02 37.61 208.89 37.81 C208.75 38 208.66 38.23 208.6 38.48 C208.54 38.73 208.51 38.99 208.51 39.26 C208.51 39.52 208.54 39.77 208.6 40.02 C208.66 40.26 208.75 40.48 208.89 40.67 C209.02 40.87 209.19 41.02 209.4 41.14 C209.62 41.26 209.87 41.32 210.18 41.32 C210.62 41.32 210.97 41.21 211.21 40.98 C211.46 40.75 211.6 40.42 211.64 39.99 L210.28 39.99 L210.28 38.99 L212.86 38.99 L212.86 42.31 L212 42.31 L211.86 41.61 C211.62 41.92 211.36 42.13 211.06 42.26 Z M204.35 36.16 C204.63 36.16 204.88 36.21 205.1 36.3 C205.32 36.39 205.51 36.51 205.66 36.66 C205.82 36.82 205.94 37 206.03 37.2 C206.11 37.4 206.15 37.62 206.15 37.86 C206.15 38.22 206.07 38.53 205.92 38.8 C205.77 39.06 205.52 39.26 205.18 39.4 L205.18 39.42 C205.34 39.46 205.48 39.53 205.59 39.63 C205.7 39.72 205.79 39.83 205.86 39.96 C205.93 40.09 205.98 40.23 206.01 40.39 C206.04 40.54 206.06 40.7 206.07 40.85 C206.08 40.95 206.08 41.07 206.09 41.2 C206.09 41.33 206.11 41.46 206.12 41.6 C206.13 41.74 206.16 41.87 206.19 41.99 C206.22 42.12 206.27 42.22 206.33 42.31 L204.98 42.31 C204.91 42.11 204.86 41.88 204.84 41.61 C204.82 41.34 204.8 41.08 204.76 40.84 C204.72 40.52 204.62 40.28 204.47 40.13 C204.32 39.98 204.08 39.91 203.74 39.91 L202.39 39.91 L202.39 42.31 L201.04 42.31 L201.04 36.17 L204.35 36.17 Z M203.87 38.94 C204.18 38.94 204.41 38.87 204.57 38.74 C204.72 38.6 204.8 38.37 204.8 38.07 C204.8 37.77 204.72 37.55 204.57 37.42 C204.41 37.28 204.18 37.21 203.87 37.21 L202.39 37.21 L202.39 38.94 L203.87 38.94 Z M199.63 36.16 L199.63 37.3 L196.39 37.3 L196.39 38.62 L199.37 38.62 L199.37 39.66 L196.39 39.66 L196.39 41.17 L199.7 41.17 L199.7 42.31 L195.04 42.31 L195.04 36.16 Z M191.57 41.26 C191.7 41.26 191.82 41.24 191.95 41.22 C192.07 41.19 192.17 41.15 192.26 41.09 C192.36 41.03 192.43 40.95 192.48 40.84 C192.54 40.74 192.56 40.61 192.56 40.45 C192.56 40.13 192.48 39.91 192.3 39.77 C192.12 39.64 191.88 39.57 191.59 39.57 L190.12 39.57 L190.12 41.26 Z M191.66 36.16 C191.95 36.16 192.22 36.19 192.46 36.24 C192.7 36.29 192.91 36.38 193.08 36.5 C193.25 36.61 193.39 36.77 193.48 36.96 C193.58 37.16 193.62 37.4 193.62 37.69 C193.62 38 193.55 38.25 193.41 38.46 C193.27 38.67 193.06 38.84 192.79 38.97 C193.17 39.08 193.45 39.27 193.64 39.54 C193.82 39.81 193.92 40.14 193.92 40.52 C193.92 40.83 193.85 41.1 193.73 41.33 C193.61 41.56 193.45 41.74 193.25 41.88 C193.05 42.03 192.81 42.13 192.55 42.2 C192.29 42.27 192.02 42.31 191.75 42.31 L188.77 42.31 L188.77 36.16 L191.66 36.16 Z M191.49 38.65 C191.73 38.65 191.93 38.59 192.08 38.48 C192.24 38.36 192.32 38.18 192.32 37.92 C192.32 37.77 192.29 37.66 192.24 37.57 C192.19 37.47 192.12 37.4 192.03 37.35 C191.95 37.3 191.85 37.26 191.73 37.24 C191.62 37.22 191.51 37.21 191.39 37.21 L190.12 37.21 L190.12 38.65 L191.49 38.65 Z M183.38 36.16 L185.94 40.28 L185.96 40.28 L185.96 36.16 L187.22 36.16 L187.22 42.31 L185.87 42.31 L183.32 38.2 L183.3 38.2 L183.3 42.31 L182.04 42.31 L182.04 36.16 Z M178.85 36.16 C179.12 36.16 179.37 36.21 179.59 36.3 C179.81 36.39 180 36.51 180.16 36.66 C180.32 36.82 180.44 37 180.52 37.2 C180.6 37.4 180.65 37.62 180.65 37.86 C180.65 38.22 180.57 38.53 180.42 38.8 C180.26 39.06 180.02 39.26 179.67 39.4 L179.67 39.42 C179.84 39.46 179.98 39.53 180.09 39.63 C180.19 39.72 180.28 39.83 180.35 39.96 C180.42 40.09 180.47 40.23 180.5 40.39 C180.53 40.54 180.56 40.7 180.57 40.85 C180.57 40.95 180.58 41.07 180.58 41.2 C180.59 41.33 180.6 41.46 180.61 41.6 C180.63 41.74 180.65 41.87 180.68 41.99 C180.71 42.12 180.76 42.22 180.83 42.31 L179.47 42.31 C179.4 42.11 179.35 41.88 179.34 41.61 C179.32 41.34 179.29 41.08 179.26 40.84 C179.21 40.52 179.12 40.28 178.97 40.13 C178.82 39.98 178.57 39.91 178.24 39.91 L176.89 39.91 L176.89 42.31 L175.53 42.31 L175.53 36.17 L178.85 36.17 Z M178.37 38.94 C178.68 38.94 178.91 38.87 179.06 38.74 C179.22 38.6 179.29 38.37 179.29 38.07 C179.29 37.77 179.22 37.55 179.06 37.42 C178.91 37.28 178.68 37.21 178.37 37.21 L176.89 37.21 L176.89 38.94 L178.37 38.94 Z M173.45 41.84 C172.99 42.24 172.35 42.44 171.53 42.44 C170.7 42.44 170.05 42.24 169.6 41.84 C169.14 41.44 168.91 40.82 168.91 39.98 L168.91 36.16 L170.26 36.16 L170.26 39.98 C170.26 40.15 170.28 40.31 170.31 40.47 C170.33 40.63 170.4 40.78 170.49 40.9 C170.58 41.02 170.71 41.12 170.87 41.2 C171.03 41.28 171.25 41.32 171.53 41.32 C172.01 41.32 172.34 41.21 172.52 40.99 C172.71 40.78 172.8 40.44 172.8 39.98 L172.8 36.16 L174.15 36.16 L174.15 39.98 C174.15 40.81 173.92 41.43 173.45 41.84 Z M173 35.48 L171.84 35.48 L171.84 34.47 L173 34.47 Z M171.23 35.48 L170.07 35.48 L170.07 34.47 L171.23 34.47 Z M163.59 36.16 L166.15 40.28 L166.17 40.28 L166.17 36.16 L167.44 36.16 L167.44 42.31 L166.08 42.31 L163.53 38.2 L163.51 38.2 L163.51 42.31 L162.25 42.31 L162.25 36.16 Z M160.7 40.48 L158.11 40.48 L158.11 39.43 L160.7 39.43 Z M152.73 36.16 L155.29 40.28 L155.31 40.28 L155.31 36.16 L156.58 36.16 L156.58 42.31 L155.23 42.31 L152.67 38.2 L152.65 38.2 L152.65 42.31 L151.39 42.31 L151.39 36.16 Z M149.98 36.16 L149.98 37.3 L146.74 37.3 L146.74 38.62 L149.72 38.62 L149.72 39.66 L146.74 39.66 L146.74 41.17 L150.05 41.17 L150.05 42.31 L145.39 42.31 L145.39 36.16 Z M142.27 42.26 C141.98 42.38 141.68 42.44 141.38 42.44 C140.91 42.44 140.49 42.36 140.11 42.2 C139.74 42.04 139.42 41.81 139.16 41.52 C138.9 41.24 138.71 40.9 138.57 40.51 C138.43 40.12 138.36 39.71 138.36 39.26 C138.36 38.8 138.43 38.38 138.57 37.98 C138.71 37.59 138.9 37.25 139.16 36.96 C139.42 36.66 139.74 36.44 140.11 36.27 C140.49 36.1 140.91 36.02 141.38 36.02 C141.7 36.02 142 36.07 142.3 36.16 C142.59 36.26 142.86 36.39 143.1 36.58 C143.34 36.76 143.53 36.99 143.69 37.26 C143.84 37.53 143.94 37.84 143.97 38.19 L142.68 38.19 C142.6 37.84 142.45 37.58 142.22 37.41 C141.99 37.24 141.71 37.16 141.38 37.16 C141.08 37.16 140.82 37.21 140.61 37.33 C140.4 37.45 140.22 37.61 140.09 37.81 C139.96 38 139.86 38.23 139.8 38.48 C139.74 38.73 139.71 38.99 139.71 39.26 C139.71 39.52 139.74 39.77 139.8 40.02 C139.87 40.26 139.96 40.48 140.09 40.67 C140.22 40.87 140.4 41.02 140.61 41.14 C140.82 41.26 141.08 41.32 141.38 41.32 C141.83 41.32 142.18 41.21 142.42 40.98 C142.66 40.75 142.8 40.42 142.84 39.99 L141.49 39.99 L141.49 38.99 L144.07 38.99 L144.07 42.31 L143.21 42.31 L143.07 41.61 C142.83 41.92 142.56 42.13 142.27 42.26 Z M133.39 36.16 L135.96 40.28 L135.97 40.28 L135.97 36.16 L137.24 36.16 L137.24 42.31 L135.89 42.31 L133.33 38.2 L133.31 38.2 L133.31 42.31 L132.05 42.31 L132.05 36.16 Z M128.99 36.16 L131.29 42.31 L129.88 42.31 L129.42 40.94 L127.12 40.94 L126.64 42.31 L125.28 42.31 L127.61 36.16 Z M129.07 39.93 L128.29 37.68 L128.28 37.68 L127.48 39.93 Z M121.73 36.16 L121.73 41.17 L124.72 41.17 L124.72 42.31 L120.38 42.31 L120.38 36.16 L121.73 36.16 Z M117.36 36.16 C117.64 36.16 117.89 36.21 118.11 36.3 C118.33 36.39 118.52 36.51 118.68 36.66 C118.83 36.82 118.95 37 119.04 37.2 C119.12 37.4 119.16 37.62 119.16 37.86 C119.16 38.22 119.08 38.53 118.93 38.8 C118.78 39.06 118.53 39.26 118.19 39.4 L118.19 39.42 C118.36 39.46 118.49 39.53 118.6 39.63 C118.71 39.72 118.8 39.83 118.87 39.96 C118.94 40.09 118.99 40.23 119.02 40.39 C119.05 40.54 119.07 40.7 119.08 40.85 C119.09 40.95 119.09 41.07 119.1 41.2 C119.11 41.33 119.12 41.46 119.13 41.6 C119.15 41.74 119.17 41.87 119.2 41.99 C119.23 42.12 119.28 42.22 119.34 42.31 L117.99 42.31 C117.92 42.11 117.87 41.88 117.85 41.61 C117.84 41.34 117.81 41.08 117.78 40.84 C117.73 40.52 117.63 40.28 117.48 40.13 C117.33 39.98 117.09 39.91 116.75 39.91 L115.4 39.91 L115.4 42.31 L114.05 42.31 L114.05 36.17 L117.36 36.17 Z M116.88 38.94 C117.19 38.94 117.42 38.87 117.58 38.74 C117.73 38.6 117.81 38.37 117.81 38.07 C117.81 37.77 117.73 37.55 117.58 37.42 C117.42 37.28 117.19 37.21 116.88 37.21 L115.4 37.21 L115.4 38.94 L116.88 38.94 Z M112.73 36.16 L112.73 37.3 L109.49 37.3 L109.49 38.62 L112.46 38.62 L112.46 39.66 L109.49 39.66 L109.49 41.17 L112.8 41.17 L112.8 42.31 L108.14 42.31 L108.14 36.16 Z"/>
  </g>
  <g transform="matrix(0.955445 0 0 0.955377 0 0)">
    <path fill="#003366" d="M162.05 28.01 L162.05 26.88 L167.08 26.88 L167.08 28.01 L165.24 28.01 L165.24 33.02 L163.89 33.02 L163.89 28.01 L162.05 28.01 M159.88 26.88 L162.18 33.02 L160.78 33.02 L160.32 31.65 L158.02 31.65 L157.54 33.02 L156.18 33.02 L158.5 26.88 L159.88 26.88 Z M159.96 30.64 L159.19 28.39 L159.17 28.39 L158.37 30.64 Z M160.64 26.19 L159.48 26.19 L159.48 25.18 L160.64 25.18 Z M158.87 26.19 L157.71 26.19 L157.71 25.18 L158.87 25.18 Z M151.24 28.01 L151.24 26.88 L156.27 26.88 L156.27 28.01 L154.43 28.01 L154.43 33.02 L153.08 33.02 L153.08 28.01 L151.24 28.01 Z M150.16 33.02 L148.81 33.02 L148.81 26.88 L150.16 26.88 Z M143.88 31.5 C143.95 31.65 144.05 31.76 144.18 31.85 C144.3 31.94 144.45 32.01 144.61 32.05 C144.78 32.09 144.95 32.11 145.13 32.11 C145.25 32.11 145.38 32.1 145.52 32.08 C145.65 32.06 145.78 32.03 145.9 31.97 C146.02 31.91 146.12 31.83 146.2 31.73 C146.28 31.63 146.32 31.5 146.32 31.35 C146.32 31.18 146.27 31.05 146.17 30.94 C146.06 30.84 145.92 30.76 145.75 30.69 C145.58 30.62 145.38 30.56 145.16 30.51 C144.95 30.45 144.73 30.4 144.5 30.33 C144.27 30.28 144.05 30.21 143.83 30.12 C143.61 30.04 143.42 29.93 143.25 29.8 C143.07 29.67 142.93 29.5 142.83 29.31 C142.72 29.11 142.67 28.87 142.67 28.59 C142.67 28.27 142.74 28 142.87 27.77 C143.01 27.53 143.18 27.34 143.4 27.19 C143.62 27.03 143.86 26.92 144.14 26.84 C144.41 26.77 144.69 26.73 144.96 26.73 C145.29 26.73 145.59 26.77 145.89 26.84 C146.18 26.91 146.45 27.03 146.68 27.19 C146.91 27.35 147.09 27.55 147.22 27.8 C147.36 28.05 147.42 28.35 147.42 28.71 L146.12 28.71 C146.1 28.53 146.07 28.37 146 28.25 C145.94 28.13 145.85 28.04 145.74 27.97 C145.63 27.9 145.51 27.85 145.36 27.82 C145.22 27.79 145.07 27.78 144.9 27.78 C144.8 27.78 144.69 27.79 144.58 27.81 C144.47 27.84 144.37 27.88 144.28 27.93 C144.19 27.99 144.12 28.06 144.06 28.15 C144 28.24 143.98 28.34 143.98 28.48 C143.98 28.6 144 28.69 144.04 28.77 C144.09 28.84 144.18 28.91 144.31 28.97 C144.45 29.04 144.63 29.1 144.87 29.16 C145.11 29.23 145.42 29.31 145.81 29.41 C145.92 29.43 146.08 29.47 146.28 29.53 C146.49 29.59 146.69 29.69 146.89 29.82 C147.09 29.95 147.26 30.13 147.41 30.35 C147.56 30.57 147.63 30.85 147.63 31.19 C147.63 31.47 147.58 31.74 147.47 31.98 C147.36 32.22 147.2 32.42 146.98 32.6 C146.77 32.78 146.5 32.91 146.18 33.01 C145.86 33.11 145.49 33.15 145.08 33.15 C144.74 33.15 144.41 33.11 144.09 33.03 C143.78 32.95 143.49 32.82 143.25 32.64 C143.01 32.46 142.81 32.24 142.67 31.96 C142.53 31.68 142.46 31.36 142.46 30.98 L143.77 30.98 C143.77 31.19 143.81 31.36 143.88 31.5 Z M139.7 26.88 C139.98 26.88 140.22 26.92 140.44 27.01 C140.67 27.1 140.85 27.22 141.01 27.38 C141.17 27.53 141.29 27.71 141.37 27.91 C141.46 28.12 141.5 28.34 141.5 28.57 C141.5 28.93 141.42 29.24 141.27 29.51 C141.12 29.77 140.87 29.97 140.52 30.11 L140.52 30.13 C140.69 30.17 140.83 30.24 140.94 30.34 C141.05 30.43 141.13 30.54 141.2 30.67 C141.27 30.8 141.32 30.94 141.35 31.1 C141.39 31.25 141.41 31.41 141.42 31.56 C141.42 31.66 141.43 31.78 141.44 31.91 C141.44 32.04 141.45 32.17 141.47 32.31 C141.48 32.45 141.5 32.58 141.53 32.7 C141.57 32.83 141.61 32.93 141.68 33.02 L140.33 33.02 C140.25 32.82 140.21 32.59 140.19 32.32 C140.17 32.05 140.15 31.79 140.11 31.55 C140.06 31.23 139.97 30.99 139.82 30.84 C139.67 30.69 139.43 30.62 139.09 30.62 L137.74 30.62 L137.74 33.02 L136.39 33.02 L136.39 26.88 L139.7 26.88 Z M139.22 29.66 C139.53 29.66 139.76 29.59 139.92 29.45 C140.07 29.31 140.15 29.09 140.15 28.78 C140.15 28.48 140.07 28.26 139.92 28.13 C139.76 27.99 139.53 27.93 139.22 27.93 L137.74 27.93 L137.74 29.66 Z M135.07 26.88 L135.07 28.01 L131.82 28.01 L131.82 29.33 L134.8 29.33 L134.8 30.38 L131.82 30.38 L131.82 31.88 L135.14 31.88 L135.14 33.02 L130.48 33.02 L130.48 26.88 L135.07 26.88 Z M125.92 33.02 L123.93 26.88 L125.32 26.88 L126.68 31.19 L126.7 31.19 L128.08 26.88 L129.48 26.88 L127.44 33.02 Z M122.96 33.02 L121.6 33.02 L121.6 26.88 L122.96 26.88 Z M116.26 26.88 L118.82 31 L118.84 31 L118.84 26.88 L120.1 26.88 L120.1 33.02 L118.75 33.02 L116.2 28.91 L116.18 28.91 L116.18 33.02 L114.91 33.02 L114.91 26.88 L116.26 26.88 Z M112.7 32.55 C112.23 32.95 111.59 33.15 110.77 33.15 C109.94 33.15 109.29 32.95 108.84 32.55 C108.38 32.15 108.15 31.53 108.15 30.69 L108.15 26.88 L109.51 26.88 L109.51 30.69 C109.51 30.86 109.52 31.02 109.55 31.19 C109.58 31.35 109.64 31.49 109.73 31.61 C109.82 31.73 109.95 31.83 110.11 31.91 C110.27 31.99 110.49 32.03 110.77 32.03 C111.25 32.03 111.58 31.92 111.77 31.71 C111.95 31.49 112.04 31.15 112.04 30.69 L112.04 26.88 L113.39 26.88 L113.39 30.69 C113.39 31.53 113.16 32.14 112.7 32.55 Z"/>
  </g>
  <g transform="matrix(0.955445 0 0 0.955377 0 0)">
    <path fill="#003366" d="M214.73 17.47 C215 17.47 215.25 17.52 215.47 17.61 C215.69 17.7 215.88 17.82 216.04 17.97 C216.2 18.13 216.32 18.31 216.4 18.51 C216.49 18.71 216.53 18.93 216.53 19.17 C216.53 19.53 216.45 19.84 216.3 20.11 C216.15 20.37 215.9 20.57 215.55 20.71 L215.55 20.72 C215.72 20.77 215.86 20.84 215.97 20.94 C216.08 21.03 216.16 21.14 216.23 21.27 C216.3 21.4 216.35 21.54 216.38 21.7 C216.42 21.85 216.44 22.01 216.45 22.16 C216.45 22.26 216.46 22.37 216.47 22.5 C216.47 22.64 216.48 22.77 216.5 22.91 C216.51 23.05 216.53 23.18 216.56 23.3 C216.6 23.42 216.64 23.53 216.71 23.61 L215.36 23.61 C215.28 23.42 215.24 23.19 215.22 22.92 C215.2 22.65 215.18 22.39 215.14 22.14 C215.09 21.82 215 21.59 214.85 21.44 C214.7 21.29 214.45 21.21 214.12 21.21 L212.77 21.21 L212.77 23.61 L211.42 23.61 L211.42 17.47 Z M214.25 20.25 C214.56 20.25 214.79 20.18 214.95 20.05 C215.1 19.91 215.18 19.68 215.18 19.37 C215.18 19.08 215.1 18.86 214.95 18.73 C214.79 18.59 214.56 18.52 214.25 18.52 L212.77 18.52 L212.77 20.25 Z M210.14 17.47 L210.14 18.61 L206.9 18.61 L206.9 19.92 L209.87 19.92 L209.87 20.97 L206.9 20.97 L206.9 22.48 L210.21 22.48 L210.21 23.61 L205.55 23.61 L205.55 17.47 Z M201.65 17.47 C202.05 17.47 202.42 17.54 202.76 17.66 C203.1 17.79 203.39 17.98 203.64 18.23 C203.89 18.48 204.09 18.8 204.23 19.18 C204.37 19.56 204.44 20 204.44 20.51 C204.44 20.96 204.38 21.37 204.27 21.75 C204.15 22.13 203.98 22.45 203.74 22.73 C203.51 23 203.22 23.22 202.88 23.38 C202.53 23.54 202.12 23.61 201.65 23.61 L199 23.61 L199 17.47 L201.65 17.47 Z M201.56 22.48 C201.75 22.48 201.94 22.45 202.12 22.39 C202.31 22.32 202.47 22.22 202.61 22.07 C202.76 21.92 202.87 21.73 202.96 21.5 C203.04 21.26 203.09 20.98 203.09 20.64 C203.09 20.33 203.06 20.05 203 19.8 C202.94 19.55 202.84 19.34 202.7 19.16 C202.56 18.98 202.38 18.85 202.15 18.75 C201.93 18.66 201.65 18.61 201.32 18.61 L200.35 18.61 L200.35 22.48 L201.56 22.48 Z M193.71 17.47 L196.28 21.59 L196.29 21.59 L196.29 17.47 L197.56 17.47 L197.56 23.61 L196.21 23.61 L193.65 19.5 L193.64 19.5 L193.64 23.61 L192.37 23.61 L192.37 17.47 Z M189.27 17.47 L191.57 23.61 L190.17 23.61 L189.7 22.25 L187.41 22.25 L186.93 23.61 L185.57 23.61 L187.89 17.47 Z M189.35 21.24 L188.58 18.99 L188.56 18.99 L187.76 21.24 Z M179.4 17.47 L180.96 17.47 L182.17 19.43 L183.42 17.47 L184.9 17.47 L182.93 20.41 L185.07 23.61 L183.46 23.61 L182.12 21.49 L180.75 23.61 L179.24 23.61 L181.38 20.4 Z M178.36 17.47 L178.36 18.61 L175.12 18.61 L175.12 19.92 L178.09 19.92 L178.09 20.97 L175.12 20.97 L175.12 22.48 L178.43 22.48 L178.43 23.61 L173.77 23.61 L173.77 17.47 Z M169.69 17.47 L169.69 22.48 L172.69 22.48 L172.69 23.61 L168.34 23.61 L168.34 17.47 Z M165.12 17.47 L167.41 23.61 L166.01 23.61 L165.55 22.25 L163.25 22.25 L162.77 23.61 L161.41 23.61 L163.73 17.47 Z M165.19 21.24 L164.42 18.99 L164.4 18.99 L163.6 21.24 Z M160.76 21.79 L158.17 21.79 L158.17 20.74 L160.76 20.74 Z M152.81 17.47 L152.81 19.83 L155.29 19.83 L155.29 17.47 L156.64 17.47 L156.64 23.61 L155.29 23.61 L155.29 20.97 L152.81 20.97 L152.81 23.61 L151.46 23.61 L151.46 17.47 L152.81 17.47 Z M148.71 19.11 C148.62 18.98 148.52 18.87 148.4 18.77 C148.28 18.68 148.15 18.6 148 18.54 C147.84 18.49 147.68 18.46 147.52 18.46 C147.21 18.46 146.96 18.52 146.74 18.64 C146.53 18.76 146.36 18.91 146.23 19.11 C146.1 19.31 146 19.54 145.94 19.79 C145.88 20.04 145.85 20.3 145.85 20.57 C145.85 20.83 145.88 21.08 145.94 21.32 C146 21.57 146.1 21.79 146.23 21.98 C146.36 22.18 146.53 22.33 146.74 22.45 C146.96 22.57 147.21 22.63 147.52 22.63 C147.93 22.63 148.25 22.5 148.49 22.25 C148.72 22 148.86 21.66 148.91 21.25 L150.22 21.25 C150.18 21.63 150.1 21.98 149.95 22.29 C149.81 22.6 149.62 22.86 149.38 23.08 C149.15 23.3 148.87 23.47 148.56 23.58 C148.24 23.69 147.9 23.75 147.52 23.75 C147.05 23.75 146.63 23.67 146.25 23.51 C145.87 23.34 145.56 23.12 145.3 22.83 C145.04 22.55 144.84 22.21 144.71 21.82 C144.57 21.43 144.5 21.02 144.5 20.57 C144.5 20.11 144.57 19.69 144.71 19.29 C144.84 18.9 145.04 18.56 145.3 18.27 C145.56 17.97 145.87 17.74 146.25 17.58 C146.63 17.41 147.05 17.33 147.52 17.33 C147.86 17.33 148.18 17.38 148.48 17.47 C148.78 17.57 149.05 17.71 149.29 17.9 C149.52 18.09 149.72 18.32 149.88 18.59 C150.03 18.87 150.13 19.18 150.17 19.54 L148.86 19.54 C148.84 19.38 148.79 19.24 148.71 19.11 Z M143.31 23.61 L141.96 23.61 L141.96 17.47 L143.31 17.47 Z M138.81 17.47 C139.08 17.47 139.33 17.52 139.55 17.61 C139.77 17.7 139.96 17.82 140.12 17.97 C140.27 18.13 140.4 18.31 140.48 18.51 C140.56 18.71 140.6 18.93 140.6 19.17 C140.6 19.53 140.53 19.84 140.37 20.11 C140.22 20.37 139.97 20.57 139.63 20.71 L139.63 20.72 C139.8 20.77 139.93 20.84 140.04 20.94 C140.15 21.03 140.24 21.14 140.31 21.27 C140.38 21.4 140.43 21.54 140.46 21.7 C140.49 21.85 140.51 22.01 140.52 22.16 C140.53 22.26 140.54 22.37 140.54 22.5 C140.55 22.64 140.56 22.77 140.57 22.91 C140.59 23.05 140.61 23.18 140.64 23.3 C140.67 23.42 140.72 23.53 140.78 23.61 L139.43 23.61 C139.36 23.42 139.31 23.19 139.29 22.92 C139.28 22.65 139.25 22.39 139.22 22.14 C139.17 21.82 139.07 21.59 138.92 21.44 C138.78 21.29 138.53 21.21 138.19 21.21 L136.84 21.21 L136.84 23.61 L135.49 23.61 L135.49 17.47 Z M138.32 20.25 C138.63 20.25 138.87 20.18 139.02 20.05 C139.17 19.91 139.25 19.68 139.25 19.37 C139.25 19.08 139.17 18.86 139.02 18.73 C138.87 18.59 138.63 18.52 138.32 18.52 L136.84 18.52 L136.84 20.25 Z M131.61 17.47 C132.01 17.47 132.38 17.54 132.72 17.66 C133.06 17.79 133.35 17.98 133.6 18.23 C133.85 18.48 134.05 18.8 134.19 19.18 C134.33 19.56 134.4 20 134.4 20.51 C134.4 20.96 134.34 21.37 134.23 21.75 C134.11 22.13 133.94 22.45 133.71 22.73 C133.47 23 133.18 23.22 132.84 23.38 C132.49 23.54 132.08 23.61 131.61 23.61 L128.96 23.61 L128.96 17.47 L131.61 17.47 Z M131.52 22.48 C131.71 22.48 131.9 22.45 132.09 22.39 C132.27 22.32 132.43 22.22 132.58 22.07 C132.72 21.92 132.83 21.73 132.92 21.5 C133.01 21.26 133.05 20.98 133.05 20.64 C133.05 20.33 133.02 20.05 132.96 19.8 C132.9 19.55 132.8 19.34 132.66 19.16 C132.52 18.98 132.34 18.85 132.12 18.75 C131.89 18.66 131.61 18.61 131.28 18.61 L130.31 18.61 L130.31 22.48 L131.52 22.48 Z M127.64 17.47 L127.64 18.61 L124.4 18.61 L124.4 19.92 L127.38 19.92 L127.38 20.97 L124.4 20.97 L124.4 22.48 L127.71 22.48 L127.71 23.61 L123.05 23.61 L123.05 17.47 Z M121.5 23.61 L120.15 23.61 L120.15 17.47 L121.5 17.47 Z M116.86 17.47 C117.14 17.47 117.39 17.52 117.61 17.61 C117.83 17.7 118.02 17.82 118.17 17.97 C118.33 18.13 118.45 18.31 118.54 18.51 C118.62 18.71 118.66 18.93 118.66 19.17 C118.66 19.53 118.58 19.84 118.43 20.11 C118.28 20.37 118.03 20.57 117.69 20.71 L117.69 20.72 C117.85 20.77 117.99 20.84 118.1 20.94 C118.21 21.03 118.3 21.14 118.37 21.27 C118.44 21.4 118.49 21.54 118.52 21.7 C118.55 21.85 118.57 22.01 118.58 22.16 C118.59 22.26 118.59 22.37 118.6 22.5 C118.61 22.64 118.62 22.77 118.63 22.91 C118.64 23.05 118.67 23.18 118.7 23.3 C118.73 23.42 118.78 23.53 118.84 23.61 L117.49 23.61 C117.42 23.42 117.37 23.19 117.35 22.92 C117.34 22.65 117.31 22.39 117.28 22.14 C117.23 21.82 117.13 21.59 116.98 21.44 C116.83 21.29 116.59 21.21 116.25 21.21 L114.9 21.21 L114.9 23.61 L113.55 23.61 L113.55 17.47 Z M116.38 20.25 C116.69 20.25 116.92 20.18 117.08 20.05 C117.23 19.91 117.31 19.68 117.31 19.37 C117.31 19.08 117.23 18.86 117.08 18.73 C116.92 18.59 116.69 18.52 116.38 18.52 L114.9 18.52 L114.9 20.25 Z M112.45 17.47 L112.45 18.61 L109.49 18.61 L109.49 20.03 L112.06 20.03 L112.06 21.08 L109.49 21.08 L109.49 23.61 L108.14 23.61 L108.14 17.47 L112.45 17.47 Z"/>
  </g>
  <g transform="matrix(0.955445 0 0 0.955377 0 0)">
    <path fill="#003366" d="M94.68 39.4 L69.08 39.4 C70.65 40.68 72.47 41.64 74.4 42.31 L89.35 42.31 C91.28 41.64 93.11 40.68 94.68 39.4 Z"/>
  </g>
  <g transform="matrix(0.955445 0 0 0.955377 0 0)">
    <path fill="#003366" d="M24.19 37.93 L35.29 37.93 L35.31 37.88 L35.28 37.88 L36.2 35.02 L25.3 35.02 Z"/>
  </g>
  <g transform="matrix(0.955445 0 0 0.955377 0 0)">
    <path fill="#003366" d="M23.69 39.4 L22.58 42.31 L33.89 42.31 L34.85 39.4 Z"/>
  </g>
  <g transform="matrix(0.955445 0 0 0.955377 0 0)">
    <rect fill="#003366" x="0.01" y="39.4" width="10.58" height="2.92"/>
    <rect fill="#003366" x="0.01" y="35.02" width="10.58" height="2.92"/>
    <rect fill="#003366" x="0.01" y="30.64" width="10.58" height="2.92"/>
    <rect fill="#003366" x="0.01" y="26.27" width="10.58" height="2.92"/>
    <rect fill="#003366" x="0.01" y="13.13" width="10.58" height="2.92"/>
    <rect fill="#003366" x="0.01" y="8.75" width="10.58" height="2.92"/>
    <rect fill="#003366" x="0.01" width="32.37" height="2.92"/>
    <rect fill="#003366" x="0.01" y="4.37" width="32.37" height="2.92"/>
  </g>
  <g transform="matrix(0.955445 0 0 0.955377 0 0)">
    <path fill="#003366" d="M42.92 13.13 L33.37 13.13 L32.26 16.05 L42.03 16.05 Z"/>
  </g>
  <g transform="matrix(0.955445 0 0 0.955377 0 0)">
    <path fill="#003366" d="M37.1 2.92 L50.29 2.92 L49.16 0 L38.21 0 Z"/>
  </g>
  <g transform="matrix(0.955445 0 0 0.955377 0 0)">
    <path fill="#003366" d="M35.49 7.29 L51.94 7.29 L50.81 4.37 L36.59 4.37 Z"/>
  </g>
  <g transform="matrix(0.955445 0 0 0.955377 0 0)">
    <path fill="#003366" d="M44.27 11.67 L53.59 11.67 L52.46 8.76 L34.98 8.76 L33.88 11.67 L43.33 11.67 L43.75 10.34 L43.86 10.34 Z"/>
  </g>
  <g transform="matrix(0.955445 0 0 0.955377 0 0)">
    <path fill="#003366" d="M45.58 16.05 L55.24 16.05 L54.11 13.13 L44.69 13.13 Z"/>
  </g>
  <g transform="matrix(0.955445 0 0 0.955377 0 0)">
    <path fill="#048767" d="M46.89 20.42 L56.9 20.42 L55.76 17.5 L45.99 17.5 Z"/>
  </g>
  <g transform="matrix(0.955445 0 0 0.955377 0 0)">
    <path fill="#048767" d="M48.2 24.79 L58.55 24.79 L57.41 21.88 L47.3 21.88 Z"/>
  </g>
  <g transform="matrix(0.955445 0 0 0.955377 0 0)">
    <path fill="#003366" d="M27.42 29.18 L60.2 29.18 L59.06 26.27 L28.53 26.27 Z"/>
  </g>
  <g transform="matrix(0.955445 0 0 0.955377 0 0)">
    <path fill="#003366" d="M25.81 33.56 L61.85 33.56 L60.72 30.64 L26.91 30.64 Z"/>
  </g>
  <g transform="matrix(0.955445 0 0 0.955377 0 0)">
    <path fill="#003366" d="M52.41 37.93 L63.5 37.93 L62.37 35.02 L51.43 35.02 Z"/>
  </g>
  <g transform="matrix(0.955445 0 0 0.955377 0 0)">
    <path fill="#003366" d="M52.82 39.4 L53.78 42.31 L65.15 42.31 L64.02 39.4 Z"/>
  </g>
  <g transform="matrix(0.955445 0 0 0.955377 0 0)">
    <rect fill="#003366" x="63.94" width="10.6" height="2.92"/>
  </g>
  <g transform="matrix(0.955445 0 0 0.955377 0 0)">
    <rect fill="#003366" x="63.94" y="4.37" width="10.6" height="2.92"/>
  </g>
  <g transform="matrix(0.955445 0 0 0.955377 0 0)">
    <rect fill="#003366" x="63.94" y="8.76" width="10.6" height="2.92"/>
  </g>
  <g transform="matrix(0.955445 0 0 0.955377 0 0)">
    <rect fill="#003366" x="63.94" y="13.13" width="10.6" height="2.92"/>
  </g>
  <g transform="matrix(0.955445 0 0 0.955377 0 0)">
    <rect fill="#048767" x="63.94" y="17.5" width="10.6" height="2.92"/>
  </g>
  <g transform="matrix(0.955445 0 0 0.955377 0 0)">
    <rect fill="#048767" x="63.94" y="21.88" width="10.6" height="2.92"/>
  </g>
  <g transform="matrix(0.955445 0 0 0.955377 0 0)">
    <path fill="#003366" d="M64.02 29.18 L74.73 29.18 C74.6 28.43 74.53 27.62 74.53 26.77 L74.53 26.27 L63.94 26.27 L63.94 27.64 C63.94 28.18 63.98 28.68 64.02 29.18 Z"/>
  </g>
  <g transform="matrix(0.955445 0 0 0.955377 0 0)">
    <path fill="#003366" d="M64.97 33.56 L77.05 33.56 C76.11 32.82 75.47 31.83 75.07 30.64 L64.19 30.64 C64.37 31.68 64.62 32.66 64.97 33.56 Z"/>
  </g>
  <g transform="matrix(0.955445 0 0 0.955377 0 0)">
    <path fill="#003366" d="M98.2 35.02 L65.57 35.02 C66.14 36.11 66.84 37.07 67.64 37.93 L96.13 37.93 C96.93 37.07 97.63 36.11 98.2 35.02 Z"/>
  </g>
  <g transform="matrix(0.955445 0 0 0.955377 0 0)">
    <path fill="#003366" d="M99.57 30.64 L88.69 30.64 C88.29 31.83 87.65 32.82 86.7 33.56 L98.8 33.56 C99.15 32.66 99.4 31.68 99.57 30.64 Z"/>
  </g>
  <g transform="matrix(0.955445 0 0 0.955377 0 0)">
    <rect fill="#003366" x="89.24" width="10.6" height="2.92"/>
  </g>
  <g transform="matrix(0.955445 0 0 0.955377 0 0)">
    <rect fill="#003366" x="89.24" y="4.37" width="10.6" height="2.92"/>
  </g>
  <g transform="matrix(0.955445 0 0 0.955377 0 0)">
    <rect fill="#003366" x="89.24" y="8.76" width="10.6" height="2.92"/>
  </g>
  <g transform="matrix(0.955445 0 0 0.955377 0 0)">
    <rect fill="#003366" x="89.24" y="13.13" width="10.6" height="2.92"/>
  </g>
  <g transform="matrix(0.955445 0 0 0.955377 0 0)">
    <rect fill="#048767" x="89.24" y="17.5" width="10.6" height="2.92"/>
  </g>
  <g transform="matrix(0.955445 0 0 0.955377 0 0)">
    <rect fill="#048767" x="89.24" y="21.88" width="10.6" height="2.92"/>
  </g>
  <g transform="matrix(0.955445 0 0 0.955377 0 0)">
    <path fill="#003366" d="M99.83 27.64 L99.83 26.27 L89.24 26.27 L89.24 26.77 C89.24 27.62 89.17 28.43 89.04 29.18 L99.75 29.18 C99.79 28.68 99.83 28.18 99.83 27.64 Z"/>
  </g>
  <g transform="matrix(0.955445 0 0 0.955377 0 0)">
    <path fill="#048767" d="M0 21.88 L0 24.79 L39.41 24.79 L40.31 21.88 Z"/>
    <path fill="#048767" d="M0 17.5 L0 20.42 L40.72 20.42 L41.62 17.5 Z"/>
  </g>
</svg>
