<?xml version="1.0" encoding="utf-8"?>
<!-- Generator: Adobe Illustrator 15.0.0, SVG Export Plug-In . SVG Version: 6.00 Build 0)  -->
<!DOCTYPE svg PUBLIC "-//W3C//DTD SVG 1.1//EN" "http://www.w3.org/Graphics/SVG/1.1/DTD/svg11.dtd">
<svg version="1.1" id="Ebene_1" xmlns="http://www.w3.org/2000/svg" xmlns:xlink="http://www.w3.org/1999/xlink" x="0px" y="0px"
	 width="217.45px" height="68.031px" viewBox="0 0 217.45 68.031" enable-background="new 0 0 217.45 68.031" xml:space="preserve">
<path fill="#8D1429" d="M212.419,62.889v-1.136h5.031v1.136h-1.841v5.005h-1.351v-5.005H212.419 M211.602,61.753v1.136h-2.968v1.419
	h2.572v1.049h-2.572v2.537h-1.35v-6.141H211.602z M203.971,61.753l2.296,6.141h-1.401l-0.464-1.367h-2.298l-0.48,1.367h-1.358
	l2.321-6.141H203.971z M204.048,65.52l-0.773-2.253h-0.018l-0.8,2.253H204.048z M195.623,61.753v2.356h2.484v-2.356h1.351v6.141
	h-1.351v-2.648h-2.484v2.648h-1.351v-6.141H195.623z M191.479,63.392c-0.08-0.129-0.181-0.242-0.301-0.34
	c-0.121-0.098-0.257-0.174-0.409-0.228c-0.151-0.055-0.311-0.082-0.477-0.082c-0.305,0-0.563,0.059-0.774,0.176
	c-0.212,0.118-0.384,0.276-0.516,0.474c-0.132,0.198-0.228,0.423-0.288,0.675s-0.091,0.514-0.091,0.783
	c0,0.258,0.03,0.509,0.091,0.752c0.061,0.244,0.156,0.463,0.288,0.658c0.132,0.194,0.304,0.351,0.516,0.469
	c0.211,0.117,0.47,0.176,0.774,0.176c0.412,0,0.735-0.126,0.967-0.378c0.232-0.253,0.374-0.586,0.426-0.998h1.308
	c-0.034,0.384-0.124,0.731-0.267,1.041c-0.144,0.31-0.333,0.573-0.568,0.791c-0.234,0.218-0.51,0.384-0.824,0.499
	c-0.316,0.114-0.663,0.172-1.041,0.172c-0.471,0-0.894-0.082-1.269-0.246c-0.376-0.162-0.692-0.388-0.95-0.675
	c-0.258-0.286-0.456-0.623-0.595-1.011c-0.137-0.387-0.205-0.803-0.205-1.25c0-0.459,0.068-0.885,0.205-1.277
	c0.139-0.393,0.337-0.735,0.595-1.027s0.574-0.522,0.95-0.688c0.375-0.167,0.798-0.251,1.269-0.251c0.338,0,0.657,0.05,0.959,0.146
	c0.301,0.098,0.569,0.24,0.808,0.426c0.238,0.187,0.435,0.417,0.589,0.692c0.155,0.275,0.253,0.591,0.293,0.946h-1.308
	C191.61,63.663,191.559,63.521,191.479,63.392 M182.594,66.38c0.074,0.144,0.174,0.259,0.297,0.349
	c0.123,0.088,0.268,0.154,0.435,0.197c0.166,0.043,0.338,0.064,0.516,0.064c0.12,0,0.249-0.01,0.387-0.03
	c0.138-0.02,0.267-0.059,0.387-0.116c0.12-0.057,0.221-0.136,0.301-0.236c0.081-0.1,0.121-0.228,0.121-0.382
	c0-0.167-0.054-0.302-0.159-0.405c-0.105-0.103-0.245-0.188-0.417-0.257c-0.172-0.069-0.367-0.13-0.585-0.181
	c-0.218-0.053-0.438-0.109-0.662-0.173c-0.229-0.057-0.453-0.128-0.671-0.21c-0.218-0.083-0.413-0.19-0.585-0.323
	c-0.172-0.131-0.311-0.297-0.417-0.494c-0.106-0.198-0.159-0.438-0.159-0.718c0-0.315,0.067-0.589,0.202-0.822
	c0.135-0.231,0.312-0.425,0.529-0.58s0.464-0.269,0.739-0.344c0.275-0.074,0.551-0.112,0.825-0.112c0.321,0,0.629,0.036,0.925,0.108
	c0.295,0.071,0.558,0.188,0.787,0.348c0.229,0.161,0.411,0.366,0.546,0.615c0.135,0.25,0.202,0.552,0.202,0.907h-1.308
	c-0.011-0.184-0.05-0.335-0.115-0.455c-0.066-0.121-0.154-0.216-0.263-0.284c-0.109-0.069-0.233-0.117-0.374-0.146
	c-0.141-0.029-0.294-0.044-0.46-0.044c-0.109,0-0.218,0.012-0.327,0.034c-0.108,0.023-0.208,0.063-0.296,0.12
	c-0.09,0.058-0.162,0.13-0.22,0.216s-0.087,0.194-0.087,0.326c0,0.12,0.023,0.219,0.069,0.293s0.137,0.144,0.271,0.206
	c0.135,0.063,0.32,0.126,0.559,0.188c0.237,0.063,0.549,0.145,0.933,0.241c0.115,0.023,0.273,0.064,0.478,0.125
	c0.203,0.061,0.405,0.156,0.606,0.288c0.2,0.132,0.374,0.309,0.521,0.528c0.146,0.221,0.219,0.504,0.219,0.848
	c0,0.281-0.054,0.542-0.163,0.783c-0.109,0.24-0.271,0.448-0.485,0.623c-0.216,0.175-0.482,0.311-0.801,0.408
	c-0.317,0.097-0.687,0.146-1.104,0.146c-0.338,0-0.667-0.042-0.984-0.125c-0.318-0.083-0.6-0.213-0.843-0.391
	c-0.244-0.178-0.438-0.405-0.581-0.681c-0.143-0.274-0.212-0.602-0.206-0.979h1.308C182.482,66.062,182.519,66.236,182.594,66.38
	 M176.272,61.753l2.562,4.119h0.018v-4.119h1.264v6.141h-1.35l-2.555-4.11h-0.018v4.11h-1.264v-6.141H176.272z M173.522,61.753
	v1.136h-3.242v1.315h2.976v1.049h-2.976v1.506h3.311v1.135h-4.661v-6.141H173.522z M164.098,66.38
	c0.075,0.144,0.174,0.259,0.297,0.349c0.123,0.088,0.269,0.154,0.435,0.197s0.338,0.064,0.516,0.064c0.12,0,0.25-0.01,0.388-0.03
	c0.138-0.02,0.267-0.059,0.387-0.116c0.12-0.057,0.221-0.136,0.301-0.236c0.08-0.1,0.121-0.228,0.121-0.382
	c0-0.167-0.054-0.302-0.159-0.405c-0.106-0.103-0.246-0.188-0.418-0.257c-0.172-0.069-0.366-0.13-0.584-0.181
	c-0.219-0.053-0.439-0.109-0.662-0.173c-0.229-0.057-0.453-0.128-0.671-0.21c-0.218-0.083-0.413-0.19-0.585-0.323
	c-0.172-0.131-0.312-0.297-0.417-0.494c-0.107-0.198-0.159-0.438-0.159-0.718c0-0.315,0.067-0.589,0.202-0.822
	c0.134-0.231,0.312-0.425,0.528-0.58c0.219-0.155,0.465-0.269,0.74-0.344c0.275-0.074,0.55-0.112,0.825-0.112
	c0.321,0,0.629,0.036,0.925,0.108c0.295,0.071,0.558,0.188,0.786,0.348c0.229,0.161,0.412,0.366,0.547,0.615
	c0.134,0.25,0.202,0.552,0.202,0.907h-1.308c-0.012-0.184-0.05-0.335-0.116-0.455c-0.066-0.121-0.153-0.216-0.262-0.284
	c-0.109-0.069-0.234-0.117-0.374-0.146c-0.141-0.029-0.294-0.044-0.461-0.044c-0.108,0-0.218,0.012-0.326,0.034
	c-0.109,0.023-0.208,0.063-0.297,0.12c-0.089,0.058-0.162,0.13-0.22,0.216c-0.057,0.086-0.086,0.194-0.086,0.326
	c0,0.12,0.023,0.219,0.069,0.293s0.136,0.144,0.271,0.206c0.135,0.063,0.321,0.126,0.56,0.188c0.237,0.063,0.549,0.145,0.933,0.241
	c0.115,0.023,0.274,0.064,0.478,0.125s0.405,0.156,0.605,0.288c0.201,0.132,0.375,0.309,0.521,0.528
	c0.146,0.221,0.22,0.504,0.22,0.848c0,0.281-0.055,0.542-0.163,0.783c-0.109,0.24-0.271,0.448-0.486,0.623
	c-0.215,0.175-0.481,0.311-0.8,0.408c-0.318,0.097-0.687,0.146-1.104,0.146c-0.339,0-0.667-0.042-0.985-0.125
	c-0.317-0.083-0.599-0.213-0.843-0.391s-0.438-0.405-0.58-0.681c-0.144-0.274-0.212-0.602-0.207-0.979h1.308
	C163.986,66.062,164.023,66.236,164.098,66.38 M158.058,66.38c0.075,0.144,0.174,0.259,0.296,0.349
	c0.125,0.088,0.27,0.154,0.436,0.197s0.338,0.064,0.516,0.064c0.121,0,0.25-0.01,0.388-0.03c0.137-0.02,0.267-0.059,0.387-0.116
	c0.12-0.057,0.221-0.136,0.301-0.236c0.08-0.1,0.12-0.228,0.12-0.382c0-0.167-0.053-0.302-0.158-0.405
	c-0.106-0.103-0.245-0.188-0.418-0.257c-0.171-0.069-0.367-0.13-0.584-0.181c-0.219-0.053-0.439-0.109-0.663-0.173
	c-0.229-0.057-0.452-0.128-0.67-0.21c-0.219-0.083-0.413-0.19-0.585-0.323c-0.172-0.131-0.312-0.297-0.417-0.494
	c-0.106-0.198-0.159-0.438-0.159-0.718c0-0.315,0.067-0.589,0.202-0.822c0.135-0.231,0.311-0.425,0.528-0.58
	c0.219-0.155,0.465-0.269,0.739-0.344c0.276-0.074,0.551-0.112,0.826-0.112c0.321,0,0.63,0.036,0.925,0.108
	c0.295,0.071,0.557,0.188,0.787,0.348c0.229,0.161,0.41,0.366,0.545,0.615c0.135,0.25,0.203,0.552,0.203,0.907h-1.308
	c-0.012-0.184-0.05-0.335-0.116-0.455c-0.065-0.121-0.153-0.216-0.262-0.284c-0.109-0.069-0.234-0.117-0.375-0.146
	c-0.14-0.029-0.294-0.044-0.46-0.044c-0.108,0-0.218,0.012-0.326,0.034c-0.108,0.023-0.208,0.063-0.297,0.12
	c-0.089,0.058-0.162,0.13-0.22,0.216s-0.086,0.194-0.086,0.326c0,0.12,0.023,0.219,0.069,0.293c0.045,0.074,0.136,0.144,0.271,0.206
	c0.135,0.063,0.32,0.126,0.56,0.188c0.237,0.063,0.549,0.145,0.933,0.241c0.114,0.023,0.273,0.064,0.478,0.125
	c0.203,0.061,0.405,0.156,0.605,0.288c0.201,0.132,0.375,0.309,0.521,0.528c0.146,0.221,0.22,0.504,0.22,0.848
	c0,0.281-0.055,0.542-0.163,0.783c-0.109,0.24-0.271,0.448-0.486,0.623s-0.481,0.311-0.8,0.408
	c-0.318,0.097-0.687,0.146-1.104,0.146c-0.339,0-0.667-0.042-0.985-0.125s-0.599-0.213-0.843-0.391
	c-0.243-0.178-0.438-0.405-0.58-0.681c-0.144-0.274-0.212-0.602-0.206-0.979h1.307C157.946,66.062,157.983,66.236,158.058,66.38
	 M155.524,67.894h-1.35v-6.141h1.35V67.894z M150.208,67.894l-1.04-4.18h-0.017l-1.023,4.18h-1.367l-1.626-6.141h1.351l0.971,4.18
	h0.018l1.066-4.18h1.265l1.049,4.231h0.018l1.006-4.231h1.324l-1.651,6.141H150.208z M140.676,66.38
	c0.074,0.144,0.173,0.259,0.297,0.349c0.123,0.088,0.268,0.154,0.434,0.197c0.167,0.043,0.339,0.064,0.517,0.064
	c0.12,0,0.249-0.01,0.387-0.03c0.138-0.02,0.267-0.059,0.387-0.116c0.12-0.057,0.221-0.136,0.301-0.236
	c0.08-0.1,0.12-0.228,0.12-0.382c0-0.167-0.053-0.302-0.158-0.405c-0.106-0.103-0.245-0.188-0.417-0.257
	c-0.172-0.069-0.367-0.13-0.585-0.181c-0.218-0.053-0.438-0.109-0.663-0.173c-0.229-0.057-0.452-0.128-0.67-0.21
	c-0.218-0.083-0.413-0.19-0.585-0.323c-0.172-0.131-0.312-0.297-0.417-0.494c-0.106-0.198-0.159-0.438-0.159-0.718
	c0-0.315,0.067-0.589,0.202-0.822c0.135-0.231,0.312-0.425,0.528-0.58c0.219-0.155,0.465-0.269,0.74-0.344
	c0.275-0.074,0.55-0.112,0.825-0.112c0.321,0,0.629,0.036,0.925,0.108c0.295,0.071,0.558,0.188,0.787,0.348
	c0.229,0.161,0.411,0.366,0.546,0.615c0.135,0.25,0.202,0.552,0.202,0.907h-1.308c-0.012-0.184-0.05-0.335-0.115-0.455
	c-0.067-0.121-0.154-0.216-0.263-0.284c-0.109-0.069-0.233-0.117-0.374-0.146c-0.141-0.029-0.294-0.044-0.46-0.044
	c-0.109,0-0.218,0.012-0.327,0.034c-0.108,0.023-0.208,0.063-0.297,0.12c-0.089,0.058-0.161,0.13-0.219,0.216
	s-0.085,0.194-0.085,0.326c0,0.12,0.021,0.219,0.067,0.293s0.136,0.144,0.271,0.206c0.134,0.063,0.32,0.126,0.559,0.188
	c0.237,0.063,0.549,0.145,0.933,0.241c0.115,0.023,0.273,0.064,0.478,0.125c0.203,0.061,0.405,0.156,0.606,0.288
	c0.2,0.132,0.374,0.309,0.521,0.528c0.146,0.221,0.219,0.504,0.219,0.848c0,0.281-0.055,0.542-0.163,0.783
	c-0.109,0.24-0.271,0.448-0.486,0.623s-0.481,0.311-0.8,0.408c-0.317,0.097-0.687,0.146-1.104,0.146
	c-0.339,0-0.667-0.042-0.984-0.125c-0.318-0.083-0.6-0.213-0.844-0.391c-0.243-0.178-0.437-0.405-0.58-0.681
	c-0.143-0.274-0.212-0.602-0.206-0.979h1.306C140.562,66.062,140.601,66.236,140.676,66.38 M133.574,62.889v-1.136h5.029v1.136
	h-1.839v5.005h-1.351v-5.005H133.574z M128.508,61.753v2.356h2.484v-2.356h1.351v6.141h-1.351v-2.648h-2.484v2.648h-1.351v-6.141
	H128.508z M124.492,63.392c-0.08-0.129-0.181-0.242-0.301-0.34s-0.257-0.174-0.408-0.228c-0.152-0.055-0.312-0.082-0.478-0.082
	c-0.304,0-0.562,0.059-0.774,0.176c-0.212,0.118-0.384,0.276-0.516,0.474c-0.132,0.198-0.228,0.423-0.288,0.675
	c-0.06,0.252-0.09,0.514-0.09,0.783c0,0.258,0.03,0.509,0.09,0.752c0.061,0.244,0.156,0.463,0.288,0.658
	c0.132,0.194,0.304,0.351,0.516,0.469c0.213,0.117,0.471,0.176,0.774,0.176c0.413,0,0.735-0.126,0.968-0.378
	c0.231-0.253,0.374-0.586,0.425-0.998h1.308c-0.034,0.384-0.123,0.731-0.267,1.041s-0.333,0.573-0.567,0.791
	c-0.235,0.218-0.511,0.384-0.826,0.499c-0.315,0.114-0.661,0.172-1.04,0.172c-0.47,0-0.893-0.082-1.269-0.246
	c-0.375-0.162-0.692-0.388-0.95-0.675c-0.258-0.286-0.456-0.623-0.594-1.011c-0.137-0.387-0.206-0.803-0.206-1.25
	c0-0.459,0.069-0.885,0.206-1.277c0.138-0.393,0.336-0.735,0.594-1.027s0.575-0.522,0.95-0.688c0.376-0.167,0.799-0.251,1.269-0.251
	c0.338,0,0.658,0.05,0.959,0.146c0.301,0.098,0.57,0.24,0.809,0.426c0.237,0.187,0.434,0.417,0.589,0.692s0.252,0.591,0.292,0.946
	h-1.307C124.624,63.663,124.572,63.521,124.492,63.392 M119.266,61.753v1.136h-3.242v1.315h2.976v1.049h-2.976v1.506h3.312v1.135
	h-4.661v-6.141H119.266z M111.441,61.753c0.275,0,0.523,0.045,0.744,0.134c0.22,0.089,0.409,0.211,0.567,0.366
	c0.157,0.154,0.278,0.333,0.36,0.536c0.084,0.204,0.126,0.424,0.126,0.658c0,0.361-0.076,0.674-0.229,0.938s-0.4,0.465-0.744,0.603
	v0.017c0.166,0.046,0.304,0.116,0.413,0.211c0.108,0.095,0.198,0.206,0.267,0.335c0.069,0.129,0.119,0.271,0.15,0.426
	s0.053,0.31,0.064,0.465c0.006,0.097,0.012,0.212,0.018,0.343c0.005,0.133,0.016,0.267,0.03,0.405
	c0.014,0.137,0.036,0.268,0.068,0.391c0.031,0.123,0.079,0.228,0.142,0.314h-1.35c-0.075-0.194-0.12-0.428-0.138-0.697
	s-0.043-0.526-0.078-0.773c-0.045-0.321-0.143-0.556-0.292-0.705s-0.393-0.224-0.73-0.224h-1.351v2.399h-1.35v-6.141H111.441z
	 M110.96,64.531c0.31,0,0.542-0.069,0.696-0.206c0.155-0.139,0.232-0.361,0.232-0.672c0-0.298-0.077-0.514-0.232-0.649
	c-0.154-0.134-0.387-0.201-0.696-0.201h-1.479v1.729H110.96z"/>
<path fill="#8D1429" d="M166.673,52.428v2.355h2.485v-2.355h1.35v6.141h-1.35v-2.65h-2.485v2.65h-1.35v-6.141H166.673
	 M162.744,54.066c-0.08-0.13-0.182-0.243-0.301-0.34c-0.121-0.098-0.257-0.174-0.409-0.229c-0.151-0.053-0.311-0.081-0.478-0.081
	c-0.304,0-0.562,0.06-0.773,0.176c-0.212,0.118-0.384,0.275-0.516,0.475c-0.132,0.197-0.229,0.423-0.289,0.674
	c-0.06,0.252-0.09,0.514-0.09,0.783c0,0.258,0.03,0.508,0.09,0.753c0.061,0.243,0.157,0.463,0.289,0.657s0.304,0.352,0.516,0.469
	s0.47,0.176,0.773,0.176c0.413,0,0.736-0.126,0.968-0.378c0.232-0.252,0.374-0.585,0.426-0.998h1.308
	c-0.034,0.384-0.124,0.731-0.267,1.041c-0.144,0.31-0.333,0.574-0.567,0.791c-0.236,0.218-0.511,0.384-0.826,0.499
	c-0.315,0.114-0.662,0.172-1.041,0.172c-0.47,0-0.893-0.082-1.268-0.244c-0.376-0.164-0.692-0.389-0.95-0.676
	s-0.456-0.624-0.594-1.01c-0.138-0.388-0.206-0.805-0.206-1.252c0-0.459,0.068-0.884,0.206-1.277
	c0.138-0.393,0.336-0.734,0.594-1.028c0.258-0.29,0.574-0.521,0.95-0.687c0.375-0.167,0.798-0.25,1.268-0.25
	c0.34,0,0.658,0.049,0.96,0.146c0.3,0.098,0.569,0.239,0.808,0.426c0.238,0.186,0.435,0.417,0.589,0.691
	c0.155,0.276,0.253,0.59,0.293,0.946h-1.308C162.876,54.336,162.824,54.195,162.744,54.066 M157.439,58.568h-1.35v-6.141h1.35
	V58.568z M154.888,52.428v1.135h-3.241v1.315h2.975v1.05h-2.975v1.505h3.31v1.136h-4.661v-6.141H154.888z M147.235,52.428
	c0.275,0,0.522,0.045,0.743,0.134c0.221,0.088,0.41,0.21,0.567,0.366c0.158,0.153,0.278,0.332,0.361,0.535
	c0.083,0.204,0.125,0.424,0.125,0.658c0,0.362-0.076,0.674-0.228,0.938c-0.152,0.264-0.4,0.465-0.744,0.603v0.018
	c0.166,0.045,0.304,0.115,0.413,0.211c0.109,0.094,0.197,0.206,0.266,0.335c0.069,0.129,0.119,0.271,0.151,0.426
	c0.031,0.154,0.053,0.309,0.064,0.464c0.006,0.098,0.012,0.212,0.018,0.344c0.005,0.132,0.016,0.268,0.03,0.404
	c0.014,0.137,0.036,0.269,0.068,0.392c0.031,0.123,0.078,0.227,0.142,0.314h-1.351c-0.074-0.195-0.12-0.428-0.137-0.698
	c-0.018-0.269-0.043-0.527-0.077-0.773c-0.046-0.32-0.144-0.556-0.293-0.705c-0.149-0.148-0.393-0.224-0.73-0.224h-1.351v2.4h-1.351
	v-6.141H147.235z M146.754,55.205c0.309,0,0.541-0.068,0.696-0.207c0.153-0.137,0.232-0.36,0.232-0.67
	c0-0.298-0.079-0.515-0.232-0.648c-0.155-0.136-0.388-0.203-0.696-0.203h-1.479v1.729H146.754z M142.73,52.428v1.135h-3.241v1.315
	h2.975v1.05h-2.975v1.505h3.31v1.136h-4.66v-6.141H142.73z M134.708,57.519c0.132,0,0.259-0.014,0.379-0.039
	s0.226-0.069,0.318-0.129c0.092-0.061,0.164-0.143,0.219-0.245c0.055-0.104,0.082-0.235,0.082-0.396c0-0.314-0.089-0.54-0.267-0.675
	c-0.178-0.134-0.413-0.202-0.705-0.202h-1.471v1.687H134.708z M134.803,52.428c0.293,0,0.559,0.025,0.8,0.077
	s0.447,0.137,0.619,0.254s0.306,0.273,0.4,0.468c0.094,0.195,0.142,0.437,0.142,0.723c0,0.31-0.07,0.567-0.211,0.774
	s-0.349,0.375-0.623,0.508c0.378,0.108,0.661,0.299,0.847,0.571c0.187,0.272,0.28,0.602,0.28,0.984c0,0.31-0.061,0.578-0.182,0.804
	c-0.12,0.228-0.282,0.411-0.485,0.556c-0.204,0.143-0.436,0.249-0.696,0.317c-0.261,0.069-0.529,0.104-0.804,0.104h-2.976v-6.141
	H134.803z M134.631,54.913c0.241,0,0.438-0.058,0.594-0.173c0.154-0.114,0.231-0.3,0.231-0.559c0-0.144-0.025-0.261-0.077-0.353
	s-0.12-0.164-0.206-0.215c-0.086-0.052-0.185-0.087-0.297-0.108c-0.111-0.02-0.228-0.029-0.348-0.029h-1.265v1.437H134.631z
	 M126.702,52.428v2.355h2.484v-2.355h1.351v6.141h-1.351v-2.65h-2.484v2.65h-1.351v-6.141H126.702z M122.772,54.066
	c-0.08-0.13-0.181-0.243-0.301-0.34c-0.121-0.098-0.257-0.174-0.408-0.229c-0.152-0.053-0.312-0.081-0.478-0.081
	c-0.305,0-0.562,0.06-0.774,0.176c-0.212,0.118-0.384,0.275-0.516,0.475c-0.132,0.197-0.228,0.423-0.288,0.674
	c-0.061,0.252-0.09,0.514-0.09,0.783c0,0.258,0.029,0.508,0.09,0.753c0.061,0.243,0.156,0.463,0.288,0.657s0.304,0.352,0.516,0.469
	s0.47,0.176,0.774,0.176c0.412,0,0.735-0.126,0.968-0.378c0.231-0.252,0.374-0.585,0.425-0.998h1.308
	c-0.034,0.384-0.123,0.731-0.267,1.041s-0.333,0.574-0.567,0.791c-0.235,0.218-0.511,0.384-0.825,0.499
	c-0.315,0.114-0.663,0.172-1.041,0.172c-0.471,0-0.894-0.082-1.269-0.244c-0.376-0.164-0.692-0.389-0.95-0.676
	s-0.456-0.624-0.594-1.01c-0.138-0.388-0.206-0.805-0.206-1.252c0-0.459,0.068-0.884,0.206-1.277
	c0.138-0.393,0.336-0.734,0.594-1.028c0.258-0.29,0.574-0.521,0.95-0.687c0.375-0.167,0.798-0.25,1.269-0.25
	c0.338,0,0.658,0.049,0.959,0.146s0.57,0.239,0.808,0.426c0.238,0.186,0.435,0.417,0.589,0.691c0.155,0.276,0.253,0.59,0.293,0.946
	h-1.307C122.904,54.336,122.853,54.195,122.772,54.066 M116.058,52.428l2.296,6.141h-1.401l-0.464-1.368h-2.296l-0.481,1.368h-1.359
	l2.322-6.141H116.058z M116.136,56.194l-0.774-2.253h-0.018l-0.8,2.253H116.136z M112.447,52.428v1.135h-2.967v1.419h2.571v1.049
	h-2.571v2.538h-1.351v-6.141H112.447z"/>
<path fill="#003366" d="M211.049,42.255c-0.292,0.123-0.588,0.186-0.886,0.186c-0.47,0-0.892-0.082-1.267-0.246
	c-0.377-0.163-0.694-0.388-0.951-0.675c-0.259-0.286-0.456-0.623-0.594-1.01c-0.138-0.388-0.207-0.805-0.207-1.252
	c0-0.459,0.069-0.884,0.207-1.276c0.138-0.394,0.335-0.735,0.594-1.027c0.257-0.294,0.574-0.522,0.951-0.688
	c0.375-0.166,0.797-0.249,1.267-0.249c0.315,0,0.621,0.047,0.916,0.142c0.296,0.094,0.562,0.233,0.8,0.417s0.434,0.41,0.589,0.679
	c0.155,0.271,0.25,0.579,0.284,0.93h-1.29c-0.08-0.345-0.235-0.603-0.464-0.774c-0.229-0.172-0.508-0.258-0.835-0.258
	c-0.304,0-0.562,0.058-0.773,0.176s-0.385,0.276-0.517,0.474s-0.227,0.423-0.287,0.675c-0.061,0.253-0.091,0.513-0.091,0.782
	c0,0.259,0.03,0.51,0.091,0.752c0.061,0.244,0.155,0.464,0.287,0.658c0.132,0.196,0.305,0.352,0.517,0.47
	c0.212,0.116,0.47,0.176,0.773,0.176c0.448,0,0.793-0.113,1.037-0.339c0.243-0.228,0.385-0.556,0.425-0.985h-1.358v-1.006h2.58
	v3.319h-0.86l-0.138-0.696C211.608,41.915,211.342,42.132,211.049,42.255 M204.34,36.162c0.274,0,0.522,0.044,0.743,0.134
	c0.221,0.089,0.41,0.21,0.567,0.364c0.158,0.156,0.278,0.335,0.361,0.538c0.083,0.204,0.125,0.423,0.125,0.659
	c0,0.36-0.076,0.673-0.229,0.936c-0.151,0.265-0.399,0.465-0.743,0.604v0.017c0.166,0.045,0.304,0.116,0.413,0.21
	c0.107,0.095,0.197,0.207,0.266,0.336c0.069,0.129,0.119,0.271,0.151,0.426c0.031,0.154,0.052,0.31,0.064,0.465
	c0.005,0.097,0.011,0.212,0.017,0.344s0.016,0.266,0.03,0.404c0.015,0.138,0.037,0.268,0.068,0.391
	c0.032,0.124,0.079,0.228,0.143,0.314h-1.351c-0.074-0.195-0.12-0.428-0.138-0.696c-0.017-0.27-0.043-0.527-0.077-0.775
	c-0.046-0.319-0.144-0.555-0.292-0.704c-0.149-0.149-0.393-0.224-0.731-0.224h-1.35v2.399h-1.351v-6.141H204.34z M203.857,38.94
	c0.31,0,0.542-0.069,0.696-0.206c0.155-0.138,0.232-0.362,0.232-0.671c0-0.298-0.077-0.516-0.232-0.65
	c-0.154-0.134-0.387-0.201-0.696-0.201h-1.479v1.729H203.857z M199.619,36.162v1.135h-3.241v1.317h2.976v1.048h-2.976v1.505h3.31
	v1.136h-4.66v-6.141H199.619z M191.555,41.253c0.131,0,0.258-0.012,0.378-0.039c0.12-0.025,0.227-0.068,0.318-0.129
	c0.092-0.06,0.165-0.142,0.219-0.245c0.055-0.103,0.082-0.234,0.082-0.395c0-0.315-0.089-0.541-0.267-0.675
	c-0.178-0.136-0.412-0.202-0.705-0.202h-1.471v1.685H191.555z M191.649,36.162c0.292,0,0.559,0.026,0.799,0.078
	c0.241,0.051,0.448,0.135,0.619,0.253c0.173,0.118,0.306,0.274,0.4,0.468c0.095,0.196,0.142,0.437,0.142,0.724
	c0,0.31-0.07,0.566-0.211,0.773c-0.14,0.207-0.348,0.376-0.623,0.508c0.378,0.109,0.661,0.3,0.847,0.571
	c0.187,0.273,0.28,0.602,0.28,0.985c0,0.309-0.061,0.578-0.181,0.804c-0.12,0.227-0.284,0.412-0.486,0.555
	c-0.203,0.144-0.436,0.249-0.696,0.318c-0.261,0.068-0.528,0.104-0.804,0.104h-2.976v-6.141H191.649z M191.477,38.648
	c0.241,0,0.439-0.059,0.594-0.173s0.232-0.301,0.232-0.56c0-0.143-0.026-0.26-0.078-0.352c-0.051-0.092-0.121-0.164-0.206-0.215
	c-0.086-0.053-0.185-0.087-0.296-0.107c-0.112-0.021-0.229-0.03-0.349-0.03h-1.265v1.437H191.477z M183.367,36.162l2.562,4.119
	h0.017v-4.119h1.265v6.141h-1.35l-2.555-4.11h-0.018v4.11h-1.264v-6.141H183.367z M178.836,36.162c0.275,0,0.523,0.044,0.744,0.134
	c0.221,0.089,0.409,0.21,0.567,0.364c0.158,0.156,0.278,0.335,0.36,0.538c0.084,0.204,0.125,0.423,0.125,0.659
	c0,0.36-0.076,0.673-0.228,0.936c-0.152,0.265-0.399,0.465-0.744,0.604v0.017c0.167,0.045,0.304,0.116,0.413,0.21
	c0.109,0.095,0.198,0.207,0.267,0.336s0.119,0.271,0.15,0.426s0.054,0.31,0.064,0.465c0.006,0.097,0.012,0.212,0.018,0.344
	s0.016,0.266,0.03,0.404c0.014,0.138,0.037,0.268,0.068,0.391c0.031,0.124,0.079,0.228,0.141,0.314h-1.349
	c-0.075-0.195-0.121-0.428-0.138-0.696c-0.018-0.27-0.043-0.527-0.077-0.775c-0.046-0.319-0.144-0.555-0.293-0.704
	c-0.148-0.149-0.394-0.224-0.73-0.224h-1.351v2.399h-1.351v-6.141H178.836z M178.354,38.94c0.311,0,0.543-0.069,0.697-0.206
	c0.155-0.138,0.232-0.362,0.232-0.671c0-0.298-0.077-0.516-0.232-0.65c-0.154-0.134-0.387-0.201-0.697-0.201h-1.479v1.729H178.354z
	 M173.441,41.834c-0.464,0.404-1.106,0.606-1.926,0.606c-0.832,0-1.476-0.201-1.931-0.604c-0.456-0.399-0.684-1.02-0.684-1.856
	v-3.818h1.35v3.818c0,0.167,0.015,0.33,0.043,0.491c0.029,0.159,0.089,0.302,0.181,0.425s0.22,0.223,0.383,0.301
	c0.164,0.078,0.383,0.116,0.658,0.116c0.481,0,0.813-0.108,0.997-0.322c0.184-0.216,0.275-0.552,0.275-1.011v-3.818h1.35v3.818
	C174.138,40.812,173.906,41.43,173.441,41.834 M172.985,35.475h-1.161v-1.007h1.161V35.475z M171.214,35.475h-1.161v-1.007h1.161
	V35.475z M163.58,36.162l2.562,4.119h0.017v-4.119h1.265v6.141h-1.351l-2.554-4.11h-0.018v4.11h-1.264v-6.141H163.58z
	 M160.687,40.479h-2.589v-1.049h2.589V40.479z M152.722,36.162l2.563,4.119h0.017v-4.119h1.265v6.141h-1.351l-2.554-4.11h-0.018
	v4.11h-1.264v-6.141H152.722z M149.972,36.162v1.135h-3.241v1.317h2.976v1.048h-2.976v1.505h3.311v1.136h-4.661v-6.141H149.972z
	 M142.259,42.255c-0.293,0.123-0.588,0.186-0.886,0.186c-0.471,0-0.895-0.082-1.27-0.246c-0.375-0.163-0.691-0.388-0.949-0.675
	c-0.258-0.286-0.456-0.623-0.594-1.01c-0.137-0.388-0.207-0.805-0.207-1.252c0-0.459,0.07-0.884,0.207-1.276
	c0.138-0.394,0.336-0.735,0.594-1.027c0.258-0.294,0.574-0.522,0.949-0.688s0.799-0.249,1.27-0.249c0.314,0,0.62,0.047,0.916,0.142
	c0.295,0.094,0.562,0.233,0.8,0.417c0.237,0.184,0.434,0.41,0.589,0.679c0.154,0.271,0.249,0.579,0.283,0.93h-1.29
	c-0.08-0.345-0.234-0.603-0.464-0.774s-0.508-0.258-0.834-0.258c-0.304,0-0.562,0.058-0.774,0.176s-0.384,0.276-0.516,0.474
	s-0.228,0.423-0.288,0.675c-0.061,0.253-0.091,0.513-0.091,0.782c0,0.259,0.03,0.51,0.091,0.752
	c0.061,0.244,0.156,0.464,0.288,0.658c0.132,0.196,0.304,0.352,0.516,0.47c0.212,0.116,0.471,0.176,0.774,0.176
	c0.447,0,0.792-0.113,1.036-0.339c0.243-0.228,0.385-0.556,0.426-0.985h-1.359v-1.006h2.58v3.319h-0.86l-0.137-0.696
	C142.817,41.915,142.551,42.132,142.259,42.255 M133.384,36.162l2.562,4.119h0.018v-4.119h1.264v6.141h-1.35l-2.555-4.11h-0.017
	v4.11h-1.264v-6.141H133.384z M128.981,36.162l2.296,6.141h-1.401l-0.465-1.367h-2.296l-0.482,1.367h-1.358l2.322-6.141H128.981z
	 M129.059,39.93l-0.774-2.254h-0.017l-0.8,2.254H129.059z M121.724,36.162v5.005h2.992v1.136h-4.343v-6.141H121.724z
	 M117.356,36.162c0.274,0,0.522,0.044,0.743,0.134c0.221,0.089,0.409,0.21,0.567,0.364c0.158,0.156,0.278,0.335,0.361,0.538
	c0.083,0.204,0.125,0.423,0.125,0.659c0,0.36-0.076,0.673-0.229,0.936c-0.151,0.265-0.399,0.465-0.743,0.604v0.017
	c0.166,0.045,0.304,0.116,0.412,0.21c0.109,0.095,0.198,0.207,0.267,0.336c0.069,0.129,0.118,0.271,0.151,0.426
	c0.031,0.154,0.053,0.31,0.064,0.465c0.005,0.097,0.011,0.212,0.017,0.344s0.016,0.266,0.03,0.404
	c0.015,0.138,0.037,0.268,0.069,0.391c0.031,0.124,0.079,0.228,0.142,0.314h-1.351c-0.074-0.195-0.12-0.428-0.138-0.696
	c-0.018-0.27-0.043-0.527-0.077-0.775c-0.046-0.319-0.144-0.555-0.292-0.704c-0.149-0.149-0.393-0.224-0.731-0.224h-1.349v2.399
	h-1.352v-6.141H117.356z M116.874,38.94c0.31,0,0.542-0.069,0.696-0.206c0.155-0.138,0.232-0.362,0.232-0.671
	c0-0.298-0.077-0.516-0.232-0.65c-0.154-0.134-0.387-0.201-0.696-0.201h-1.478v1.729H116.874z M112.723,36.162v1.135h-3.242v1.317
	h2.976v1.048h-2.976v1.505h3.311v1.136h-4.661v-6.141H112.723z"/>
<path fill="#003366" d="M162.041,28.01v-1.135h5.03v1.135h-1.84v5.005h-1.351V28.01H162.041 M159.874,26.875l2.296,6.14h-1.402
	l-0.464-1.367h-2.296l-0.481,1.367h-1.358l2.321-6.14H159.874z M159.951,30.642l-0.773-2.253h-0.018l-0.8,2.253H159.951z
	 M160.63,26.187h-1.161v-1.005h1.161V26.187z M158.859,26.187h-1.161v-1.005h1.161V26.187z M151.231,28.01v-1.135h5.031v1.135
	h-1.841v5.005h-1.351V28.01H151.231z M150.147,33.015h-1.35v-6.14h1.35V33.015z M143.87,31.502c0.074,0.143,0.174,0.259,0.297,0.348
	c0.123,0.089,0.269,0.155,0.435,0.197c0.166,0.044,0.338,0.065,0.516,0.065c0.121,0,0.25-0.009,0.387-0.029
	c0.138-0.02,0.268-0.06,0.388-0.117s0.22-0.136,0.301-0.236c0.08-0.1,0.121-0.228,0.121-0.383c0-0.166-0.054-0.3-0.16-0.404
	s-0.244-0.189-0.417-0.258c-0.172-0.069-0.366-0.129-0.585-0.181c-0.218-0.052-0.438-0.108-0.662-0.172
	c-0.229-0.057-0.453-0.127-0.671-0.21s-0.412-0.191-0.584-0.323c-0.173-0.132-0.312-0.297-0.417-0.494
	c-0.106-0.198-0.159-0.438-0.159-0.718c0-0.316,0.067-0.589,0.202-0.821c0.135-0.233,0.311-0.427,0.528-0.581
	c0.218-0.156,0.465-0.269,0.739-0.344c0.275-0.075,0.551-0.111,0.826-0.111c0.321,0,0.629,0.035,0.925,0.106
	c0.295,0.073,0.558,0.188,0.786,0.349c0.229,0.16,0.411,0.365,0.546,0.615c0.135,0.248,0.202,0.552,0.202,0.907h-1.307
	c-0.012-0.184-0.051-0.335-0.116-0.456c-0.065-0.12-0.153-0.214-0.263-0.284c-0.108-0.069-0.233-0.117-0.374-0.146
	c-0.141-0.028-0.294-0.043-0.46-0.043c-0.108,0-0.218,0.012-0.326,0.035c-0.109,0.023-0.208,0.063-0.296,0.12
	c-0.09,0.057-0.163,0.129-0.221,0.215c-0.058,0.085-0.086,0.195-0.086,0.327c0,0.12,0.023,0.218,0.069,0.292
	c0.046,0.074,0.136,0.143,0.271,0.207c0.135,0.062,0.321,0.126,0.559,0.188c0.238,0.064,0.55,0.144,0.934,0.241
	c0.114,0.023,0.273,0.065,0.478,0.125c0.203,0.06,0.405,0.156,0.605,0.288c0.201,0.132,0.374,0.309,0.521,0.529
	c0.146,0.22,0.219,0.503,0.219,0.847c0,0.281-0.054,0.542-0.163,0.783c-0.108,0.24-0.271,0.449-0.485,0.623
	c-0.215,0.175-0.481,0.312-0.8,0.409c-0.318,0.098-0.687,0.146-1.104,0.146c-0.339,0-0.667-0.042-0.985-0.125
	s-0.6-0.213-0.843-0.392c-0.243-0.177-0.437-0.404-0.58-0.678c-0.144-0.276-0.213-0.602-0.206-0.981h1.307
	C143.759,31.184,143.796,31.359,143.87,31.502 M139.691,26.875c0.275,0,0.522,0.045,0.744,0.134c0.22,0.089,0.409,0.21,0.567,0.365
	c0.157,0.155,0.277,0.334,0.361,0.537c0.082,0.204,0.124,0.424,0.124,0.658c0,0.362-0.076,0.674-0.228,0.937
	c-0.152,0.264-0.399,0.465-0.744,0.603v0.017c0.166,0.046,0.304,0.116,0.413,0.21c0.108,0.095,0.197,0.207,0.267,0.335
	c0.068,0.13,0.118,0.272,0.15,0.427c0.031,0.154,0.053,0.309,0.064,0.464c0.006,0.097,0.012,0.212,0.018,0.344
	c0.005,0.132,0.016,0.266,0.029,0.404c0.015,0.137,0.038,0.268,0.069,0.391s0.078,0.228,0.142,0.314h-1.35
	c-0.075-0.195-0.121-0.427-0.138-0.696c-0.018-0.269-0.043-0.527-0.078-0.774c-0.046-0.321-0.143-0.556-0.292-0.706
	c-0.149-0.149-0.393-0.223-0.73-0.223h-1.351v2.399h-1.351v-6.14H139.691z M139.21,29.653c0.31,0,0.541-0.069,0.696-0.206
	c0.154-0.138,0.232-0.362,0.232-0.671c0-0.298-0.078-0.515-0.232-0.65c-0.155-0.134-0.387-0.201-0.696-0.201h-1.479v1.728H139.21z
	 M135.058,26.875v1.135h-3.241v1.317h2.975v1.048h-2.975v1.505h3.311v1.135h-4.661v-6.14H135.058z M125.908,33.015l-1.986-6.14
	h1.385l1.367,4.317h0.018l1.384-4.317h1.394l-2.038,6.14H125.908z M122.947,33.015h-1.351v-6.14h1.351V33.015z M116.249,26.875
	l2.562,4.119h0.017v-4.119h1.264v6.14h-1.35l-2.554-4.11h-0.018v4.11h-1.264v-6.14H116.249z M112.688,32.547
	c-0.465,0.404-1.106,0.606-1.926,0.606c-0.832,0-1.476-0.201-1.931-0.603c-0.456-0.401-0.685-1.02-0.685-1.857v-3.818h1.351v3.818
	c0,0.167,0.015,0.33,0.043,0.491c0.029,0.16,0.089,0.302,0.181,0.425c0.092,0.124,0.219,0.224,0.382,0.301
	c0.164,0.078,0.384,0.116,0.659,0.116c0.481,0,0.813-0.108,0.997-0.322c0.184-0.216,0.275-0.553,0.275-1.011v-3.818h1.35v3.818
	C113.385,31.525,113.153,32.142,112.688,32.547"/>
<path fill="#003366" d="M214.716,17.473c0.275,0,0.523,0.044,0.744,0.133c0.221,0.089,0.41,0.211,0.567,0.366
	c0.158,0.155,0.278,0.334,0.361,0.537c0.083,0.204,0.125,0.423,0.125,0.658c0,0.361-0.076,0.674-0.229,0.937
	c-0.151,0.264-0.399,0.465-0.744,0.602v0.017c0.167,0.046,0.305,0.117,0.413,0.211c0.108,0.095,0.198,0.206,0.267,0.335
	c0.069,0.129,0.119,0.272,0.15,0.427c0.031,0.153,0.054,0.309,0.064,0.464c0.006,0.097,0.012,0.212,0.018,0.344
	c0.006,0.132,0.016,0.266,0.03,0.404c0.014,0.137,0.038,0.268,0.068,0.391c0.032,0.123,0.079,0.228,0.143,0.314h-1.351
	c-0.074-0.195-0.12-0.427-0.138-0.697c-0.017-0.269-0.043-0.526-0.077-0.774c-0.046-0.32-0.144-0.556-0.293-0.705
	c-0.148-0.148-0.393-0.224-0.73-0.224h-1.351v2.4h-1.35v-6.14H214.716 M214.234,20.251c0.31,0,0.542-0.07,0.697-0.207
	c0.154-0.138,0.231-0.361,0.231-0.671c0-0.297-0.077-0.514-0.231-0.649c-0.155-0.135-0.388-0.202-0.697-0.202h-1.479v1.729H214.234z
	 M210.126,17.473v1.135h-3.242v1.316h2.975v1.049h-2.975v1.505h3.311v1.135h-4.66v-6.14H210.126z M201.638,17.473
	c0.396,0,0.764,0.063,1.105,0.189c0.341,0.126,0.637,0.315,0.886,0.568c0.249,0.252,0.444,0.567,0.585,0.946
	c0.14,0.378,0.21,0.822,0.21,1.332c0,0.448-0.057,0.861-0.172,1.238c-0.114,0.38-0.288,0.706-0.521,0.981
	c-0.231,0.275-0.521,0.492-0.868,0.649c-0.347,0.159-0.755,0.237-1.226,0.237h-2.648v-6.14H201.638z M201.543,22.478
	c0.195,0,0.385-0.031,0.568-0.095c0.183-0.062,0.347-0.168,0.489-0.314c0.144-0.145,0.259-0.336,0.344-0.571
	c0.087-0.235,0.13-0.522,0.13-0.86c0-0.31-0.03-0.589-0.09-0.839c-0.061-0.249-0.16-0.463-0.298-0.64
	c-0.138-0.178-0.319-0.314-0.545-0.409c-0.227-0.094-0.507-0.142-0.839-0.142h-0.963v3.87H201.543z M193.701,17.473l2.562,4.119
	h0.017v-4.119h1.264v6.14h-1.35l-2.554-4.111h-0.018v4.111h-1.264v-6.14H193.701z M189.261,17.473l2.296,6.14h-1.401l-0.465-1.367
	h-2.296l-0.481,1.367h-1.358l2.321-6.14H189.261z M189.338,21.24l-0.773-2.253h-0.018l-0.8,2.253H189.338z M179.389,17.473h1.564
	l1.204,1.96l1.247-1.96h1.479l-1.97,2.933l2.142,3.207h-1.608l-1.341-2.124l-1.367,2.124h-1.514l2.141-3.216L179.389,17.473z
	 M178.349,17.473v1.135h-3.242v1.316h2.975v1.049h-2.975v1.505h3.311v1.135h-4.661v-6.14H178.349z M169.684,17.473v5.005h2.992
	v1.135h-4.342v-6.14H169.684z M165.106,17.473l2.296,6.14h-1.401l-0.465-1.367h-2.296l-0.481,1.367H161.4l2.321-6.14H165.106z
	 M165.184,21.24l-0.773-2.253h-0.018l-0.8,2.253H165.184z M160.752,21.79h-2.589v-1.049h2.589V21.79z M152.796,17.473v2.357h2.485
	v-2.357h1.351v6.14h-1.351v-2.649h-2.485v2.649h-1.351v-6.14H152.796z M148.695,19.111c-0.081-0.129-0.181-0.242-0.301-0.339
	c-0.121-0.098-0.257-0.174-0.409-0.229c-0.151-0.054-0.311-0.081-0.477-0.081c-0.305,0-0.562,0.058-0.774,0.176
	s-0.384,0.276-0.516,0.473c-0.132,0.198-0.229,0.423-0.288,0.675c-0.061,0.253-0.091,0.513-0.091,0.783
	c0,0.258,0.03,0.509,0.091,0.752c0.06,0.244,0.156,0.463,0.288,0.658c0.132,0.195,0.304,0.352,0.516,0.469s0.47,0.176,0.774,0.176
	c0.412,0,0.734-0.126,0.967-0.378s0.374-0.585,0.426-0.998h1.308c-0.034,0.384-0.124,0.731-0.267,1.041
	c-0.144,0.309-0.333,0.573-0.568,0.791c-0.234,0.218-0.51,0.384-0.825,0.499c-0.315,0.114-0.662,0.172-1.04,0.172
	c-0.471,0-0.894-0.082-1.269-0.246c-0.376-0.163-0.692-0.388-0.95-0.674c-0.258-0.287-0.456-0.624-0.594-1.01
	c-0.138-0.388-0.206-0.805-0.206-1.252c0-0.459,0.068-0.884,0.206-1.277c0.138-0.393,0.336-0.736,0.594-1.028
	s0.574-0.521,0.95-0.688c0.375-0.166,0.798-0.249,1.269-0.249c0.338,0,0.657,0.048,0.958,0.146c0.302,0.097,0.57,0.239,0.809,0.426
	c0.238,0.186,0.435,0.417,0.589,0.692c0.155,0.275,0.253,0.59,0.293,0.946h-1.308C148.827,19.382,148.775,19.24,148.695,19.111
	 M143.305,23.613h-1.35v-6.14h1.35V23.613z M138.796,17.473c0.275,0,0.523,0.044,0.744,0.133c0.221,0.089,0.41,0.211,0.567,0.366
	c0.158,0.155,0.278,0.334,0.361,0.537c0.083,0.204,0.125,0.423,0.125,0.658c0,0.361-0.076,0.674-0.228,0.937
	c-0.152,0.264-0.4,0.465-0.744,0.602v0.017c0.166,0.046,0.304,0.117,0.413,0.211c0.108,0.095,0.197,0.206,0.267,0.335
	c0.068,0.129,0.118,0.272,0.15,0.427c0.031,0.153,0.053,0.309,0.064,0.464c0.005,0.097,0.011,0.212,0.017,0.344
	c0.006,0.132,0.017,0.266,0.029,0.404c0.016,0.137,0.038,0.268,0.069,0.391c0.032,0.123,0.079,0.228,0.143,0.314h-1.35
	c-0.075-0.195-0.121-0.427-0.138-0.697c-0.018-0.269-0.044-0.526-0.078-0.774c-0.046-0.32-0.144-0.556-0.292-0.705
	c-0.149-0.148-0.393-0.224-0.731-0.224h-1.35v2.4h-1.351v-6.14H138.796z M138.314,20.251c0.31,0,0.542-0.07,0.697-0.207
	c0.154-0.138,0.231-0.361,0.231-0.671c0-0.297-0.077-0.514-0.231-0.649c-0.155-0.135-0.388-0.202-0.697-0.202h-1.479v1.729H138.314z
	 M131.604,17.473c0.396,0,0.764,0.063,1.105,0.189c0.341,0.126,0.637,0.315,0.886,0.568c0.249,0.252,0.444,0.567,0.585,0.946
	c0.141,0.378,0.21,0.822,0.21,1.332c0,0.448-0.057,0.861-0.172,1.238c-0.114,0.38-0.287,0.706-0.52,0.981
	c-0.232,0.275-0.522,0.492-0.869,0.649c-0.347,0.159-0.755,0.237-1.226,0.237h-2.648v-6.14H131.604z M131.51,22.478
	c0.194,0,0.384-0.031,0.567-0.095c0.184-0.062,0.347-0.168,0.49-0.314c0.143-0.145,0.258-0.336,0.344-0.571
	c0.086-0.235,0.129-0.522,0.129-0.86c0-0.31-0.03-0.589-0.09-0.839c-0.061-0.249-0.16-0.463-0.298-0.64
	c-0.137-0.178-0.319-0.314-0.545-0.409c-0.227-0.094-0.507-0.142-0.839-0.142h-0.963v3.87H131.51z M127.633,17.473v1.135h-3.241
	v1.316h2.975v1.049h-2.975v1.505h3.31v1.135h-4.66v-6.14H127.633z M121.493,23.613h-1.351v-6.14h1.351V23.613z M116.855,17.473
	c0.275,0,0.522,0.044,0.743,0.133c0.222,0.089,0.41,0.211,0.568,0.366c0.157,0.155,0.277,0.334,0.36,0.537
	c0.084,0.204,0.125,0.423,0.125,0.658c0,0.361-0.076,0.674-0.228,0.937c-0.152,0.264-0.4,0.465-0.744,0.602v0.017
	c0.166,0.046,0.304,0.117,0.413,0.211c0.108,0.095,0.198,0.206,0.267,0.335c0.068,0.129,0.118,0.272,0.15,0.427
	c0.031,0.153,0.053,0.309,0.064,0.464c0.006,0.097,0.012,0.212,0.017,0.344c0.006,0.132,0.016,0.266,0.03,0.404
	c0.015,0.137,0.038,0.268,0.069,0.391s0.08,0.228,0.142,0.314h-1.35c-0.075-0.195-0.121-0.427-0.138-0.697
	c-0.018-0.269-0.044-0.526-0.078-0.774c-0.046-0.32-0.143-0.556-0.292-0.705c-0.149-0.148-0.393-0.224-0.73-0.224h-1.351v2.4h-1.35
	v-6.14H116.855z M116.374,20.251c0.309,0,0.542-0.07,0.696-0.207c0.155-0.138,0.231-0.361,0.231-0.671
	c0-0.297-0.076-0.514-0.231-0.649c-0.154-0.135-0.388-0.202-0.696-0.202h-1.479v1.729H116.374z M112.447,17.473v1.135h-2.967v1.419
	h2.571v1.049h-2.571v2.537h-1.351v-6.14H112.447z"/>
<path fill="#003366" d="M94.678,39.393H69.075c1.573,1.283,3.393,2.247,5.321,2.917h14.946
	C91.277,41.64,93.102,40.676,94.678,39.393"/>
<polyline fill="#003366" points="24.193,37.931 35.29,37.931 35.307,37.876 35.276,37.876 36.195,35.013 25.297,35.013 
	24.193,37.931 "/>
<polyline fill="#003366" points="23.685,39.393 22.58,42.31 33.885,42.31 34.849,39.393 23.685,39.393 "/>
<rect y="39.392" fill="#003366" width="10.596" height="2.917"/>
<rect y="35.014" fill="#003366" width="10.596" height="2.917"/>
<rect y="30.638" fill="#003366" width="10.596" height="2.917"/>
<rect y="26.264" fill="#003366" width="10.596" height="2.916"/>
<rect y="13.132" fill="#003366" width="10.596" height="2.917"/>
<rect y="8.749" fill="#003366" width="10.596" height="2.917"/>
<rect fill="#003366" width="32.382" height="2.916"/>
<rect y="4.375" fill="#003366" width="32.382" height="2.917"/>
<polyline fill="#003366" points="42.922,13.132 33.366,13.132 32.26,16.048 42.023,16.048 42.922,13.132 "/>
<polyline fill="#003366" points="37.101,2.916 50.291,2.916 49.161,0 38.207,0 37.101,2.916 "/>
<polyline fill="#003366" points="35.487,7.291 51.94,7.291 50.809,4.374 36.592,4.374 35.487,7.291 "/>
<polyline fill="#003366" points="44.271,11.674 53.591,11.674 52.46,8.758 34.979,8.758 33.874,11.674 43.333,11.674 43.743,10.337 
	43.861,10.337 44.271,11.674 "/>
<polyline fill="#003366" points="45.58,16.048 55.241,16.048 54.11,13.132 44.685,13.132 45.58,16.048 "/>
<polyline fill="#8D1429" points="46.887,20.418 56.892,20.418 55.761,17.502 45.992,17.502 46.887,20.418 "/>
<polyline fill="#8D1429" points="48.195,24.792 58.543,24.792 57.411,21.875 47.299,21.875 48.195,24.792 "/>
<polyline fill="#003366" points="27.419,29.18 60.193,29.18 59.062,26.264 28.525,26.264 27.419,29.18 "/>
<polyline fill="#003366" points="25.807,33.555 61.843,33.555 60.712,30.638 26.912,30.638 25.807,33.555 "/>
<polyline fill="#003366" points="52.405,37.931 63.495,37.931 62.363,35.013 51.428,35.013 52.405,37.931 "/>
<polyline fill="#003366" points="52.816,39.393 53.778,42.31 65.143,42.31 64.012,39.393 52.816,39.393 "/>
<rect x="63.932" fill="#003366" width="10.595" height="2.916"/>
<rect x="63.932" y="4.375" fill="#003366" width="10.595" height="2.917"/>
<rect x="63.932" y="8.758" fill="#003366" width="10.595" height="2.917"/>
<rect x="63.932" y="13.132" fill="#003366" width="10.595" height="2.916"/>
<rect x="63.932" y="17.502" fill="#8D1429" width="10.595" height="2.916"/>
<rect x="63.932" y="21.876" fill="#8D1429" width="10.595" height="2.917"/>
<path fill="#003366" d="M64.016,29.18h10.71c-0.135-0.755-0.199-1.562-0.199-2.411v-0.505H63.932v1.374
	C63.932,28.174,63.974,28.676,64.016,29.18"/>
<path fill="#003366" d="M64.964,33.555h12.084c-0.941-0.734-1.58-1.73-1.98-2.917H64.191C64.364,31.679,64.615,32.659,64.964,33.555
	"/>
<path fill="#003366" d="M98.192,35.013H65.563c0.569,1.09,1.272,2.056,2.069,2.917h28.491
	C96.921,37.069,97.625,36.104,98.192,35.013"/>
<path fill="#003366" d="M99.568,30.638H88.689c-0.401,1.186-1.046,2.183-1.992,2.917h12.096
	C99.142,32.658,99.392,31.678,99.568,30.638"/>
<rect x="89.23" fill="#003366" width="10.596" height="2.916"/>
<rect x="89.23" y="4.375" fill="#003366" width="10.596" height="2.917"/>
<rect x="89.23" y="8.758" fill="#003366" width="10.596" height="2.917"/>
<rect x="89.23" y="13.132" fill="#003366" width="10.596" height="2.916"/>
<rect x="89.23" y="17.502" fill="#8D1429" width="10.596" height="2.916"/>
<rect x="89.23" y="21.876" fill="#8D1429" width="10.596" height="2.917"/>
<path fill="#003366" d="M99.826,27.638v-1.374H89.231v0.505c0,0.849-0.064,1.656-0.199,2.411h10.709
	C99.783,28.677,99.826,28.174,99.826,27.638"/>
<polyline fill="#8D1429" points="0,21.876 0,24.792 39.41,24.792 40.306,21.876 0,21.876 "/>
<polyline fill="#8D1429" points="0,17.502 0,20.418 40.718,20.418 41.613,17.502 0,17.502 "/>
</svg>
