<?xml version="1.0" encoding="utf-8"?>
<!-- Generator: Adobe Illustrator 15.0.0, SVG Export Plug-In . SVG Version: 6.00 Build 0)  -->
<!DOCTYPE svg PUBLIC "-//W3C//DTD SVG 1.1//EN" "http://www.w3.org/Graphics/SVG/1.1/DTD/svg11.dtd">
<svg version="1.1" id="Ebene_1" xmlns="http://www.w3.org/2000/svg" xmlns:xlink="http://www.w3.org/1999/xlink" x="0px" y="0px"
	 width="243.395px" height="68.032px" viewBox="0 0 243.395 68.032" enable-background="new 0 0 243.395 68.032"
	 xml:space="preserve">
<path fill="#8D1429" d="M187.938,61.755l2.562,4.118h0.017v-4.118h1.264v6.139h-1.35l-2.554-4.109h-0.018v4.109h-1.264v-6.139
	H187.938 M185.403,61.755v1.135h-3.243v1.316h2.976v1.049h-2.976v1.505h3.312v1.134h-4.661v-6.139H185.403z M174.85,62.89v-1.135
	h5.03v1.135h-1.841v5.004h-1.35V62.89H174.85z M174.031,61.755v1.135h-2.967v1.419h2.571v1.05h-2.571v2.535h-1.351v-6.139H174.031z
	 M166.401,61.755l2.296,6.139h-1.401l-0.465-1.366h-2.296l-0.481,1.366h-1.358l2.321-6.139H166.401z M166.479,65.521l-0.773-2.253
	h-0.018l-0.8,2.253H166.479z M158.053,61.755v2.355h2.485v-2.355h1.35v6.139h-1.35v-2.647h-2.485v2.647h-1.351v-6.139H158.053z
	 M153.909,63.393c-0.081-0.129-0.181-0.242-0.302-0.34c-0.12-0.097-0.256-0.173-0.408-0.228c-0.151-0.055-0.312-0.081-0.478-0.081
	c-0.304,0-0.562,0.058-0.773,0.176c-0.213,0.117-0.386,0.274-0.517,0.473c-0.132,0.197-0.228,0.423-0.288,0.676
	c-0.06,0.252-0.09,0.513-0.09,0.782c0,0.258,0.03,0.509,0.09,0.752c0.061,0.244,0.156,0.463,0.288,0.658
	c0.131,0.195,0.304,0.352,0.517,0.469c0.212,0.117,0.47,0.176,0.773,0.176c0.413,0,0.735-0.126,0.968-0.378s0.373-0.585,0.426-0.998
	h1.308c-0.035,0.385-0.124,0.731-0.268,1.04c-0.144,0.311-0.332,0.574-0.567,0.792c-0.234,0.218-0.51,0.384-0.825,0.499
	c-0.315,0.114-0.662,0.172-1.041,0.172c-0.47,0-0.893-0.082-1.268-0.245c-0.376-0.164-0.692-0.389-0.951-0.676
	c-0.258-0.286-0.455-0.623-0.593-1.01s-0.207-0.804-0.207-1.251c0-0.459,0.069-0.885,0.207-1.277s0.335-0.735,0.593-1.027
	c0.259-0.293,0.575-0.522,0.951-0.688c0.375-0.166,0.798-0.249,1.268-0.249c0.339,0,0.658,0.049,0.959,0.146
	c0.302,0.097,0.57,0.239,0.809,0.426c0.237,0.186,0.435,0.417,0.589,0.691c0.155,0.275,0.252,0.591,0.293,0.946h-1.309
	C154.04,63.664,153.988,63.521,153.909,63.393 M145.023,66.381c0.075,0.143,0.174,0.26,0.297,0.349s0.268,0.154,0.435,0.197
	c0.166,0.043,0.338,0.064,0.517,0.064c0.119,0,0.25-0.01,0.387-0.03c0.137-0.02,0.266-0.059,0.387-0.115
	c0.12-0.058,0.221-0.137,0.301-0.236c0.08-0.101,0.12-0.229,0.12-0.383c0-0.167-0.053-0.301-0.159-0.404
	c-0.105-0.104-0.245-0.189-0.417-0.259c-0.172-0.067-0.367-0.128-0.585-0.18c-0.218-0.053-0.438-0.109-0.662-0.173
	c-0.229-0.057-0.453-0.127-0.67-0.21c-0.219-0.083-0.413-0.19-0.585-0.323c-0.172-0.131-0.312-0.296-0.417-0.494
	c-0.106-0.198-0.159-0.437-0.159-0.718c0-0.315,0.066-0.589,0.202-0.821c0.134-0.232,0.311-0.426,0.528-0.58
	c0.218-0.155,0.465-0.271,0.739-0.344c0.276-0.075,0.551-0.112,0.826-0.112c0.321,0,0.629,0.035,0.925,0.107
	c0.295,0.071,0.557,0.188,0.786,0.349c0.229,0.159,0.41,0.365,0.546,0.614c0.135,0.249,0.203,0.553,0.203,0.907h-1.308
	c-0.012-0.184-0.051-0.335-0.116-0.455c-0.066-0.121-0.153-0.216-0.262-0.284c-0.109-0.069-0.234-0.117-0.375-0.146
	c-0.141-0.028-0.294-0.042-0.46-0.042c-0.109,0-0.218,0.011-0.326,0.033c-0.109,0.023-0.208,0.063-0.297,0.12
	c-0.089,0.058-0.162,0.129-0.22,0.216c-0.057,0.086-0.086,0.195-0.086,0.326c0,0.12,0.022,0.219,0.068,0.293
	s0.137,0.144,0.271,0.206c0.135,0.063,0.321,0.126,0.559,0.189c0.238,0.062,0.55,0.144,0.934,0.241
	c0.114,0.022,0.273,0.064,0.478,0.124c0.203,0.061,0.405,0.156,0.605,0.288c0.201,0.132,0.375,0.308,0.521,0.529
	c0.146,0.22,0.22,0.503,0.22,0.847c0,0.281-0.055,0.542-0.164,0.782c-0.108,0.241-0.271,0.448-0.485,0.624
	c-0.215,0.175-0.481,0.312-0.8,0.408c-0.318,0.098-0.687,0.146-1.105,0.146c-0.338,0-0.666-0.042-0.984-0.125
	s-0.599-0.214-0.843-0.391c-0.244-0.179-0.438-0.405-0.58-0.681c-0.144-0.274-0.212-0.601-0.208-0.979h1.309
	C144.912,66.062,144.949,66.237,145.023,66.381 M138.702,61.755l2.562,4.118h0.018v-4.118h1.264v6.139h-1.35l-2.555-4.109h-0.017
	v4.109h-1.265v-6.139H138.702z M135.952,61.755v1.135h-3.242v1.316h2.976v1.049h-2.976v1.505h3.312v1.134h-4.661v-6.139H135.952z
	 M126.528,66.381c0.074,0.143,0.173,0.26,0.297,0.349c0.123,0.089,0.268,0.154,0.434,0.197c0.167,0.043,0.339,0.064,0.517,0.064
	c0.121,0,0.249-0.01,0.387-0.03c0.138-0.02,0.267-0.059,0.387-0.115c0.12-0.058,0.221-0.137,0.301-0.236
	c0.08-0.101,0.12-0.229,0.12-0.383c0-0.167-0.053-0.301-0.158-0.404c-0.106-0.104-0.245-0.189-0.417-0.259
	c-0.172-0.067-0.367-0.128-0.585-0.18c-0.218-0.053-0.438-0.109-0.663-0.173c-0.229-0.057-0.452-0.127-0.67-0.21
	s-0.413-0.19-0.585-0.323c-0.172-0.131-0.312-0.296-0.417-0.494c-0.106-0.198-0.159-0.437-0.159-0.718
	c0-0.315,0.067-0.589,0.202-0.821s0.311-0.426,0.528-0.58c0.219-0.155,0.465-0.271,0.74-0.344c0.275-0.075,0.55-0.112,0.825-0.112
	c0.321,0,0.629,0.035,0.925,0.107c0.295,0.071,0.558,0.188,0.787,0.349c0.229,0.159,0.411,0.365,0.546,0.614
	s0.202,0.553,0.202,0.907h-1.308c-0.012-0.184-0.05-0.335-0.115-0.455c-0.066-0.121-0.154-0.216-0.263-0.284
	c-0.109-0.069-0.233-0.117-0.374-0.146c-0.141-0.028-0.294-0.042-0.46-0.042c-0.109,0-0.218,0.011-0.327,0.033
	c-0.108,0.023-0.208,0.063-0.297,0.12c-0.089,0.058-0.161,0.129-0.219,0.216c-0.058,0.086-0.086,0.195-0.086,0.326
	c0,0.12,0.023,0.219,0.068,0.293c0.046,0.074,0.136,0.144,0.271,0.206c0.134,0.063,0.32,0.126,0.559,0.189
	c0.237,0.062,0.549,0.144,0.933,0.241c0.115,0.022,0.273,0.064,0.478,0.124c0.203,0.061,0.405,0.156,0.606,0.288
	c0.2,0.132,0.374,0.308,0.521,0.529c0.146,0.22,0.219,0.503,0.219,0.847c0,0.281-0.054,0.542-0.163,0.782
	c-0.109,0.241-0.271,0.448-0.486,0.624c-0.215,0.175-0.481,0.312-0.8,0.408c-0.317,0.098-0.687,0.146-1.104,0.146
	c-0.339,0-0.667-0.042-0.984-0.125c-0.318-0.083-0.6-0.214-0.843-0.391c-0.244-0.179-0.438-0.405-0.581-0.681
	c-0.144-0.274-0.212-0.601-0.206-0.979h1.307C126.416,66.062,126.453,66.237,126.528,66.381 M120.488,66.381
	c0.075,0.143,0.173,0.26,0.296,0.349c0.124,0.089,0.269,0.154,0.435,0.197c0.166,0.043,0.338,0.064,0.515,0.064
	c0.121,0,0.25-0.01,0.388-0.03c0.138-0.02,0.267-0.059,0.387-0.115c0.12-0.058,0.22-0.137,0.301-0.236
	c0.08-0.101,0.121-0.229,0.121-0.383c0-0.167-0.054-0.301-0.159-0.404c-0.106-0.104-0.246-0.189-0.418-0.259
	c-0.172-0.067-0.368-0.128-0.583-0.18c-0.219-0.053-0.439-0.109-0.663-0.173c-0.229-0.057-0.453-0.127-0.67-0.21
	c-0.219-0.083-0.414-0.19-0.585-0.323c-0.172-0.131-0.311-0.296-0.417-0.494c-0.107-0.198-0.16-0.437-0.16-0.718
	c0-0.315,0.068-0.589,0.203-0.821c0.134-0.232,0.31-0.426,0.529-0.58c0.217-0.155,0.464-0.271,0.739-0.344
	c0.275-0.075,0.55-0.112,0.825-0.112c0.322,0,0.629,0.035,0.924,0.107c0.296,0.071,0.558,0.188,0.787,0.349
	c0.229,0.159,0.412,0.365,0.547,0.614s0.202,0.553,0.202,0.907h-1.308c-0.012-0.184-0.05-0.335-0.116-0.455
	c-0.066-0.121-0.153-0.216-0.262-0.284c-0.109-0.069-0.234-0.117-0.375-0.146c-0.14-0.028-0.293-0.042-0.459-0.042
	c-0.11,0-0.219,0.011-0.327,0.033c-0.11,0.023-0.208,0.063-0.297,0.12c-0.089,0.058-0.162,0.129-0.219,0.216
	c-0.058,0.086-0.087,0.195-0.087,0.326c0,0.12,0.023,0.219,0.069,0.293s0.136,0.144,0.271,0.206
	c0.135,0.063,0.321,0.126,0.559,0.189c0.238,0.062,0.548,0.144,0.933,0.241c0.115,0.022,0.274,0.064,0.478,0.124
	c0.203,0.061,0.405,0.156,0.606,0.288c0.2,0.132,0.374,0.308,0.52,0.529c0.146,0.22,0.22,0.503,0.22,0.847
	c0,0.281-0.055,0.542-0.164,0.782c-0.108,0.241-0.271,0.448-0.485,0.624c-0.215,0.175-0.481,0.312-0.8,0.408
	c-0.318,0.098-0.687,0.146-1.105,0.146c-0.338,0-0.666-0.042-0.984-0.125c-0.319-0.083-0.599-0.214-0.844-0.391
	c-0.243-0.179-0.436-0.405-0.58-0.681c-0.143-0.274-0.212-0.601-0.207-0.979h1.308C120.376,66.062,120.413,66.237,120.488,66.381
	 M117.954,67.894h-1.35v-6.139h1.35V67.894z M112.638,67.894l-1.04-4.179h-0.017l-1.023,4.179h-1.368l-1.626-6.139h1.351
	l0.972,4.179h0.016l1.067-4.179h1.264l1.049,4.23h0.018l1.006-4.23h1.324l-1.652,6.139H112.638z"/>
<path fill="#8D1429" d="M243.395,56.745h-2.588v-1.049h2.588V56.745z M235.917,57.055c0.074,0.144,0.173,0.26,0.297,0.349
	c0.123,0.088,0.268,0.154,0.434,0.198c0.167,0.042,0.339,0.063,0.517,0.063c0.12,0,0.249-0.01,0.387-0.03
	c0.137-0.021,0.267-0.059,0.387-0.115c0.121-0.059,0.221-0.137,0.302-0.237c0.08-0.1,0.12-0.228,0.12-0.382
	c0-0.166-0.053-0.301-0.159-0.404s-0.245-0.189-0.417-0.259c-0.172-0.068-0.367-0.129-0.585-0.18
	c-0.218-0.053-0.438-0.109-0.662-0.173c-0.229-0.058-0.453-0.128-0.671-0.211s-0.413-0.189-0.584-0.321
	c-0.173-0.132-0.312-0.297-0.418-0.495c-0.105-0.198-0.159-0.438-0.159-0.718c0-0.315,0.067-0.59,0.202-0.821
	c0.135-0.232,0.312-0.426,0.529-0.58c0.218-0.155,0.464-0.271,0.739-0.345s0.551-0.112,0.826-0.112c0.32,0,0.629,0.036,0.924,0.108
	c0.295,0.071,0.558,0.188,0.787,0.349c0.229,0.16,0.411,0.365,0.546,0.614c0.135,0.25,0.202,0.553,0.202,0.906h-1.307
	c-0.012-0.183-0.051-0.335-0.116-0.454c-0.066-0.121-0.153-0.216-0.263-0.284c-0.109-0.069-0.233-0.118-0.374-0.146
	s-0.294-0.043-0.46-0.043c-0.109,0-0.218,0.012-0.327,0.034c-0.109,0.023-0.208,0.063-0.296,0.121
	c-0.09,0.057-0.163,0.128-0.22,0.214c-0.058,0.087-0.086,0.195-0.086,0.328c0,0.12,0.022,0.217,0.068,0.292
	c0.046,0.074,0.136,0.143,0.271,0.206c0.134,0.062,0.32,0.126,0.559,0.189s0.549,0.144,0.933,0.24
	c0.115,0.023,0.274,0.065,0.479,0.125c0.203,0.061,0.405,0.156,0.605,0.288c0.201,0.132,0.374,0.308,0.521,0.529
	c0.146,0.22,0.219,0.503,0.219,0.847c0,0.281-0.054,0.541-0.163,0.782s-0.271,0.449-0.486,0.624
	c-0.214,0.175-0.481,0.312-0.799,0.408c-0.318,0.097-0.687,0.146-1.105,0.146c-0.339,0-0.666-0.042-0.984-0.125
	c-0.318-0.084-0.6-0.213-0.843-0.392c-0.244-0.177-0.438-0.403-0.581-0.68c-0.144-0.274-0.212-0.602-0.206-0.979h1.308
	C235.806,56.737,235.843,56.911,235.917,57.055 M228.901,53.563v-1.135h5.031v1.135h-1.841v5.005h-1.35v-5.005H228.901z
	 M227.955,52.429v1.135h-2.968v1.419h2.571v1.049h-2.571v2.537h-1.35v-6.14H227.955z M220.453,52.429l2.296,6.14h-1.401
	l-0.464-1.367h-2.297l-0.481,1.367h-1.358l2.321-6.14H220.453z M220.53,56.195l-0.773-2.254h-0.018l-0.8,2.254H220.53z
	 M211.976,52.429v2.355h2.485v-2.355h1.351v6.14h-1.351v-2.649h-2.485v2.649h-1.35v-6.14H211.976z M207.918,54.066
	c-0.08-0.129-0.181-0.242-0.302-0.34c-0.12-0.098-0.256-0.173-0.408-0.229c-0.151-0.054-0.311-0.082-0.477-0.082
	c-0.305,0-0.562,0.06-0.774,0.177c-0.212,0.118-0.384,0.275-0.516,0.474s-0.229,0.423-0.288,0.675
	c-0.061,0.252-0.091,0.513-0.091,0.783c0,0.258,0.03,0.508,0.091,0.752c0.06,0.244,0.156,0.463,0.288,0.658
	c0.132,0.194,0.304,0.351,0.516,0.469c0.212,0.117,0.47,0.176,0.774,0.176c0.412,0,0.734-0.126,0.967-0.378s0.374-0.585,0.426-0.998
	h1.308c-0.035,0.384-0.124,0.731-0.267,1.041c-0.144,0.31-0.333,0.573-0.568,0.791c-0.234,0.218-0.51,0.384-0.825,0.499
	c-0.315,0.114-0.662,0.172-1.04,0.172c-0.471,0-0.894-0.082-1.269-0.245c-0.376-0.163-0.691-0.389-0.95-0.675
	c-0.259-0.287-0.456-0.625-0.594-1.011c-0.138-0.387-0.207-0.804-0.207-1.251c0-0.459,0.069-0.885,0.207-1.278
	c0.138-0.392,0.335-0.735,0.594-1.027s0.574-0.521,0.95-0.688c0.375-0.167,0.798-0.25,1.269-0.25c0.338,0,0.657,0.049,0.958,0.147
	c0.302,0.097,0.571,0.238,0.809,0.426c0.238,0.186,0.435,0.417,0.59,0.691c0.154,0.275,0.252,0.59,0.292,0.946h-1.308
	C208.05,54.337,207.998,54.195,207.918,54.066 M199.032,57.055c0.075,0.144,0.174,0.26,0.297,0.349
	c0.124,0.088,0.269,0.154,0.435,0.198c0.166,0.042,0.338,0.063,0.516,0.063c0.121,0,0.25-0.01,0.388-0.03s0.267-0.059,0.387-0.115
	c0.12-0.059,0.221-0.137,0.3-0.237c0.081-0.1,0.122-0.228,0.122-0.382c0-0.166-0.054-0.301-0.159-0.404
	c-0.106-0.104-0.245-0.189-0.418-0.259c-0.172-0.068-0.366-0.129-0.584-0.18c-0.219-0.053-0.439-0.109-0.663-0.173
	c-0.229-0.058-0.452-0.128-0.67-0.211s-0.413-0.189-0.585-0.321s-0.312-0.297-0.418-0.495c-0.105-0.198-0.158-0.438-0.158-0.718
	c0-0.315,0.067-0.59,0.202-0.821c0.134-0.232,0.312-0.426,0.528-0.58c0.219-0.155,0.465-0.271,0.74-0.345s0.55-0.112,0.825-0.112
	c0.321,0,0.629,0.036,0.925,0.108c0.295,0.071,0.558,0.188,0.787,0.349c0.229,0.16,0.411,0.365,0.546,0.614
	c0.135,0.25,0.202,0.553,0.202,0.906h-1.308c-0.012-0.183-0.05-0.335-0.116-0.454c-0.065-0.121-0.153-0.216-0.262-0.284
	c-0.109-0.069-0.234-0.118-0.374-0.146c-0.141-0.028-0.295-0.043-0.461-0.043c-0.108,0-0.218,0.012-0.327,0.034
	c-0.108,0.023-0.207,0.063-0.296,0.121c-0.089,0.057-0.161,0.128-0.22,0.214c-0.057,0.087-0.086,0.195-0.086,0.328
	c0,0.12,0.023,0.217,0.069,0.292c0.046,0.074,0.136,0.143,0.271,0.206c0.135,0.062,0.321,0.126,0.56,0.189
	c0.237,0.063,0.549,0.144,0.933,0.24c0.115,0.023,0.273,0.065,0.478,0.125c0.203,0.061,0.405,0.156,0.605,0.288
	c0.201,0.132,0.375,0.308,0.521,0.529c0.146,0.22,0.22,0.503,0.22,0.847c0,0.281-0.055,0.541-0.163,0.782
	c-0.109,0.241-0.271,0.449-0.486,0.624c-0.215,0.175-0.481,0.312-0.8,0.408s-0.687,0.146-1.104,0.146
	c-0.339,0-0.667-0.042-0.985-0.125c-0.317-0.084-0.599-0.213-0.843-0.392c-0.244-0.177-0.438-0.403-0.58-0.68
	c-0.144-0.274-0.212-0.602-0.207-0.979h1.308C198.921,56.737,198.958,56.911,199.032,57.055 M191.846,53.563v-1.135h5.03v1.135
	h-1.841v5.005h-1.35v-5.005H191.846z M189.19,52.429c0.275,0,0.523,0.044,0.744,0.133s0.41,0.211,0.568,0.365
	c0.157,0.154,0.277,0.334,0.36,0.537c0.083,0.204,0.125,0.424,0.125,0.658c0,0.361-0.076,0.674-0.228,0.938
	c-0.152,0.264-0.4,0.465-0.744,0.602v0.018c0.166,0.046,0.304,0.116,0.412,0.211c0.109,0.095,0.198,0.206,0.268,0.336
	c0.068,0.129,0.118,0.271,0.15,0.425c0.031,0.155,0.053,0.31,0.063,0.464c0.006,0.098,0.012,0.213,0.018,0.345
	s0.016,0.267,0.03,0.404c0.014,0.137,0.037,0.268,0.069,0.392c0.031,0.122,0.078,0.227,0.142,0.313h-1.351
	c-0.074-0.195-0.12-0.427-0.138-0.697c-0.017-0.269-0.043-0.527-0.077-0.773c-0.046-0.32-0.144-0.556-0.292-0.705
	c-0.149-0.149-0.393-0.224-0.731-0.224h-1.352v2.399h-1.349v-6.14H189.19z M188.709,55.206c0.31,0,0.542-0.07,0.697-0.207
	c0.154-0.137,0.231-0.36,0.231-0.67c0-0.298-0.077-0.515-0.231-0.649c-0.155-0.136-0.388-0.202-0.697-0.202h-1.48v1.729H188.709z
	 M184.289,58.568h-1.352v-6.14h1.352V58.568z M178.973,58.568l-1.04-4.18h-0.018l-1.023,4.18h-1.367l-1.625-6.14h1.35l0.972,4.179
	h0.018l1.066-4.179h1.264l1.05,4.23h0.017l1.007-4.23h1.324l-1.651,6.14H178.973z M166.676,52.429v2.355h2.485v-2.355h1.35v6.14
	h-1.35v-2.649h-2.485v2.649h-1.351v-6.14H166.676z M162.746,54.066c-0.08-0.129-0.18-0.242-0.301-0.34
	c-0.12-0.098-0.258-0.173-0.408-0.229c-0.152-0.054-0.311-0.082-0.478-0.082c-0.304,0-0.562,0.06-0.773,0.177
	c-0.213,0.118-0.385,0.275-0.517,0.474s-0.228,0.423-0.288,0.675c-0.06,0.252-0.09,0.513-0.09,0.783c0,0.258,0.03,0.508,0.09,0.752
	c0.061,0.244,0.156,0.463,0.288,0.658c0.132,0.194,0.304,0.351,0.517,0.469c0.212,0.117,0.47,0.176,0.773,0.176
	c0.413,0,0.735-0.126,0.968-0.378s0.374-0.585,0.426-0.998h1.307c-0.034,0.384-0.123,0.731-0.267,1.041s-0.333,0.573-0.567,0.791
	c-0.235,0.218-0.51,0.384-0.825,0.499c-0.315,0.114-0.663,0.172-1.041,0.172c-0.47,0-0.893-0.082-1.269-0.245
	c-0.375-0.163-0.692-0.389-0.95-0.675c-0.258-0.287-0.455-0.625-0.593-1.011c-0.138-0.387-0.206-0.804-0.206-1.251
	c0-0.459,0.068-0.885,0.206-1.278c0.138-0.392,0.335-0.735,0.593-1.027s0.575-0.521,0.95-0.688c0.376-0.167,0.799-0.25,1.269-0.25
	c0.339,0,0.658,0.049,0.959,0.147c0.301,0.097,0.57,0.238,0.809,0.426c0.237,0.186,0.435,0.417,0.589,0.691
	c0.155,0.275,0.252,0.59,0.293,0.946h-1.308C162.878,54.337,162.827,54.195,162.746,54.066 M157.442,58.568h-1.351v-6.14h1.351
	V58.568z M154.891,52.429v1.135h-3.242v1.315h2.976v1.05h-2.976v1.505h3.311v1.135h-4.661v-6.14H154.891z M147.237,52.429
	c0.275,0,0.523,0.044,0.744,0.133s0.409,0.211,0.567,0.365c0.157,0.154,0.278,0.334,0.361,0.537
	c0.083,0.204,0.125,0.424,0.125,0.658c0,0.361-0.076,0.674-0.229,0.938s-0.399,0.465-0.744,0.602v0.018
	c0.166,0.046,0.305,0.116,0.413,0.211c0.109,0.095,0.198,0.206,0.267,0.336c0.069,0.129,0.119,0.271,0.15,0.425
	c0.031,0.155,0.054,0.31,0.064,0.464c0.006,0.098,0.012,0.213,0.018,0.345s0.016,0.267,0.03,0.404
	c0.014,0.137,0.037,0.268,0.068,0.392c0.03,0.122,0.079,0.227,0.143,0.313h-1.351c-0.074-0.195-0.12-0.427-0.138-0.697
	c-0.018-0.269-0.043-0.527-0.077-0.773c-0.047-0.32-0.144-0.556-0.292-0.705c-0.149-0.149-0.394-0.224-0.731-0.224h-1.35v2.399
	h-1.351v-6.14H147.237z M146.756,55.206c0.31,0,0.542-0.07,0.696-0.207c0.155-0.137,0.232-0.36,0.232-0.67
	c0-0.298-0.077-0.515-0.232-0.649c-0.154-0.136-0.387-0.202-0.696-0.202h-1.479v1.729H146.756z M142.732,52.429v1.135h-3.241v1.315
	h2.976v1.05h-2.976v1.505h3.311v1.135h-4.661v-6.14H142.732z M134.71,57.52c0.133,0,0.259-0.014,0.379-0.039
	c0.12-0.026,0.227-0.069,0.318-0.129c0.092-0.061,0.164-0.143,0.22-0.245c0.054-0.104,0.081-0.235,0.081-0.396
	c0-0.314-0.089-0.54-0.267-0.675c-0.178-0.134-0.413-0.202-0.705-0.202h-1.471v1.687H134.71z M134.805,52.429
	c0.293,0,0.56,0.025,0.801,0.076c0.24,0.052,0.446,0.138,0.618,0.254c0.173,0.117,0.306,0.274,0.4,0.469
	c0.095,0.195,0.142,0.436,0.142,0.723c0,0.309-0.07,0.567-0.21,0.773c-0.141,0.207-0.349,0.376-0.624,0.508
	c0.378,0.108,0.661,0.3,0.848,0.572c0.186,0.271,0.279,0.601,0.279,0.984c0,0.31-0.061,0.577-0.182,0.804
	c-0.12,0.228-0.282,0.411-0.485,0.555c-0.204,0.144-0.436,0.25-0.696,0.318c-0.261,0.069-0.529,0.104-0.804,0.104h-2.976v-6.14
	H134.805z M134.634,54.913c0.24,0,0.438-0.057,0.593-0.172c0.155-0.114,0.232-0.301,0.232-0.559c0-0.144-0.026-0.261-0.077-0.354
	c-0.053-0.091-0.121-0.163-0.207-0.215c-0.086-0.051-0.185-0.087-0.297-0.107c-0.111-0.02-0.228-0.029-0.348-0.029h-1.265v1.436
	H134.634z M126.704,52.429v2.355h2.483v-2.355h1.352v6.14h-1.352v-2.649h-2.483v2.649h-1.351v-6.14H126.704z M122.774,54.066
	c-0.08-0.129-0.181-0.242-0.301-0.34c-0.121-0.098-0.257-0.173-0.409-0.229c-0.151-0.054-0.311-0.082-0.477-0.082
	c-0.305,0-0.563,0.06-0.775,0.177c-0.211,0.118-0.383,0.275-0.515,0.474c-0.132,0.198-0.229,0.423-0.288,0.675
	c-0.061,0.252-0.091,0.513-0.091,0.783c0,0.258,0.03,0.508,0.091,0.752c0.059,0.244,0.156,0.463,0.288,0.658
	c0.132,0.194,0.304,0.351,0.515,0.469c0.212,0.117,0.47,0.176,0.775,0.176c0.412,0,0.735-0.126,0.968-0.378
	c0.231-0.252,0.374-0.585,0.425-0.998h1.308c-0.034,0.384-0.123,0.731-0.267,1.041s-0.333,0.573-0.567,0.791
	c-0.235,0.218-0.511,0.384-0.826,0.499c-0.314,0.114-0.662,0.172-1.04,0.172c-0.471,0-0.894-0.082-1.269-0.245
	c-0.376-0.163-0.692-0.389-0.95-0.675c-0.258-0.287-0.456-0.625-0.594-1.011c-0.137-0.387-0.206-0.804-0.206-1.251
	c0-0.459,0.069-0.885,0.206-1.278c0.138-0.392,0.336-0.735,0.594-1.027c0.258-0.292,0.574-0.521,0.95-0.688
	c0.375-0.167,0.798-0.25,1.269-0.25c0.338,0,0.658,0.049,0.959,0.147c0.301,0.097,0.57,0.238,0.807,0.426
	c0.239,0.186,0.436,0.417,0.59,0.691c0.155,0.275,0.253,0.59,0.293,0.946h-1.307C122.906,54.337,122.854,54.195,122.774,54.066
	 M116.06,52.429l2.295,6.14h-1.401l-0.465-1.367h-2.296l-0.481,1.367h-1.358l2.322-6.14H116.06z M116.138,56.195l-0.775-2.254
	h-0.017l-0.8,2.254H116.138z M112.449,52.429v1.135h-2.967v1.419h2.572v1.049h-2.572v2.537h-1.35v-6.14H112.449z"/>
<path fill="#003366" d="M211.052,42.256c-0.292,0.123-0.587,0.186-0.885,0.186c-0.471,0-0.894-0.082-1.269-0.245
	c-0.376-0.164-0.693-0.389-0.95-0.675c-0.258-0.287-0.456-0.624-0.595-1.012c-0.137-0.387-0.205-0.804-0.205-1.251
	c0-0.459,0.068-0.884,0.205-1.276c0.139-0.394,0.337-0.735,0.595-1.028c0.257-0.293,0.574-0.521,0.95-0.688
	c0.375-0.166,0.798-0.248,1.269-0.248c0.314,0,0.62,0.046,0.915,0.141c0.296,0.094,0.562,0.234,0.8,0.417
	c0.238,0.183,0.435,0.41,0.59,0.679c0.154,0.271,0.249,0.579,0.283,0.93h-1.29c-0.08-0.346-0.236-0.603-0.464-0.774
	c-0.229-0.172-0.508-0.258-0.834-0.258c-0.305,0-0.563,0.058-0.774,0.176c-0.212,0.118-0.384,0.275-0.516,0.473
	c-0.133,0.198-0.229,0.424-0.288,0.676c-0.061,0.252-0.091,0.513-0.091,0.782c0,0.259,0.03,0.51,0.091,0.752
	c0.06,0.244,0.155,0.464,0.288,0.658c0.132,0.195,0.304,0.352,0.516,0.47c0.211,0.116,0.47,0.176,0.774,0.176
	c0.447,0,0.792-0.113,1.036-0.34c0.243-0.227,0.385-0.555,0.426-0.984h-1.359v-1.006h2.58v3.319h-0.859l-0.138-0.696
	C211.611,41.916,211.345,42.133,211.052,42.256 M204.343,36.163c0.274,0,0.522,0.044,0.743,0.133s0.41,0.211,0.567,0.365
	c0.158,0.156,0.278,0.335,0.361,0.538c0.083,0.204,0.125,0.423,0.125,0.658c0,0.361-0.077,0.674-0.229,0.937
	c-0.151,0.265-0.399,0.465-0.743,0.603v0.018c0.166,0.045,0.304,0.116,0.413,0.21c0.108,0.095,0.197,0.207,0.266,0.336
	c0.069,0.129,0.119,0.271,0.151,0.426c0.031,0.154,0.053,0.31,0.064,0.465c0.005,0.097,0.011,0.212,0.017,0.344
	s0.016,0.266,0.03,0.404c0.015,0.137,0.037,0.268,0.068,0.391c0.032,0.123,0.079,0.228,0.143,0.314h-1.351
	c-0.073-0.195-0.12-0.428-0.138-0.696c-0.017-0.271-0.042-0.528-0.077-0.775c-0.046-0.319-0.144-0.555-0.292-0.705
	c-0.15-0.148-0.393-0.223-0.731-0.223h-1.35v2.399h-1.351v-6.141H204.343z M203.861,38.941c0.309,0,0.541-0.069,0.695-0.207
	c0.155-0.137,0.233-0.361,0.233-0.67c0-0.299-0.078-0.516-0.233-0.649c-0.154-0.135-0.387-0.203-0.695-0.203h-1.479v1.729H203.861z
	 M199.623,36.163v1.135h-3.242v1.316h2.976v1.049h-2.976v1.505h3.311v1.136h-4.661v-6.141H199.623z M191.558,41.254
	c0.132,0,0.258-0.013,0.378-0.039c0.12-0.025,0.227-0.068,0.318-0.129c0.092-0.06,0.165-0.142,0.22-0.245
	c0.054-0.103,0.081-0.234,0.081-0.396c0-0.315-0.089-0.54-0.267-0.675s-0.412-0.202-0.705-0.202h-1.471v1.686H191.558z
	 M191.652,36.163c0.292,0,0.559,0.026,0.799,0.078c0.241,0.051,0.447,0.136,0.62,0.253c0.172,0.117,0.305,0.275,0.399,0.468
	c0.095,0.196,0.142,0.438,0.142,0.724c0,0.309-0.069,0.566-0.21,0.773s-0.349,0.375-0.624,0.508c0.378,0.109,0.661,0.3,0.847,0.572
	c0.188,0.272,0.28,0.601,0.28,0.984c0,0.309-0.061,0.578-0.181,0.804c-0.121,0.228-0.283,0.411-0.486,0.555
	s-0.436,0.249-0.696,0.318c-0.261,0.068-0.528,0.104-0.804,0.104h-2.976v-6.141H191.652z M191.48,38.648
	c0.24,0,0.438-0.058,0.593-0.172s0.232-0.302,0.232-0.56c0-0.143-0.026-0.26-0.078-0.352c-0.051-0.092-0.12-0.164-0.206-0.215
	c-0.086-0.053-0.185-0.087-0.296-0.108c-0.112-0.02-0.229-0.03-0.349-0.03h-1.265v1.437H191.48z M183.37,36.163l2.562,4.119h0.017
	v-4.119h1.265v6.141h-1.35l-2.555-4.111h-0.018v4.111h-1.264v-6.141H183.37z M178.839,36.163c0.275,0,0.523,0.044,0.743,0.133
	c0.222,0.089,0.41,0.211,0.568,0.365c0.157,0.156,0.278,0.335,0.36,0.538c0.084,0.204,0.125,0.423,0.125,0.658
	c0,0.361-0.076,0.674-0.228,0.937c-0.152,0.265-0.399,0.465-0.744,0.603v0.018c0.167,0.045,0.304,0.116,0.413,0.21
	c0.108,0.095,0.197,0.207,0.267,0.336c0.068,0.129,0.119,0.271,0.15,0.426s0.053,0.31,0.064,0.465
	c0.006,0.097,0.012,0.212,0.018,0.344s0.016,0.266,0.029,0.404c0.015,0.137,0.038,0.268,0.069,0.391s0.079,0.228,0.142,0.314h-1.35
	c-0.075-0.195-0.121-0.428-0.138-0.696c-0.018-0.271-0.043-0.528-0.078-0.775c-0.046-0.319-0.143-0.555-0.292-0.705
	c-0.148-0.148-0.393-0.223-0.731-0.223h-1.35v2.399h-1.351v-6.141H178.839z M178.357,38.941c0.31,0,0.541-0.069,0.696-0.207
	c0.155-0.137,0.232-0.361,0.232-0.67c0-0.299-0.077-0.516-0.232-0.649c-0.155-0.135-0.387-0.203-0.696-0.203h-1.479v1.729H178.357z
	 M173.444,41.835c-0.466,0.404-1.106,0.606-1.926,0.606c-0.832,0-1.476-0.201-1.932-0.603c-0.455-0.401-0.683-1.021-0.683-1.857
	v-3.818h1.35v3.818c0,0.166,0.015,0.33,0.043,0.491c0.028,0.159,0.089,0.302,0.181,0.425s0.219,0.223,0.383,0.301
	c0.163,0.077,0.383,0.116,0.658,0.116c0.481,0,0.813-0.108,0.997-0.322c0.184-0.216,0.275-0.552,0.275-1.011v-3.818h1.35v3.818
	C174.141,40.813,173.909,41.431,173.444,41.835 M172.988,35.476h-1.161v-1.007h1.161V35.476z M171.217,35.476h-1.161v-1.007h1.161
	V35.476z M163.582,36.163l2.562,4.119h0.018v-4.119h1.265v6.141h-1.351l-2.554-4.111h-0.018v4.111h-1.264v-6.141H163.582z
	 M160.688,40.48h-2.587v-1.049h2.587V40.48z M152.725,36.163l2.562,4.119h0.018v-4.119h1.264v6.141h-1.351l-2.554-4.111h-0.017
	v4.111h-1.265v-6.141H152.725z M149.975,36.163v1.135h-3.242v1.316h2.976v1.049h-2.976v1.505h3.311v1.136h-4.66v-6.141H149.975z
	 M142.261,42.256c-0.292,0.123-0.588,0.186-0.886,0.186c-0.471,0-0.893-0.082-1.269-0.245c-0.375-0.164-0.692-0.389-0.95-0.675
	c-0.258-0.287-0.456-0.624-0.594-1.012c-0.137-0.387-0.206-0.804-0.206-1.251c0-0.459,0.069-0.884,0.206-1.276
	c0.138-0.394,0.336-0.735,0.594-1.028s0.575-0.521,0.95-0.688c0.376-0.166,0.798-0.248,1.269-0.248c0.315,0,0.621,0.046,0.916,0.141
	c0.295,0.094,0.562,0.234,0.8,0.417c0.237,0.183,0.434,0.41,0.589,0.679c0.154,0.271,0.249,0.579,0.284,0.93h-1.29
	c-0.081-0.346-0.236-0.603-0.465-0.774s-0.508-0.258-0.834-0.258c-0.304,0-0.562,0.058-0.774,0.176s-0.384,0.275-0.516,0.473
	c-0.132,0.198-0.228,0.424-0.288,0.676s-0.09,0.513-0.09,0.782c0,0.259,0.029,0.51,0.09,0.752c0.061,0.244,0.156,0.464,0.288,0.658
	c0.132,0.195,0.304,0.352,0.516,0.47c0.212,0.116,0.471,0.176,0.774,0.176c0.447,0,0.793-0.113,1.036-0.34
	c0.244-0.227,0.386-0.555,0.426-0.984h-1.359v-1.006h2.58v3.319h-0.859l-0.138-0.696C142.819,41.916,142.554,42.133,142.261,42.256
	 M133.386,36.163l2.563,4.119h0.017v-4.119h1.265v6.141h-1.351l-2.555-4.111h-0.017v4.111h-1.264v-6.141H133.386z M128.983,36.163
	l2.296,6.141h-1.401l-0.465-1.367h-2.296l-0.482,1.367h-1.358l2.322-6.141H128.983z M129.061,39.931l-0.774-2.254h-0.017l-0.8,2.254
	H129.061z M121.726,36.163v5.005h2.992v1.136h-4.343v-6.141H121.726z M117.357,36.163c0.276,0,0.524,0.044,0.745,0.133
	c0.22,0.089,0.409,0.211,0.567,0.365c0.158,0.156,0.278,0.335,0.361,0.538c0.083,0.204,0.125,0.423,0.125,0.658
	c0,0.361-0.076,0.674-0.228,0.937c-0.152,0.265-0.4,0.465-0.743,0.603v0.018c0.166,0.045,0.303,0.116,0.412,0.21
	c0.109,0.095,0.198,0.207,0.266,0.336c0.07,0.129,0.119,0.271,0.151,0.426c0.032,0.154,0.053,0.31,0.065,0.465
	c0.005,0.097,0.011,0.212,0.017,0.344c0.006,0.132,0.015,0.266,0.03,0.404c0.015,0.137,0.037,0.268,0.068,0.391
	c0.033,0.123,0.079,0.228,0.143,0.314h-1.351c-0.075-0.195-0.12-0.428-0.137-0.696c-0.018-0.271-0.043-0.528-0.077-0.775
	c-0.046-0.319-0.144-0.555-0.293-0.705c-0.149-0.148-0.393-0.223-0.731-0.223h-1.35v2.399h-1.35v-6.141H117.357z M116.876,38.941
	c0.31,0,0.542-0.069,0.696-0.207c0.156-0.137,0.233-0.361,0.233-0.67c0-0.299-0.077-0.516-0.233-0.649
	c-0.154-0.135-0.386-0.203-0.696-0.203h-1.479v1.729H116.876z M112.725,36.163v1.135h-3.243v1.316h2.975v1.049h-2.975v1.505h3.311
	v1.136h-4.661v-6.141H112.725z"/>
<path fill="#003366" d="M162.043,28.011v-1.135h5.031v1.135h-1.841v5.005h-1.35v-5.005H162.043 M159.876,26.876l2.297,6.14h-1.401
	l-0.465-1.368h-2.297l-0.481,1.368h-1.358l2.322-6.14H159.876z M159.953,30.642l-0.773-2.253h-0.017l-0.8,2.253H159.953z
	 M160.633,26.188h-1.161v-1.006h1.161V26.188z M158.861,26.188H157.7v-1.006h1.161V26.188z M151.233,28.011v-1.135h5.031v1.135
	h-1.84v5.005h-1.351v-5.005H151.233z M150.15,33.016H148.8v-6.14h1.351V33.016z M143.873,31.502c0.074,0.143,0.173,0.26,0.297,0.349
	c0.123,0.089,0.268,0.154,0.434,0.197s0.339,0.065,0.517,0.065c0.12,0,0.249-0.01,0.387-0.03s0.267-0.06,0.387-0.117
	s0.221-0.136,0.301-0.235c0.081-0.101,0.12-0.229,0.12-0.384c0-0.166-0.053-0.3-0.158-0.404c-0.106-0.103-0.245-0.189-0.417-0.258
	c-0.173-0.068-0.367-0.129-0.585-0.181c-0.218-0.051-0.438-0.108-0.662-0.171c-0.229-0.058-0.453-0.128-0.671-0.211
	s-0.413-0.191-0.585-0.323c-0.172-0.131-0.311-0.296-0.417-0.494c-0.106-0.198-0.159-0.437-0.159-0.718
	c0-0.315,0.067-0.589,0.202-0.821c0.135-0.233,0.311-0.426,0.528-0.581c0.218-0.155,0.465-0.269,0.74-0.344
	c0.274-0.074,0.55-0.111,0.825-0.111c0.321,0,0.629,0.035,0.925,0.107c0.295,0.072,0.558,0.187,0.787,0.348
	c0.229,0.16,0.411,0.366,0.546,0.615s0.202,0.552,0.202,0.908h-1.308c-0.012-0.184-0.05-0.336-0.115-0.456
	c-0.066-0.121-0.154-0.215-0.263-0.284c-0.109-0.069-0.233-0.118-0.374-0.146c-0.141-0.029-0.293-0.044-0.46-0.044
	c-0.109,0-0.219,0.012-0.327,0.035c-0.108,0.023-0.208,0.063-0.297,0.121c-0.089,0.057-0.161,0.128-0.219,0.214
	c-0.058,0.086-0.086,0.195-0.086,0.327c0,0.12,0.022,0.218,0.068,0.293c0.046,0.074,0.136,0.143,0.271,0.206
	c0.134,0.063,0.32,0.126,0.559,0.189c0.237,0.063,0.549,0.144,0.933,0.24c0.115,0.024,0.273,0.065,0.478,0.125
	c0.202,0.06,0.405,0.157,0.606,0.288c0.2,0.132,0.374,0.309,0.521,0.53c0.146,0.22,0.219,0.503,0.219,0.846
	c0,0.282-0.055,0.542-0.163,0.783c-0.109,0.241-0.271,0.449-0.486,0.624c-0.215,0.175-0.481,0.311-0.8,0.408
	c-0.317,0.098-0.687,0.146-1.104,0.146c-0.34,0-0.667-0.042-0.984-0.125c-0.318-0.083-0.6-0.213-0.843-0.391
	c-0.244-0.177-0.438-0.404-0.581-0.679c-0.143-0.275-0.212-0.602-0.206-0.98h1.307C143.761,31.184,143.798,31.359,143.873,31.502
	 M139.693,26.876c0.275,0,0.523,0.044,0.744,0.133s0.41,0.21,0.567,0.365c0.157,0.155,0.278,0.334,0.361,0.538
	c0.083,0.203,0.124,0.423,0.124,0.658c0,0.361-0.076,0.673-0.228,0.937c-0.152,0.264-0.399,0.465-0.743,0.602v0.017
	c0.166,0.046,0.304,0.117,0.412,0.21c0.109,0.095,0.197,0.207,0.267,0.336s0.119,0.271,0.15,0.426
	c0.031,0.155,0.053,0.31,0.064,0.465c0.006,0.097,0.012,0.211,0.018,0.343s0.016,0.267,0.029,0.404
	c0.015,0.138,0.038,0.269,0.069,0.392s0.078,0.228,0.142,0.314h-1.35c-0.074-0.196-0.12-0.427-0.138-0.697
	c-0.018-0.269-0.043-0.527-0.077-0.774c-0.047-0.321-0.144-0.556-0.292-0.705c-0.15-0.149-0.394-0.223-0.731-0.223h-1.351v2.399
	h-1.35v-6.14H139.693z M139.212,29.653c0.31,0,0.542-0.068,0.696-0.206c0.154-0.137,0.232-0.362,0.232-0.671
	c0-0.298-0.078-0.514-0.232-0.649c-0.154-0.135-0.387-0.202-0.696-0.202h-1.479v1.728H139.212z M135.06,26.876v1.135h-3.241v1.316
	h2.976v1.049h-2.976v1.504h3.311v1.136h-4.661v-6.14H135.06z M125.91,33.016l-1.986-6.14h1.385l1.367,4.316h0.018l1.384-4.316h1.394
	l-2.038,6.14H125.91z M122.949,33.016h-1.35v-6.14h1.35V33.016z M116.25,26.876l2.563,4.119h0.017v-4.119h1.264v6.14h-1.35
	l-2.555-4.111h-0.016v4.111h-1.264v-6.14H116.25z M112.69,32.547c-0.464,0.404-1.106,0.606-1.926,0.606
	c-0.831,0-1.475-0.201-1.931-0.602c-0.455-0.401-0.684-1.02-0.684-1.858v-3.817h1.351v3.817c0,0.167,0.014,0.33,0.043,0.491
	c0.028,0.16,0.088,0.302,0.18,0.426c0.091,0.123,0.219,0.223,0.383,0.301c0.164,0.077,0.382,0.115,0.658,0.115
	c0.481,0,0.814-0.107,0.998-0.322c0.183-0.215,0.275-0.552,0.275-1.011v-3.817h1.35v3.817
	C113.387,31.525,113.154,32.143,112.69,32.547"/>
<path fill="#003366" d="M214.719,17.473c0.275,0,0.523,0.045,0.744,0.133c0.221,0.089,0.41,0.211,0.567,0.366
	c0.157,0.154,0.278,0.334,0.361,0.537s0.125,0.423,0.125,0.657c0,0.362-0.076,0.674-0.229,0.938
	c-0.151,0.264-0.399,0.465-0.743,0.602v0.017c0.166,0.046,0.304,0.116,0.412,0.211c0.109,0.095,0.198,0.206,0.268,0.335
	c0.068,0.129,0.118,0.272,0.149,0.426c0.032,0.155,0.054,0.309,0.063,0.465c0.008,0.097,0.013,0.212,0.019,0.343
	c0.006,0.133,0.016,0.267,0.03,0.405c0.014,0.137,0.037,0.268,0.069,0.391c0.031,0.123,0.078,0.228,0.142,0.314h-1.351
	c-0.074-0.195-0.12-0.427-0.138-0.697c-0.017-0.269-0.043-0.527-0.077-0.774c-0.046-0.32-0.144-0.556-0.292-0.705
	c-0.149-0.148-0.394-0.224-0.731-0.224h-1.35v2.4h-1.351v-6.14H214.719 M214.237,20.251c0.31,0,0.542-0.07,0.697-0.207
	c0.154-0.138,0.231-0.361,0.231-0.671c0-0.298-0.077-0.514-0.231-0.648c-0.155-0.136-0.388-0.203-0.697-0.203h-1.479v1.729H214.237z
	 M210.129,17.473v1.135h-3.242v1.315h2.976v1.05h-2.976v1.505h3.312v1.135h-4.661v-6.14H210.129z M201.641,17.473
	c0.396,0,0.765,0.063,1.105,0.189s0.637,0.315,0.886,0.567c0.25,0.253,0.444,0.568,0.585,0.947c0.141,0.378,0.21,0.822,0.21,1.332
	c0,0.448-0.057,0.861-0.172,1.239c-0.114,0.378-0.287,0.705-0.52,0.98c-0.232,0.275-0.522,0.492-0.869,0.649
	c-0.347,0.158-0.755,0.237-1.226,0.237h-2.648v-6.14H201.641z M201.547,22.478c0.194,0,0.384-0.032,0.567-0.095
	s0.347-0.167,0.489-0.314c0.144-0.146,0.259-0.336,0.345-0.572c0.086-0.234,0.129-0.521,0.129-0.859c0-0.311-0.03-0.589-0.09-0.839
	c-0.061-0.249-0.159-0.463-0.297-0.641c-0.138-0.178-0.32-0.313-0.546-0.408c-0.227-0.095-0.506-0.142-0.839-0.142h-0.963v3.87
	H201.547z M193.704,17.473l2.562,4.119h0.017v-4.119h1.265v6.14h-1.351l-2.554-4.111h-0.018v4.111h-1.264v-6.14H193.704z
	 M189.264,17.473l2.296,6.14h-1.401l-0.465-1.368h-2.296l-0.481,1.368h-1.358l2.321-6.14H189.264z M189.342,21.239l-0.774-2.253
	h-0.018l-0.8,2.253H189.342z M179.392,17.473h1.564l1.204,1.96l1.247-1.96h1.479l-1.97,2.933l2.142,3.207h-1.608l-1.341-2.124
	l-1.367,2.124h-1.514l2.141-3.217L179.392,17.473z M178.352,17.473v1.135h-3.243v1.315h2.976v1.05h-2.976v1.505h3.312v1.135h-4.661
	v-6.14H178.352z M169.687,17.473v5.005h2.992v1.135h-4.343v-6.14H169.687z M165.108,17.473l2.296,6.14h-1.401l-0.464-1.368h-2.297
	l-0.481,1.368h-1.358l2.321-6.14H165.108z M165.187,21.239l-0.774-2.253h-0.018l-0.799,2.253H165.187z M160.754,21.79h-2.588v-1.049
	h2.588V21.79z M152.799,17.473v2.356h2.484v-2.356h1.351v6.14h-1.351v-2.649h-2.484v2.649h-1.351v-6.14H152.799z M148.697,19.111
	c-0.08-0.129-0.181-0.242-0.301-0.34c-0.12-0.097-0.257-0.173-0.409-0.228c-0.151-0.054-0.311-0.082-0.477-0.082
	c-0.304,0-0.562,0.059-0.773,0.177c-0.213,0.118-0.385,0.275-0.517,0.473c-0.132,0.198-0.228,0.423-0.288,0.675
	s-0.09,0.513-0.09,0.783c0,0.258,0.029,0.508,0.09,0.752s0.156,0.463,0.288,0.658c0.132,0.195,0.304,0.352,0.517,0.469
	c0.212,0.117,0.47,0.176,0.773,0.176c0.413,0,0.735-0.126,0.968-0.379c0.232-0.252,0.374-0.584,0.426-0.997h1.307
	c-0.034,0.384-0.123,0.731-0.267,1.04c-0.144,0.31-0.333,0.574-0.567,0.791c-0.235,0.218-0.511,0.385-0.826,0.499
	c-0.314,0.115-0.661,0.172-1.04,0.172c-0.47,0-0.894-0.081-1.269-0.244c-0.376-0.164-0.692-0.388-0.95-0.675
	c-0.258-0.287-0.456-0.625-0.594-1.011c-0.138-0.388-0.206-0.804-0.206-1.251c0-0.459,0.068-0.884,0.206-1.278
	c0.138-0.392,0.336-0.734,0.594-1.027c0.258-0.292,0.574-0.521,0.95-0.688c0.375-0.166,0.799-0.249,1.269-0.249
	c0.338,0,0.658,0.048,0.959,0.146c0.302,0.097,0.57,0.239,0.808,0.426c0.238,0.185,0.435,0.417,0.59,0.692
	c0.154,0.275,0.252,0.59,0.292,0.945h-1.307C148.829,19.382,148.778,19.24,148.697,19.111 M143.308,23.613h-1.351v-6.14h1.351
	V23.613z M138.799,17.473c0.274,0,0.522,0.045,0.744,0.133c0.221,0.089,0.409,0.211,0.567,0.366
	c0.157,0.154,0.277,0.334,0.361,0.537c0.083,0.203,0.124,0.423,0.124,0.657c0,0.362-0.076,0.674-0.228,0.938
	c-0.152,0.264-0.4,0.465-0.744,0.602v0.017c0.166,0.046,0.304,0.116,0.413,0.211c0.109,0.095,0.197,0.206,0.267,0.335
	c0.068,0.129,0.119,0.272,0.15,0.426c0.031,0.155,0.053,0.309,0.064,0.465c0.006,0.097,0.012,0.212,0.017,0.343
	c0.007,0.133,0.017,0.267,0.03,0.405c0.015,0.137,0.038,0.268,0.069,0.391s0.078,0.228,0.142,0.314h-1.35
	c-0.075-0.195-0.121-0.427-0.138-0.697c-0.018-0.269-0.043-0.527-0.078-0.774c-0.046-0.32-0.143-0.556-0.292-0.705
	c-0.149-0.148-0.393-0.224-0.731-0.224h-1.35v2.4h-1.351v-6.14H138.799z M138.317,20.251c0.309,0,0.542-0.07,0.696-0.207
	c0.154-0.138,0.232-0.361,0.232-0.671c0-0.298-0.078-0.514-0.232-0.648c-0.154-0.136-0.388-0.203-0.696-0.203h-1.479v1.729H138.317z
	 M131.605,17.473c0.396,0,0.765,0.063,1.105,0.189s0.637,0.315,0.886,0.567c0.25,0.253,0.444,0.568,0.585,0.947
	c0.141,0.378,0.21,0.822,0.21,1.332c0,0.448-0.057,0.861-0.171,1.239c-0.115,0.378-0.288,0.705-0.521,0.98
	c-0.232,0.275-0.522,0.492-0.869,0.649c-0.347,0.158-0.755,0.237-1.226,0.237h-2.648v-6.14H131.605z M131.512,22.478
	c0.194,0,0.385-0.032,0.567-0.095c0.184-0.063,0.347-0.167,0.49-0.314c0.143-0.146,0.258-0.336,0.344-0.572
	c0.086-0.234,0.129-0.521,0.129-0.859c0-0.311-0.03-0.589-0.09-0.839c-0.061-0.249-0.159-0.463-0.297-0.641
	c-0.138-0.178-0.32-0.313-0.546-0.408c-0.227-0.095-0.506-0.142-0.838-0.142h-0.964v3.87H131.512z M127.635,17.473v1.135h-3.241
	v1.315h2.975v1.05h-2.975v1.505h3.31v1.135h-4.66v-6.14H127.635z M121.495,23.613h-1.35v-6.14h1.35V23.613z M116.856,17.473
	c0.277,0,0.524,0.045,0.745,0.133c0.22,0.089,0.41,0.211,0.568,0.366c0.157,0.154,0.277,0.334,0.36,0.537
	c0.084,0.203,0.125,0.423,0.125,0.657c0,0.362-0.076,0.674-0.227,0.938c-0.153,0.264-0.401,0.465-0.744,0.602v0.017
	c0.166,0.046,0.303,0.116,0.413,0.211c0.108,0.095,0.198,0.206,0.266,0.335c0.069,0.129,0.118,0.272,0.151,0.426
	c0.031,0.155,0.052,0.309,0.064,0.465c0.006,0.097,0.012,0.212,0.017,0.343c0.006,0.133,0.015,0.267,0.03,0.405
	c0.015,0.137,0.037,0.268,0.069,0.391c0.032,0.123,0.079,0.228,0.142,0.314h-1.35c-0.075-0.195-0.121-0.427-0.137-0.697
	c-0.018-0.269-0.044-0.527-0.078-0.774c-0.046-0.32-0.144-0.556-0.292-0.705c-0.15-0.148-0.393-0.224-0.731-0.224h-1.351v2.4h-1.35
	v-6.14H116.856z M116.375,20.251c0.31,0,0.542-0.07,0.697-0.207c0.156-0.138,0.232-0.361,0.232-0.671
	c0-0.298-0.076-0.514-0.232-0.648c-0.155-0.136-0.387-0.203-0.697-0.203h-1.479v1.729H116.375z M112.449,17.473v1.135h-2.967v1.419
	h2.572v1.049h-2.572v2.537h-1.35v-6.14H112.449z"/>
<path fill="#003366" d="M94.679,39.393H69.075c1.574,1.283,3.394,2.247,5.323,2.917h14.945
	C91.278,41.64,93.103,40.676,94.679,39.393"/>
<polyline fill="#003366" points="24.193,37.931 35.29,37.931 35.307,37.876 35.277,37.876 36.196,35.013 25.297,35.013 
	24.193,37.931 "/>
<polyline fill="#003366" points="23.686,39.393 22.58,42.31 33.886,42.31 34.849,39.393 23.686,39.393 "/>
<rect x="0.015" y="39.393" fill="#003366" width="10.581" height="2.917"/>
<rect x="0.015" y="35.014" fill="#003366" width="10.581" height="2.917"/>
<rect x="0.015" y="30.638" fill="#003366" width="10.581" height="2.917"/>
<rect x="0.015" y="26.265" fill="#003366" width="10.581" height="2.917"/>
<rect x="0.015" y="13.132" fill="#003366" width="10.581" height="2.916"/>
<rect x="0.015" y="8.75" fill="#003366" width="10.581" height="2.917"/>
<rect x="0.015" y="0" fill="#003366" width="32.368" height="2.917"/>
<rect x="0.015" y="4.375" fill="#003366" width="32.368" height="2.917"/>
<polyline fill="#003366" points="42.922,13.132 33.366,13.132 32.261,16.049 42.024,16.049 42.922,13.132 "/>
<polyline fill="#003366" points="37.102,2.916 50.291,2.916 49.161,0 38.207,0 37.102,2.916 "/>
<polyline fill="#003366" points="35.488,7.291 51.941,7.291 50.81,4.374 36.593,4.374 35.488,7.291 "/>
<polyline fill="#003366" points="44.273,11.674 53.593,11.674 52.461,8.758 34.981,8.758 33.874,11.674 43.333,11.674 
	43.744,10.337 43.863,10.337 44.273,11.674 "/>
<polyline fill="#003366" points="45.581,16.049 55.242,16.049 54.111,13.133 44.685,13.133 45.581,16.049 "/>
<polyline fill="#8D1429" points="46.888,20.418 56.893,20.418 55.762,17.502 45.992,17.502 46.888,20.418 "/>
<polyline fill="#8D1429" points="48.195,24.793 58.544,24.793 57.412,21.876 47.299,21.876 48.195,24.793 "/>
<polyline fill="#003366" points="27.42,29.181 60.194,29.181 59.063,26.264 28.526,26.264 27.42,29.181 "/>
<polyline fill="#003366" points="25.807,33.555 61.844,33.555 60.713,30.639 26.912,30.639 25.807,33.555 "/>
<polyline fill="#003366" points="52.406,37.931 63.496,37.931 62.364,35.013 51.429,35.013 52.406,37.931 "/>
<polyline fill="#003366" points="52.816,39.393 53.779,42.31 65.144,42.31 64.013,39.393 52.816,39.393 "/>
<rect x="63.933" y="0" fill="#003366" width="10.595" height="2.917"/>
<rect x="63.933" y="4.375" fill="#003366" width="10.595" height="2.917"/>
<rect x="63.933" y="8.757" fill="#003366" width="10.595" height="2.917"/>
<rect x="63.933" y="13.133" fill="#003366" width="10.595" height="2.916"/>
<rect x="63.933" y="17.502" fill="#8D1429" width="10.595" height="2.916"/>
<rect x="63.933" y="21.877" fill="#8D1429" width="10.595" height="2.917"/>
<path fill="#003366" d="M64.018,29.181h10.709c-0.135-0.755-0.199-1.562-0.199-2.411v-0.506H63.933v1.375
	C63.933,28.175,63.975,28.678,64.018,29.181"/>
<path fill="#003366" d="M64.965,33.555h12.084c-0.94-0.734-1.58-1.73-1.98-2.916H64.192C64.365,31.679,64.616,32.659,64.965,33.555"
	/>
<path fill="#003366" d="M98.194,35.014H65.565c0.568,1.09,1.271,2.057,2.068,2.917h28.492
	C96.923,37.071,97.627,36.104,98.194,35.014"/>
<path fill="#003366" d="M99.57,30.639H88.69c-0.401,1.186-1.046,2.183-1.991,2.916h12.096C99.144,32.659,99.394,31.68,99.57,30.639"
	/>
<rect x="89.232" y="0" fill="#003366" width="10.596" height="2.917"/>
<rect x="89.232" y="4.375" fill="#003366" width="10.596" height="2.917"/>
<rect x="89.232" y="8.757" fill="#003366" width="10.596" height="2.917"/>
<rect x="89.232" y="13.133" fill="#003366" width="10.596" height="2.916"/>
<rect x="89.232" y="17.502" fill="#8D1429" width="10.596" height="2.916"/>
<rect x="89.232" y="21.877" fill="#8D1429" width="10.596" height="2.917"/>
<path fill="#003366" d="M99.828,27.639v-1.375H89.232v0.506c0,0.849-0.064,1.656-0.199,2.411h10.709
	C99.785,28.678,99.828,28.175,99.828,27.639"/>
<polyline fill="#8D1429" points="0,21.876 0,24.792 39.41,24.792 40.307,21.876 0,21.876 "/>
<polyline fill="#8D1429" points="0,17.502 0,20.418 40.718,20.418 41.613,17.502 0,17.502 "/>
</svg>
