<?xml version="1.0" encoding="UTF-8" standalone="no"?>
<!-- Created with PhotoLine 21.01 (www.pl32.de) -->
<!DOCTYPE svg PUBLIC "-//W3C//DTD SVG 1.1//EN" "http://www.w3.org/Graphics/SVG/1.1/DTD/svg11.dtd">
<svg width="240" height="64" viewBox="0 0 240 64" version="1.1" xmlns="http://www.w3.org/2000/svg" xmlns:xlink="http://www.w3.org/1999/xlink">
  <g transform="matrix(0.940181 0 0 0.940734 0 0)">
    <path fill="#8d1429" d="M250.24 62.89 L250.24 61.75 L255.27 61.75 L255.27 62.89 L253.43 62.89 L253.43 67.89 L252.08 67.89 L252.08 62.89 Z M248.14 61.75 L250.44 67.89 L249.04 67.89 L248.57 66.53 L246.28 66.53 L245.8 67.89 L244.44 67.89 L246.76 61.75 L248.14 61.75 Z M248.22 65.52 L247.45 63.27 L247.43 63.27 L246.63 65.52 Z M248.9 61.07 L247.74 61.07 L247.74 60.06 L248.9 60.06 Z M247.13 61.07 L245.97 61.07 L245.97 60.06 L247.13 60.06 Z M239.56 62.89 L239.56 61.75 L244.59 61.75 L244.59 62.89 L242.75 62.89 L242.75 67.89 L241.4 67.89 L241.4 62.89 Z M236.79 61.75 L236.79 66.76 L239.78 66.76 L239.78 67.89 L235.44 67.89 L235.44 61.75 L236.79 61.75 Z M233.27 67.43 C232.8 67.83 232.16 68.03 231.34 68.03 C230.51 68.03 229.87 67.83 229.41 67.43 C228.96 67.03 228.73 66.41 228.73 65.57 L228.73 61.75 L230.08 61.75 L230.08 65.57 C230.08 65.74 230.09 65.9 230.12 66.06 C230.15 66.22 230.21 66.36 230.3 66.49 C230.4 66.61 230.52 66.71 230.69 66.79 C230.85 66.87 231.07 66.9 231.34 66.9 C231.82 66.9 232.16 66.8 232.34 66.58 C232.52 66.37 232.62 66.03 232.62 65.57 L232.62 61.75 L233.97 61.75 L233.97 65.57 C233.97 66.4 233.73 67.02 233.27 67.43 Z M223.61 61.75 L223.61 64.3 L226.01 61.75 L227.69 61.75 L225.29 64.18 L227.93 67.89 L226.23 67.89 L224.38 65.13 L223.61 65.92 L223.61 67.89 L222.26 67.89 L222.26 61.75 L223.61 61.75 Z M219.03 61.75 L221.33 67.89 L219.92 67.89 L219.46 66.53 L217.16 66.53 L216.68 67.89 L215.32 67.89 L217.65 61.75 L219.03 61.75 Z M219.11 65.52 L218.33 63.27 L218.32 63.27 L217.52 65.52 Z M215.33 61.75 L215.33 62.89 L212.37 62.89 L212.37 64.31 L214.94 64.31 L214.94 65.36 L212.37 65.36 L212.37 67.89 L211.02 67.89 L211.02 61.75 L215.33 61.75 Z M207.27 61.75 L207.27 62.89 L204.03 62.89 L204.03 64.21 L207 64.21 L207 65.25 L204.03 65.25 L204.03 66.76 L207.34 66.76 L207.34 67.89 L202.68 67.89 L202.68 61.75 L207.27 61.75 Z M197.25 61.75 L197.25 64.11 L199.73 64.11 L199.73 61.75 L201.08 61.75 L201.08 67.89 L199.73 67.89 L199.73 65.25 L197.25 65.25 L197.25 67.89 L195.9 67.89 L195.9 61.75 L197.25 61.75 Z M193.15 63.39 C193.07 63.26 192.96 63.15 192.84 63.05 C192.72 62.96 192.59 62.88 192.44 62.82 C192.29 62.77 192.13 62.74 191.96 62.74 C191.65 62.74 191.4 62.8 191.19 62.92 C190.97 63.04 190.8 63.19 190.67 63.39 C190.54 63.59 190.44 63.82 190.38 64.07 C190.32 64.32 190.29 64.58 190.29 64.85 C190.29 65.11 190.32 65.36 190.38 65.6 C190.44 65.85 190.54 66.07 190.67 66.26 C190.8 66.46 190.97 66.61 191.19 66.73 C191.4 66.85 191.66 66.91 191.96 66.91 C192.37 66.91 192.69 66.78 192.93 66.53 C193.16 66.28 193.3 65.94 193.35 65.53 L194.66 65.53 C194.63 65.91 194.54 66.26 194.39 66.57 C194.25 66.88 194.06 67.14 193.83 67.36 C193.59 67.58 193.32 67.75 193 67.86 C192.69 67.97 192.34 68.03 191.96 68.03 C191.49 68.03 191.07 67.95 190.69 67.79 C190.32 67.62 190 67.4 189.74 67.11 C189.48 66.83 189.29 66.49 189.15 66.1 C189.01 65.71 188.94 65.3 188.94 64.85 C188.94 64.39 189.01 63.97 189.15 63.57 C189.29 63.18 189.48 62.84 189.74 62.55 C190 62.25 190.32 62.02 190.69 61.86 C191.07 61.69 191.49 61.61 191.96 61.61 C192.3 61.61 192.62 61.66 192.92 61.76 C193.22 61.85 193.49 61.99 193.73 62.18 C193.97 62.37 194.16 62.6 194.32 62.87 C194.47 63.15 194.57 63.46 194.61 63.82 L193.3 63.82 C193.28 63.66 193.23 63.52 193.15 63.39 Z M187.76 67.89 L186.41 67.89 L186.41 61.75 L187.76 61.75 Z M182.38 61.75 L182.38 66.76 L185.37 66.76 L185.37 67.89 L181.03 67.89 L181.03 61.75 L182.38 61.75 Z M175.06 62.89 L175.06 61.75 L180.1 61.75 L180.1 62.89 L178.26 62.89 L178.26 67.89 L176.9 67.89 L176.9 62.89 Z M174.25 61.75 L174.25 62.89 L171.28 62.89 L171.28 64.31 L173.85 64.31 L173.85 65.36 L171.28 65.36 L171.28 67.89 L169.93 67.89 L169.93 61.75 L174.25 61.75 Z M166.62 61.75 L168.91 67.89 L167.51 67.89 L167.05 66.53 L164.75 66.53 L164.27 67.89 L162.91 67.89 L165.23 61.75 L166.62 61.75 Z M166.69 65.52 L165.92 63.27 L165.9 63.27 L165.1 65.52 Z M158.27 61.75 L158.27 64.11 L160.75 64.11 L160.75 61.75 L162.1 61.75 L162.1 67.89 L160.75 67.89 L160.75 65.25 L158.27 65.25 L158.27 67.89 L156.92 67.89 L156.92 61.75 L158.27 61.75 Z M154.12 63.39 C154.04 63.26 153.94 63.15 153.82 63.05 C153.7 62.96 153.57 62.88 153.42 62.82 C153.26 62.77 153.1 62.74 152.94 62.74 C152.63 62.74 152.38 62.8 152.16 62.92 C151.95 63.04 151.78 63.19 151.65 63.39 C151.52 63.59 151.42 63.82 151.36 64.07 C151.3 64.32 151.27 64.58 151.27 64.85 C151.27 65.11 151.3 65.36 151.36 65.6 C151.42 65.85 151.52 66.07 151.65 66.26 C151.78 66.46 151.95 66.61 152.16 66.73 C152.38 66.85 152.63 66.91 152.94 66.91 C153.35 66.91 153.67 66.78 153.91 66.53 C154.14 66.28 154.28 65.94 154.33 65.53 L155.64 65.53 C155.6 65.91 155.52 66.26 155.37 66.57 C155.23 66.88 155.04 67.14 154.8 67.36 C154.57 67.58 154.29 67.75 153.98 67.86 C153.66 67.97 153.32 68.03 152.94 68.03 C152.47 68.03 152.05 67.95 151.67 67.79 C151.29 67.62 150.98 67.4 150.72 67.11 C150.46 66.83 150.26 66.49 150.13 66.1 C149.99 65.71 149.92 65.3 149.92 64.85 C149.92 64.39 149.99 63.97 150.13 63.57 C150.26 63.18 150.46 62.84 150.72 62.55 C150.98 62.25 151.29 62.02 151.67 61.86 C152.05 61.69 152.47 61.61 152.94 61.61 C153.28 61.61 153.6 61.66 153.9 61.76 C154.2 61.85 154.47 61.99 154.71 62.18 C154.94 62.37 155.14 62.6 155.3 62.87 C155.45 63.15 155.55 63.46 155.59 63.82 L154.28 63.82 C154.26 63.66 154.21 63.52 154.12 63.39 Z M145.24 66.38 C145.31 66.52 145.41 66.64 145.54 66.73 C145.66 66.82 145.8 66.88 145.97 66.93 C146.14 66.97 146.31 66.99 146.49 66.99 C146.61 66.99 146.74 66.98 146.87 66.96 C147.01 66.94 147.14 66.9 147.26 66.85 C147.38 66.79 147.48 66.71 147.56 66.61 C147.64 66.51 147.68 66.38 147.68 66.23 C147.68 66.06 147.63 65.93 147.52 65.82 C147.42 65.72 147.28 65.63 147.11 65.56 C146.94 65.5 146.74 65.44 146.52 65.38 C146.3 65.33 146.08 65.27 145.86 65.21 C145.63 65.15 145.41 65.08 145.19 65 C144.97 64.92 144.78 64.81 144.6 64.68 C144.43 64.55 144.29 64.38 144.19 64.18 C144.08 63.99 144.03 63.75 144.03 63.47 C144.03 63.15 144.1 62.88 144.23 62.64 C144.37 62.41 144.54 62.22 144.76 62.06 C144.98 61.91 145.22 61.79 145.5 61.72 C145.77 61.65 146.05 61.61 146.32 61.61 C146.65 61.61 146.95 61.64 147.25 61.72 C147.54 61.79 147.81 61.9 148.04 62.06 C148.26 62.22 148.45 62.43 148.58 62.68 C148.72 62.93 148.78 63.23 148.78 63.59 L147.48 63.59 C147.46 63.4 147.43 63.25 147.36 63.13 C147.29 63.01 147.21 62.91 147.1 62.85 C146.99 62.78 146.86 62.73 146.72 62.7 C146.58 62.67 146.43 62.66 146.26 62.66 C146.15 62.66 146.05 62.67 145.94 62.69 C145.83 62.71 145.73 62.75 145.64 62.81 C145.55 62.87 145.48 62.94 145.42 63.03 C145.36 63.11 145.33 63.22 145.33 63.35 C145.33 63.47 145.36 63.57 145.4 63.65 C145.45 63.72 145.54 63.79 145.67 63.85 C145.81 63.92 145.99 63.98 146.23 64.04 C146.47 64.1 146.78 64.19 147.17 64.28 C147.28 64.3 147.44 64.35 147.64 64.41 C147.85 64.47 148.05 64.56 148.25 64.69 C148.45 64.83 148.62 65 148.77 65.22 C148.92 65.44 148.99 65.73 148.99 66.07 C148.99 66.35 148.94 66.61 148.83 66.85 C148.72 67.09 148.56 67.3 148.34 67.48 C148.13 67.65 147.86 67.79 147.54 67.88 C147.22 67.98 146.85 68.03 146.44 68.03 C146.1 68.03 145.77 67.99 145.45 67.91 C145.13 67.82 144.85 67.69 144.61 67.51 C144.37 67.34 144.17 67.11 144.03 66.83 C143.89 66.56 143.82 66.23 143.82 65.85 L145.13 65.85 C145.13 66.06 145.17 66.24 145.24 66.38 Z M138.92 61.75 L141.48 65.87 L141.5 65.87 L141.5 61.75 L142.76 61.75 L142.76 67.89 L141.41 67.89 L138.86 63.78 L138.84 63.78 L138.84 67.89 L137.58 67.89 L137.58 61.75 L138.92 61.75 Z M136.17 61.75 L136.17 62.89 L132.93 62.89 L132.93 64.21 L135.9 64.21 L135.9 65.25 L132.93 65.25 L132.93 66.76 L136.24 66.76 L136.24 67.89 L131.58 67.89 L131.58 61.75 L136.17 61.75 Z M126.74 66.38 C126.82 66.52 126.92 66.64 127.04 66.73 C127.16 66.82 127.31 66.88 127.48 66.93 C127.64 66.97 127.81 66.99 127.99 66.99 C128.11 66.99 128.24 66.98 128.38 66.96 C128.52 66.94 128.65 66.9 128.77 66.85 C128.89 66.79 128.99 66.71 129.07 66.61 C129.15 66.51 129.19 66.38 129.19 66.23 C129.19 66.06 129.13 65.93 129.03 65.82 C128.92 65.72 128.78 65.63 128.61 65.56 C128.44 65.5 128.25 65.44 128.03 65.38 C127.81 65.33 127.59 65.27 127.36 65.21 C127.14 65.15 126.91 65.08 126.69 65 C126.48 64.92 126.28 64.81 126.11 64.68 C125.94 64.55 125.8 64.38 125.69 64.18 C125.59 63.99 125.53 63.75 125.53 63.47 C125.53 63.15 125.6 62.88 125.74 62.64 C125.87 62.41 126.05 62.22 126.26 62.06 C126.48 61.91 126.73 61.79 127 61.72 C127.28 61.65 127.55 61.61 127.83 61.61 C128.15 61.61 128.46 61.64 128.75 61.72 C129.05 61.79 129.31 61.9 129.54 62.06 C129.77 62.22 129.95 62.43 130.09 62.68 C130.22 62.93 130.29 63.23 130.29 63.59 L128.98 63.59 C128.97 63.4 128.93 63.25 128.87 63.13 C128.8 63.01 128.71 62.91 128.6 62.85 C128.49 62.78 128.37 62.73 128.23 62.7 C128.09 62.67 127.94 62.66 127.77 62.66 C127.66 62.66 127.55 62.67 127.44 62.69 C127.33 62.71 127.23 62.75 127.15 62.81 C127.06 62.87 126.98 62.94 126.93 63.03 C126.87 63.11 126.84 63.22 126.84 63.35 C126.84 63.47 126.86 63.57 126.91 63.65 C126.95 63.72 127.04 63.79 127.18 63.85 C127.31 63.92 127.5 63.98 127.74 64.04 C127.98 64.1 128.29 64.19 128.67 64.28 C128.79 64.3 128.95 64.35 129.15 64.41 C129.35 64.47 129.56 64.56 129.76 64.69 C129.96 64.83 130.13 65 130.28 65.22 C130.42 65.44 130.5 65.73 130.5 66.07 C130.5 66.35 130.44 66.61 130.33 66.85 C130.22 67.09 130.06 67.3 129.85 67.48 C129.63 67.65 129.37 67.79 129.05 67.88 C128.73 67.98 128.36 68.03 127.94 68.03 C127.6 68.03 127.28 67.99 126.96 67.91 C126.64 67.82 126.36 67.69 126.12 67.51 C125.87 67.34 125.68 67.11 125.54 66.83 C125.39 66.56 125.32 66.23 125.33 65.85 L126.64 65.85 C126.63 66.06 126.67 66.24 126.74 66.38 Z M120.7 66.38 C120.78 66.52 120.88 66.64 121 66.73 C121.12 66.82 121.27 66.88 121.44 66.93 C121.6 66.97 121.77 66.99 121.95 66.99 C122.07 66.99 122.2 66.98 122.34 66.96 C122.48 66.94 122.6 66.9 122.73 66.85 C122.85 66.79 122.95 66.71 123.03 66.61 C123.11 66.51 123.15 66.38 123.15 66.23 C123.15 66.06 123.09 65.93 122.99 65.82 C122.88 65.72 122.74 65.63 122.57 65.56 C122.4 65.5 122.2 65.44 121.98 65.38 C121.77 65.33 121.55 65.27 121.32 65.21 C121.09 65.15 120.87 65.08 120.65 65 C120.43 64.92 120.24 64.81 120.07 64.68 C119.9 64.55 119.76 64.38 119.65 64.18 C119.54 63.99 119.49 63.75 119.49 63.47 C119.49 63.15 119.56 62.88 119.69 62.64 C119.83 62.41 120 62.22 120.22 62.06 C120.44 61.91 120.69 61.79 120.96 61.72 C121.24 61.65 121.51 61.61 121.79 61.61 C122.11 61.61 122.42 61.64 122.71 61.72 C123.01 61.79 123.27 61.9 123.5 62.06 C123.73 62.22 123.91 62.43 124.05 62.68 C124.18 62.93 124.25 63.23 124.25 63.59 L122.94 63.59 C122.93 63.4 122.89 63.25 122.82 63.13 C122.76 63.01 122.67 62.91 122.56 62.85 C122.45 62.78 122.33 62.73 122.19 62.7 C122.05 62.67 121.89 62.66 121.73 62.66 C121.62 62.66 121.51 62.67 121.4 62.69 C121.29 62.71 121.19 62.75 121.1 62.81 C121.02 62.87 120.94 62.94 120.88 63.03 C120.83 63.11 120.8 63.22 120.8 63.35 C120.8 63.47 120.82 63.57 120.87 63.65 C120.91 63.72 121 63.79 121.14 63.85 C121.27 63.92 121.46 63.98 121.7 64.04 C121.94 64.1 122.25 64.19 122.63 64.28 C122.75 64.3 122.9 64.35 123.11 64.41 C123.31 64.47 123.51 64.56 123.71 64.69 C123.91 64.83 124.09 65 124.23 65.22 C124.38 65.44 124.45 65.73 124.45 66.07 C124.45 66.35 124.4 66.61 124.29 66.85 C124.18 67.09 124.02 67.3 123.8 67.48 C123.59 67.65 123.32 67.79 123 67.88 C122.69 67.98 122.32 68.03 121.9 68.03 C121.56 68.03 121.23 67.99 120.91 67.91 C120.6 67.82 120.31 67.69 120.07 67.51 C119.83 67.34 119.64 67.11 119.49 66.83 C119.35 66.56 119.28 66.23 119.28 65.85 L120.59 65.85 C120.59 66.06 120.63 66.24 120.7 66.38 Z M118.17 67.89 L116.82 67.89 L116.82 61.75 L118.17 61.75 Z M112.85 67.89 L111.81 63.71 L111.8 63.71 L110.77 67.89 L109.41 67.89 L107.78 61.75 L109.13 61.75 L110.1 65.93 L110.12 65.93 L111.19 61.75 L112.45 61.75 L113.5 65.98 L113.52 65.98 L114.52 61.75 L115.85 61.75 L114.2 67.89 Z"/>
  </g>
  <g transform="matrix(0.940181 0 0 0.940734 0 0)">
    <path fill="#8d1429" d="M243.42 56.75 L240.83 56.75 L240.83 55.7 L243.42 55.7 Z M235.94 57.06 C236.01 57.2 236.11 57.31 236.24 57.4 C236.36 57.49 236.51 57.56 236.67 57.6 C236.84 57.64 237.01 57.67 237.19 57.67 C237.31 57.67 237.44 57.66 237.57 57.64 C237.71 57.62 237.84 57.58 237.96 57.52 C238.08 57.46 238.18 57.38 238.26 57.28 C238.34 57.18 238.38 57.06 238.38 56.9 C238.38 56.73 238.33 56.6 238.22 56.5 C238.12 56.39 237.98 56.31 237.81 56.24 C237.64 56.17 237.44 56.11 237.22 56.06 C237 56.01 236.78 55.95 236.56 55.89 C236.33 55.83 236.11 55.76 235.89 55.67 C235.67 55.59 235.48 55.48 235.31 55.35 C235.13 55.22 234.99 55.06 234.89 54.86 C234.78 54.66 234.73 54.42 234.73 54.14 C234.73 53.82 234.8 53.55 234.93 53.32 C235.07 53.09 235.24 52.89 235.46 52.74 C235.68 52.58 235.92 52.47 236.2 52.39 C236.47 52.32 236.75 52.28 237.02 52.28 C237.35 52.28 237.65 52.32 237.95 52.39 C238.24 52.46 238.51 52.58 238.74 52.74 C238.96 52.9 239.15 53.1 239.28 53.35 C239.42 53.6 239.48 53.91 239.48 54.26 L238.18 54.26 C238.16 54.08 238.13 53.92 238.06 53.81 C238 53.69 237.91 53.59 237.8 53.52 C237.69 53.45 237.56 53.4 237.42 53.37 C237.28 53.35 237.13 53.33 236.96 53.33 C236.86 53.33 236.75 53.34 236.64 53.37 C236.53 53.39 236.43 53.43 236.34 53.49 C236.25 53.54 236.18 53.62 236.12 53.7 C236.06 53.79 236.04 53.9 236.04 54.03 C236.04 54.15 236.06 54.25 236.1 54.32 C236.15 54.4 236.24 54.46 236.37 54.53 C236.51 54.59 236.69 54.65 236.93 54.72 C237.17 54.78 237.48 54.86 237.87 54.96 C237.98 54.98 238.14 55.02 238.34 55.08 C238.55 55.14 238.75 55.24 238.95 55.37 C239.15 55.5 239.32 55.68 239.47 55.9 C239.62 56.12 239.69 56.4 239.69 56.75 C239.69 57.03 239.64 57.29 239.53 57.53 C239.42 57.77 239.26 57.98 239.04 58.15 C238.83 58.33 238.56 58.46 238.24 58.56 C237.92 58.66 237.55 58.71 237.14 58.71 C236.8 58.71 236.47 58.66 236.15 58.58 C235.83 58.5 235.55 58.37 235.31 58.19 C235.07 58.01 234.87 57.78 234.73 57.51 C234.59 57.23 234.52 56.91 234.52 56.53 L235.83 56.53 C235.83 56.74 235.87 56.91 235.94 57.06 Z M228.93 53.56 L228.93 52.43 L233.96 52.43 L233.96 53.56 L232.12 53.56 L232.12 58.57 L230.76 58.57 L230.76 53.56 L228.93 53.56 Z M227.98 52.43 L227.98 53.56 L225.01 53.56 L225.01 54.98 L227.58 54.98 L227.58 56.03 L225.01 56.03 L225.01 58.57 L223.66 58.57 L223.66 52.43 L227.98 52.43 Z M220.48 52.43 L222.77 58.57 L221.37 58.57 L220.91 57.2 L218.61 57.2 L218.13 58.57 L216.77 58.57 L219.09 52.43 Z M220.55 56.19 L219.78 53.94 L219.76 53.94 L218.96 56.19 Z M212 52.43 L212 54.78 L214.48 54.78 L214.48 52.43 L215.83 52.43 L215.83 58.57 L214.48 58.57 L214.48 55.92 L212 55.92 L212 58.57 L210.65 58.57 L210.65 52.43 L212 52.43 Z M207.94 54.07 C207.86 53.94 207.76 53.82 207.64 53.73 C207.52 53.63 207.38 53.55 207.23 53.5 C207.08 53.44 206.92 53.42 206.75 53.42 C206.45 53.42 206.19 53.48 205.98 53.59 C205.77 53.71 205.6 53.87 205.46 54.07 C205.33 54.27 205.24 54.49 205.18 54.74 C205.12 54.99 205.09 55.25 205.09 55.52 C205.09 55.78 205.12 56.03 205.18 56.28 C205.24 56.52 205.33 56.74 205.46 56.93 C205.6 57.13 205.77 57.29 205.98 57.4 C206.19 57.52 206.45 57.58 206.75 57.58 C207.17 57.58 207.49 57.45 207.72 57.2 C207.95 56.95 208.1 56.62 208.15 56.2 L209.45 56.2 C209.42 56.59 209.33 56.93 209.19 57.24 C209.04 57.55 208.86 57.82 208.62 58.03 C208.39 58.25 208.11 58.42 207.8 58.53 C207.48 58.65 207.13 58.71 206.75 58.71 C206.28 58.71 205.86 58.62 205.49 58.46 C205.11 58.3 204.79 58.07 204.54 57.79 C204.28 57.5 204.08 57.16 203.94 56.78 C203.8 56.39 203.74 55.97 203.74 55.52 C203.74 55.07 203.8 54.64 203.94 54.25 C204.08 53.85 204.28 53.51 204.54 53.22 C204.79 52.93 205.11 52.7 205.49 52.53 C205.86 52.37 206.28 52.28 206.75 52.28 C207.09 52.28 207.41 52.33 207.71 52.43 C208.01 52.53 208.28 52.67 208.52 52.85 C208.76 53.04 208.96 53.27 209.11 53.55 C209.27 53.82 209.36 54.14 209.4 54.49 L208.1 54.49 C208.07 54.34 208.02 54.2 207.94 54.07 Z M199.06 57.06 C199.13 57.2 199.23 57.31 199.35 57.4 C199.48 57.49 199.62 57.56 199.79 57.6 C199.95 57.64 200.13 57.67 200.3 57.67 C200.42 57.67 200.55 57.66 200.69 57.64 C200.83 57.62 200.96 57.58 201.08 57.52 C201.2 57.46 201.3 57.38 201.38 57.28 C201.46 57.18 201.5 57.06 201.5 56.9 C201.5 56.73 201.45 56.6 201.34 56.5 C201.24 56.39 201.1 56.31 200.92 56.24 C200.75 56.17 200.56 56.11 200.34 56.06 C200.12 56.01 199.9 55.95 199.68 55.89 C199.45 55.83 199.22 55.76 199.01 55.67 C198.79 55.59 198.59 55.48 198.42 55.35 C198.25 55.22 198.11 55.06 198 54.86 C197.9 54.66 197.85 54.42 197.85 54.14 C197.85 53.82 197.91 53.55 198.05 53.32 C198.18 53.09 198.36 52.89 198.58 52.74 C198.79 52.58 199.04 52.47 199.32 52.39 C199.59 52.32 199.87 52.28 200.14 52.28 C200.46 52.28 200.77 52.32 201.07 52.39 C201.36 52.46 201.62 52.58 201.85 52.74 C202.08 52.9 202.26 53.1 202.4 53.35 C202.53 53.6 202.6 53.91 202.6 54.26 L201.29 54.26 C201.28 54.08 201.24 53.92 201.18 53.81 C201.11 53.69 201.02 53.59 200.91 53.52 C200.81 53.45 200.68 53.4 200.54 53.37 C200.4 53.35 200.25 53.33 200.08 53.33 C199.97 53.33 199.86 53.34 199.75 53.37 C199.65 53.39 199.55 53.43 199.46 53.49 C199.37 53.54 199.3 53.62 199.24 53.7 C199.18 53.79 199.15 53.9 199.15 54.03 C199.15 54.15 199.17 54.25 199.22 54.32 C199.27 54.4 199.36 54.46 199.49 54.53 C199.63 54.59 199.81 54.65 200.05 54.72 C200.29 54.78 200.6 54.86 200.98 54.96 C201.1 54.98 201.26 55.02 201.46 55.08 C201.67 55.14 201.87 55.24 202.07 55.37 C202.27 55.5 202.44 55.68 202.59 55.9 C202.73 56.12 202.81 56.4 202.81 56.75 C202.81 57.03 202.75 57.29 202.64 57.53 C202.54 57.77 202.37 57.98 202.16 58.15 C201.94 58.33 201.68 58.46 201.36 58.56 C201.04 58.66 200.67 58.71 200.25 58.71 C199.92 58.71 199.59 58.66 199.27 58.58 C198.95 58.5 198.67 58.37 198.43 58.19 C198.18 58.01 197.99 57.78 197.85 57.51 C197.7 57.23 197.63 56.91 197.64 56.53 L198.95 56.53 C198.94 56.74 198.98 56.91 199.06 57.06 Z M191.87 53.56 L191.87 52.43 L196.9 52.43 L196.9 53.56 L195.06 53.56 L195.06 58.57 L193.71 58.57 L193.71 53.56 L191.87 53.56 Z M189.21 52.43 C189.49 52.43 189.74 52.47 189.96 52.56 C190.18 52.65 190.37 52.77 190.53 52.93 C190.68 53.08 190.8 53.26 190.89 53.46 C190.97 53.67 191.01 53.89 191.01 54.12 C191.01 54.48 190.94 54.8 190.78 55.06 C190.63 55.32 190.38 55.52 190.04 55.66 L190.04 55.68 C190.21 55.73 190.34 55.8 190.45 55.89 C190.56 55.99 190.65 56.1 190.72 56.23 C190.79 56.36 190.84 56.5 190.87 56.65 C190.9 56.81 190.92 56.96 190.93 57.12 C190.94 57.21 190.94 57.33 190.95 57.46 C190.96 57.59 190.97 57.73 190.98 57.86 C190.99 58 191.02 58.13 191.05 58.26 C191.08 58.38 191.13 58.48 191.19 58.57 L189.84 58.57 C189.77 58.38 189.72 58.14 189.7 57.87 C189.68 57.6 189.66 57.35 189.63 57.1 C189.58 56.78 189.48 56.54 189.33 56.4 C189.18 56.25 188.94 56.17 188.6 56.17 L187.25 56.17 L187.25 58.57 L185.9 58.57 L185.9 52.43 L189.21 52.43 Z M188.73 55.21 C189.04 55.21 189.27 55.14 189.43 55 C189.58 54.86 189.66 54.64 189.66 54.33 C189.66 54.03 189.58 53.81 189.43 53.68 C189.27 53.54 189.04 53.48 188.73 53.48 L187.25 53.48 L187.25 55.21 L188.73 55.21 Z M184.31 58.57 L182.96 58.57 L182.96 52.43 L184.31 52.43 Z M179 58.57 L177.96 54.39 L177.94 54.39 L176.92 58.57 L175.55 58.57 L173.92 52.43 L175.27 52.43 L176.25 56.61 L176.26 56.61 L177.33 52.43 L178.59 52.43 L179.64 56.66 L179.66 56.66 L180.67 52.43 L181.99 52.43 L180.34 58.57 Z M168.04 52.43 C168.44 52.43 168.8 52.49 169.15 52.62 C169.49 52.74 169.78 52.93 170.03 53.18 C170.28 53.44 170.48 53.75 170.62 54.13 C170.76 54.51 170.83 54.95 170.83 55.46 C170.83 55.91 170.77 56.32 170.65 56.7 C170.54 57.08 170.37 57.41 170.13 57.68 C169.9 57.96 169.61 58.17 169.27 58.33 C168.92 58.49 168.51 58.57 168.04 58.57 L165.39 58.57 L165.39 52.43 L168.04 52.43 Z M167.95 57.43 C168.14 57.43 168.33 57.4 168.51 57.34 C168.7 57.28 168.86 57.17 169 57.03 C169.15 56.88 169.26 56.69 169.35 56.45 C169.43 56.22 169.48 55.93 169.48 55.59 C169.48 55.28 169.45 55 169.39 54.76 C169.33 54.51 169.23 54.29 169.09 54.11 C168.95 53.94 168.77 53.8 168.54 53.71 C168.32 53.61 168.04 53.56 167.7 53.56 L166.74 53.56 L166.74 57.43 L167.95 57.43 Z M160.09 52.43 L162.65 56.55 L162.67 56.55 L162.67 52.43 L163.93 52.43 L163.93 58.57 L162.58 58.57 L160.03 54.46 L160.01 54.46 L160.01 58.57 L158.74 58.57 L158.74 52.43 Z M156.49 58.1 C156.02 58.5 155.38 58.71 154.56 58.71 C153.73 58.71 153.09 58.51 152.63 58.1 C152.18 57.7 151.95 57.08 151.95 56.25 L151.95 52.43 L153.3 52.43 L153.3 56.25 C153.3 56.41 153.31 56.58 153.34 56.74 C153.37 56.9 153.43 57.04 153.52 57.16 C153.61 57.29 153.74 57.39 153.9 57.46 C154.07 57.54 154.29 57.58 154.56 57.58 C155.04 57.58 155.38 57.47 155.56 57.26 C155.74 57.04 155.83 56.71 155.83 56.25 L155.83 52.43 L157.18 52.43 L157.18 56.25 C157.19 57.08 156.95 57.7 156.49 58.1 Z M148.15 56.75 L145.57 56.75 L145.57 55.7 L148.15 55.7 Z M140.68 57.06 C140.75 57.2 140.85 57.31 140.97 57.4 C141.1 57.49 141.24 57.56 141.41 57.6 C141.58 57.64 141.75 57.67 141.93 57.67 C142.05 57.67 142.17 57.66 142.31 57.64 C142.45 57.62 142.58 57.58 142.7 57.52 C142.82 57.46 142.92 57.38 143 57.28 C143.08 57.18 143.12 57.06 143.12 56.9 C143.12 56.73 143.07 56.6 142.96 56.5 C142.86 56.39 142.72 56.31 142.55 56.24 C142.37 56.17 142.18 56.11 141.96 56.06 C141.74 56.01 141.52 55.95 141.3 55.89 C141.07 55.83 140.85 55.76 140.63 55.67 C140.41 55.59 140.21 55.48 140.04 55.35 C139.87 55.22 139.73 55.06 139.63 54.86 C139.52 54.66 139.47 54.42 139.47 54.14 C139.47 53.82 139.53 53.55 139.67 53.32 C139.8 53.09 139.98 52.89 140.2 52.74 C140.41 52.58 140.66 52.47 140.94 52.39 C141.21 52.32 141.49 52.28 141.76 52.28 C142.08 52.28 142.39 52.32 142.69 52.39 C142.98 52.46 143.24 52.58 143.47 52.74 C143.7 52.9 143.88 53.1 144.02 53.35 C144.15 53.6 144.22 53.91 144.22 54.26 L142.91 54.26 C142.9 54.08 142.86 53.92 142.8 53.81 C142.73 53.69 142.64 53.59 142.54 53.52 C142.43 53.45 142.3 53.4 142.16 53.37 C142.02 53.35 141.87 53.33 141.7 53.33 C141.59 53.33 141.48 53.34 141.37 53.37 C141.27 53.39 141.17 53.43 141.08 53.49 C140.99 53.54 140.92 53.62 140.86 53.7 C140.8 53.79 140.77 53.9 140.77 54.03 C140.77 54.15 140.79 54.25 140.84 54.32 C140.89 54.4 140.98 54.46 141.11 54.53 C141.25 54.59 141.43 54.65 141.67 54.72 C141.91 54.78 142.22 54.86 142.6 54.96 C142.72 54.98 142.88 55.02 143.08 55.08 C143.28 55.14 143.49 55.24 143.69 55.37 C143.89 55.5 144.06 55.68 144.21 55.9 C144.35 56.12 144.43 56.4 144.43 56.75 C144.43 57.03 144.37 57.29 144.26 57.53 C144.16 57.77 143.99 57.98 143.78 58.15 C143.56 58.33 143.3 58.46 142.98 58.56 C142.66 58.66 142.29 58.71 141.87 58.71 C141.54 58.71 141.21 58.66 140.89 58.58 C140.57 58.5 140.29 58.37 140.05 58.19 C139.8 58.01 139.61 57.78 139.47 57.51 C139.32 57.23 139.25 56.91 139.26 56.53 L140.57 56.53 C140.57 56.74 140.6 56.91 140.68 57.06 Z M133.58 53.56 L133.58 52.43 L138.61 52.43 L138.61 53.56 L136.77 53.56 L136.77 58.57 L135.42 58.57 L135.42 53.56 L133.58 53.56 Z M128.51 52.43 L128.51 54.78 L130.99 54.78 L130.99 52.43 L132.34 52.43 L132.34 58.57 L130.99 58.57 L130.99 55.92 L128.51 55.92 L128.51 58.57 L127.16 58.57 L127.16 52.43 L128.51 52.43 Z M124.49 54.07 C124.41 53.94 124.31 53.82 124.19 53.73 C124.07 53.63 123.94 53.55 123.78 53.5 C123.63 53.44 123.47 53.42 123.31 53.42 C123 53.42 122.75 53.48 122.53 53.59 C122.32 53.71 122.15 53.87 122.02 54.07 C121.89 54.26 121.79 54.49 121.73 54.74 C121.67 54.99 121.64 55.25 121.64 55.52 C121.64 55.78 121.67 56.03 121.73 56.28 C121.79 56.52 121.89 56.74 122.02 56.93 C122.15 57.13 122.32 57.29 122.53 57.4 C122.75 57.52 123 57.58 123.31 57.58 C123.72 57.58 124.04 57.45 124.27 57.2 C124.51 56.95 124.65 56.62 124.7 56.2 L126.01 56.2 C125.97 56.59 125.88 56.93 125.74 57.24 C125.6 57.55 125.41 57.82 125.17 58.03 C124.94 58.25 124.66 58.42 124.35 58.53 C124.03 58.65 123.69 58.71 123.31 58.71 C122.84 58.71 122.41 58.62 122.04 58.46 C121.66 58.3 121.35 58.07 121.09 57.79 C120.83 57.5 120.63 57.16 120.49 56.78 C120.36 56.39 120.29 55.97 120.29 55.52 C120.29 55.07 120.36 54.64 120.49 54.25 C120.63 53.85 120.83 53.51 121.09 53.22 C121.35 52.93 121.66 52.7 122.04 52.53 C122.41 52.37 122.84 52.28 123.31 52.28 C123.65 52.28 123.97 52.33 124.27 52.43 C124.57 52.53 124.84 52.67 125.07 52.85 C125.31 53.04 125.51 53.27 125.66 53.55 C125.82 53.82 125.92 54.14 125.96 54.49 L124.65 54.49 C124.63 54.34 124.57 54.2 124.49 54.07 Z M119.27 52.43 L119.27 53.56 L116.02 53.56 L116.02 54.88 L119 54.88 L119 55.93 L116.02 55.93 L116.02 57.43 L119.34 57.43 L119.34 58.57 L114.68 58.57 L114.68 52.43 Z M111.44 52.43 C111.72 52.43 111.97 52.47 112.19 52.56 C112.41 52.65 112.6 52.77 112.75 52.93 C112.91 53.08 113.03 53.26 113.11 53.46 C113.2 53.67 113.24 53.89 113.24 54.12 C113.24 54.48 113.16 54.8 113.01 55.06 C112.86 55.32 112.61 55.52 112.27 55.66 L112.27 55.68 C112.43 55.73 112.57 55.8 112.68 55.89 C112.79 55.99 112.88 56.1 112.95 56.23 C113.02 56.36 113.07 56.5 113.1 56.65 C113.13 56.81 113.15 56.96 113.16 57.12 C113.17 57.21 113.17 57.33 113.18 57.46 C113.19 57.59 113.19 57.73 113.21 57.86 C113.22 58 113.25 58.13 113.28 58.26 C113.31 58.38 113.36 58.48 113.42 58.57 L112.07 58.57 C112 58.38 111.95 58.14 111.93 57.87 C111.92 57.6 111.89 57.35 111.85 57.1 C111.81 56.78 111.71 56.54 111.56 56.4 C111.41 56.25 111.17 56.17 110.83 56.17 L109.48 56.17 L109.48 58.57 L108.13 58.57 L108.13 52.43 L111.44 52.43 Z M110.96 55.21 C111.27 55.21 111.5 55.14 111.66 55 C111.81 54.86 111.89 54.64 111.89 54.33 C111.89 54.03 111.81 53.81 111.66 53.68 C111.5 53.54 111.27 53.48 110.96 53.48 L109.48 53.48 L109.48 55.21 L110.96 55.21 Z"/>
  </g>
  <g transform="matrix(0.940181 0 0 0.940734 0 0)">
    <path fill="#003366" d="M211.05 42.26 C210.76 42.38 210.46 42.44 210.17 42.44 C209.7 42.44 209.27 42.36 208.9 42.2 C208.52 42.03 208.2 41.81 207.95 41.52 C207.69 41.23 207.49 40.9 207.35 40.51 C207.22 40.12 207.15 39.71 207.15 39.26 C207.15 38.8 207.22 38.37 207.35 37.98 C207.49 37.59 207.69 37.25 207.95 36.95 C208.2 36.66 208.52 36.43 208.9 36.27 C209.27 36.1 209.7 36.02 210.17 36.02 C210.48 36.02 210.79 36.06 211.08 36.16 C211.38 36.25 211.64 36.39 211.88 36.58 C212.12 36.76 212.32 36.99 212.47 37.26 C212.63 37.53 212.72 37.83 212.75 38.19 L211.46 38.19 C211.38 37.84 211.23 37.58 211 37.41 C210.77 37.24 210.49 37.15 210.17 37.15 C209.86 37.15 209.6 37.21 209.39 37.33 C209.18 37.45 209.01 37.6 208.88 37.8 C208.74 38 208.65 38.23 208.59 38.48 C208.53 38.73 208.5 38.99 208.5 39.26 C208.5 39.52 208.53 39.77 208.59 40.01 C208.65 40.26 208.74 40.48 208.88 40.67 C209.01 40.87 209.18 41.02 209.39 41.14 C209.6 41.26 209.86 41.32 210.17 41.32 C210.61 41.32 210.96 41.2 211.2 40.98 C211.45 40.75 211.59 40.42 211.63 39.99 L210.27 39.99 L210.27 38.99 L212.85 38.99 L212.85 42.31 L211.99 42.31 L211.85 41.61 C211.61 41.92 211.34 42.13 211.05 42.26 Z M204.34 36.16 C204.62 36.16 204.86 36.21 205.09 36.3 C205.31 36.38 205.5 36.51 205.65 36.66 C205.81 36.82 205.93 37 206.01 37.2 C206.1 37.4 206.14 37.62 206.14 37.86 C206.14 38.22 206.06 38.53 205.91 38.79 C205.76 39.06 205.51 39.26 205.17 39.4 L205.17 39.41 C205.33 39.46 205.47 39.53 205.58 39.62 C205.69 39.72 205.78 39.83 205.85 39.96 C205.91 40.09 205.96 40.23 206 40.39 C206.03 40.54 206.05 40.7 206.06 40.85 C206.07 40.95 206.07 41.06 206.08 41.2 C206.08 41.33 206.09 41.46 206.11 41.6 C206.12 41.74 206.14 41.87 206.18 41.99 C206.21 42.11 206.25 42.22 206.32 42.3 L204.97 42.3 C204.89 42.11 204.85 41.88 204.83 41.61 C204.81 41.34 204.79 41.08 204.75 40.83 C204.71 40.51 204.61 40.28 204.46 40.13 C204.31 39.98 204.07 39.91 203.73 39.91 L202.38 39.91 L202.38 42.3 L201.03 42.3 L201.03 36.16 L204.34 36.16 Z M203.86 38.94 C204.17 38.94 204.4 38.87 204.56 38.73 C204.71 38.6 204.79 38.37 204.79 38.06 C204.79 37.76 204.71 37.55 204.56 37.41 C204.4 37.28 204.17 37.21 203.86 37.21 L202.38 37.21 L202.38 38.94 L203.86 38.94 Z M199.62 36.16 L199.62 37.3 L196.38 37.3 L196.38 38.61 L199.36 38.61 L199.36 39.66 L196.38 39.66 L196.38 41.17 L199.69 41.17 L199.69 42.3 L195.03 42.3 L195.03 36.16 L199.62 36.16 Z M191.56 41.25 C191.69 41.25 191.82 41.24 191.94 41.21 C192.06 41.19 192.16 41.15 192.25 41.09 C192.35 41.03 192.42 40.94 192.47 40.84 C192.53 40.74 192.55 40.61 192.55 40.44 C192.55 40.13 192.47 39.9 192.29 39.77 C192.11 39.63 191.88 39.57 191.58 39.57 L190.11 39.57 L190.11 41.25 Z M191.65 36.16 C191.94 36.16 192.21 36.19 192.45 36.24 C192.69 36.29 192.9 36.38 193.07 36.49 C193.24 36.61 193.38 36.77 193.47 36.96 C193.56 37.16 193.61 37.4 193.61 37.69 C193.61 37.99 193.54 38.25 193.4 38.46 C193.26 38.67 193.05 38.83 192.78 38.97 C193.16 39.08 193.44 39.27 193.62 39.54 C193.81 39.81 193.9 40.14 193.9 40.52 C193.9 40.83 193.84 41.1 193.72 41.33 C193.6 41.55 193.44 41.74 193.24 41.88 C193.03 42.03 192.8 42.13 192.54 42.2 C192.28 42.27 192.01 42.3 191.74 42.3 L188.76 42.3 L188.76 36.16 L191.65 36.16 Z M191.48 38.65 C191.72 38.65 191.92 38.59 192.07 38.48 C192.23 38.36 192.3 38.17 192.3 37.92 C192.3 37.77 192.28 37.66 192.23 37.56 C192.18 37.47 192.11 37.4 192.02 37.35 C191.93 37.3 191.84 37.26 191.72 37.24 C191.61 37.22 191.5 37.21 191.38 37.21 L190.11 37.21 L190.11 38.65 L191.48 38.65 Z M183.37 36.16 L185.93 40.28 L185.95 40.28 L185.95 36.16 L187.21 36.16 L187.21 42.3 L185.86 42.3 L183.31 38.19 L183.29 38.19 L183.29 42.3 L182.03 42.3 L182.03 36.16 Z M178.84 36.16 C179.11 36.16 179.36 36.21 179.58 36.3 C179.8 36.38 179.99 36.51 180.15 36.66 C180.31 36.82 180.43 37 180.51 37.2 C180.59 37.4 180.63 37.62 180.63 37.86 C180.63 38.22 180.56 38.53 180.41 38.79 C180.25 39.06 180.01 39.26 179.66 39.4 L179.66 39.41 C179.83 39.46 179.97 39.53 180.08 39.62 C180.18 39.72 180.27 39.83 180.34 39.96 C180.41 40.09 180.46 40.23 180.49 40.39 C180.52 40.54 180.55 40.7 180.56 40.85 C180.56 40.95 180.57 41.06 180.57 41.2 C180.58 41.33 180.59 41.46 180.6 41.6 C180.62 41.74 180.64 41.87 180.67 41.99 C180.7 42.11 180.75 42.22 180.81 42.3 L179.46 42.3 C179.39 42.11 179.34 41.88 179.33 41.61 C179.31 41.34 179.28 41.08 179.25 40.83 C179.2 40.51 179.11 40.28 178.96 40.13 C178.81 39.98 178.56 39.91 178.23 39.91 L176.88 39.91 L176.88 42.3 L175.52 42.3 L175.52 36.16 L178.84 36.16 Z M178.36 38.94 C178.67 38.94 178.9 38.87 179.05 38.73 C179.21 38.6 179.28 38.37 179.28 38.06 C179.28 37.76 179.21 37.55 179.05 37.41 C178.9 37.28 178.67 37.21 178.36 37.21 L176.88 37.21 L176.88 38.94 L178.36 38.94 Z M173.44 41.83 C172.98 42.24 172.34 42.44 171.52 42.44 C170.69 42.44 170.04 42.24 169.59 41.84 C169.13 41.44 168.9 40.82 168.9 39.98 L168.9 36.16 L170.25 36.16 L170.25 39.98 C170.25 40.15 170.27 40.31 170.3 40.47 C170.32 40.63 170.38 40.77 170.48 40.9 C170.57 41.02 170.7 41.12 170.86 41.2 C171.02 41.27 171.24 41.31 171.52 41.31 C172 41.31 172.33 41.21 172.51 40.99 C172.7 40.78 172.79 40.44 172.79 39.98 L172.79 36.16 L174.14 36.16 L174.14 39.98 C174.14 40.81 173.91 41.43 173.44 41.83 Z M172.99 35.48 L171.83 35.48 L171.83 34.47 L172.99 34.47 Z M171.22 35.48 L170.06 35.48 L170.06 34.47 L171.22 34.47 Z M163.58 36.16 L166.14 40.28 L166.16 40.28 L166.16 36.16 L167.43 36.16 L167.43 42.3 L166.08 42.3 L163.52 38.19 L163.5 38.19 L163.5 42.3 L162.24 42.3 L162.24 36.16 Z M160.69 40.48 L158.1 40.48 L158.1 39.43 L160.69 39.43 Z M152.72 36.16 L155.29 40.28 L155.3 40.28 L155.3 36.16 L156.57 36.16 L156.57 42.3 L155.22 42.3 L152.66 38.19 L152.65 38.19 L152.65 42.3 L151.38 42.3 L151.38 36.16 Z M149.97 36.16 L149.97 37.3 L146.73 37.3 L146.73 38.61 L149.71 38.61 L149.71 39.66 L146.73 39.66 L146.73 41.17 L150.04 41.17 L150.04 42.3 L145.38 42.3 L145.38 36.16 L149.97 36.16 Z M142.26 42.26 C141.97 42.38 141.67 42.44 141.37 42.44 C140.9 42.44 140.48 42.36 140.11 42.2 C139.73 42.03 139.41 41.81 139.16 41.52 C138.9 41.23 138.7 40.9 138.56 40.51 C138.42 40.12 138.36 39.71 138.36 39.26 C138.36 38.8 138.42 38.37 138.56 37.98 C138.7 37.59 138.9 37.25 139.16 36.95 C139.41 36.66 139.73 36.43 140.11 36.27 C140.48 36.1 140.9 36.02 141.37 36.02 C141.69 36.02 142 36.06 142.29 36.16 C142.59 36.25 142.85 36.39 143.09 36.58 C143.33 36.76 143.52 36.99 143.68 37.26 C143.83 37.53 143.93 37.83 143.96 38.19 L142.67 38.19 C142.59 37.84 142.44 37.58 142.21 37.41 C141.98 37.24 141.7 37.15 141.37 37.15 C141.07 37.15 140.81 37.21 140.6 37.33 C140.39 37.45 140.22 37.6 140.08 37.8 C139.95 38 139.86 38.23 139.8 38.48 C139.74 38.73 139.71 38.99 139.71 39.26 C139.71 39.52 139.74 39.77 139.8 40.01 C139.86 40.26 139.95 40.48 140.08 40.67 C140.22 40.87 140.39 41.02 140.6 41.14 C140.81 41.26 141.07 41.32 141.37 41.32 C141.82 41.32 142.17 41.2 142.41 40.98 C142.65 40.75 142.8 40.42 142.84 39.99 L141.48 39.99 L141.48 38.99 L144.06 38.99 L144.06 42.31 L143.2 42.31 L143.06 41.61 C142.82 41.92 142.55 42.13 142.26 42.26 Z M133.39 36.16 L135.95 40.28 L135.97 40.28 L135.97 36.16 L137.23 36.16 L137.23 42.3 L135.88 42.3 L133.32 38.19 L133.31 38.19 L133.31 42.3 L132.04 42.3 L132.04 36.16 Z M128.98 36.16 L131.28 42.3 L129.88 42.3 L129.41 40.94 L127.12 40.94 L126.63 42.3 L125.28 42.3 L127.6 36.16 Z M129.06 39.93 L128.29 37.68 L128.27 37.68 L127.47 39.93 Z M121.73 36.16 L121.73 41.17 L124.72 41.17 L124.72 42.3 L120.37 42.3 L120.37 36.16 L121.73 36.16 Z M117.36 36.16 C117.63 36.16 117.88 36.21 118.1 36.3 C118.32 36.38 118.51 36.51 118.67 36.66 C118.83 36.82 118.95 37 119.03 37.2 C119.11 37.4 119.15 37.62 119.15 37.86 C119.15 38.22 119.08 38.53 118.93 38.79 C118.77 39.06 118.53 39.26 118.18 39.4 L118.18 39.41 C118.35 39.46 118.49 39.53 118.6 39.62 C118.7 39.72 118.79 39.83 118.86 39.96 C118.93 40.09 118.98 40.23 119.01 40.39 C119.04 40.54 119.07 40.7 119.08 40.85 C119.08 40.95 119.09 41.06 119.09 41.2 C119.1 41.33 119.11 41.46 119.12 41.6 C119.14 41.74 119.16 41.87 119.19 41.99 C119.23 42.11 119.27 42.22 119.34 42.3 L117.98 42.3 C117.91 42.11 117.86 41.88 117.85 41.61 C117.83 41.34 117.8 41.08 117.77 40.83 C117.72 40.51 117.63 40.28 117.48 40.13 C117.33 39.98 117.08 39.91 116.75 39.91 L115.4 39.91 L115.4 42.3 L114.05 42.3 L114.05 36.16 L117.36 36.16 Z M116.88 38.94 C117.19 38.94 117.42 38.87 117.57 38.73 C117.73 38.6 117.8 38.37 117.8 38.06 C117.8 37.76 117.73 37.55 117.57 37.41 C117.42 37.28 117.19 37.21 116.88 37.21 L115.4 37.21 L115.4 38.94 L116.88 38.94 Z M112.72 36.16 L112.72 37.3 L109.48 37.3 L109.48 38.61 L112.46 38.61 L112.46 39.66 L109.48 39.66 L109.48 41.17 L112.79 41.17 L112.79 42.3 L108.13 42.3 L108.13 36.16 L112.72 36.16 Z"/>
  </g>
  <g transform="matrix(0.940181 0 0 0.940734 0 0)">
    <path fill="#003366" d="M162.04 28.01 L162.04 26.88 L167.07 26.88 L167.07 28.01 L165.23 28.01 L165.23 33.02 L163.88 33.02 L163.88 28.01 L162.04 28.01 M159.88 26.88 L162.17 33.02 L160.77 33.02 L160.31 31.65 L158.01 31.65 L157.53 33.02 L156.17 33.02 L158.49 26.88 Z M159.95 30.64 L159.18 28.39 L159.16 28.39 L158.36 30.64 Z M160.63 26.19 L159.47 26.19 L159.47 25.18 L160.63 25.18 Z M158.86 26.19 L157.7 26.19 L157.7 25.18 L158.86 25.18 Z M151.23 28.01 L151.23 26.88 L156.26 26.88 L156.26 28.01 L154.42 28.01 L154.42 33.02 L153.07 33.02 L153.07 28.01 L151.23 28.01 Z M150.15 33.02 L148.8 33.02 L148.8 26.88 L150.15 26.88 L150.15 33.02 Z M143.87 31.5 C143.95 31.64 144.05 31.76 144.17 31.85 C144.29 31.94 144.44 32 144.6 32.05 C144.77 32.09 144.94 32.11 145.12 32.11 C145.24 32.11 145.37 32.1 145.51 32.08 C145.65 32.06 145.77 32.02 145.89 31.97 C146.01 31.91 146.12 31.83 146.2 31.73 C146.28 31.63 146.32 31.5 146.32 31.35 C146.32 31.18 146.26 31.05 146.16 30.94 C146.05 30.84 145.91 30.75 145.74 30.68 C145.57 30.62 145.37 30.56 145.16 30.5 C144.94 30.45 144.72 30.4 144.49 30.33 C144.26 30.27 144.04 30.2 143.82 30.12 C143.6 30.04 143.41 29.93 143.24 29.8 C143.07 29.67 142.93 29.5 142.82 29.3 C142.71 29.11 142.66 28.87 142.66 28.59 C142.66 28.27 142.73 28 142.86 27.77 C143 27.53 143.17 27.34 143.39 27.18 C143.61 27.03 143.86 26.92 144.13 26.84 C144.41 26.77 144.68 26.73 144.96 26.73 C145.28 26.73 145.59 26.76 145.88 26.84 C146.18 26.91 146.44 27.02 146.67 27.18 C146.9 27.34 147.08 27.55 147.21 27.8 C147.35 28.05 147.42 28.35 147.42 28.71 L146.11 28.71 C146.1 28.52 146.06 28.37 145.99 28.25 C145.93 28.13 145.84 28.04 145.73 27.97 C145.62 27.9 145.5 27.85 145.36 27.82 C145.22 27.79 145.06 27.78 144.9 27.78 C144.79 27.78 144.68 27.79 144.57 27.81 C144.46 27.84 144.36 27.88 144.27 27.93 C144.18 27.99 144.11 28.06 144.05 28.15 C144 28.23 143.97 28.34 143.97 28.47 C143.97 28.59 143.99 28.69 144.04 28.77 C144.08 28.84 144.17 28.91 144.31 28.97 C144.44 29.04 144.63 29.1 144.87 29.16 C145.1 29.23 145.41 29.31 145.8 29.4 C145.91 29.43 146.07 29.47 146.28 29.53 C146.48 29.59 146.68 29.68 146.88 29.82 C147.08 29.95 147.26 30.12 147.4 30.35 C147.55 30.57 147.62 30.85 147.62 31.19 C147.62 31.47 147.57 31.73 147.46 31.97 C147.35 32.22 147.19 32.42 146.97 32.6 C146.76 32.77 146.49 32.91 146.17 33.01 C145.86 33.1 145.49 33.15 145.07 33.15 C144.73 33.15 144.4 33.11 144.09 33.03 C143.77 32.94 143.49 32.81 143.24 32.64 C143 32.46 142.8 32.23 142.66 31.96 C142.52 31.68 142.45 31.36 142.46 30.98 L143.76 30.98 C143.76 31.18 143.8 31.36 143.87 31.5 Z M139.69 26.88 C139.97 26.88 140.22 26.92 140.44 27.01 C140.66 27.1 140.85 27.22 141 27.37 C141.16 27.53 141.28 27.71 141.36 27.91 C141.45 28.11 141.49 28.33 141.49 28.57 C141.49 28.93 141.41 29.24 141.26 29.51 C141.11 29.77 140.86 29.97 140.52 30.11 L140.52 30.13 C140.68 30.17 140.82 30.24 140.93 30.34 C141.04 30.43 141.13 30.54 141.2 30.67 C141.27 30.8 141.32 30.94 141.35 31.1 C141.38 31.25 141.4 31.41 141.41 31.56 C141.42 31.66 141.42 31.77 141.43 31.91 C141.43 32.04 141.44 32.17 141.46 32.31 C141.47 32.45 141.5 32.58 141.53 32.7 C141.56 32.82 141.6 32.93 141.67 33.02 L140.32 33.02 C140.24 32.82 140.2 32.59 140.18 32.32 C140.16 32.05 140.14 31.79 140.1 31.54 C140.06 31.22 139.96 30.99 139.81 30.84 C139.66 30.69 139.42 30.62 139.08 30.62 L137.73 30.62 L137.73 33.02 L136.38 33.02 L136.38 26.88 L139.69 26.88 Z M139.21 29.65 C139.52 29.65 139.75 29.58 139.91 29.45 C140.06 29.31 140.14 29.08 140.14 28.78 C140.14 28.48 140.06 28.26 139.91 28.13 C139.75 27.99 139.52 27.92 139.21 27.92 L137.73 27.92 L137.73 29.65 L139.21 29.65 Z M135.06 26.88 L135.06 28.01 L131.82 28.01 L131.82 29.33 L134.79 29.33 L134.79 30.38 L131.82 30.38 L131.82 31.88 L135.13 31.88 L135.13 33.02 L130.47 33.02 L130.47 26.88 Z M125.91 33.02 L123.92 26.88 L125.31 26.88 L126.68 31.19 L126.69 31.19 L128.08 26.88 L129.47 26.88 L127.43 33.02 Z M122.95 33.02 L121.6 33.02 L121.6 26.88 L122.95 26.88 Z M116.25 26.88 L118.81 30.99 L118.83 30.99 L118.83 26.88 L120.09 26.88 L120.09 33.02 L118.74 33.02 L116.19 28.9 L116.17 28.9 L116.17 33.02 L114.91 33.02 L114.91 26.88 Z M112.69 32.55 C112.23 32.95 111.58 33.15 110.76 33.15 C109.93 33.15 109.29 32.95 108.83 32.55 C108.38 32.15 108.15 31.53 108.15 30.69 L108.15 26.88 L109.5 26.88 L109.5 30.69 C109.5 30.86 109.51 31.02 109.54 31.18 C109.57 31.34 109.63 31.49 109.72 31.61 C109.81 31.73 109.94 31.83 110.11 31.91 C110.27 31.99 110.49 32.03 110.76 32.03 C111.24 32.03 111.58 31.92 111.76 31.7 C111.94 31.49 112.04 31.15 112.04 30.69 L112.04 26.88 L113.39 26.88 L113.39 30.69 C113.39 31.52 113.15 32.14 112.69 32.55 Z"/>
  </g>
  <g transform="matrix(0.940181 0 0 0.940734 0 0)">
    <path fill="#003366" d="M214.72 17.47 C214.99 17.47 215.24 17.52 215.46 17.61 C215.68 17.69 215.87 17.82 216.03 17.97 C216.19 18.13 216.31 18.31 216.39 18.51 C216.47 18.71 216.52 18.93 216.52 19.17 C216.52 19.53 216.44 19.84 216.29 20.1 C216.14 20.37 215.89 20.57 215.54 20.71 L215.54 20.72 C215.71 20.77 215.85 20.84 215.96 20.93 C216.06 21.03 216.15 21.14 216.22 21.27 C216.29 21.4 216.34 21.54 216.37 21.69 C216.4 21.85 216.43 22 216.44 22.16 C216.44 22.26 216.45 22.37 216.45 22.5 C216.46 22.64 216.47 22.77 216.48 22.91 C216.5 23.04 216.52 23.18 216.55 23.3 C216.58 23.42 216.63 23.53 216.7 23.61 L215.34 23.61 C215.27 23.42 215.22 23.19 215.21 22.92 C215.19 22.65 215.16 22.39 215.13 22.14 C215.08 21.82 214.99 21.59 214.84 21.44 C214.69 21.29 214.44 21.21 214.11 21.21 L212.76 21.21 L212.76 23.61 L211.41 23.61 L211.41 17.47 L214.72 17.47 M214.24 20.25 C214.55 20.25 214.78 20.18 214.93 20.04 C215.09 19.91 215.16 19.68 215.16 19.37 C215.16 19.07 215.09 18.86 214.93 18.72 C214.78 18.59 214.55 18.52 214.24 18.52 L212.76 18.52 L212.76 20.25 Z M210.13 17.47 L210.13 18.61 L206.89 18.61 L206.89 19.92 L209.86 19.92 L209.86 20.97 L206.89 20.97 L206.89 22.48 L210.2 22.48 L210.2 23.61 L205.54 23.61 L205.54 17.47 Z M201.64 17.47 C202.04 17.47 202.41 17.54 202.75 17.66 C203.09 17.79 203.38 17.98 203.63 18.23 C203.88 18.48 204.08 18.8 204.22 19.18 C204.36 19.55 204.43 20 204.43 20.51 C204.43 20.96 204.37 21.37 204.25 21.75 C204.14 22.12 203.97 22.45 203.73 22.73 C203.5 23 203.21 23.22 202.87 23.38 C202.52 23.53 202.11 23.61 201.64 23.61 L198.99 23.61 L198.99 17.47 Z M201.55 22.48 C201.74 22.48 201.93 22.45 202.11 22.38 C202.3 22.32 202.46 22.22 202.6 22.07 C202.75 21.92 202.86 21.73 202.95 21.5 C203.03 21.26 203.08 20.98 203.08 20.64 C203.08 20.33 203.05 20.05 202.99 19.8 C202.93 19.55 202.83 19.34 202.69 19.16 C202.55 18.98 202.37 18.84 202.14 18.75 C201.92 18.65 201.64 18.61 201.3 18.61 L200.34 18.61 L200.34 22.48 Z M193.7 17.47 L196.27 21.59 L196.28 21.59 L196.28 17.47 L197.55 17.47 L197.55 23.61 L196.2 23.61 L193.64 19.5 L193.62 19.5 L193.62 23.61 L192.36 23.61 L192.36 17.47 Z M189.26 17.47 L191.56 23.61 L190.16 23.61 L189.69 22.24 L187.4 22.24 L186.92 23.61 L185.56 23.61 L187.88 17.47 Z M189.34 21.24 L188.57 18.99 L188.55 18.99 L187.75 21.24 Z M179.39 17.47 L180.96 17.47 L182.16 19.43 L183.41 17.47 L184.89 17.47 L182.92 20.41 L185.06 23.61 L183.45 23.61 L182.11 21.49 L180.74 23.61 L179.23 23.61 L181.37 20.4 Z M178.35 17.47 L178.35 18.61 L175.11 18.61 L175.11 19.92 L178.08 19.92 L178.08 20.97 L175.11 20.97 L175.11 22.48 L178.42 22.48 L178.42 23.61 L173.76 23.61 L173.76 17.47 Z M169.69 17.47 L169.69 22.48 L172.68 22.48 L172.68 23.61 L168.34 23.61 L168.34 17.47 L169.69 17.47 Z M165.11 17.47 L167.4 23.61 L166 23.61 L165.54 22.24 L163.24 22.24 L162.76 23.61 L161.4 23.61 L163.72 17.47 Z M165.19 21.24 L164.41 18.99 L164.39 18.99 L163.6 21.24 Z M160.75 21.79 L158.17 21.79 L158.17 20.74 L160.75 20.74 Z M152.8 17.47 L152.8 19.83 L155.28 19.83 L155.28 17.47 L156.63 17.47 L156.63 23.61 L155.28 23.61 L155.28 20.96 L152.8 20.96 L152.8 23.61 L151.45 23.61 L151.45 17.47 Z M148.7 19.11 C148.62 18.98 148.52 18.87 148.4 18.77 C148.28 18.67 148.14 18.6 147.99 18.54 C147.84 18.49 147.68 18.46 147.51 18.46 C147.21 18.46 146.95 18.52 146.74 18.64 C146.52 18.76 146.35 18.91 146.22 19.11 C146.09 19.31 145.99 19.53 145.93 19.79 C145.87 20.04 145.84 20.3 145.84 20.57 C145.84 20.83 145.87 21.08 145.93 21.32 C145.99 21.56 146.09 21.78 146.22 21.98 C146.35 22.17 146.52 22.33 146.74 22.45 C146.95 22.56 147.21 22.62 147.51 22.62 C147.92 22.62 148.24 22.5 148.48 22.24 C148.71 21.99 148.85 21.66 148.9 21.25 L150.21 21.25 C150.18 21.63 150.09 21.98 149.94 22.29 C149.8 22.6 149.61 22.86 149.38 23.08 C149.14 23.3 148.87 23.46 148.55 23.58 C148.24 23.69 147.89 23.75 147.51 23.75 C147.04 23.75 146.62 23.67 146.24 23.51 C145.87 23.34 145.55 23.12 145.29 22.83 C145.03 22.54 144.84 22.21 144.7 21.82 C144.56 21.43 144.49 21.02 144.49 20.57 C144.49 20.11 144.56 19.68 144.7 19.29 C144.84 18.9 145.03 18.56 145.29 18.26 C145.55 17.97 145.87 17.74 146.24 17.58 C146.62 17.41 147.04 17.33 147.51 17.33 C147.85 17.33 148.17 17.37 148.47 17.47 C148.77 17.57 149.04 17.71 149.28 17.9 C149.52 18.08 149.71 18.32 149.87 18.59 C150.02 18.87 150.12 19.18 150.16 19.54 L148.85 19.54 C148.83 19.38 148.78 19.24 148.7 19.11 Z M143.31 23.61 L141.96 23.61 L141.96 17.47 L143.31 17.47 Z M138.8 17.47 C139.07 17.47 139.32 17.52 139.54 17.61 C139.76 17.69 139.95 17.82 140.11 17.97 C140.27 18.13 140.39 18.31 140.47 18.51 C140.55 18.71 140.59 18.93 140.59 19.17 C140.59 19.53 140.52 19.84 140.37 20.1 C140.21 20.37 139.97 20.57 139.62 20.71 L139.62 20.72 C139.79 20.77 139.93 20.84 140.04 20.93 C140.14 21.03 140.23 21.14 140.3 21.27 C140.37 21.4 140.42 21.54 140.45 21.69 C140.48 21.85 140.51 22 140.52 22.16 C140.52 22.26 140.53 22.37 140.53 22.5 C140.54 22.64 140.55 22.77 140.56 22.91 C140.58 23.04 140.6 23.18 140.63 23.3 C140.66 23.42 140.71 23.53 140.77 23.61 L139.42 23.61 C139.35 23.42 139.3 23.19 139.29 22.92 C139.27 22.65 139.24 22.39 139.21 22.14 C139.16 21.82 139.07 21.59 138.92 21.44 C138.77 21.29 138.52 21.21 138.19 21.21 L136.84 21.21 L136.84 23.61 L135.49 23.61 L135.49 17.47 L138.8 17.47 Z M138.32 20.25 C138.63 20.25 138.86 20.18 139.01 20.04 C139.17 19.91 139.24 19.68 139.24 19.37 C139.24 19.07 139.17 18.86 139.01 18.72 C138.86 18.59 138.62 18.52 138.32 18.52 L136.84 18.52 L136.84 20.25 Z M131.6 17.47 C132 17.47 132.37 17.54 132.71 17.66 C133.05 17.79 133.35 17.98 133.6 18.23 C133.85 18.48 134.04 18.8 134.18 19.18 C134.32 19.55 134.39 20 134.39 20.51 C134.39 20.96 134.33 21.37 134.22 21.75 C134.1 22.12 133.93 22.45 133.7 22.73 C133.47 23 133.18 23.22 132.83 23.38 C132.48 23.53 132.07 23.61 131.6 23.61 L128.96 23.61 L128.96 17.47 Z M131.51 22.48 C131.71 22.48 131.9 22.45 132.08 22.38 C132.26 22.32 132.43 22.22 132.57 22.07 C132.71 21.92 132.83 21.73 132.91 21.5 C133 21.26 133.04 20.98 133.04 20.64 C133.04 20.33 133.01 20.05 132.95 19.8 C132.89 19.55 132.79 19.34 132.65 19.16 C132.52 18.98 132.33 18.84 132.11 18.75 C131.88 18.65 131.6 18.61 131.27 18.61 L130.31 18.61 L130.31 22.48 Z M127.63 17.47 L127.63 18.61 L124.39 18.61 L124.39 19.92 L127.37 19.92 L127.37 20.97 L124.39 20.97 L124.39 22.48 L127.7 22.48 L127.7 23.61 L123.04 23.61 L123.04 17.47 Z M121.49 23.61 L120.14 23.61 L120.14 17.47 L121.49 17.47 Z M116.86 17.47 C117.13 17.47 117.38 17.52 117.6 17.61 C117.82 17.69 118.01 17.82 118.17 17.97 C118.33 18.13 118.45 18.31 118.53 18.51 C118.61 18.71 118.65 18.93 118.65 19.17 C118.65 19.53 118.58 19.84 118.43 20.1 C118.27 20.37 118.03 20.57 117.68 20.71 L117.68 20.72 C117.85 20.77 117.99 20.84 118.1 20.93 C118.2 21.03 118.29 21.14 118.36 21.27 C118.43 21.4 118.48 21.54 118.51 21.69 C118.54 21.85 118.56 22 118.58 22.16 C118.58 22.26 118.59 22.37 118.59 22.5 C118.6 22.64 118.61 22.77 118.62 22.91 C118.64 23.04 118.66 23.18 118.69 23.3 C118.72 23.42 118.77 23.53 118.83 23.61 L117.48 23.61 C117.41 23.42 117.36 23.19 117.35 22.92 C117.33 22.65 117.3 22.39 117.27 22.14 C117.22 21.82 117.13 21.59 116.98 21.44 C116.83 21.29 116.58 21.21 116.25 21.21 L114.9 21.21 L114.9 23.61 L113.55 23.61 L113.55 17.47 L116.86 17.47 Z M116.37 20.25 C116.68 20.25 116.92 20.18 117.07 20.04 C117.23 19.91 117.3 19.68 117.3 19.37 C117.3 19.07 117.23 18.86 117.07 18.72 C116.92 18.59 116.68 18.52 116.37 18.52 L114.9 18.52 L114.9 20.25 Z M112.45 17.47 L112.45 18.61 L109.48 18.61 L109.48 20.03 L112.05 20.03 L112.05 21.08 L109.48 21.08 L109.48 23.61 L108.13 23.61 L108.13 17.47 L112.45 17.47 Z"/>
  </g>
  <g transform="matrix(0.940181 0 0 0.940734 0 0)">
    <path fill="#003366" d="M94.68 39.39 L69.07 39.39 C70.65 40.68 72.47 41.64 74.4 42.31 L89.34 42.31 C91.28 41.64 93.1 40.68 94.68 39.39 Z"/>
  </g>
  <g transform="matrix(0.940181 0 0 0.940734 0 0)">
    <path fill="#003366" d="M24.19 37.93 L35.29 37.93 L35.31 37.88 L35.28 37.88 L36.2 35.01 L25.3 35.01 Z"/>
  </g>
  <g transform="matrix(0.940181 0 0 0.940734 0 0)">
    <path fill="#003366" d="M23.68 39.39 L22.58 42.31 L33.88 42.31 L34.85 39.39 Z"/>
  </g>
  <g transform="matrix(0.940181 0 0 0.940734 0 0)">
    <rect fill="#003366" x="0.01" y="39.39" width="10.58" height="2.92"/>
    <rect fill="#003366" x="0.01" y="35.01" width="10.58" height="2.92"/>
    <rect fill="#003366" x="0.01" y="30.64" width="10.58" height="2.92"/>
    <rect fill="#003366" x="0.01" y="26.26" width="10.58" height="2.92"/>
    <rect fill="#003366" x="0.01" y="13.13" width="10.58" height="2.92"/>
    <rect fill="#003366" x="0.01" y="8.75" width="10.58" height="2.92"/>
    <rect fill="#003366" x="0.01" width="32.37" height="2.92"/>
    <rect fill="#003366" x="0.01" y="4.37" width="32.37" height="2.92"/>
  </g>
  <g transform="matrix(0.940181 0 0 0.940734 0 0)">
    <path fill="#003366" d="M42.92 13.13 L33.37 13.13 L32.26 16.05 L42.02 16.05 Z"/>
  </g>
  <g transform="matrix(0.940181 0 0 0.940734 0 0)">
    <path fill="#003366" d="M37.1 2.92 L50.29 2.92 L49.16 0 L38.21 0 Z"/>
  </g>
  <g transform="matrix(0.940181 0 0 0.940734 0 0)">
    <path fill="#003366" d="M35.49 7.29 L51.94 7.29 L50.81 4.37 L36.59 4.37 Z"/>
  </g>
  <g transform="matrix(0.940181 0 0 0.940734 0 0)">
    <path fill="#003366" d="M44.27 11.67 L53.59 11.67 L52.46 8.76 L34.98 8.76 L33.87 11.67 L43.33 11.67 L43.74 10.34 L43.86 10.34 Z"/>
  </g>
  <g transform="matrix(0.940181 0 0 0.940734 0 0)">
    <path fill="#003366" d="M45.58 16.05 L55.24 16.05 L54.11 13.13 L44.68 13.13 Z"/>
  </g>
  <g transform="matrix(0.940181 0 0 0.940734 0 0)">
    <path fill="#8d1429" d="M46.89 20.42 L56.89 20.42 L55.76 17.5 L45.99 17.5 Z"/>
  </g>
  <g transform="matrix(0.940181 0 0 0.940734 0 0)">
    <path fill="#8d1429" d="M48.19 24.79 L58.54 24.79 L57.41 21.88 L47.3 21.88 Z"/>
  </g>
  <g transform="matrix(0.940181 0 0 0.940734 0 0)">
    <path fill="#003366" d="M27.42 29.18 L60.19 29.18 L59.06 26.26 L28.53 26.26 Z"/>
  </g>
  <g transform="matrix(0.940181 0 0 0.940734 0 0)">
    <path fill="#003366" d="M25.81 33.55 L61.84 33.55 L60.71 30.64 L26.91 30.64 Z"/>
  </g>
  <g transform="matrix(0.940181 0 0 0.940734 0 0)">
    <path fill="#003366" d="M52.41 37.93 L63.5 37.93 L62.36 35.01 L51.43 35.01 Z"/>
  </g>
  <g transform="matrix(0.940181 0 0 0.940734 0 0)">
    <path fill="#003366" d="M52.82 39.39 L53.78 42.31 L65.14 42.31 L64.01 39.39 Z"/>
  </g>
  <g transform="matrix(0.940181 0 0 0.940734 0 0)">
    <rect fill="#003366" x="63.93" width="10.59" height="2.92"/>
  </g>
  <g transform="matrix(0.940181 0 0 0.940734 0 0)">
    <rect fill="#003366" x="63.93" y="4.37" width="10.59" height="2.92"/>
  </g>
  <g transform="matrix(0.940181 0 0 0.940734 0 0)">
    <rect fill="#003366" x="63.93" y="8.76" width="10.59" height="2.92"/>
  </g>
  <g transform="matrix(0.940181 0 0 0.940734 0 0)">
    <rect fill="#003366" x="63.93" y="13.13" width="10.59" height="2.92"/>
  </g>
  <g transform="matrix(0.940181 0 0 0.940734 0 0)">
    <rect fill="#8d1429" x="63.93" y="17.5" width="10.59" height="2.92"/>
  </g>
  <g transform="matrix(0.940181 0 0 0.940734 0 0)">
    <rect fill="#8d1429" x="63.93" y="21.88" width="10.59" height="2.92"/>
  </g>
  <g transform="matrix(0.940181 0 0 0.940734 0 0)">
    <path fill="#003366" d="M64.02 29.18 L74.73 29.18 C74.59 28.43 74.53 27.62 74.53 26.77 L74.53 26.26 L63.93 26.26 L63.93 27.64 C63.93 28.17 63.97 28.68 64.02 29.18 Z"/>
  </g>
  <g transform="matrix(0.940181 0 0 0.940734 0 0)">
    <path fill="#003366" d="M64.96 33.55 L77.05 33.55 C76.11 32.82 75.47 31.82 75.07 30.64 L64.19 30.64 C64.36 31.68 64.62 32.66 64.96 33.55 Z"/>
  </g>
  <g transform="matrix(0.940181 0 0 0.940734 0 0)">
    <path fill="#003366" d="M98.19 35.01 L65.56 35.01 C66.13 36.1 66.84 37.07 67.63 37.93 L96.12 37.93 C96.92 37.07 97.63 36.1 98.19 35.01 Z"/>
  </g>
  <g transform="matrix(0.940181 0 0 0.940734 0 0)">
    <path fill="#003366" d="M99.57 30.64 L88.69 30.64 C88.29 31.82 87.64 32.82 86.7 33.55 L98.79 33.55 C99.14 32.66 99.39 31.68 99.57 30.64 Z"/>
  </g>
  <g transform="matrix(0.940181 0 0 0.940734 0 0)">
    <rect fill="#003366" x="89.23" width="10.6" height="2.92"/>
  </g>
  <g transform="matrix(0.940181 0 0 0.940734 0 0)">
    <rect fill="#003366" x="89.23" y="4.37" width="10.6" height="2.92"/>
  </g>
  <g transform="matrix(0.940181 0 0 0.940734 0 0)">
    <rect fill="#003366" x="89.23" y="8.76" width="10.6" height="2.92"/>
  </g>
  <g transform="matrix(0.940181 0 0 0.940734 0 0)">
    <rect fill="#003366" x="89.23" y="13.13" width="10.6" height="2.92"/>
  </g>
  <g transform="matrix(0.940181 0 0 0.940734 0 0)">
    <rect fill="#8d1429" x="89.23" y="17.5" width="10.6" height="2.92"/>
  </g>
  <g transform="matrix(0.940181 0 0 0.940734 0 0)">
    <rect fill="#8d1429" x="89.23" y="21.88" width="10.6" height="2.92"/>
  </g>
  <g transform="matrix(0.940181 0 0 0.940734 0 0)">
    <path fill="#003366" d="M99.83 27.64 L99.83 26.26 L89.23 26.26 L89.23 26.77 C89.23 27.62 89.17 28.43 89.03 29.18 L99.74 29.18 C99.78 28.68 99.83 28.17 99.83 27.64 Z"/>
  </g>
  <g transform="matrix(0.940181 0 0 0.940734 0 0)">
    <path fill="#8d1429" d="M0 21.88 L0 24.79 L39.41 24.79 L40.31 21.88 Z"/>
    <path fill="#8d1429" d="M0 17.5 L0 20.42 L40.72 20.42 L41.61 17.5 Z"/>
  </g>
</svg>
