<?xml version="1.0" encoding="UTF-8" standalone="no"?>
<!-- Created with PhotoLine 21.01 (www.pl32.de) -->
<!DOCTYPE svg PUBLIC "-//W3C//DTD SVG 1.1//EN" "http://www.w3.org/Graphics/SVG/1.1/DTD/svg11.dtd">
<svg width="240" height="65" viewBox="0 0 240 65" version="1.1" xmlns="http://www.w3.org/2000/svg" xmlns:xlink="http://www.w3.org/1999/xlink">
  <g transform="matrix(1.108207 0 0 1.112231 0 0)">
    <path fill="#6e7881" d="M209.3 53.53 L209.3 52.39 L214.33 52.39 L214.33 53.53 L212.49 53.53 L212.49 58.53 L211.14 58.53 L211.14 53.53 Z M207.2 52.4 L209.5 58.53 L208.1 58.53 L207.63 57.17 L205.34 57.17 L204.86 58.53 L203.5 58.53 L205.82 52.4 Z M207.28 56.16 L206.51 53.91 L206.49 53.91 L205.69 56.16 Z M207.96 51.71 L206.8 51.71 L206.8 50.7 L207.96 50.7 Z M206.19 51.71 L205.03 51.71 L205.03 50.7 L206.19 50.7 Z M198.63 53.53 L198.63 52.39 L203.65 52.39 L203.65 53.53 L201.81 53.53 L201.81 58.53 L200.46 58.53 L200.46 53.53 Z M195.86 52.4 L195.86 57.4 L198.85 57.4 L198.85 58.53 L194.51 58.53 L194.51 52.4 L195.86 52.4 Z M192.34 58.06 C191.87 58.47 191.23 58.67 190.41 58.67 C189.58 58.67 188.94 58.47 188.48 58.07 C188.03 57.67 187.8 57.05 187.8 56.21 L187.8 52.39 L189.15 52.39 L189.15 56.21 C189.15 56.38 189.16 56.54 189.19 56.7 C189.22 56.86 189.28 57 189.37 57.13 C189.47 57.25 189.59 57.35 189.76 57.43 C189.92 57.5 190.14 57.54 190.41 57.54 C190.9 57.54 191.23 57.44 191.41 57.22 C191.59 57.01 191.69 56.67 191.69 56.21 L191.69 52.39 L193.04 52.39 L193.04 56.21 C193.04 57.04 192.8 57.66 192.34 58.06 Z M182.68 52.4 L182.68 54.94 L185.08 52.4 L186.77 52.4 L184.37 54.82 L187 58.53 L185.3 58.53 L183.46 55.77 L182.68 56.56 L182.68 58.53 L181.33 58.53 L181.33 52.4 Z M178.11 52.4 L180.4 58.53 L179 58.53 L178.54 57.17 L176.24 57.17 L175.76 58.53 L174.4 58.53 L176.72 52.4 Z M178.18 56.16 L177.41 53.91 L177.39 53.91 L176.6 56.16 Z M174.41 52.4 L174.41 53.53 L171.45 53.53 L171.45 54.95 L174.02 54.95 L174.02 56 L171.45 56 L171.45 58.53 L170.1 58.53 L170.1 52.4 L174.41 52.4 Z M166.35 52.4 L166.35 53.53 L163.11 53.53 L163.11 54.85 L166.09 54.85 L166.09 55.89 L163.11 55.89 L163.11 57.4 L166.42 57.4 L166.42 58.53 L161.76 58.53 L161.76 52.4 L166.35 52.4 Z M156.42 52.4 L156.42 54.75 L158.91 54.75 L158.91 52.4 L160.26 52.4 L160.26 58.53 L158.91 58.53 L158.91 55.89 L156.42 55.89 L156.42 58.53 L155.07 58.53 L155.07 52.4 Z M152.32 54.03 C152.24 53.9 152.15 53.79 152.02 53.69 C151.9 53.6 151.77 53.52 151.62 53.46 C151.46 53.41 151.31 53.38 151.14 53.38 C150.83 53.38 150.58 53.44 150.37 53.56 C150.15 53.68 149.98 53.83 149.85 54.03 C149.72 54.23 149.62 54.45 149.56 54.71 C149.5 54.96 149.47 55.22 149.47 55.49 C149.47 55.75 149.5 56 149.56 56.24 C149.62 56.48 149.72 56.7 149.85 56.9 C149.98 57.09 150.15 57.25 150.37 57.37 C150.58 57.48 150.84 57.54 151.14 57.54 C151.55 57.54 151.87 57.42 152.11 57.17 C152.34 56.91 152.48 56.58 152.53 56.17 L153.84 56.17 C153.8 56.55 153.72 56.9 153.57 57.21 C153.43 57.52 153.24 57.78 153 58 C152.77 58.22 152.49 58.38 152.18 58.5 C151.87 58.61 151.52 58.67 151.14 58.67 C150.67 58.67 150.25 58.59 149.87 58.43 C149.5 58.26 149.18 58.04 148.92 57.75 C148.66 57.46 148.47 57.13 148.33 56.74 C148.19 56.35 148.12 55.94 148.12 55.49 C148.12 55.03 148.19 54.6 148.33 54.21 C148.47 53.82 148.66 53.48 148.92 53.19 C149.18 52.89 149.5 52.67 149.87 52.5 C150.25 52.33 150.67 52.25 151.14 52.25 C151.48 52.25 151.8 52.3 152.1 52.4 C152.4 52.49 152.67 52.63 152.91 52.82 C153.15 53.01 153.34 53.24 153.5 53.51 C153.65 53.79 153.75 54.1 153.79 54.46 L152.48 54.46 C152.46 54.3 152.41 54.16 152.32 54.03 Z M143.49 57.02 C143.56 57.16 143.66 57.28 143.79 57.37 C143.91 57.46 144.05 57.52 144.22 57.57 C144.39 57.61 144.56 57.63 144.74 57.63 C144.86 57.63 144.98 57.62 145.12 57.6 C145.26 57.58 145.39 57.54 145.51 57.48 C145.63 57.43 145.73 57.35 145.81 57.25 C145.89 57.15 145.93 57.02 145.93 56.87 C145.93 56.7 145.88 56.56 145.77 56.46 C145.67 56.36 145.53 56.27 145.35 56.2 C145.18 56.14 144.99 56.07 144.77 56.02 C144.55 55.97 144.33 55.91 144.11 55.85 C143.88 55.79 143.66 55.72 143.44 55.64 C143.22 55.56 143.03 55.45 142.85 55.32 C142.68 55.19 142.54 55.02 142.44 54.82 C142.33 54.63 142.28 54.39 142.28 54.11 C142.28 53.79 142.35 53.52 142.48 53.29 C142.62 53.05 142.79 52.86 143.01 52.71 C143.23 52.55 143.47 52.44 143.75 52.36 C144.02 52.29 144.3 52.25 144.57 52.25 C144.89 52.25 145.2 52.29 145.5 52.36 C145.79 52.43 146.05 52.55 146.28 52.71 C146.51 52.87 146.69 53.07 146.83 53.32 C146.96 53.57 147.03 53.87 147.03 54.23 L145.72 54.23 C145.71 54.04 145.67 53.89 145.61 53.77 C145.54 53.65 145.45 53.56 145.35 53.49 C145.24 53.42 145.11 53.37 144.97 53.34 C144.83 53.31 144.68 53.3 144.51 53.3 C144.4 53.3 144.29 53.31 144.19 53.33 C144.08 53.36 143.98 53.4 143.89 53.45 C143.8 53.51 143.73 53.58 143.67 53.67 C143.61 53.75 143.58 53.86 143.58 54 C143.58 54.11 143.61 54.21 143.65 54.29 C143.7 54.36 143.79 54.43 143.92 54.49 C144.06 54.56 144.24 54.62 144.48 54.68 C144.72 54.74 145.03 54.83 145.41 54.92 C145.53 54.94 145.69 54.99 145.89 55.05 C146.1 55.11 146.3 55.2 146.5 55.33 C146.7 55.47 146.87 55.64 147.02 55.86 C147.16 56.08 147.24 56.37 147.24 56.71 C147.24 56.99 147.18 57.25 147.07 57.49 C146.97 57.73 146.8 57.94 146.59 58.11 C146.37 58.29 146.11 58.43 145.79 58.52 C145.47 58.62 145.1 58.67 144.69 58.67 C144.35 58.67 144.02 58.63 143.7 58.54 C143.38 58.46 143.1 58.33 142.86 58.15 C142.62 57.98 142.42 57.75 142.28 57.47 C142.14 57.2 142.07 56.87 142.07 56.49 L143.38 56.49 C143.38 56.7 143.41 56.88 143.49 57.02 Z M140.96 58.53 L139.61 58.53 L139.61 52.39 L140.96 52.39 Z M134.18 52.4 L136.74 56.51 L136.76 56.51 L136.76 52.4 L138.02 52.4 L138.02 58.53 L136.67 58.53 L134.12 54.42 L134.1 54.42 L134.1 58.53 L132.84 58.53 L132.84 52.4 Z M127.45 52.4 L127.45 54.75 L129.94 54.75 L129.94 52.4 L131.29 52.4 L131.29 58.53 L129.94 58.53 L129.94 55.89 L127.45 55.89 L127.45 58.53 L126.1 58.53 L126.1 52.4 Z M123.4 54.03 C123.32 53.9 123.22 53.79 123.1 53.69 C122.98 53.6 122.84 53.52 122.69 53.46 C122.54 53.41 122.38 53.38 122.21 53.38 C121.91 53.38 121.65 53.44 121.44 53.56 C121.23 53.68 121.05 53.83 120.92 54.03 C120.79 54.23 120.69 54.45 120.63 54.71 C120.57 54.96 120.54 55.22 120.54 55.49 C120.54 55.75 120.57 56 120.63 56.24 C120.7 56.48 120.79 56.7 120.92 56.9 C121.05 57.09 121.23 57.25 121.44 57.37 C121.65 57.48 121.91 57.54 122.21 57.54 C122.62 57.54 122.95 57.42 123.18 57.17 C123.41 56.91 123.55 56.58 123.6 56.17 L124.91 56.17 C124.88 56.55 124.79 56.9 124.64 57.21 C124.5 57.52 124.31 57.78 124.08 58 C123.84 58.22 123.57 58.38 123.25 58.5 C122.94 58.61 122.59 58.67 122.21 58.67 C121.74 58.67 121.32 58.59 120.94 58.43 C120.57 58.26 120.25 58.04 120 57.75 C119.74 57.46 119.54 57.13 119.4 56.74 C119.26 56.35 119.2 55.94 119.2 55.49 C119.2 55.03 119.26 54.6 119.4 54.21 C119.54 53.82 119.74 53.48 120 53.19 C120.25 52.89 120.57 52.67 120.94 52.5 C121.32 52.33 121.74 52.25 122.21 52.25 C122.55 52.25 122.87 52.3 123.17 52.4 C123.47 52.49 123.74 52.63 123.98 52.82 C124.22 53.01 124.41 53.24 124.57 53.51 C124.72 53.79 124.82 54.1 124.86 54.46 L123.55 54.46 C123.53 54.3 123.48 54.16 123.4 54.03 Z M118.26 52.4 L118.26 53.53 L115.02 53.53 L115.02 54.85 L118 54.85 L118 55.89 L115.02 55.89 L115.02 57.4 L118.33 57.4 L118.33 58.53 L113.67 58.53 L113.67 52.4 L118.26 52.4 Z M107.59 53.53 L107.59 52.39 L112.61 52.39 L112.61 53.53 L110.77 53.53 L110.77 58.53 L109.42 58.53 L109.42 53.53 Z"/>
    <path fill="#003366" d="M210.92 42.23 C210.63 42.35 210.34 42.41 210.04 42.41 C209.57 42.41 209.15 42.33 208.77 42.17 C208.4 42.01 208.08 41.78 207.82 41.49 C207.56 41.21 207.37 40.87 207.23 40.48 C207.09 40.1 207.02 39.68 207.02 39.23 C207.02 38.78 207.09 38.35 207.23 37.96 C207.37 37.57 207.56 37.22 207.82 36.93 C208.08 36.64 208.4 36.41 208.77 36.24 C209.15 36.08 209.57 35.99 210.04 35.99 C210.35 35.99 210.66 36.04 210.95 36.14 C211.25 36.23 211.52 36.37 211.75 36.55 C211.99 36.74 212.19 36.96 212.34 37.23 C212.5 37.5 212.59 37.81 212.63 38.16 L211.34 38.16 C211.26 37.82 211.1 37.56 210.87 37.39 C210.64 37.22 210.37 37.13 210.04 37.13 C209.74 37.13 209.48 37.19 209.27 37.31 C209.05 37.42 208.88 37.58 208.75 37.78 C208.62 37.98 208.52 38.2 208.46 38.45 C208.4 38.71 208.37 38.97 208.37 39.24 C208.37 39.49 208.4 39.75 208.46 39.99 C208.52 40.23 208.62 40.45 208.75 40.64 C208.88 40.84 209.05 41 209.27 41.11 C209.48 41.23 209.74 41.29 210.04 41.29 C210.49 41.29 210.83 41.18 211.07 40.95 C211.32 40.72 211.46 40.4 211.5 39.97 L210.14 39.97 L210.14 38.96 L212.72 38.96 L212.72 42.28 L211.86 42.28 L211.72 41.58 C211.48 41.89 211.22 42.1 210.92 42.23 Z M204.22 36.14 C204.49 36.14 204.74 36.18 204.96 36.27 C205.18 36.36 205.37 36.48 205.53 36.64 C205.69 36.79 205.81 36.97 205.89 37.18 C205.97 37.38 206.01 37.6 206.01 37.83 C206.01 38.19 205.94 38.51 205.79 38.77 C205.63 39.03 205.39 39.23 205.04 39.37 L205.04 39.39 C205.21 39.44 205.35 39.51 205.46 39.6 C205.56 39.7 205.65 39.81 205.72 39.93 C205.79 40.06 205.84 40.21 205.87 40.36 C205.9 40.51 205.92 40.67 205.94 40.83 C205.94 40.92 205.95 41.04 205.95 41.17 C205.96 41.3 205.97 41.44 205.98 41.57 C206 41.71 206.02 41.84 206.05 41.96 C206.08 42.09 206.13 42.19 206.19 42.28 L204.84 42.28 C204.77 42.08 204.72 41.85 204.71 41.58 C204.69 41.31 204.66 41.05 204.63 40.81 C204.58 40.49 204.49 40.25 204.34 40.1 C204.19 39.96 203.94 39.88 203.61 39.88 L202.26 39.88 L202.26 42.28 L200.91 42.28 L200.91 36.14 Z M203.74 38.92 C204.05 38.92 204.28 38.85 204.43 38.71 C204.59 38.57 204.66 38.35 204.66 38.04 C204.66 37.74 204.59 37.52 204.43 37.39 C204.28 37.25 204.05 37.19 203.74 37.19 L202.26 37.19 L202.26 38.92 L203.74 38.92 Z M199.5 36.14 L199.5 37.28 L196.26 37.28 L196.26 38.59 L199.24 38.59 L199.24 39.64 L196.26 39.64 L196.26 41.14 L199.57 41.14 L199.57 42.28 L194.91 42.28 L194.91 36.14 Z M191.44 41.23 C191.57 41.23 191.7 41.21 191.82 41.19 C191.94 41.16 192.05 41.12 192.14 41.06 C192.23 41 192.3 40.92 192.36 40.82 C192.41 40.71 192.44 40.58 192.44 40.42 C192.44 40.1 192.35 39.88 192.17 39.75 C191.99 39.61 191.76 39.54 191.47 39.54 L190 39.54 L190 41.23 Z M191.54 36.14 C191.83 36.14 192.09 36.17 192.34 36.22 C192.58 36.27 192.78 36.35 192.95 36.47 C193.13 36.59 193.26 36.74 193.35 36.94 C193.45 37.13 193.5 37.38 193.5 37.66 C193.5 37.97 193.43 38.23 193.28 38.43 C193.15 38.64 192.94 38.81 192.66 38.94 C193.04 39.05 193.32 39.24 193.51 39.51 C193.7 39.78 193.79 40.11 193.79 40.5 C193.79 40.81 193.73 41.07 193.61 41.3 C193.49 41.53 193.32 41.71 193.12 41.85 C192.92 42 192.69 42.1 192.43 42.17 C192.17 42.24 191.9 42.28 191.62 42.28 L188.65 42.28 L188.65 36.14 Z M191.36 38.62 C191.6 38.62 191.8 38.57 191.96 38.45 C192.11 38.34 192.19 38.15 192.19 37.89 C192.19 37.75 192.16 37.63 192.11 37.54 C192.06 37.45 191.99 37.38 191.91 37.32 C191.82 37.27 191.72 37.24 191.61 37.22 C191.5 37.2 191.38 37.19 191.26 37.19 L190 37.19 L190 38.62 Z M183.26 36.14 L185.82 40.26 L185.84 40.26 L185.84 36.14 L187.1 36.14 L187.1 42.28 L185.75 42.28 L183.2 38.17 L183.18 38.17 L183.18 42.28 L181.92 42.28 L181.92 36.14 Z M178.73 36.14 C179 36.14 179.25 36.18 179.47 36.27 C179.69 36.36 179.88 36.48 180.04 36.64 C180.2 36.79 180.32 36.97 180.4 37.18 C180.48 37.38 180.52 37.6 180.52 37.83 C180.52 38.19 180.45 38.51 180.3 38.77 C180.15 39.03 179.9 39.23 179.55 39.37 L179.55 39.39 C179.72 39.44 179.86 39.51 179.97 39.6 C180.08 39.7 180.16 39.81 180.23 39.93 C180.3 40.06 180.35 40.21 180.38 40.36 C180.41 40.51 180.44 40.67 180.45 40.83 C180.45 40.92 180.46 41.04 180.46 41.17 C180.47 41.3 180.48 41.44 180.49 41.57 C180.51 41.71 180.53 41.84 180.56 41.96 C180.59 42.09 180.64 42.19 180.71 42.28 L179.36 42.28 C179.28 42.08 179.24 41.85 179.22 41.58 C179.2 41.31 179.17 41.05 179.14 40.81 C179.09 40.49 179 40.25 178.85 40.1 C178.7 39.96 178.46 39.88 178.12 39.88 L176.77 39.88 L176.77 42.28 L175.42 42.28 L175.42 36.14 Z M178.25 38.92 C178.56 38.92 178.79 38.85 178.94 38.71 C179.1 38.57 179.18 38.35 179.18 38.04 C179.18 37.74 179.1 37.52 178.94 37.39 C178.79 37.25 178.56 37.19 178.25 37.19 L176.77 37.19 L176.77 38.92 L178.25 38.92 Z M173.34 41.81 C172.88 42.21 172.23 42.41 171.41 42.41 C170.58 42.41 169.94 42.21 169.48 41.81 C169.03 41.41 168.8 40.79 168.8 39.96 L168.8 36.14 L170.15 36.14 L170.15 39.96 C170.15 40.12 170.17 40.28 170.19 40.45 C170.22 40.6 170.28 40.75 170.37 40.87 C170.47 40.99 170.59 41.09 170.76 41.17 C170.92 41.25 171.14 41.29 171.41 41.29 C171.9 41.29 172.23 41.18 172.41 40.96 C172.59 40.75 172.69 40.41 172.69 39.96 L172.69 36.14 L174.03 36.14 L174.03 39.96 C174.03 40.79 173.8 41.4 173.34 41.81 Z M172.88 35.45 L171.72 35.45 L171.72 34.45 L172.88 34.45 Z M171.11 35.45 L169.95 35.45 L169.95 34.45 L171.11 34.45 Z M163.48 36.14 L166.04 40.26 L166.06 40.26 L166.06 36.14 L167.33 36.14 L167.33 42.28 L165.98 42.28 L163.42 38.17 L163.41 38.17 L163.41 42.28 L162.14 42.28 L162.14 36.14 Z M160.59 40.45 L158 40.45 L158 39.41 L160.59 39.41 Z M152.63 36.14 L155.19 40.26 L155.21 40.26 L155.21 36.14 L156.48 36.14 L156.48 42.28 L155.13 42.28 L152.57 38.17 L152.56 38.17 L152.56 42.28 L151.29 42.28 L151.29 36.14 Z M149.88 36.14 L149.88 37.28 L146.64 37.28 L146.64 38.59 L149.62 38.59 L149.62 39.64 L146.64 39.64 L146.64 41.14 L149.95 41.14 L149.95 42.28 L145.3 42.28 L145.3 36.14 Z M142.17 42.23 C141.88 42.35 141.59 42.41 141.29 42.41 C140.82 42.41 140.4 42.33 140.02 42.17 C139.65 42.01 139.33 41.78 139.07 41.49 C138.81 41.21 138.62 40.87 138.48 40.48 C138.34 40.1 138.27 39.68 138.27 39.23 C138.27 38.78 138.34 38.35 138.48 37.96 C138.62 37.57 138.81 37.22 139.07 36.93 C139.33 36.64 139.65 36.41 140.02 36.24 C140.4 36.08 140.82 35.99 141.29 35.99 C141.6 35.99 141.91 36.04 142.2 36.14 C142.5 36.23 142.77 36.37 143 36.55 C143.24 36.74 143.44 36.96 143.59 37.23 C143.75 37.5 143.84 37.81 143.88 38.16 L142.59 38.16 C142.51 37.82 142.35 37.56 142.12 37.39 C141.89 37.22 141.62 37.13 141.29 37.13 C140.98 37.13 140.73 37.19 140.52 37.31 C140.3 37.42 140.13 37.58 140 37.78 C139.87 37.98 139.77 38.2 139.71 38.45 C139.65 38.71 139.62 38.97 139.62 39.24 C139.62 39.49 139.65 39.75 139.71 39.99 C139.77 40.23 139.87 40.45 140 40.64 C140.13 40.84 140.3 41 140.52 41.11 C140.73 41.23 140.99 41.29 141.29 41.29 C141.74 41.29 142.08 41.18 142.33 40.95 C142.57 40.72 142.71 40.4 142.75 39.97 L141.39 39.97 L141.39 38.96 L143.97 38.96 L143.97 42.28 L143.11 42.28 L142.97 41.58 C142.73 41.89 142.47 42.1 142.17 42.23 Z M133.31 36.14 L135.87 40.26 L135.88 40.26 L135.88 36.14 L137.15 36.14 L137.15 42.28 L135.8 42.28 L133.25 38.17 L133.23 38.17 L133.23 42.28 L131.96 42.28 L131.96 36.14 Z M128.9 36.14 L131.2 42.28 L129.8 42.28 L129.33 40.91 L127.04 40.91 L126.56 42.28 L125.2 42.28 L127.52 36.14 Z M128.98 39.9 L128.21 37.65 L128.19 37.65 L127.39 39.9 Z M121.65 36.14 L121.65 41.14 L124.64 41.14 L124.64 42.28 L120.3 42.28 L120.3 36.14 Z M117.29 36.14 C117.56 36.14 117.81 36.18 118.03 36.27 C118.25 36.36 118.44 36.48 118.6 36.64 C118.75 36.79 118.87 36.97 118.96 37.18 C119.04 37.38 119.08 37.6 119.08 37.83 C119.08 38.19 119.01 38.51 118.85 38.77 C118.7 39.03 118.45 39.23 118.11 39.37 L118.11 39.39 C118.28 39.44 118.41 39.51 118.52 39.6 C118.63 39.7 118.72 39.81 118.79 39.93 C118.86 40.06 118.91 40.21 118.94 40.36 C118.97 40.51 118.99 40.67 119 40.83 C119.01 40.92 119.02 41.04 119.02 41.17 C119.03 41.3 119.04 41.44 119.05 41.57 C119.07 41.71 119.09 41.84 119.12 41.96 C119.15 42.09 119.2 42.19 119.26 42.28 L117.91 42.28 C117.84 42.08 117.79 41.85 117.77 41.58 C117.76 41.31 117.73 41.05 117.7 40.81 C117.65 40.49 117.55 40.25 117.4 40.1 C117.26 39.96 117.01 39.88 116.67 39.88 L115.33 39.88 L115.33 42.28 L113.98 42.28 L113.98 36.14 Z M116.8 38.92 C117.12 38.92 117.35 38.85 117.5 38.71 C117.66 38.57 117.73 38.35 117.73 38.04 C117.73 37.74 117.66 37.52 117.5 37.39 C117.35 37.25 117.11 37.19 116.8 37.19 L115.33 37.19 L115.33 38.92 L116.8 38.92 Z M112.66 36.14 L112.66 37.28 L109.42 37.28 L109.42 38.59 L112.39 38.59 L112.39 39.64 L109.42 39.64 L109.42 41.14 L112.72 41.14 L112.72 42.28 L108.07 42.28 L108.07 36.14 Z"/>
    <path fill="#003366" d="M161.94 27.99 L161.94 26.86 L166.97 26.86 L166.97 27.99 L165.13 27.99 L165.13 32.99 L163.78 32.99 L163.78 27.99 Z M159.78 26.86 L162.07 32.99 L160.67 32.99 L160.21 31.63 L157.91 31.63 L157.43 32.99 L156.08 32.99 L158.4 26.86 Z M159.86 30.62 L159.08 28.37 L159.07 28.37 L158.27 30.62 Z M160.54 26.17 L159.37 26.17 L159.37 25.16 L160.54 25.16 Z M158.77 26.17 L157.61 26.17 L157.61 25.16 L158.77 25.16 Z M151.14 27.99 L151.14 26.86 L156.17 26.86 L156.17 27.99 L154.33 27.99 L154.33 32.99 L152.98 32.99 L152.98 27.99 Z M150.06 32.99 L148.71 32.99 L148.71 26.86 L150.06 26.86 Z M143.79 31.48 C143.86 31.63 143.96 31.74 144.08 31.83 C144.2 31.92 144.35 31.98 144.52 32.03 C144.68 32.07 144.85 32.09 145.03 32.09 C145.15 32.09 145.28 32.08 145.42 32.06 C145.56 32.04 145.69 32 145.81 31.95 C145.93 31.89 146.03 31.81 146.11 31.71 C146.19 31.61 146.23 31.48 146.23 31.33 C146.23 31.16 146.17 31.03 146.07 30.92 C145.96 30.82 145.82 30.74 145.65 30.67 C145.48 30.6 145.29 30.54 145.07 30.49 C144.85 30.43 144.63 30.38 144.41 30.31 C144.18 30.26 143.95 30.19 143.74 30.1 C143.52 30.02 143.32 29.91 143.15 29.78 C142.98 29.65 142.84 29.48 142.73 29.29 C142.63 29.09 142.58 28.85 142.58 28.57 C142.58 28.25 142.64 27.98 142.78 27.75 C142.91 27.52 143.09 27.32 143.31 27.17 C143.52 27.01 143.77 26.9 144.04 26.82 C144.32 26.75 144.59 26.71 144.87 26.71 C145.19 26.71 145.5 26.75 145.79 26.82 C146.09 26.89 146.35 27.01 146.58 27.17 C146.81 27.33 146.99 27.53 147.13 27.78 C147.26 28.03 147.33 28.33 147.33 28.69 L146.02 28.69 C146.01 28.51 145.97 28.35 145.91 28.23 C145.84 28.11 145.75 28.02 145.64 27.95 C145.53 27.88 145.41 27.83 145.27 27.8 C145.13 27.78 144.98 27.76 144.81 27.76 C144.7 27.76 144.59 27.77 144.48 27.8 C144.37 27.82 144.27 27.86 144.19 27.92 C144.1 27.97 144.02 28.04 143.97 28.13 C143.91 28.22 143.88 28.32 143.88 28.46 C143.88 28.58 143.9 28.67 143.95 28.75 C143.99 28.82 144.08 28.89 144.22 28.96 C144.35 29.02 144.54 29.08 144.78 29.14 C145.02 29.21 145.33 29.29 145.71 29.38 C145.83 29.41 145.98 29.45 146.19 29.51 C146.39 29.57 146.59 29.67 146.79 29.8 C146.99 29.93 147.17 30.11 147.31 30.33 C147.46 30.55 147.53 30.83 147.53 31.17 C147.53 31.45 147.48 31.71 147.37 31.95 C147.26 32.2 147.1 32.4 146.88 32.58 C146.67 32.75 146.4 32.89 146.09 32.99 C145.77 33.08 145.4 33.13 144.98 33.13 C144.64 33.13 144.31 33.09 144 33.01 C143.68 32.92 143.4 32.79 143.16 32.62 C142.91 32.44 142.72 32.21 142.57 31.94 C142.43 31.66 142.36 31.33 142.37 30.96 L143.68 30.96 C143.67 31.16 143.71 31.34 143.79 31.48 Z M139.61 26.86 C139.88 26.86 140.13 26.9 140.35 26.99 C140.57 27.08 140.76 27.2 140.92 27.36 C141.08 27.51 141.2 27.69 141.28 27.89 C141.36 28.1 141.4 28.32 141.4 28.55 C141.4 28.91 141.33 29.22 141.18 29.49 C141.02 29.75 140.78 29.95 140.43 30.09 L140.43 30.11 C140.6 30.15 140.74 30.22 140.84 30.32 C140.95 30.41 141.04 30.52 141.11 30.65 C141.18 30.78 141.23 30.92 141.26 31.08 C141.29 31.23 141.31 31.39 141.33 31.54 C141.33 31.64 141.34 31.75 141.34 31.89 C141.35 32.02 141.36 32.15 141.37 32.29 C141.39 32.43 141.41 32.56 141.44 32.68 C141.47 32.8 141.52 32.91 141.58 32.99 L140.23 32.99 C140.16 32.8 140.11 32.57 140.1 32.3 C140.08 32.03 140.05 31.77 140.02 31.53 C139.97 31.21 139.88 30.97 139.73 30.82 C139.58 30.67 139.33 30.6 139 30.6 L137.65 30.6 L137.65 33 L136.3 33 L136.3 26.86 L139.61 26.86 Z M139.13 29.63 C139.44 29.63 139.67 29.57 139.82 29.43 C139.98 29.29 140.05 29.07 140.05 28.76 C140.05 28.46 139.98 28.24 139.82 28.11 C139.67 27.97 139.44 27.91 139.13 27.91 L137.65 27.91 L137.65 29.63 Z M134.98 26.86 L134.98 27.99 L131.74 27.99 L131.74 29.31 L134.71 29.31 L134.71 30.36 L131.74 30.36 L131.74 31.86 L135.05 31.86 L135.05 32.99 L130.39 32.99 L130.39 26.86 Z M125.83 32.99 L123.85 26.86 L125.23 26.86 L126.6 31.17 L126.62 31.17 L128 26.86 L129.39 26.86 L127.36 32.99 Z M122.87 32.99 L121.52 32.99 L121.52 26.86 L122.87 26.86 Z M116.18 26.86 L118.74 30.98 L118.76 30.98 L118.76 26.86 L120.02 26.86 L120.02 32.99 L118.67 32.99 L116.12 28.89 L116.1 28.89 L116.1 32.99 L114.84 32.99 L114.84 26.86 Z M112.62 32.53 C112.16 32.93 111.52 33.13 110.7 33.13 C109.87 33.13 109.22 32.93 108.77 32.53 C108.31 32.13 108.08 31.51 108.08 30.67 L108.08 26.86 L109.43 26.86 L109.43 30.67 C109.43 30.84 109.45 31 109.48 31.16 C109.5 31.32 109.56 31.46 109.66 31.59 C109.75 31.71 109.88 31.81 110.04 31.89 C110.2 31.97 110.42 32.01 110.7 32.01 C111.18 32.01 111.51 31.9 111.69 31.68 C111.88 31.47 111.97 31.13 111.97 30.67 L111.97 26.86 L113.32 26.86 L113.32 30.67 C113.32 31.51 113.09 32.12 112.62 32.53 Z"/>
    <path fill="#003366" d="M214.59 17.46 C214.86 17.46 215.11 17.51 215.33 17.59 C215.55 17.68 215.74 17.81 215.9 17.96 C216.06 18.11 216.18 18.29 216.26 18.5 C216.34 18.7 216.38 18.92 216.38 19.15 C216.38 19.52 216.31 19.83 216.16 20.09 C216.01 20.36 215.76 20.56 215.41 20.69 L215.41 20.71 C215.58 20.76 215.72 20.83 215.83 20.92 C215.93 21.02 216.02 21.13 216.09 21.26 C216.16 21.38 216.21 21.53 216.24 21.68 C216.27 21.84 216.3 21.99 216.31 22.15 C216.31 22.24 216.32 22.36 216.32 22.49 C216.33 22.62 216.34 22.76 216.35 22.89 C216.37 23.03 216.39 23.16 216.42 23.28 C216.45 23.41 216.5 23.51 216.56 23.6 L215.22 23.6 C215.14 23.4 215.09 23.17 215.08 22.9 C215.06 22.63 215.03 22.38 215 22.13 C214.95 21.81 214.86 21.57 214.71 21.42 C214.56 21.27 214.31 21.2 213.98 21.2 L212.63 21.2 L212.63 23.6 L211.28 23.6 L211.28 17.46 Z M214.11 20.24 C214.42 20.24 214.65 20.17 214.8 20.03 C214.96 19.89 215.04 19.67 215.04 19.36 C215.04 19.06 214.96 18.85 214.8 18.71 C214.65 18.58 214.42 18.51 214.11 18.51 L212.63 18.51 L212.63 20.24 Z M210 17.46 L210 18.6 L206.76 18.6 L206.76 19.91 L209.74 19.91 L209.74 20.96 L206.76 20.96 L206.76 22.46 L210.07 22.46 L210.07 23.6 L205.41 23.6 L205.41 17.46 L210 17.46 Z M201.52 17.46 C201.92 17.46 202.28 17.52 202.62 17.65 C202.96 17.78 203.26 17.97 203.51 18.22 C203.76 18.47 203.95 18.78 204.09 19.16 C204.23 19.54 204.3 19.99 204.3 20.5 C204.3 20.94 204.25 21.36 204.13 21.73 C204.02 22.11 203.84 22.44 203.61 22.71 C203.38 22.99 203.09 23.2 202.74 23.36 C202.4 23.52 201.99 23.6 201.52 23.6 L198.87 23.6 L198.87 17.46 L201.52 17.46 Z M201.42 22.46 C201.62 22.46 201.81 22.43 201.99 22.37 C202.17 22.31 202.34 22.2 202.48 22.05 C202.62 21.91 202.74 21.72 202.82 21.48 C202.91 21.25 202.95 20.96 202.95 20.62 C202.95 20.31 202.92 20.04 202.86 19.79 C202.8 19.54 202.71 19.32 202.57 19.15 C202.43 18.97 202.25 18.83 202.02 18.74 C201.79 18.64 201.52 18.6 201.18 18.6 L200.22 18.6 L200.22 22.46 L201.42 22.46 Z M193.59 17.46 L196.15 21.58 L196.17 21.58 L196.17 17.46 L197.43 17.46 L197.43 23.6 L196.08 23.6 L193.53 19.49 L193.51 19.49 L193.51 23.6 L192.25 23.6 L192.25 17.46 Z M189.15 17.46 L191.44 23.6 L190.04 23.6 L189.58 22.23 L187.28 22.23 L186.8 23.6 L185.45 23.6 L187.77 17.46 Z M189.23 21.23 L188.45 18.97 L188.44 18.97 L187.64 21.23 Z M179.28 17.46 L180.85 17.46 L182.05 19.42 L183.3 17.46 L184.77 17.46 L182.81 20.39 L184.95 23.6 L183.34 23.6 L182 21.48 L180.63 23.6 L179.12 23.6 L181.26 20.38 Z M178.24 17.46 L178.24 18.6 L175 18.6 L175 19.91 L177.98 19.91 L177.98 20.96 L175 20.96 L175 22.46 L178.31 22.46 L178.31 23.6 L173.65 23.6 L173.65 17.46 L178.24 17.46 Z M169.58 17.46 L169.58 22.46 L172.57 22.46 L172.57 23.6 L168.23 23.6 L168.23 17.46 L169.58 17.46 Z M165.01 17.46 L167.3 23.6 L165.9 23.6 L165.44 22.23 L163.14 22.23 L162.66 23.6 L161.31 23.6 L163.63 17.46 Z M165.09 21.23 L164.31 18.97 L164.3 18.97 L163.5 21.23 Z M160.66 21.78 L158.07 21.78 L158.07 20.73 L160.66 20.73 Z M152.71 17.46 L152.71 19.82 L155.19 19.82 L155.19 17.46 L156.54 17.46 L156.54 23.6 L155.19 23.6 L155.19 20.95 L152.71 20.95 L152.71 23.6 L151.36 23.6 L151.36 17.46 Z M148.61 19.1 C148.53 18.97 148.43 18.86 148.31 18.76 C148.19 18.66 148.05 18.59 147.9 18.53 C147.75 18.48 147.59 18.45 147.42 18.45 C147.12 18.45 146.86 18.51 146.65 18.63 C146.44 18.74 146.26 18.9 146.13 19.1 C146 19.3 145.9 19.52 145.84 19.77 C145.78 20.03 145.75 20.29 145.75 20.56 C145.75 20.81 145.78 21.06 145.84 21.31 C145.9 21.55 146 21.77 146.13 21.97 C146.26 22.16 146.44 22.32 146.65 22.43 C146.86 22.55 147.12 22.61 147.42 22.61 C147.83 22.61 148.15 22.48 148.39 22.23 C148.62 21.98 148.76 21.65 148.81 21.23 L150.12 21.23 C150.09 21.62 150 21.97 149.85 22.27 C149.71 22.58 149.52 22.85 149.29 23.07 C149.05 23.28 148.78 23.45 148.46 23.56 C148.15 23.68 147.8 23.74 147.42 23.74 C146.95 23.74 146.53 23.65 146.15 23.49 C145.78 23.33 145.46 23.1 145.2 22.82 C144.95 22.53 144.75 22.19 144.61 21.81 C144.47 21.42 144.4 21 144.4 20.56 C144.4 20.1 144.47 19.67 144.61 19.28 C144.75 18.89 144.95 18.54 145.2 18.25 C145.46 17.96 145.78 17.73 146.15 17.56 C146.53 17.4 146.95 17.32 147.42 17.32 C147.76 17.32 148.08 17.36 148.38 17.46 C148.68 17.56 148.95 17.7 149.19 17.89 C149.43 18.07 149.62 18.3 149.78 18.58 C149.93 18.85 150.03 19.17 150.07 19.52 L148.76 19.52 C148.74 19.37 148.69 19.23 148.61 19.1 Z M143.22 23.6 L141.87 23.6 L141.87 17.46 L143.22 17.46 Z M138.71 17.46 C138.99 17.46 139.24 17.51 139.46 17.59 C139.68 17.68 139.87 17.81 140.02 17.96 C140.18 18.11 140.3 18.29 140.39 18.5 C140.47 18.7 140.51 18.92 140.51 19.15 C140.51 19.52 140.43 19.83 140.28 20.09 C140.13 20.36 139.88 20.56 139.54 20.69 L139.54 20.71 C139.7 20.76 139.84 20.83 139.95 20.92 C140.06 21.02 140.15 21.13 140.22 21.26 C140.29 21.38 140.34 21.53 140.37 21.68 C140.4 21.84 140.42 21.99 140.43 22.15 C140.44 22.24 140.44 22.36 140.45 22.49 C140.46 22.62 140.47 22.76 140.48 22.89 C140.49 23.03 140.52 23.16 140.55 23.28 C140.58 23.41 140.63 23.51 140.69 23.6 L139.34 23.6 C139.27 23.4 139.22 23.17 139.2 22.9 C139.18 22.63 139.16 22.38 139.13 22.13 C139.08 21.81 138.98 21.57 138.83 21.42 C138.68 21.27 138.44 21.2 138.1 21.2 L136.75 21.2 L136.75 23.6 L135.4 23.6 L135.4 17.46 Z M138.23 20.24 C138.54 20.24 138.77 20.17 138.93 20.03 C139.08 19.89 139.16 19.67 139.16 19.36 C139.16 19.06 139.08 18.85 138.93 18.71 C138.77 18.58 138.54 18.51 138.23 18.51 L136.75 18.51 L136.75 20.24 Z M131.53 17.46 C131.92 17.46 132.29 17.52 132.63 17.65 C132.97 17.78 133.27 17.97 133.51 18.22 C133.76 18.47 133.96 18.78 134.1 19.16 C134.24 19.54 134.31 19.99 134.31 20.5 C134.31 20.94 134.25 21.36 134.14 21.73 C134.02 22.11 133.85 22.44 133.62 22.71 C133.39 22.99 133.1 23.2 132.75 23.36 C132.4 23.52 131.99 23.6 131.52 23.6 L128.88 23.6 L128.88 17.46 L131.53 17.46 Z M131.43 22.46 C131.63 22.46 131.82 22.43 132 22.37 C132.18 22.31 132.35 22.2 132.49 22.05 C132.63 21.91 132.75 21.72 132.83 21.48 C132.92 21.25 132.96 20.96 132.96 20.62 C132.96 20.31 132.93 20.04 132.87 19.79 C132.81 19.54 132.71 19.32 132.57 19.15 C132.44 18.97 132.26 18.83 132.03 18.74 C131.8 18.64 131.52 18.6 131.19 18.6 L130.23 18.6 L130.23 22.46 L131.43 22.46 Z M127.56 17.46 L127.56 18.6 L124.32 18.6 L124.32 19.91 L127.29 19.91 L127.29 20.96 L124.32 20.96 L124.32 22.46 L127.63 22.46 L127.63 23.6 L122.97 23.6 L122.97 17.46 L127.56 17.46 Z M121.42 23.6 L120.07 23.6 L120.07 17.46 L121.42 17.46 Z M116.79 17.46 C117.06 17.46 117.31 17.51 117.53 17.59 C117.75 17.68 117.94 17.81 118.1 17.96 C118.25 18.11 118.37 18.29 118.46 18.5 C118.54 18.7 118.58 18.92 118.58 19.15 C118.58 19.52 118.51 19.83 118.35 20.09 C118.2 20.36 117.95 20.56 117.61 20.69 L117.61 20.71 C117.78 20.76 117.91 20.83 118.02 20.92 C118.13 21.02 118.22 21.13 118.29 21.26 C118.36 21.38 118.41 21.53 118.44 21.68 C118.47 21.84 118.49 21.99 118.5 22.15 C118.51 22.24 118.51 22.36 118.52 22.49 C118.53 22.62 118.54 22.76 118.55 22.89 C118.56 23.03 118.59 23.16 118.62 23.28 C118.65 23.41 118.7 23.51 118.76 23.6 L117.41 23.6 C117.34 23.4 117.29 23.17 117.27 22.9 C117.26 22.63 117.23 22.38 117.2 22.13 C117.15 21.81 117.05 21.57 116.9 21.42 C116.76 21.27 116.51 21.2 116.17 21.2 L114.82 21.2 L114.82 23.6 L113.47 23.6 L113.47 17.46 Z M116.31 20.24 C116.62 20.24 116.85 20.17 117 20.03 C117.16 19.89 117.23 19.67 117.23 19.36 C117.23 19.06 117.16 18.85 117 18.71 C116.85 18.58 116.61 18.51 116.31 18.51 L114.83 18.51 L114.83 20.24 Z M112.38 17.46 L112.38 18.6 L109.42 18.6 L109.42 20.01 L111.99 20.01 L111.99 21.06 L109.42 21.06 L109.42 23.6 L108.07 23.6 L108.07 17.46 Z"/>
    <path fill="#003366" d="M94.62 39.37 L69.03 39.37 C70.61 40.65 72.43 41.61 74.35 42.28 L89.29 42.28 C91.22 41.61 93.05 40.65 94.62 39.37 Z"/>
    <path fill="#003366" d="M24.18 37.91 L35.27 37.91 L35.29 37.85 L35.26 37.85 L36.17 34.99 L25.28 34.99 Z"/>
    <path fill="#003366" d="M23.67 39.37 L22.57 42.28 L33.86 42.28 L34.83 39.37 Z"/>
    <rect fill="#003366" x="0.01" y="39.37" width="10.57" height="2.91"/>
    <rect fill="#003366" x="0.01" y="34.99" width="10.57" height="2.91"/>
    <rect fill="#003366" x="0.01" y="30.62" width="10.57" height="2.91"/>
    <rect fill="#003366" x="0.01" y="26.25" width="10.57" height="2.91"/>
    <rect fill="#003366" x="0.01" y="13.12" width="10.57" height="2.91"/>
    <rect fill="#003366" x="0.01" y="8.74" width="10.57" height="2.92"/>
    <rect fill="#003366" x="0.01" width="32.35" height="2.91"/>
    <rect fill="#003366" x="0.01" y="4.37" width="32.35" height="2.91"/>
    <path fill="#003366" d="M42.9 13.12 L33.35 13.12 L32.24 16.04 L42 16.04 Z"/>
    <path fill="#003366" d="M37.08 2.91 L50.26 2.91 L49.13 0 L38.18 0 Z"/>
    <path fill="#003366" d="M35.47 7.29 L51.91 7.29 L50.78 4.37 L36.57 4.37 Z"/>
    <path fill="#003366" d="M44.24 11.67 L53.56 11.67 L52.43 8.75 L34.96 8.75 L33.85 11.67 L43.31 11.67 L43.72 10.33 L43.83 10.33 Z"/>
    <path fill="#003366" d="M45.55 16.04 L55.21 16.04 L54.08 13.12 L44.66 13.12 Z"/>
    <path fill="#6e7881" d="M46.86 20.4 L56.86 20.4 L55.73 17.49 L45.96 17.49 Z"/>
    <path fill="#6e7881" d="M48.17 24.78 L58.51 24.78 L57.38 21.86 L47.27 21.86 Z"/>
    <path fill="#003366" d="M27.4 29.16 L60.16 29.16 L59.03 26.25 L28.51 26.25 Z"/>
    <path fill="#003366" d="M25.79 33.53 L61.81 33.53 L60.68 30.62 L26.89 30.62 Z"/>
    <path fill="#003366" d="M52.37 37.91 L63.46 37.91 L62.33 34.99 L51.4 34.99 Z"/>
    <path fill="#003366" d="M52.78 39.37 L53.75 42.28 L65.1 42.28 L63.97 39.37 Z"/>
    <rect fill="#003366" x="63.89" width="10.59" height="2.91"/>
    <rect fill="#003366" x="63.89" y="4.37" width="10.59" height="2.91"/>
    <rect fill="#003366" x="63.89" y="8.75" width="10.59" height="2.91"/>
    <rect fill="#003366" x="63.89" y="13.12" width="10.59" height="2.91"/>
    <rect fill="#6e7881" x="63.89" y="17.49" width="10.59" height="2.91"/>
    <rect fill="#6e7881" x="63.89" y="21.86" width="10.59" height="2.91"/>
    <path fill="#003366" d="M63.98 29.16 L74.68 29.16 C74.55 28.41 74.48 27.6 74.48 26.75 L74.48 26.25 L63.89 26.25 L63.89 27.62 C63.89 28.16 63.94 28.66 63.98 29.16 Z"/>
    <path fill="#003366" d="M64.93 33.53 L77 33.53 C76.06 32.8 75.42 31.8 75.02 30.62 L64.15 30.62 C64.33 31.66 64.58 32.64 64.93 33.53 Z"/>
    <path fill="#003366" d="M98.13 34.99 L65.53 34.99 C66.09 36.08 66.79 37.05 67.59 37.91 L96.07 37.91 C96.86 37.05 97.57 36.08 98.13 34.99 Z"/>
    <path fill="#003366" d="M99.51 30.62 L88.64 30.62 C88.24 31.8 87.59 32.8 86.65 33.53 L98.74 33.53 C99.08 32.64 99.33 31.66 99.51 30.62 Z"/>
    <rect fill="#003366" x="89.18" width="10.59" height="2.91"/>
    <rect fill="#003366" x="89.18" y="4.37" width="10.59" height="2.91"/>
    <rect fill="#003366" x="89.18" y="8.75" width="10.59" height="2.91"/>
    <rect fill="#003366" x="89.18" y="13.12" width="10.59" height="2.91"/>
    <rect fill="#6e7881" x="89.18" y="17.49" width="10.59" height="2.91"/>
    <rect fill="#6e7881" x="89.18" y="21.86" width="10.59" height="2.91"/>
    <path fill="#003366" d="M99.77 27.62 L99.77 26.25 L89.18 26.25 L89.18 26.75 C89.18 27.6 89.11 28.41 88.98 29.16 L99.68 29.16 C99.72 28.66 99.77 28.16 99.77 27.62 Z"/>
    <path fill="#6e7881" d="M0 21.86 L0 24.78 L39.39 24.78 L40.28 21.86 Z"/>
    <path fill="#6e7881" d="M0 17.49 L0 20.41 L40.69 20.41 L41.59 17.49 Z"/>
  </g>
</svg>
