<svg version="1.1" focusable="false" xmlns="http://www.w3.org/2000/svg" xmlns:xlink="http://www.w3.org/1999/xlink"
	 x="0px" y="0px" viewBox="0 0 81.41 81.63" style="enable-background:new 0 0 81.41 81.63;" xml:space="preserve">
<g>
	<path d="M69.99,2.4l8.64,8.13c3.49,3.28,3.72,8.72,0.58,12.29l-0.24,0.27l-51.3,52.26L0,81.63l6.28-27.65L57.68,2.59
		C61.06-0.79,66.51-0.87,69.99,2.4z M10.54,58.73L6.9,74.73l16.18-3.68c-1.18-3.79-2.48-6.37-3.79-7.68
		C17.93,62,14.98,60.42,10.54,58.73z M52.87,14.75l-39.5,39.5c4.56,1.8,7.74,3.58,9.61,5.44c1.78,1.78,3.28,4.54,4.59,8.32
		l38.92-39.65L52.87,14.75z M61.36,6.27l-4.8,4.8l13.58,13.58l5.03-5.13l0.2-0.22c1.23-1.47,1.11-3.66-0.3-4.99l-8.64-8.13
		C64.99,4.84,62.75,4.88,61.36,6.27z"/>
</g>
</svg>
