<svg version="1.1" xmlns="http://www.w3.org/2000/svg" xmlns:xlink="http://www.w3.org/1999/xlink" x="0px" y="0px"
	 viewBox="0 0 86.88 86.88" style="enable-background:new 0 0 86.88 86.88;" xml:space="preserve">
<g>
	<path d="M83.78,6.21H65.16V3.1c0-1.71-1.39-3.1-3.1-3.1s-3.1,1.39-3.1,3.1v3.1H46.55V3.1c0-1.71-1.39-3.1-3.1-3.1
		s-3.1,1.39-3.1,3.1v3.1H27.93V3.1c0-1.71-1.39-3.1-3.1-3.1s-3.1,1.39-3.1,3.1v3.1H3.1C1.39,6.21,0,7.6,0,9.31v74.47
		c0,1.71,1.39,3.1,3.1,3.1h80.68c1.71,0,3.1-1.39,3.1-3.1V9.31C86.88,7.6,85.49,6.21,83.78,6.21z M21.72,12.41v3.1
		c0,1.71,1.39,3.1,3.1,3.1s3.1-1.39,3.1-3.1v-3.1h12.41v3.1c0,1.71,1.39,3.1,3.1,3.1s3.1-1.39,3.1-3.1v-3.1h12.41v3.1
		c0,1.71,1.39,3.1,3.1,3.1s3.1-1.39,3.1-3.1v-3.1h15.52v12.41H6.21V12.41H21.72z M6.21,80.68V31.03h74.47v49.65H6.21z M52.75,43.44
		c0,1.71-1.39,3.1-3.1,3.1H37.24c-1.71,0-3.1-1.39-3.1-3.1s1.39-3.1,3.1-3.1h12.41C51.36,40.34,52.75,41.73,52.75,43.44z
		 M74.47,43.44c0,1.71-1.39,3.1-3.1,3.1H58.96c-1.71,0-3.1-1.39-3.1-3.1s1.39-3.1,3.1-3.1h12.41
		C73.08,40.34,74.47,41.73,74.47,43.44z M31.03,43.44c0,1.71-1.39,3.1-3.1,3.1H15.52c-1.71,0-3.1-1.39-3.1-3.1s1.39-3.1,3.1-3.1
		h12.41C29.64,40.34,31.03,41.73,31.03,43.44z M52.75,55.85c0,1.71-1.39,3.1-3.1,3.1H37.24c-1.71,0-3.1-1.39-3.1-3.1
		c0-1.71,1.39-3.1,3.1-3.1h12.41C51.36,52.75,52.75,54.14,52.75,55.85z M74.47,55.85c0,1.71-1.39,3.1-3.1,3.1H58.96
		c-1.71,0-3.1-1.39-3.1-3.1c0-1.71,1.39-3.1,3.1-3.1h12.41C73.08,52.75,74.47,54.14,74.47,55.85z M31.03,55.85
		c0,1.71-1.39,3.1-3.1,3.1H15.52c-1.71,0-3.1-1.39-3.1-3.1c0-1.71,1.39-3.1,3.1-3.1h12.41C29.64,52.75,31.03,54.14,31.03,55.85z
		 M52.75,68.27c0,1.71-1.39,3.1-3.1,3.1H37.24c-1.71,0-3.1-1.39-3.1-3.1c0-1.71,1.39-3.1,3.1-3.1h12.41
		C51.36,65.16,52.75,66.55,52.75,68.27z M74.47,68.27c0,1.71-1.39,3.1-3.1,3.1H58.96c-1.71,0-3.1-1.39-3.1-3.1
		c0-1.71,1.39-3.1,3.1-3.1h12.41C73.08,65.16,74.47,66.55,74.47,68.27z M31.03,68.27c0,1.71-1.39,3.1-3.1,3.1H15.52
		c-1.71,0-3.1-1.39-3.1-3.1c0-1.71,1.39-3.1,3.1-3.1h12.41C29.64,65.16,31.03,66.55,31.03,68.27z"/>
</g>
</svg>
