<svg version="1.1" xmlns="http://www.w3.org/2000/svg" xmlns:xlink="http://www.w3.org/1999/xlink" x="0px" y="0px"
	 viewBox="0 0 85.5 70.9" style="enable-background:new 0 0 85.5 70.9;" xml:space="preserve">
<path d="M85.5,19.2c0-5.3-4.3-9.7-9.7-9.7H41.4c-0.7,0-1.5-0.3-2-0.7L31,2.1C29.3,0.8,27.2,0,25,0h-15C4.6,0,0.2,4.3,0.2,9.7v51.6
	c0,5.3,4.3,9.7,9.7,9.7h65.9c5.3,0,9.7-4.3,9.7-9.7V19.2z M79,61.3c0,1.8-1.4,3.2-3.2,3.2H9.9c-1.8,0-3.2-1.4-3.2-3.2V33.6H79V61.3z
	 M79,27.2H6.7V9.7c0-1.8,1.4-3.2,3.2-3.2h15c0.7,0,1.5,0.3,2,0.7l8.4,6.7c1.7,1.4,3.9,2.1,6.1,2.1h34.4c1.8,0,3.2,1.4,3.2,3.2
	L79,27.2z"/>
</svg>
