<svg xmlns="http://www.w3.org/2000/svg" viewBox="0 0 227 227">
<symbol id="fau-siegel" viewBox="0 0 227 227" >
<title>Siegel der Friedrich-Alexander-Universität Erlangen-Nürnberg</title>
  <g id="FAU-Siegel" transform="rotate(.013)">
    <g id="Kreise">
      <path d="M113.91 35.8c43.31.76 77.81 36.49 77.07 79.8-.75 43.31-36.47 77.81-79.79 77.05-43.31-.76-77.82-36.49-77.06-79.8.74-43.31 36.46-77.81 79.78-77.05zm-.03 1.33c-42.57-.74-77.69 33.16-78.42 75.74-.74 42.57 33.18 77.7 75.76 78.45 42.58.74 77.69-33.17 78.42-75.74.74-42.58-33.18-77.7-75.76-78.45z"/>
      <path d="M114.34 10.53c57.27 1 102.9 48.24 101.91 105.52-.99 57.26-48.22 102.88-105.49 101.87-57.28-1-102.9-48.25-101.91-105.52C9.84 55.13 57.08 9.52 114.34 10.53zm-.02 1.33C57.78 10.87 11.16 55.89 10.19 112.43c-.98 56.53 44.06 103.17 100.59 104.16 56.54.99 103.16-44.04 104.14-100.57.97-56.53-44.06-103.17-100.6-104.16z"/>
      <path d="M114.46 3.69c61.05 1.07 109.68 51.43 108.62 112.47-1.05 61.05-51.39 109.67-112.44 108.59C49.59 223.68.96 173.33 2.02 112.29 3.07 51.24 53.42 2.62 114.46 3.69zm-.06 3.73C55.4 6.38 6.76 53.36 5.74 112.35 4.72 171.34 51.71 220 110.71 221.03c58.99 1.04 107.63-45.94 108.65-104.93C220.38 57.11 173.39 8.45 114.4 7.42z"/>
      <path d="M113.83 40.28c40.84.71 73.38 34.4 72.67 75.24-.7 40.84-34.39 73.37-75.23 72.65-40.84-.72-73.38-34.4-72.67-75.25.71-40.83 34.39-73.36 75.23-72.64zm-.07 3.72C74.98 43.32 43 74.21 42.32 112.99c-.66 38.79 30.23 70.78 69.02 71.46 38.78.68 70.77-30.21 71.44-68.99.67-38.79-30.23-70.78-69.02-71.46z"/>
    </g>
    <g id="Beschriftung">
      <path d="M83.97 25.56l-.79.31c-.26-.3-.52-.6-.8-.89-.42-.48-.74-.82-.98-1.02-.22-.2-.45-.35-.69-.44-.44-.18-1.03-.13-1.79.15l-1.91.73 1.89 4.92.99-.41c.36-.15.6-.36.7-.62.1-.28.11-.71.03-1.33l-.16-1.11.62-.24 2.3 5.98-.63.24c-.31-.47-.98-1.66-1.55-1.94-.27-.12-.61-.12-1.02.03l-.93.32 2.22 5.78 1.74-.67c.83-.32 1.35-.71 1.59-1.15.27-.5.39-1.23.35-2.22l-.08-1.82.8-.31 1.55 4.97-9.29 3.56-.3-.77.5-.29c.41-.24.61-.48.63-.71.03-.25-.09-.75-.39-1.53l-3.08-8.03c-.2-.51-.34-.84-.42-1.01-.09-.17-.19-.29-.3-.38-.2-.16-.51-.21-.96-.11l-.57.12-.3-.78 9.16-3.51zM55.53 38.55c-.32-.44-.54-.73-.67-.86a.99.99 0 00-.38-.29c-.23-.11-.55-.07-.96.14l-.52.26-.48-.67 4.51-3.28.49.68-.42.41c-.33.33-.46.61-.43.84.04.25.29.7.78 1.38l5.06 6.96c.22.3.67 1 1.05 1.16.23.1.55.07.95-.14l.53-.27.49.68-4.52 3.27-.49-.67.41-.41c.34-.34.47-.62.43-.85-.03-.25-.28-.7-.77-1.37zM51.58 52.44l-2.82-5.33-1.2-2.32c-.46-.83-.91-1.66-1.35-2.5l2.97-2.97.59.59-.35.48c-.27.38-.36.67-.29.89.07.24.4.65.99 1.24l6.08 6.09c.26.26.82.87 1.22.97.24.07.55-.01.92-.28l.47-.35.59.59-3.92 3.93-.59-.59.34-.48c.28-.38.36-.68.29-.9-.07-.24-.39-.64-.98-1.23l-6.68-6.69 3.27 5.99 1.39 2.62c.49.92.99 1.84 1.47 2.76l-1.03 1.04c-.92-.49-1.83-.98-2.74-1.48-.73-.4-1.91-1.02-3.53-1.87l-5.22-2.71 6.68 6.49c.62.61 1.1.93 1.43.98.48.07 1.06-.35 1.38-.59l.59.59-3.16 3.16-.59-.59c.17-.22.45-.57.56-.83a1 1 0 00.04-.57c-.04-.22-.15-.45-.32-.68-.18-.24-.52-.63-1.05-1.17l-5.45-5.61c-.24-.24-.94-.95-1.36-.98-.42-.03-1.22.6-1.43.76l-.58-.59 3.23-3.23c3.4 1.74 6.78 3.53 10.14 5.37zM39.3 56.51l-.5.69c-.37-.12-.75-.22-1.14-.32-.62-.17-1.07-.28-1.38-.32-.3-.04-.57-.04-.82.01-.47.09-.94.45-1.42 1.11l-1.2 1.65 4.27 3.09.6-.88c.23-.32.31-.62.25-.9-.07-.29-.29-.66-.71-1.13l-.73-.84.39-.55 5.18 3.76-.4.55c-.51-.23-1.72-.86-2.35-.78-.29.04-.57.23-.85.58l-.59.77 5.01 3.64 1.09-1.5c.52-.72.75-1.33.71-1.83-.04-.57-.34-1.26-.91-2.06l-1.06-1.49.49-.69 4.01 3.33-5.85 8.05-.67-.49.26-.52c.22-.42.25-.73.15-.94-.12-.22-.49-.58-1.16-1.06L33 62.38c-.44-.32-.74-.53-.9-.62-.16-.09-.32-.14-.45-.16-.26-.02-.54.11-.87.43l-.41.42-.67-.5 5.76-7.93zM21.75 94.16l-.1.85c-.75.03-2.18.1-2.97.4-1.1.44-1.74 1.22-1.92 2.36-.15.93.08 1.75.69 2.47.44.5.97.9 1.59 1.2 2.24 1.09 6.11 1.82 8.47.93.59-.22 1.08-.55 1.48-.98.85-.95 1-2.23.48-3.38-.37-.8-1.04-1.6-1.61-2.23l1.1-.56c.61.69 1.25 1.51 1.56 2.41.25.73.31 1.56.16 2.49-.21 1.29-.7 2.38-1.48 3.29-1.44 1.66-3.77 2.24-6.94 1.73-2.57-.4-4.39-1.27-5.45-2.58-1.01-1.26-1.35-2.87-1.05-4.81.1-.63.23-1.12.37-1.48.15-.34.44-.85.89-1.5.06-.09.1-.18.11-.27.04-.23-.41-.53-.5-.6l.08-.51zM25.69 108.14c1.2-.32 1.95-.58 2.24-.77.37-.23.53-.67.62-1.08l.83.03-.19 5.3-.83-.03c-.03-.27-.1-.84-.25-1.11-.09-.17-.24-.25-.45-.26-.23-.01-.69.08-1.39.25l-2.2.57-.14 4.14c.26.09 2.74.99 3.4 1.01.24.02.43-.08.57-.26.2-.29.3-.8.35-1.12l.83.03-.14 4.21-.83-.03c-.09-.56-.18-.89-.64-1.25-.21-.18-.5-.35-.89-.53-.39-.18-1.02-.43-1.9-.74l-8.62-3.12c-.46-.17-.91-.31-1.37-.46l.06-1.85zm-2.78 6.71l.12-3.55-5.99 1.55zM26.49 89.46l1.09-3.37-6.19-.17zm4.52-5.68c1.24.02 2.02-.02 2.36-.12.43-.13.69-.5.89-.87l.79.26-1.64 5.04-.78-.26c.04-.27.13-.83.05-1.13-.04-.19-.16-.31-.35-.38-.22-.07-.69-.11-1.41-.14l-2.27-.06-1.28 3.94c.23.16 2.37 1.71 2.99 1.91.23.07.44.04.62-.1.28-.22.51-.68.65-.98l.79.27-1.3 4-.79-.26c.07-.56.07-.9-.26-1.37-.16-.23-.39-.48-.71-.76-.33-.27-.87-.69-1.63-1.24l-7.43-5.37c-.39-.28-.79-.56-1.19-.82l.58-1.76zM36.7 77.08c.59-1.16.75-2.16.5-3.01-.38-1.28-1.72-2.52-4.05-3.71-2.52-1.28-4.41-1.59-5.71-.97-1.18.57-1.77 1.93-2.33 3.03l11.09 5.65zm-10.95-1.67c-.31-.16-1.07-.59-1.46-.55-.25.01-.52.18-.79.55l-.34.48-.74-.38 2.71-5.33c.43-.84.86-1.49 1.3-1.94.96-.99 2.31-1.43 4.02-1.34 2.45.13 5.46 1.68 7.04 3.56.83.98 1.29 1.96 1.38 2.93.07.96-.22 2.08-.86 3.35l-2.72 5.33-.74-.38.18-.56c.15-.45.13-.75 0-.94-.14-.21-.57-.5-1.31-.88zM66.64 37.48l3.06-1.77-4.49-4.27zm7.15-1.2c.92.85 1.53 1.35 1.84 1.5.4.19.85.09 1.24-.05l.42.72-4.59 2.65-.41-.72c.21-.17.65-.54.8-.81.09-.16.09-.33-.02-.51-.12-.2-.43-.55-.95-1.05l-1.64-1.56-3.59 2.07c.06.27.62 2.85.94 3.42.12.21.3.32.53.34.35.02.84-.17 1.13-.29l.42.72-3.64 2.1-.42-.72c.43-.37.65-.62.72-1.19.04-.28.03-.62-.02-1.04-.06-.43-.19-1.1-.38-2.01l-1.93-8.96c-.1-.47-.22-.94-.33-1.41l1.6-.92zM130.98 33.02c-.55.09-1.13.14-1.69.05-.78-.12-1.34-.48-1.66-1.08-.16-.32-.28-.68-.36-1.09-.07-.41-.12-1.02-.16-1.84-.04-1.18-.09-1.92-.13-2.24-.05-.32-.13-.59-.26-.8-.24-.4-.67-.66-1.3-.77l-.88-.14-.62 3.94c-.09.54-.13.9-.14 1.1-.01.18.01.33.06.46.1.24.34.44.78.57l.56.19-.14.82-5.51-.87.13-.82.59-.01c.47 0 .76-.11.9-.3.15-.19.3-.69.42-1.51l1.35-8.5c.09-.54.13-.9.14-1.09a.932.932 0 00-.07-.46c-.09-.25-.33-.44-.77-.58l-.56-.19.13-.82 6.35 1.01c1.21.19 2.08.59 2.61 1.22.63.73.85 1.65.68 2.75-.19 1.22-.76 2.11-1.69 2.66-.48.28-1.1.44-1.89.5.31.13.55.26.74.4.24.18.44.42.61.71.17.3.29.66.36 1.1.08.42.13 1.05.16 1.88.02.86.05 1.45.08 1.77.04.3.09.55.17.73.21.51.58.48 1.04.47zm-5.28-8.71c.88.14 1.58 0 2.1-.4.61-.47.99-1.17 1.14-2.1.18-1.13-.06-1.94-.71-2.45-.57-.44-1.9-.6-2.67-.67l-.86 5.46zM145.74 25.66c.13-.32.51-1.11.45-1.5-.03-.25-.22-.5-.61-.74l-.5-.32.33-.76 5.5 2.34c.87.37 1.54.75 2.03 1.16 1.05.89 1.58 2.2 1.61 3.91.04 2.46-1.3 5.57-3.05 7.28-.93.9-1.87 1.42-2.83 1.57-.96.15-2.09-.07-3.41-.62l-5.5-2.34.32-.76.57.14c.46.11.77.07.95-.08.19-.15.45-.6.77-1.36zm-.91 11.04c1.2.51 2.22.6 3.05.29 1.25-.47 2.39-1.89 3.41-4.3 1.1-2.6 1.28-4.51.57-5.77-.38-.66-1.11-1.22-2.18-1.68l-1.01-.43-4.86 11.46zM170.75 54.75c-.52-.21-1.04-.46-1.47-.83-.61-.5-.9-1.1-.86-1.78.02-.35.1-.73.25-1.12.15-.38.42-.93.81-1.65.56-1.04.91-1.7 1.04-2 .12-.29.18-.56.19-.82 0-.46-.23-.9-.73-1.32l-.68-.57-2.56 3.05c-.35.42-.57.71-.68.87-.1.15-.16.3-.18.43-.05.25.06.55.36.89l.39.45-.54.63-4.27-3.59.53-.63.5.3c.41.24.72.3.94.21.22-.1.6-.45 1.13-1.08l5.54-6.59c.35-.42.58-.71.68-.86.1-.16.16-.31.18-.44.05-.25-.06-.55-.37-.9l-.38-.44.54-.63 4.92 4.13c.94.78 1.48 1.58 1.61 2.38.16.96-.12 1.86-.83 2.71-.8.95-1.74 1.43-2.82 1.42-.55-.01-1.18-.2-1.88-.55.2.27.34.51.42.72.12.28.17.59.17.93-.02.34-.1.71-.26 1.12-.16.4-.44.97-.83 1.7-.43.75-.71 1.27-.85 1.56-.13.28-.2.51-.23.71-.08.54.26.71.65.93zm-.04-10.19c.69.58 1.36.82 2.01.74.76-.08 1.45-.48 2.06-1.2.73-.88.94-1.7.65-2.47-.26-.68-1.32-1.5-1.94-1.95l-3.56 4.23zM200.01 75.02c-.63 1.48-2.06 2.79-4.27 3.91-2.21 1.13-4.1 1.52-5.68 1.16-1.66-.38-2.96-1.48-3.88-3.29-.93-1.83-1.07-3.52-.39-5.09.64-1.49 2.11-2.81 4.38-3.96 2.12-1.09 3.97-1.46 5.57-1.11.98.22 1.79.64 2.42 1.27.57.57 1.05 1.24 1.46 2.02.92 1.81 1.06 3.52.39 5.09zm-3.99-6.24c-1.37-.02-2.93.41-4.7 1.3-1.85.95-3.17 1.99-3.97 3.12-.74 1.05-.83 2.1-.29 3.16.53 1.04 1.43 1.58 2.72 1.6 1.37.02 2.96-.43 4.78-1.35 1.83-.94 3.12-1.96 3.89-3.07.72-1.05.81-2.09.3-3.15-.53-1.05-1.44-1.58-2.73-1.61zM199.09 109.4c-1.15.49-1.84.85-2.11 1.08-.34.29-.43.74-.46 1.15l-.83.09-.55-5.27.82-.09c.07.27.22.82.41 1.07.12.14.27.21.48.19.23-.03.68-.17 1.34-.44l2.1-.86-.44-4.13c-.27-.05-2.85-.6-3.5-.53-.25.03-.42.14-.53.35-.16.31-.18.82-.19 1.15l-.83.09-.44-4.2.82-.08c.17.54.31.85.81 1.15.23.14.55.28.95.4.41.12 1.08.27 2 .47l8.97 1.89c.46.1.94.19 1.41.26l.2 1.84zm1.82-7.02l.37 3.53 5.72-2.37zM187.43 158.26c-1.23-.22-2.01-.3-2.35-.25-.44.06-.77.39-1.02.72l-.74-.38 2.41-4.72.73.38c-.07.25-.25.8-.23 1.1.01.2.11.33.3.43.2.11.65.23 1.37.36l2.22.42 1.89-3.7c-.2-.18-2.07-2.05-2.66-2.35a.643.643 0 00-.63 0c-.3.18-.6.6-.79.86l-.74-.38 1.91-3.74.74.37c-.15.55-.21.88.05 1.4.12.25.31.54.58.85.28.33.75.82 1.42 1.48l6.49 6.47c.34.34.69.67 1.04 1l-.83 1.64zm5.35-4.9l-1.6 3.16 6.09 1.13zM181.54 179.1c.25.24.83.89 1.22.97.24.08.55-.01.92-.28l.47-.34.59.59-4.23 4.23c-.66.66-1.27 1.14-1.83 1.44-1.23.64-2.64.64-4.23.02-2.29-.88-4.68-3.28-5.6-5.55-.49-1.19-.63-2.27-.4-3.22.22-.94.84-1.91 1.85-2.92l4.23-4.22.58.58-.34.48c-.28.38-.36.68-.29.9.08.24.39.65.98 1.23zm-9.9-4.98c-.92.93-1.38 1.83-1.4 2.71-.03 1.34.85 2.93 2.7 4.78 2 2 3.71 2.88 5.14 2.69 1.3-.18 2.27-1.28 3.15-2.16l-8.8-8.8zM155.46 185.82c.34-.45.72-.89 1.18-1.21.65-.46 1.3-.58 1.95-.37.33.11.67.29 1.01.53.34.25.8.65 1.39 1.21.86.82 1.41 1.32 1.66 1.52.26.2.5.33.74.4.45.12.94.01 1.47-.35l.73-.51-2.29-3.27c-.31-.45-.54-.74-.66-.89-.12-.13-.24-.23-.37-.28-.23-.11-.55-.08-.96.12l-.52.25-.48-.68 4.57-3.2.47.69-.41.4c-.34.33-.48.61-.45.85.04.24.27.7.75 1.38l4.94 7.05c.32.45.53.74.66.88.12.14.24.23.37.29.23.11.55.08.96-.12l.52-.26.48.69-5.26 3.68c-1.01.7-1.91 1.02-2.73.94-.96-.1-1.77-.6-2.4-1.51-.71-1.02-.92-2.05-.63-3.09.14-.53.48-1.09 1.01-1.67-.31.12-.58.19-.81.22-.29.04-.6.01-.93-.08-.33-.1-.67-.28-1.02-.54-.36-.26-.83-.67-1.43-1.25-.61-.6-1.04-1.01-1.29-1.21-.23-.2-.44-.33-.62-.41-.5-.22-.75.06-1.07.38zm9.85 2.6c-.73.51-1.14 1.1-1.23 1.75-.12.76.09 1.52.64 2.29.65.95 1.39 1.35 2.21 1.27.72-.07 1.79-.88 2.39-1.36l-3.18-4.53zM126.56 200.17c-.62-1.07-1.06-1.73-1.32-1.96-.33-.3-.79-.34-1.2-.32l-.19-.81 5.17-1.19.18.81c-.25.11-.78.32-1 .53-.14.14-.19.3-.14.5.05.23.25.65.6 1.28l1.12 1.98 4.04-.94c.02-.27.24-2.9.09-3.54-.05-.24-.18-.4-.4-.48-.33-.12-.85-.08-1.17-.05l-.19-.81 4.1-.95.19.81c-.51.23-.8.4-1.04.94-.11.25-.21.57-.28.99-.06.42-.14 1.1-.22 2.04l-.78 9.13c-.05.48-.07.96-.09 1.43l-1.8.42zm7.2.95l-3.45.8 3.04 5.39zM119.25 21.51l-.84-.03c-.17-.52-.71-2.2-1.11-2.82-.21-.3-.45-.51-.74-.64s-.7-.21-1.22-.23l-1.79-.06-.18 5.27h1.07c.41.01.71-.09.9-.3.21-.22.39-.61.55-1.21l.28-1.08.67.02-.23 6.4-.67-.03-.21-1.15c-.11-.61-.27-1.02-.47-1.24-.19-.22-.49-.35-.95-.38l-.98-.07-.14 4.29c-.02.54-.03.9-.01 1.1.01.19.06.34.12.45.06.11.17.21.33.31.17.09.34.15.51.18l.73.11-.03.83-5.72-.2.02-.83.59-.07c.46-.06.73-.2.85-.41.13-.21.21-.72.23-1.55l.3-8.6c.03-.54.03-.91.01-1.11-.01-.19-.06-.33-.12-.44-.12-.23-.39-.4-.84-.48l-.57-.12.02-.83 9.61.34zM137.14 22.94c.16-.52.25-.87.27-1.06.04-.19.03-.34 0-.47-.06-.25-.28-.48-.7-.67l-.53-.25.23-.8 5.36 1.54-.23.8-.58-.07c-.47-.06-.76 0-.93.17-.17.18-.38.66-.6 1.46l-2.38 8.28c-.09.35-.37 1.14-.26 1.53.06.25.28.48.69.67l.54.25-.23.8-5.36-1.54.23-.8.58.07c.47.06.77-.02.93-.19.18-.17.37-.65.61-1.45zM165.17 37.74l-.72-.45c.09-.38.17-.77.23-1.16.13-.63.21-1.09.22-1.4.03-.3.01-.57-.06-.82-.12-.46-.52-.9-1.2-1.34l-1.73-1.08-2.8 4.47.92.54c.35.21.65.26.93.18.28-.08.64-.33 1.07-.77l.79-.8.57.36L160 40.9l-.57-.36c.19-.52.74-1.78.61-2.4-.06-.29-.26-.56-.64-.81l-.81-.54-3.28 5.25 1.58.99c.76.46 1.38.65 1.88.57.56-.08 1.22-.42 1.98-1.04l1.42-1.17.72.45-3.04 4.23-8.44-5.28.44-.7.54.22c.43.19.74.2.95.08.21-.12.53-.52.98-1.23l4.55-7.3c.29-.46.48-.77.56-.94.08-.17.12-.32.12-.46.01-.26-.14-.53-.49-.83l-.44-.39.44-.7 8.32 5.2zM181.41 49.58c.4-.37.67-.62.79-.76.13-.14.21-.27.25-.41.08-.24.01-.55-.24-.93l-.32-.49.62-.56 3.73 4.15-.61.55-.46-.37c-.37-.3-.65-.39-.88-.34-.24.06-.67.36-1.29.92l-6.4 5.76c-.27.24-.91.77-1.03 1.16-.09.25-.02.55.23.93l.32.5-.62.55-3.73-4.14.62-.56.45.37c.37.29.66.39.89.34.25-.06.67-.36 1.29-.91zM190.45 64.51l-.53-.68c.5-.54 1.47-1.61 1.81-2.38.47-1.09.37-2.09-.31-3.03-.55-.76-1.3-1.17-2.23-1.25-.67-.05-1.33.04-1.98.27-2.35.82-5.6 3.03-6.64 5.33a3.76 3.76 0 00-.35 1.75c.07 1.27.87 2.28 2.05 2.73.82.3 1.87.39 2.72.43l-.38 1.18c-.93-.05-1.96-.19-2.82-.6-.69-.34-1.32-.89-1.87-1.65-.76-1.06-1.19-2.18-1.28-3.37-.16-2.2 1.08-4.25 3.69-6.14 2.1-1.53 3.99-2.21 5.68-2.02 1.6.18 2.98 1.06 4.13 2.66.38.51.64.95.78 1.3.14.35.29.91.44 1.69.03.11.07.2.11.27.14.19.66.09.78.07l.31.42zM80.95 201.63l.78.21c-.17.84-.39 2.19-.18 3.09.23.99.78 1.61 1.65 1.9.6.19 1.14.12 1.62-.22.39-.28.67-.69.84-1.22.25-.77.2-1.47-.17-2.11-.17-.29-.35-.55-.56-.79-.21-.23-.56-.56-1.06-1.01-.87-.77-1.44-1.41-1.73-1.91-.51-.9-.55-1.98-.15-3.24.35-1.06.92-1.9 1.71-2.52.99-.78 2.26-.92 3.79-.42.79.25 1.54.7 2.27 1.33.29.27.45.39.48.4.23.07.65-.28.75-.35l.47.15-1.61 5.1-.78-.21c.09-.85.16-1.87.07-2.74-.18-1.49-.85-2.42-2.03-2.8-.69-.22-1.3-.15-1.82.22-.89.63-1.43 2.14-.86 3.15.15.26.3.47.44.63.14.16.57.58 1.28 1.28.86.84 1.46 1.63 1.77 2.37.38.91.38 1.94.02 3.06-.41 1.27-1.06 2.16-1.94 2.65-.85.47-1.8.53-2.85.19-.68-.22-1.45-.71-2.31-1.46a.75.75 0 00-.24-.16c-.2-.07-.57.23-.67.31l-.48-.16zM76.05 201.85c-.21.49-.34.83-.39 1.01-.05.19-.07.34-.05.47.03.27.22.51.61.76l.5.3-.33.77-5.13-2.18.32-.76.58.14c.45.11.75.09.93-.07.19-.15.46-.6.78-1.37l3.37-7.93c.14-.33.5-1.08.44-1.49-.02-.25-.22-.5-.61-.74l-.5-.31.33-.77 5.13 2.18-.32.77-.57-.14c-.45-.12-.77-.08-.95.07-.19.15-.45.6-.77 1.36zM61.29 191.88l.78.4c-.32.85-.7 2.03-.65 2.98.05 1.19.58 2.06 1.57 2.64 1.02.59 2.1.56 3.25-.11 1.19-.68 2.29-1.89 3.3-3.64 1.17-2.03 1.68-3.78 1.55-5.27-.09-1.03-.59-1.81-1.5-2.34-.6-.35-1.29-.46-2.07-.33-.35.05-.59.11-.73.18-.14.08-.27.21-.39.4-.14.21-.42.67-.82 1.37-.34.59-.47 1.01-.42 1.27.04.26.3.57.82.92l.81.55-.45.77-5.32-3.08.44-.77c.29.13.89.38 1.24.21.24-.12.57-.52.99-1.26l1.49-2.58c.73.4.97.47 1.81.59.81.12 1.43.25 1.87.39.44.13.9.33 1.37.6 1.64.95 2.64 2.2 3 3.76.38 1.66-.1 3.63-1.42 5.92-1.25 2.16-2.64 3.53-4.17 4.08-1.57.56-3.23.33-4.97-.68-.91-.52-1.69-1.25-2.35-2.18-.12-.17-.22-.27-.31-.32-.22-.12-.65.14-.79.21l-.44-.25zM55.08 189.85c-.34.42-.55.72-.65.88-.1.16-.16.31-.17.45-.04.25.08.54.4.88l.39.42-.51.66-4.39-3.44.51-.65.51.28c.41.24.72.28.93.19.22-.11.59-.48 1.11-1.13l5.3-6.79c.22-.28.77-.91.81-1.31.04-.26-.08-.56-.39-.88l-.4-.44.51-.65 4.39 3.43-.5.66-.51-.28c-.42-.23-.73-.28-.94-.18-.23.1-.59.46-1.1 1.11zM50.85 170.59l6.84 6.61-.58.59-.48-.33c-.39-.27-.69-.35-.91-.27-.24.08-.64.4-1.22.99l-5.98 6.19c-.38.4-.62.67-.73.81-.12.16-.19.3-.22.43-.06.25.03.55.31.92l.34.47-.57.59-4.05-3.9.58-.61.52.38c.37.28.67.35.9.28.23-.08.64-.41 1.22-1.01l7.31-7.57-1.08-1.04c-.64-.6-1.21-.88-1.72-.88-.63.01-1.4.24-2.32.72l-1.43.71-.61-.59zM43.74 161.69l5.85 7.5-.65.51-.43-.4c-.34-.32-.63-.44-.86-.4-.25.05-.69.31-1.35.82l-6.78 5.3c-.43.34-.7.57-.84.7a.92.92 0 00-.27.39c-.1.23-.05.55.17.95l.28.51-.65.51-3.47-4.43.66-.51.46.44c.33.32.62.44.86.4.24-.05.69-.32 1.34-.83l8.29-6.48-.92-1.18c-.55-.68-1.07-1.04-1.57-1.11-.63-.08-1.43.05-2.41.39l-1.51.51-.52-.67zM41.32 157.22l-7.91 8.92c-.5.56-.82.93-.94 1.11-.14.18-.24.37-.32.58-.14.43-.02.86.15 1.26l-.71.42-2.8-4.65.71-.43c.15.17.6.65.86.77.4.18.96-.39 1.19-.64l6.74-7.4-9.58 2.54c-.39.1-1.15.32-1.19.84-.02.32.2.85.3 1.11l-.7.43-2.13-3.53.72-.43c.27.34.6.67 1.06.74.36.05.98-.04 1.87-.28.53-.13 1.83-.45 3.9-.94.7-.19 1.61-.41 2.7-.67 1.73-.43 3.45-.84 5.17-1.26zM31.36 145.23l-6.01.41-2.61.15c-.94.08-1.88.16-2.82.21l-1.51-3.91.78-.31.29.51c.23.41.47.61.7.64.25.03.76-.1 1.53-.4l8.04-3.08c.34-.13 1.13-.39 1.38-.72.17-.2.22-.51.12-.95l-.12-.57.77-.31 2 5.19-.78.3-.3-.51c-.23-.41-.47-.61-.71-.63-.24-.03-.75.09-1.52.39l-8.83 3.39 6.81-.56 2.95-.2c1.04-.08 2.09-.15 3.12-.23l.53 1.38c-.82.63-1.63 1.26-2.46 1.89-.66.51-1.71 1.33-3.15 2.47l-4.59 3.66 8.65-3.46c.8-.32 1.28-.62 1.47-.91.25-.4.11-1.1.02-1.49l.78-.3 1.6 4.17-.78.3c-.12-.25-.33-.64-.53-.85-.14-.14-.3-.23-.51-.28-.21-.05-.46-.04-.74.02-.3.07-.79.23-1.49.49l-7.35 2.7c-.32.12-1.26.46-1.45.84-.19.37.06 1.35.12 1.61l-.78.3-1.64-4.27c2.98-2.41 5.98-4.75 9.02-7.08zM195.24 122.15l.32-9.5.84.03.06.57c.07.48.21.75.41.87.22.12.73.2 1.56.23l8.6.31c.54.01.91.01 1.1 0 .18-.01.34-.05.46-.12.22-.12.39-.39.47-.84l.12-.57.83.03-.2 5.62-.83-.03-.07-.64c-.05-.46-.19-.73-.4-.85-.21-.12-.73-.21-1.56-.23l-10.51-.37-.05 1.49c-.02.88.14 1.5.49 1.87.43.46 1.12.88 2.09 1.25l1.48.58-.02.84zM203.11 135.48l.15-.84c.39-.06.78-.13 1.17-.21.63-.11 1.09-.22 1.38-.32.28-.09.53-.21.73-.37.38-.28.65-.82.79-1.62l.36-2-5.19-.92-.16 1.05c-.06.4 0 .71.18.93.18.23.55.47 1.12.71l1.03.43-.11.67-6.31-1.11.12-.67c.56-.02 1.93.01 2.46-.33.24-.16.41-.45.5-.89l.2-.96-6.1-1.07-.32 1.83c-.15.87-.08 1.52.17 1.95.28.5.86.98 1.72 1.45l1.61.88-.15.84-5.06-1.24 1.73-9.8.82.14-.01.58c-.01.48.09.77.28.92.2.15.69.3 1.51.44l8.48 1.5c.53.09.89.14 1.08.15.19.02.34 0 .47-.05.24-.09.44-.33.59-.77l.19-.55.82.15-1.7 9.66zM195.68 140.77l-.51-.51-.62-.65c-.48-.48-.81-.75-1.01-.82a.524.524 0 00-.49.07c-.23.18-.54.7-.67.91l-.78-.27 1.44-4.2.78.27c-.07.54-.02 1.03.2 1.54.29.66 1.13 1.72 1.62 2.25l2.43 2.66 5.78-.89c.68-.11 1.12-.23 1.34-.36.31-.19.52-.58.67-.88l.79.27-1.73 5.02-.79-.27c.34-1.13-.19-1.33-1.12-1.19l-3.58.56 1.26 1.33c.3.31 1.49 1.64 1.98 1.8.2.07.33.06.42-.01.17-.12.34-.51.42-.67l.79.27-1.26 3.65-.79-.28c.08-.3.12-.62.06-.93-.04-.25-.16-.55-.37-.9-.34-.57-1.19-1.58-2.55-3.04l-.99-1.06-5.9.93c-.69.09-1.13.16-1.32.21-.19.05-.37.14-.55.28-.26.21-.45.49-.61.78l-.79-.27 1.86-5.39.78.27c-.02.27-.07.8.01 1.11.1.34.38.43.7.41.15-.01.6-.06 1.35-.15l3.1-.45zM179.33 169.57l5.73 4.21c.97.72 1.64 1.1 2.02 1.16.21.04.41.01.59-.1.27-.16.62-.52.82-.74l.66.5-2.74 3.65-.67-.5c.29-.46.66-1.01.37-1.55-.15-.34-.72-.89-1.72-1.67l-8.38-6.49 1.06-1.42 13.51 1.93-6.85-5.02c-.41-.29-1.37-1.02-1.94-1-.15.01-.31.06-.47.16-.28.19-.54.47-.77.7l-.66-.51 2.75-3.65.66.5c-.13.22-.38.63-.46.89a.92.92 0 000 .52c.07.21.2.42.41.63.2.22.56.53 1.07.94l6.08 4.72c.33.24 1.13.86 1.57.91.21.02.42-.03.63-.15.3-.16.66-.5.89-.73l.66.5-2.61 3.48zM158.01 197.3c.26.47.44.79.55.94.1.16.22.27.33.34.22.14.53.15.97 0l.55-.19.39.73-4.92 2.62-.39-.74.47-.35c.37-.28.54-.53.54-.77 0-.25-.19-.74-.58-1.47l-4.04-7.61c-.18-.32-.53-1.07-.88-1.28-.22-.14-.53-.15-.96 0l-.56.19-.39-.73 4.92-2.62.4.74-.47.35c-.38.28-.54.55-.54.78 0 .25.18.73.57 1.47zM139.52 196.81l2.63 6.61c.44 1.12.8 1.8 1.09 2.06.16.14.34.22.55.22.33.01.81-.11 1.09-.19l.3.78-4.26 1.63-.3-.78c.48-.22 1.09-.5 1.14-1.11.04-.37-.15-1.14-.58-2.32l-3.67-9.96 1.65-.63 10.44 8.79-3.16-7.88c-.18-.48-.61-1.6-1.1-1.88a.868.868 0 00-.49-.11c-.33.02-.7.1-1.02.18l-.3-.78 4.27-1.63.3.77c-.23.12-.65.33-.86.51-.14.12-.23.27-.27.45-.06.2-.06.45 0 .74.06.3.2.76.42 1.36l2.66 7.23c.14.38.49 1.33.85 1.6.17.13.36.2.6.21.34.02.83-.08 1.15-.15l.3.78-4.06 1.56zM113.51 207.54l.85-.06c.16.36.32.73.49 1.08.26.58.48 1 .64 1.26.16.26.34.47.54.63.37.29.95.42 1.76.37l2.04-.14-.37-5.26-1.06.11c-.4.04-.69.17-.86.39-.18.23-.32.65-.41 1.26l-.18 1.11-.66.04-.45-6.38.67-.04c.16.53.46 1.87.92 2.29.22.2.54.3.99.28l.97-.04-.43-6.18-1.86.14c-.89.06-1.5.28-1.85.63-.41.4-.75 1.07-1 2.02l-.46 1.77-.85.06-.02-5.2 9.93-.69.06.82-.57.14c-.46.11-.72.28-.82.49-.09.23-.12.74-.06 1.57l.6 8.58c.04.55.07.91.1 1.1.04.19.1.33.17.44.15.21.43.35.89.38l.58.06.06.83-9.78.68z"/>
    </g>
    <g id="Koepfe">
      <path d="M118.66 168.81l-.12.13c-.3.35-1.68.99-1.26 1.4.55.54 3.18 1.72 4.06 1.24.21-.11 2.92-2.22 2.93-2.84.01-.76-.92-.78-2.04-.67-1.06.1-1.36.03-1.71.08-.42.07-1.54.16-1.77.53-.03.05-.06.09-.09.13zm22.22-3.09c.44.19.98.27 1.48.27.31 0 .55-.1.76-.27h2.74c-.4.54-.93 1.13-1.55 1.81-.1.1-1.98.85-3.29.51-.62-.51-1.71-1.01-2.26-1.14-.47-.11-.53-.46-.48-.96.01-.07.01-.15.02-.22zm-31.95 0c-.05.13-.03.24.1.36.23.23.84.46 1.14.6.78.37 1.64-.19 2.16-.96h5.11c-.32.22-.76.43-.86.72-.19.52.52.75 1.56.72.76-.02 1.41-.77 1.84-1.44h2.99c.04.3.22.51.78.51.45-.01 1.03-.16 1.6-.31.17-.04.31-.11.43-.2h2.72c-.6.72-1.14 1.4-1.39 1.9-.61 1.22-2.94 4.18-3.47 4.72-.52.54-3.28 1.31-4.56 1.07-.62-.13-1.1-.52-1.57-.9-.71-.59-1.13-.95-2.14-.8-.59.08-1.11.34-1.71.11-.83-.32-2.19-1.08-3.02-1.16-1.08-.12-2.56-.11-3.55-.53-.96-.4-2.19-2.03-3.19-3.96-.09-.16-.16-.31-.23-.45zm-17.05 0c.31.98 1.08.85 1.95 1.25.52.24.72.12.71-.23 0-.34-.12-.67-.09-1.02h1.63c.12.72.11 1.65.1 1.89-.01.5-.13 1.36.68.92.36-.19 2.03-1.81 2.61-2.16.25-.14.21-.39.08-.65h2.43l.15.15c.22.24.55.62.49.98-.1.6-.58.95-1.16 1.2-.45.21-1.17.39-1.56.64-.75.48-.42 1.66-.44 2.37-.01.83-.72 1.76-1.21 1.84-.52.09-3.92-.68-5.23-.99-.54-.13-.68-.63-.66-1.41.01-.68-.56-.8-1.08-.84-.5-.03-.93-.07-1.38.2l-.18.11c-.22.15-.38.25-.63.14-.11-.04-.14-.11-.13-.2.05-.35.63-.97.74-1.57.07-.45-.44-1.15-.96-1.81-.15-.17-.42-.48-.67-.81z"/>
      <path d="M119.98 165.72c.2-.32.36-.62.45-.82.27-.55 1.7-.37 2.26-.48.28-.06.34.03.35.22.01.35-.11.77-.07 1.09h-2.99zm-25.53 0v-.02c.08-.65.36-.81 1.16-.86.25-.02.39.38.47.89h-1.63zm51.71-3.97c.2.56.61 1.16.65 1.66.05.74-.3 1.46-.94 2.31l-2.75.01c.19-.15.34-.35.51-.56.4-.49.86-.75.86-1.38v-.58c0-.46-.48-.61-.92-.73-.7-.19-1.16-.12-1.83-.39-.22-.09-.46-.21-.7-.34zm-7.75 0v.08c0 .82 1.47.71 1.47 1.53v1.09c0 .63.42 1.04 1 1.27h-2.57c.02-.19.05-.39.07-.59.11-.95-.02-1.56-1.18-1.59-.56-.01-1.22.11-1.74.08-.79-.04-.79-.37.63-1.87zm-6.59 0c-.31.37-.58.72-.78.98-.47.64-1.3 1.54-2.08 2.45-.16.18-.31.36-.47.54l-2.71.01c.52-.39.64-1.11.83-1.72.33-.98.77-1.4 1.6-2.02.09-.08.2-.16.3-.24zm-14.45 0c-.52.55-.9.83-1.84 1.23-.46.19-.84.33-.91.36-.3.19-.7.61-.48.98.09.15.28.34.59.65.34.34.73.31 1.12.18.39-.12.81-.35 1.26-.46.75-.18.73.12.66.65-.01.14-.15.26-.33.39h-5.11c.17-.26.31-.54.4-.82.33-1.03-.36-2.1-.5-3.16zm-12.24 0c.06.8.43 1.11.94 1.25.57.15 1.26.1 1.85.21.67.12 1.06.13 1.42.18.35.05.66.14 1.21.42.51.27.46.5.21.74-.35.31-.94.57-1.35.79-.25.13-.41.26-.48.39h-5.26c-.14-.27-.26-.49-.36-.67-.33-.56-.52-.8-1.18-.61-.26.06-.82.16-.71.55.06.2.36.51.56.73h-2.43c-.19-.37-.55-.76-.55-.99-.01-.48-.12-.8-.02-1.31.23-1.19-1.04-1.57-3.21-1.29-2.2.28-4.2 2.07-3.95 3.33.02.1.04.18.06.26h-3.81c-.26-.33-.5-.67-.57-.88-.11-.34.01-.44.33-.52.35-.08.87-.09 1.49-.23 1.29-.29 1.17-1.35 1.15-2.34v-.01zm-33.4 0c.02.06.05.12.09.17.66 1.28 6.07.79 8.48.39.51-.08.86-.28 1.12-.56h2.95c-1.13.73-2.04 1.64-2.42 2.08-.68.78-1.9 1.67-3.01 1.62-.57-.03-1.22-.02-1.78-.02s-1.02-.02-1.24-.1a.596.596 0 01-.22-.16l-.11-.12c-.46-.45-1.45-.58-1.98-.64-2.16-.27-2.5-.45-3.41-1.22-.47-.4-1.16-.96-1.8-1.44z"/>
      <path d="M153.82 157.79c-.2.02-.39.02-.58 0zm-14.81 0c.94.8 1.89 1.92 2.62 2.55.34.31.66.53.89.46.51-.14 1.03-1.83 1.11-3l2.79-.01c.39.77 1.64.49 2.27 1.19.07.09.06.15 0 .23-.08.1-.23.19-.44.31-.43.22-1.05.48-1.67.84-.61.37-.6.86-.42 1.39h-5.12c-.9-.49-1.76-1.15-1.76-1.15-.35.44-.82.62-.87 1.15h-2.32c.17-.18.36-.37.57-.58 1.94-1.99.69-2.46-.64-2.62-1.09-.12-2.98 1.78-4.2 3.2h-3.31c.33-.25.65-.52.86-.86.56-.88-.67-1.6-.65-2.33 0-.27.18-.51.42-.76zm-12.86 0c-.01.85-.06 1.46-1.04 1.96-.56.29-1.03.44-1.45.58-.42.14-.81.28-1.2.56-.38.27-.87.52-1.26.66-.08.03-.48.17-.58.12.01-.03.01-.09.01-.14v-.17c0-.51.15-.87.68-1.09.9-.36 2.28-.98 3.01-1.74.23-.24.47-.5.73-.74zm-3.75 0c-.49.42-.94.78-1.26 1-.22.16-.45.29-.67.41-.42.21-1.32.54-1.62.87-.19.2-.55.63-.94 1.07-.2.24-.37.44-.54.61h-5.14c-.01-.05-.01-.11-.02-.16-.08-1.17 3.02-2.02 3.39-2.94.09-.25.02-.41-.18-.5-.36-.16-1.32-.07-1.74-.07-.59-.01-.88-.09-1.29-.28zm-36.9 0c-.25.21-.47.43-.66.75-.37.64.22.61.63.47.5-.16 1.17-.55 1.51-.94.31-.35.94-.31 1.85-.16 1.08.16 2.14.36 3.24.33.7-.02 1.06-.19 1.2-.44l6.24-.01c.55.79.68 1.25.77 2.07.05.48.28.58.59.44.34-.15.67-.46.96-.7.4-.32.08-1.05-.14-1.81h2.63c.07.43.26.79.8.82.4.02.82-.08 1.23-.13.44-.04.72-.14 1.08-.17.35-.04.8-.02 1.57.15 1.55.37 1.93.69 1.92 1.31-.01.12-.11.21-.35.25-.84.14-2.97-.34-3.79-.5-.93-.18-1.4-.09-1.6.32-.2.42-.08 1.37-.06 1.82 0 .04.01.07.01.09H90.47c-.02-1.07-1.07-1.16-3.28-1.04-.99.06-1.97.5-2.82 1.04h-2.95c.66-.73.57-2 .56-2.99-.01-.42 0-.72.1-.87.03-.03.04-.06.06-.09zm-19.06 0c-.03.19.07.44.33.74 1.01 1.16 2.52.06 3.14.28.3.11.62.56.94 1.17.29.55.59 1.2.88 1.77H68.4c-.62-.46-1.2-.85-1.5-.92-.3-.07-.49-.06-.73-.11s-.54-.16-1.1-.46c-.54-.3-1.05-1.23-1.65-2.38a.405.405 0 01-.05-.09z"/>
      <path d="M125.05 157.79c.16-.15.33-.31.51-.44.25-.19.61-.43.6.09 0 .12 0 .24-.01.35zm-23.36 0c-.17-.6-.29-1.22.05-1.67.4-.52.71-.33 1.09-.01l.25.23c.18.16.38.33.6.48.22.14.36.22.45.29.09.07.13.11.14.22l.01.14c.01.11.02.22.04.33zm-19.55 0c.34-.63-.33-1.08-.14-1.45.25-.47 3.04-.36 3.5-.35.38 0 .64.01.8.02.25.02.25.02.19.24-.19.67.1.72-.63 1.26-.12.1-.24.19-.36.28zm71.22-2.48c.18.19.43.29.69.29.4 0 .79-.1 1.12-.29h2.69c-.26.88-1.07 1.85-3.47 2.39-.2.04-.39.07-.57.09h-.58c-1.44-.14-2.03-1.35-2.27-2.47zm-7.3 0c-.24.66.05 1.68.31 2.37.02.04.03.08.05.11h-2.79c.04-.57-.03-1.02-.26-1.09-.31-.11-.48-.05-.78-.04-.28.01-.68-.03-1.43-.31-1.23-.46-1.81-.47-2.66-1.04zm-10.63 0c.6.8 1.16 1.31 2.21 1.63.43.13.9.45 1.37.86l-9.87-.01c.43-.43 1.04-.86 1.25-1.3.26-.53.12-.8-.29-1.12l-.06-.06zm-23.46 0c.03.31-.01.53.01.69.03.22.14.34.44.4.33.06 1.12.27.87-.4-.07-.21-.13-.45-.15-.69h.9c0 .19.01.36.03.5.03.25.1.48.28.53.29.07.68.2 1.05.25.53.07.91-.03 1.1-.55.07-.22-.01-.28.26-.27.19 0 .23.09.39.21-.13-.29-.16-.33-.17-.65v-.02h1.12c.16.31.35.47.63.44.12-.01.22.01.31.02l.13.03c.33.04.34-.21.34-.48v-.01h.69c.06.26.14.43.22.47.26.11.75.62.94.12.05-.17.05-.37.02-.59h1.03c.15.06.28.15.43.19.19.07.25-.04.28-.19h1.6l-.06.15c-.26.51-1.31 1.52-2.26 2.33h-10.01c-.11-.05-.24-.12-.39-.19-1.21-.62-2.22-1.13-3.6-1.38-.99-.17-1.97-.51-2.93-.91zm-14.28 0c.19.48.45.92.81 1.32.31.34.64.64.9 1.01.04.05.08.1.11.15h-6.24c.23-.4-.1-1.01-.51-1.55-.19-.25-.37-.46-.45-.57a1.5 1.5 0 00-.37-.33c-.01-.01-.03-.01-.04-.03zm-20.87 0c-.65.2-1.29.32-1.75.36-.89.1-1.33.2-1.81.35-.47.14-.98.33-1.98.59-1.93.5-3.79.7-3.9.72-.03 0-.1 0-.22.01-.42.05-.68.21-.72.46l-3.07-.01c-.44-.83-.88-1.68-1.4-2.48z"/>
      <path d="M113.14 155.31c-.04-.31-.03-.61.05-.81.08-.19.43-1.31.59-1.4.33.38.26 1.45.26 2.22h-.9zm48.64-2.48c-.23.03-.46.03-.67.01-.03 0-.06 0-.09-.01zm-3.86 0c-.01.02-.02.06-.02.08-.04.51.1 1.02.09 1.52-.01.27-.03.57-.13.89h-2.69c.55-.32.95-.87.95-1.55 0-.38-.14-.64-.22-.94zm-19.89 0c.54.39 1 .71 1.25.84.2.09.32.17.4.23l.1.08c.28.23.83.19 1.13.19.66.01 1.45.05 2.23-.06.77-.11 1.54-.37 2.15-.96.11-.1.22-.21.35-.32h6.87c.55.2 1.22.25 1.22.82 0 .47-.64.56-.64 1.02 0 .25.1.48.27.65h-2.39a7.3 7.3 0 01-.12-1.44c.02-1.29-.51-1.11-1.25-.68-.58.34-1.26.64-1.86.93-.61.28-1.15.54-1.44.81-.11.1-.19.23-.24.37h-7.56c-.23-.15-.48-.34-.77-.59-.8-.71-1.7-1.29-2.58-1.89zm-5.51 0c.15.11.3.22.44.32.39.28.79.56 1.13.82.6.44.79.61 1.23 1.19.04.06.07.11.11.16l-5.39-.01c-.48-.37-.65-.42-.81-1.15-.1-.43-.18-.84-.38-1.23l-.07-.1zm-5.29 0c-.3.12-.64.25-1.03.36-.73.18-1.02.55-1.18.99-.13.36-.16.77-.3 1.13h-1.61c.02-.13-.01-.29-.02-.38l-.03-.19c-.01-.25.42-.59.62-.73.51-.38.87-.67.94-1.18zm-5.44 0c0 .96.06 2.31.48 2.43.05.02.1.04.14.06h-1.03c-.01-.08-.03-.16-.04-.24-.06-.31-.15-.66-.19-1.04-.02-.19-.09-.71-.13-1.21zm-1.9 0c.05.8.16 1.87.31 2.48h-.69c0-.47-.54-1.77-.61-2.47zm-2.48 0c.01.06.03.13.05.2l.18.79c.16.65.29 1.16.46 1.49h-1.12c-.03-.38-.14-1.04-.18-1.63-.03-.34-.04-.64 0-.85zm-10.59 0c.1.39.26.76.45 1.01.2.25.46.38.67.08.19-.27.13-.76.09-1.06v-.03h.86c.02.26.06.54.1.79.08.51.18.98.18.98.39.16 1.31.39 1.24-.37-.04-.4-.21-.92-.29-1.34-.01-.01-.01-.04-.01-.06h1.67c.01.25.03.49.13.73.35.83-.03.96.05 1.67 0 .02.01.05.01.09h-6.5c-.98-.41-1.93-.89-2.85-1.32-.42-.2-.9-.64-1.38-1.17zm-9.69 0c.12.85.25 1.71.56 2.48H91.9c-.53-.33-1.12-.54-1.56-1.01-.23-.23-.45-.33-.76-.37l-.25-.03c-.32-.03-.67-.09-1.09-.52-.18-.19-.14-.23.06-.27.23-.04.65-.03 1.16 0 .93.05 2.33.15 3.2-.18.09-.03.17-.07.24-.1zm-34.61 0c.08.17.16.32.21.51.17.64.98.99 2.34.78.34-.06.61-.09.82-.14.73-.14.75-.43.71-1.15h2.63c.53 1.9.98 2.46 1.64 1.92.28-.23.74-.44.94-.73.17-.25.2-.59.05-1.19h1.44c.01 0 .01.01.02.01.69.27 1.24.48 1.41-.01h8.55c-.61.06-1.27.09-1.94.08-1.11-.02-1.61.14-1.89.4-.21.18-.31.44-.45.67-.39.63-1.29 1.06-2.18 1.34H61.97c-.21-.32-.44-.62-.68-.91-.33-.4-.69-.96-1-1.58z"/>
      <path d="M121.02 152.83c-.04-.43-.06-.85-.01-1.03.23-.05.8-.23.8.19-.01.15-.02.47-.02.84zm-2.12 0c-.02-.2-.01-.36.08-.43.22-.19.42-.4.65-.57.19-.14.23-.12.22.06 0 .15.01.5.04.94zm-2.1 0c.02-.18.07-.31.16-.35.21-.1.29-.08.36.1.03.06.06.15.09.25zm-6.69 0c-.05-.22-.11-.62.18-.66.31-.04.46-.04.55-.04.39-.03.87-.54.92.1.02.2.02.4.02.6zm-2.08 0l-.03-.24c0-.09-.02-.38.1-.41.2-.04.4-.14.61-.17.15-.02.23 0 .19.23-.03.14-.02.36-.01.59zm55.93-2.97c.08.71.03 1.42-.52 2.01-.57.61-1.13.88-1.66.96h-.76c-.71-.09-1.38-.4-2.09-.53-.69-.13-.95.12-1.01.53h-2.02c-.04-.15-.07-.3-.07-.49 0-.28.23-.39.23-.67 0-.54-.48-.95-1.02-.95-1.24 0-3.02.59-3.02.59-.26.21-.52.31-.67.62.41.35.59.69 1.09.88.03.01.05.01.07.02h-6.87c1.21-1.08 3.03-2.26 4.43-2.96.01-.01.02-.01.02-.01zm-26.44 0c.12.1.21.19.26.25.1.1.44.43.36.6-.04.1-.04.23-.03.34l.01.15c0 .05 0 .08-.01.09-.18 0-.69-.51-.76-.57-.32-.31-.6-.6-.85-.86zm-3.1 0c.03.12.15.27.35.44.48.39 2.05 1.65 3.26 2.53h-2.88c-.3-.2-.59-.4-.88-.61-.3-.21-.54-.4-.68-.55-.29-.3-.58-.66-.83-.94-.12-.13-.45-.5-.74-.39-.04.04-.05-.03-.13.02-.17.16-.33.28-.53.4l-.15.08c-.36.23-.27.48-.05.82.21.28.75.72 1.36 1.17h-3.74c-.23-.36-.55-.37-.94-.24-.18.06-.39.15-.61.24h-2.61c.02-.18.01-.39-.05-.63l-.04-.15c-.01-.04-.02-.07-.02-.09.01-.11.51-.2.55-.21.76-.17 3.13-.4 3.4-1.25.05-.18.16-.44.15-.65h5.81zm-31.48 0c.2.17.27.4.39.66.17.38.31.38.74.39.26 0 .7-.43 1.23-1.05h2.54c-.26.36-.57.71-.82 1-.38.44-.39 1.26-.2 1.97h-5.58c-.89-.98-1.79-2.27-2.38-2.97h-.01zm-27.39 0c.35 1.09.68 1.92.89 1.97.17.04.34.09.5.14.41.13 1.03.3.88-.46-.09-.45-.24-1.01-.44-1.65h1.27c.04.07.08.13.11.15.48.42.76 1.39 1.55 1.32.28-.02 2.86-.14 2.19-1.01-.11-.14-.23-.3-.35-.47h3.45c.34.2.67.33.9.33.08 0 .18-.01.3-.04l.42-.08c1.59-.34 3.01-.31 4.54.42 2.37 1.15 3.15 1.21 3.22.7.05-.36-.32-.97-.37-1.33h1.81c.09.28.17.52.26.71.1.25.18.58.25.96.08.42.14.87.2 1.31h-4.24c.64-.32.19-.61-.51-.8-.79-.2-2.04-.35-3.07-.48-1.27-.16-1.96-.19-2.4-.1-.44.08-.61.29-.85.57-.29.37-1.39.67-2.78.81h-8.55c.06-.21.07-.52-.01-1-.06-.4-.26-1.11-.51-1.98zm-3.45 0c.39 1.45.84 2.79 1.2 2.97h-1.44c-.04-.14-.09-.3-.14-.48-.32-.93-.62-1.77-.87-2.49zm-3.62 0c.18.89.42 1.67.59 2.35.05.22.11.43.16.62H66.6v-.05c-.03-.59-.29-.84-.52-1.02l-.15-.12a.426.426 0 01-.12-.11c-.14-.16-.09-.41.04-.56l.07-.1c.03-.03.05-.07.06-.12.04-.15 0-.39-.21-.9h2.71zm-6.83 0c.07.38.18.82.28 1.3.2.92.42 1.33.59 1.67h-2.23c-.48-.95-.84-2.05-.8-2.97z"/>
      <path d="M164.1 147.39c-.21.12-.32.24-.36.36-.08.19-.01.41.03.59.01.07.02.14.01.22 0 .21.06.44.09.65.04.21.07.42.1.64H150.1c1.54-.76 3.97-1.39 5.23-1.63 1.28-.25 3.1-.21 4.33-.43.61-.11 1.14-.07 1.61-.12.35-.02.67-.09.96-.28zm-17.13 0c.07.09.13.16.17.22.02.02.09.13.08.17-.15.05-.58-.2-.9-.39zm-18.13 0c.28.31.61.49.99.4.19-.05.4-.19.6-.4h1.38c-.02.02-.03.06-.04.09-.53 1.2.32 1.39 1.04 1.31.19-.02.61-.25 1.17-.58.47-.26.95-.55 1.44-.83l6.1.01c.02.07.08.14.18.22l.45.32c.16.11.32.24.45.36.05.04.42.35.22.43-.44.19-1.21.49-1.64-.08a7.26 7.26 0 00-.89-.95c-.11-.09-.62-.51-.71-.17-.1.36-.38.64.03.97.19.14.43.36.57.56.62.88-1.59.27-2.04-.29-.1-.13-.86-1.23-1.08-.67-.09.24-.76.06-.71.42.04.27.75.94 1.17 1.35h-1.02c-.23-.24-.44-.45-.61-.61-.36-.32-.67-.51-.91-.22-.05.06-.1.11-.15.16l-.14.14c-.21.2-.31.35-.27.53h-5.81c0-.07-.01-.12-.03-.18-.13-.24-.71-.59-.92-.73-.7-.46-1-1-1.13-1.56zm-4.32 0c.02.16-.05.26-.23.28-.42.06-.73.15-.82-.28zm-14.99 0c-.54.47-1.09 1.08-1.21 1.54-.08.3-.26.62-.48.93h-2.54c.2-.24.42-.51.64-.79.46-.56.91-1.13 1.37-1.68zm-8.45 0c.15.14.3.18.55 0h2.13c-.01 0-.01 0-.02.01l-.48.57c-.15.2-.25.32-.34.55l-.2.45c-.19.43-.19.59-.03.71.03.02.06.04.1.07.06.03.11.07.15.1h-4.09c-.47-.56-.97-1.56-1.29-2.47zm-5.1 0c.05.92.24 1.8.44 2.47h-1.81a.279.279 0 01.01-.16c.09-.24.01-1.19-.14-2.31zm-12.56 0c.28.4.6.87.79 1.21.26.46.84.94 1.39 1.26h-3.45c-.52-.73-1.12-1.65-1.65-2.47zm-5.72 0c.39 1.12.74 2.08.95 2.47h-1.27c-.23-.76-.51-1.62-.81-2.48zm-2.86 0c.23.83.47 1.71.72 2.47h-1.35c-.23-.76-.49-1.62-.75-2.47zm-3.31 0c.15.72.34 1.62.57 2.47h-1.25c-.12-.35-.22-.67-.31-.96-.22-.72-.32-1.23-.27-1.51zm-5.53 0c.16.15.32.16.47 0h1.83c-.05.81.02 1.56.14 2.26.01.06.03.14.04.21h-2.71c-.06-.17-.15-.36-.25-.58-.97-2.11-1.7-2.07-2.18-1.17-.21.4-.41.71-.57.85-.14.11-.23.11-.29-.13-.15-.56-.52-.84-.84-.44-.18.23-.12.75.01 1.47h-2.16c0-.04 0-.08.01-.12.06-.8-.09-1.11-.32-1.32-.26-.23-.48-.28-.65-.64a.972.972 0 01-.09-.39z"/>
      <path d="M101.63 147.39c.06-.05.12-.11.19-.18.26-.27.45-.59.7-.88.22-.26 2.66-2.31 2.1-.48-.14.44-.44 1-.86 1.53zm-31.36 0c.02-.09.04-.16.09-.21.18-.21.44-.58.66-.73.16-.11.32-.14.41.39.03.17.06.35.1.55zm98.1-2.49c-.05.94-1.57 1.5-3.23 2.05-.49.16-.82.3-1.04.44h-1.87c.12-.08.22-.17.33-.28.18-.2 1.43-1.5 1.52-2.2zm-8.43 0c.03.18.02.35-.22.23-.13-.06-.28-.14-.44-.22zm-2.4 0c.01 0 .01.01.01.01l.06.12c.08.12.16.24.02.36-.3.25-.78.25-1.18-.12-.12-.11-.34-.25-.58-.37zm-2.74 0c.04.14.14.3.19.38l.13.21c.26.45.2.7-.41.84-.19.04-.29-.07-.38-.21l-.11-.17c-.15-.26-.36-.56-.82-.61-1.56-.17-2.31.39-2.43.91-.09.43.05 1.21-.68 1.06-.76-.14-.99-.67-1.88-.69-.45 0-1-.13-1.38-.18-.14-.02-.58-.08-.57.18.02.15.3.51.51.77h-.65c-.17-.11-.31-.21-.34-.23-.44-.29-.83-.6-.83-.6-.59-.11-1.95-.32-2.48-.09-.23.11-1.26.5-1.15.92h-6.1c1.75-1.01 3.63-2.01 5.52-2.49zm-21.92 0c-.44 1-.84 1.95-1.07 2.49h-1.38c.49-.53.98-1.49 1.36-2.49zm-5.1 0c.1.49.45 1.8 1.06 2.49h-2.31c-.07-.31-.1-.63-.1-.94-.01-.22.01-.38.03-.5l.04-.15c.07-.37-.17-.49-.46-.68-.11-.07-.2-.14-.29-.22zm-4.3 0c.3.69.54 1.22.65 1.44.19.39.34.72.38.96.01.03.02.06.02.08l-1.06.01a.875.875 0 01-.03-.24c-.02-.41-.22-.57-.48-.78l-.21-.16c-.31-.26-.55-.55-.76-.9-.08-.14-.17-.27-.26-.4zm-11.92 0c-.27.25-.46.47-.51.6-.17.45-.02.93-.54 1.18-.23.11-.6.38-.98.7l-2.22.01c.5-.6 1.01-1.19 1.56-1.74.24-.23.45-.48.66-.75zm-9.97 0c-.4.25-.92.59-.98 1.01-.06.43-.01.68.2 1.04.09.17.18.33.27.43l-3.52.01c-.18-.53-.32-1.03-.35-1.39-.04-.48-.21-.9-.42-1.1zm-5.28 0c-.1.11-.16.28-.21.52-.12.66-.15 1.33-.12 1.96l-1.5.01c-.1-.81-.24-1.7-.38-2.48zm-14.29 0l.79 1.63.61.85-2.92.01c-.44-.71-.82-1.35-1.04-1.74-.03-.06-.14-.32-.31-.74zm-5.12 0c.25.82.53 1.69.8 2.48l-1.13.01c-.14-.41-.28-.82-.42-1.22-.15-.44-.3-.86-.43-1.26zm-2.7 0c.15.61.38 1.52.64 2.49h-1.38c-.05-.16-.09-.3-.14-.46-.21-.72-.42-1.42-.58-2.02zm-5.13 0c-.22.47-.44.95-.64 1.41-.07.37-.11.73-.13 1.07l-1.83.01c.04-.06.08-.13.13-.22.2-.43.22-.98.19-1.56-.01-.23-.04-.47-.06-.7zm-4.62 0c.07.14.15.28.24.42.26.43.48.8.66 1.12.19.32.34.58.48.76.05.07.11.14.17.19h-7.57c-.06-.79.41-1.91.8-2.4.03-.03.05-.06.07-.08z"/>
      <path d="M128.36 143.14c-.1-.37.02-.57.22-.82.13-.15.32-.16.53-.13.21.02.47.07.76.08.31 0 .45.06.59.16l.1.09.1.09c.27.25.69.43.46.89-.11.22-.35.44-.6.65-.52.46-1.13.35-1.73.23-.67-.11-.33-.86-.43-1.24zm-55.62 1.76c-.29-1.09-.45-1.9-.35-2.08.37-.63.98-.64 1.23-.05.07.16.23.79.46 1.66.02.12.07.28.12.48zm94.56-2.97c.24.79.54 1.57.95 2.45.09.19.13.36.12.53l-4.29-.01c.03-.27-.11-.45-.54-.47-.63-.01-1.17-.17-1.65-.36-.48-.2-.88-.41-1.21-.51-.31-.1-1.28-.47-1.02.3.1.32.22.64.27.98.01.02.01.04.01.06h-.65c-.44-.23-.95-.51-1.34-.56-.41-.07-.57.23-.41.56h-1.67c-.3-.16-.65-.28-.87-.26-.2.01-.23.13-.2.26h-13.86c.23-.06.45-.11.68-.15 3.71-.69 8.08-.28 12.42-1.19 1.47-.31 2.91-.93 4.17-1.63zm-32.93 0c-.4.65-.89 1.67-1.35 2.66-.04.11-.09.21-.14.32l-1.09-.01c.44-1.13.75-2.31.78-2.97zm-8.66 0c.33.53.73 1.01 1.06 1.28.66.54.89 1.07 1.01 1.68v.02l-2.03-.01c-.56-.47-.93-1.16-1.2-2.2-.05-.23-.13-.49-.22-.77zm-3.47 0c.42 1.05.87 2.13 1.24 2.98l-1.75-.01c-.3-.45-.63-.87-.94-1.32-.43-.62-.72-1.15-.9-1.65zm-5.38 0c.06.19.11.38.08.42-.08.01-.24 0-.46-.02-.55-.05-1.75-.17-2.13.22-.11.11-.36.32-.68.57-.39.32-1.46 1.16-2.11 1.78h-2.03c.38-.46.72-.96 1.07-1.44.34-.45.73-.96 1.22-1.53zm-17.17 0a2.4 2.4 0 00-.26.74c-.11.53.63.68.98.92.48.34 1.46-.37 2.05-1.12.44-.57.71.18.8.53-.02.05-.09.23-.21.46-.33.61-.69.93-1.24 1.3-.07.04-.14.09-.22.14h-4.8c-.02-.02-.03-.03-.05-.04-.16-.13-.32-.11-.43.04H94.1c-.21-1.12-.41-2.03-.52-2.18-.09-.11-.32-.4-.63-.78zm-19.14 0c.25.5.42.82.42.82l1.05 2.15h-2.87c-.29-.67-.72-1.75-1.21-2.97zm-4.54 0c.08.31.44 1.55.89 2.97h-1.18c-.47-1.4-.81-2.52-.75-2.87 0-.04.01-.06.02-.1zm-5.63 0c-.18.55-.44 1.15-.74 1.78-.18.39-.38.79-.57 1.2l-2.34-.01c-.03-.37-.07-.75-.09-1.12-.01-.3-.04-.55-.07-.76l-.04-.29c-.04-.34.03-.58.19-.8zm-6.56 0c.01.46.02.85.06 1.2.08.6.22 1.13.57 1.77H59.3c.45-.63.76-1.86.81-2.83 0-.05 0-.09.01-.14z"/>
      <path d="M74.99 141.93c.19-.71.96-.45 1.01-.05 0 .01.01.02.01.05zm91.4-3.96c.05.21.11.47.16.78.24 1.21.45 2.2.75 3.18h-9.09c2.44-1.35 4.19-3.01 4.04-3.35-.19-.47-2.86.2-3.49-.62zm-35.41 0c.15.15.32.27.52.35.34.15.63-.06.82-.35h1.83v.03c.01.32.02.57.18.76.27.33.64-.69.68-.77v-.02h3.17c-.85.94-1.89 1.87-2.56 2.52-.46.44-.84.84-1.06 1.15-.06.09-.12.18-.19.29h-1.8c.01-.06.01-.13 0-.19-.03-.67-.92-.73-1.27-.92-.16-.09-.33-.16-.46-.24-.42-.23-.27-.54-.33-.92-.04-.22-.17-.48-.59-.89-.27-.25-.46-.52-.62-.8zm-2.66 0c.53.45.36 1.18.25 1.77-.13.75-1.45.38-1.93.27-.59-.14-.57-.85-.52-1.32.01-.17.04-.33.05-.45.01-.11.03-.2.06-.27zm-3.76 0c.25.73.51 1.48.54 2.27.02.53.28 1.14.61 1.69h-1.38c-.16-.47-.35-.99-.52-1.49-.29-.8-.53-1.52-.55-1.88 0-.17-.03-.38-.06-.59zm-3.63 0c.09.4.2.86.37 1.37.21.71.56 1.64.94 2.59h-2.35c-.38-1.02-.35-1.94-.39-3.4 0-.19-.02-.39-.02-.56zm-3.22 0c-.17.18-.28.31-.28.31s-.24.38-.5.81c-.25.43-.52.93-.58 1.15-.06.27.26 1.01.36 1.26.01.04.09.24.15.43h-5.04c.49-.58 1.07-1.22 1.79-1.94.64-.64 1.3-1.32 1.96-2.02zm-24.71 0c.48.48.5 1.4.68 2.03.32 1.09 1.92 0 3.18-1.46.16-.19.3-.38.41-.57h1.19c-.22.54-.41.96-.41.96.16.29.64 1.19.88 1.33.37.23.76-.6.86-.82.09-.17.32-.75.59-1.47h4.91c-.32.19-.73.29-1.39.55-.27.09-.43.19-.56.38-.1.17-.24.3-.44.46-.21.17-.47.37-.79.7-.15.15-.37.29-.63.43-.72.4-1.41.76-1.79 1.44h-6.74c-.67-.82-1.69-2.04-2.37-2.65-.38-.33-1-.8-1.6-1.31zm-14.28 0c.15.35.3.7.44 1.04.43.97 1 2.15 1.39 2.92h-2.61l-.88-2.2c-.24-.6-.47-1.2-.7-1.77zm-7.25 0c-.3.93-.59 2.03-.94 3.45-.04.17-.09.34-.15.51h-3.66c.1-.13.23-.25.39-.39.14-.13.37-.34.57-.4l.1-.02c.14-.05.27-.17.72-.78.41-.55.93-.95 1.47-1.36.09-.08.57-.39.36-.57-.29-.25-1.42-.04-1.79 0-.53.06-.95.03-1.11-.26-.03-.07-.06-.12-.09-.18zm-6.98 0c-.07.09-.16.17-.25.23-.1.08-.23.14-.31.23-.16.2-.2.59-.15 1.86.03.65.04 1.18.04 1.64h-3.7c.03-.44.13-.85.29-1.37.18-.59.45-1.32.82-2.4.02-.07.04-.13.06-.19z"/>
      <path d="M129.3 137.97c-.33-.61-.43-1.27-.39-1.9.04-.59.3-.62.76-.57l.2.02c.27.03.44-.08.51.3.03.23.01.55.05.91.05.49.25.93.55 1.24zm-3.06 0c.12-.29.37-.32.68-.48.45-.21.82.03 1.35.44.02.01.04.02.06.04zm37.91-3.97c.32.44.58.85.77 1.17.53.92.83 1.27 1.06 1.67.16.28.27.58.41 1.13h-7.63c-.02-.02-.03-.05-.05-.08-.31-.53 2.11-1.46 1.87-2.25-.12-.42-.4-.4-.65-.33l-.18.04c-.15.03-.31.06-.43-.08-.24-.3.31-.76.49-1.27zm-24.28 0c-.01.65-.11 1.31-.34 2-.2.59-.72 1.28-1.34 1.97h-3.18c.22-.53.45-1.19.63-1.56.18-.36.31-.42.48-.47.35-.08.55-.11.87-.31.47-.28.75-.95.91-1.63zm-6.03 0c0 .03 0 .07.01.09.16 1.23.05 1.49.22 2.61.08.54.08.95.08 1.27h-1.83c.17-.27.27-.63.23-.86-.08-.49-.02-1.49.08-2.34.03-.26.04-.52.02-.77zm-6.34 0c-.01.06-.01.11-.02.16-.08.74-.62 1.03-1.47 1.37-.49.19-.75-.24-.88-.71-.04-.14-.1-.47-.13-.82zm-3.64 0c.01.72.1 1.46.15 1.9.08.71.32 1.39.55 2.07h-1.36a33 33 0 00-.39-2.12c-.1-.47-1.8-1.12-1.97-.4-.12.5-.17 1.26.09 2.52h-1.45c-.02-.27-.04-.5-.08-.68-.04-.21-.16-.53-.44-.37-.36.21-.75.55-1.04.83-.07.08-.14.15-.21.22h-2.14c1.3-1.38 2.59-2.8 3.71-3.97zm-20.26 0c-.14.38-.35.82-.37.98-.09.63.64.43 1.04.61.07.03.13.07.2.09.57.16 1.07-1.3 1.18-1.61l.02-.07h2.26c-.1.09-.2.19-.29.29-.63.63-.96 1.41-1.32 2.2-.4.89-.65 1.25-1.03 1.48h-4.91c.47-1.31 1.07-3.09 1.24-3.97zm-3.77 0c-.21.63-.37 1.17-.44 1.45-.11.45-.44 1.31-.74 2.06-.07.16-.13.31-.19.45l-1.19.01c.73-1.23.63-2.58.77-3.97zm-11.19 0c0 .02 0 .04.01.05.11.37.25.55.73.96.32.19.58.45.82.72.59.66 1.17 1.78 2.12 1.91.3.04.52.16.68.33h-4.02c-.73-.61-1.41-1.28-1.6-1.84-.05-.15-.17-.33-.34-.55-.16-.22-.37-.5-.59-.86-.15-.24-.28-.47-.4-.72zm-11.43 0c.03.06.04.11.06.16.38 1.11.91 2.49 1.45 3.8l-2.36.01c-.85-2.14-1.54-3.88-1.55-3.89l-.08-.08zm-7.91 0c-.01.04-.02.08-.02.11-.05.62 1.69.9 1.9.54.11-.16.06-.43-.01-.65h2.18c-.15.2-.31.46-.49.78-.6 1.06-1.01 2-1.39 3.19h-4.13c-.12-.23-.21-.43-.2-.71.01-.33.15-.78.49-1.61.2-.49.37-1.08.55-1.65zm-3.49 0c-.2.78-.39 1.55-.58 2.2-.15.52-.34 1.29-.74 1.77h-3.2c.4-1.08 1.09-2.43 1.77-3.65.06-.11.12-.21.18-.32z"/>
      <path d="M125 134c-.04-.37-.05-.76.02-.92.03-.08.09-.11.14-.13.16-.04.21-.11.25-.19.25-.47.72-.42 1.48-.34.8.09.69.98.61 1.58zm-23.38 0c.02-.07.03-.14.04-.2.17-1.1 1.28-1.33 2.03-1.27.35.03.07.73.04 1.03-.01.1-.06.27-.13.44zm-33.44 0c.11-.4.22-.79.34-1.13.15-.41.29-.75.45-.94.16-.18.31-.23.5-.09.7.49-.04 1.54-.17 2.16zm92.96-3.96c.45.59.9 1.16 1.06 1.37.68.87 1.39 1.8 1.95 2.59h-4.34c.04-.11.07-.22.06-.34-.03-.53-.33-.53-.71-.39-.51.19-.53.2-.89.58-.12.13-.16.14-.23-.01-.21-.38.56-1.2-.04-1.67-.33-.25-.51-.08-.72.14l-.18.18c-.25.24-.53.39-.87.49-.38.1-.77.2-1.07-.11l-.11-.13c-.1-.09-.19-.2-.34-.3-.26-.18-.32-.39-.44-.67s-.3-.61-.8-.98c-.41-.3-.54-.52-.58-.75zm-21.83 0c.14.46.2.95.29 1.42.16.89.28 1.71.27 2.54h-1.97c.12-.54.17-1.09.17-1.42.01-.84-.72-.31-1.08-.41-.14-.04-.15-.06-.11-.23.05-.19.15-.51.18-1.06.03-.51.2-.69.45-.84.01 0 .01 0 .02-.01zm-5.64 0c-.04 1.6.02 2.89.17 3.96h-1.19c-.05-.6-.25-1.2-.57-1.74-.19-.35-.16-1.31-.1-2.22zm-7.2 0c-.16.2-.36.42-.53.61-.24.23-.42.4-.42.4s-.26.17-.58.43c-.31.26-.67.61-.86.95-.19.35-.24.94-.22 1.57h-4.58c.56-.58 1.07-1.1 1.51-1.52.73-.7 1.65-1.53 2.64-2.45zm-17.83 0c0 .61.07 1.25.39 1.02.31-.21.66-.58 1.02-1.02h2.13c-1.88 1.79-3.18 2.92-4.25 3.96h-2.26l.25-.71c.09-.24.17-.45.25-.6.24-.46.51-.91.63-1.43.04-.2.13-.65.22-1.22zm-7.46 0c-.04.09-.07.17-.09.24-.18.56-.81 2.36-1.26 3.72h-1.79c.03-.22.05-.44.09-.66.05-.28.17-.63.32-1.05.16-.42.36-.91.58-1.45.1-.26.21-.52.32-.81zm-12.62 0c-.48.42-.77 1.01-.46 1.97.35 1.11.44 1.64.54 1.99h-2.59c-.4-.8-.67-1.65-.85-2.55-.23-.46-.41-.95-.63-1.42zm-13.23 0c.32 1 1.03 2.21 1.39 2.91.19.38.37.74.49 1.05h-2.48l-.12-.13c-.15-.17-.35-.4-.59-.39-.2.01-.41.16-.67.52h-2.18c-.02-.09-.05-.17-.07-.23-.18-.65-.19-1.14.43-1.48l.21-.11c.29-.14.6-.31.85-.77.22-.43.19-.91.19-1.38zm-8.25 0c-.41.68-.83 2.26-1.23 3.81-.01.05-.03.1-.04.15h-2.57c.66-1.16 1.28-2.18 1.56-2.67.3-.53.3-.92.23-1.29z"/>
      <path d="M137.53 130.04c.39-.23.65-.3 1-.64.32-.31.53-.12.7.39.04.08.06.17.08.25zm28.82-3.96c-1.15.23-3.98.49-5.55.61-.9.07-1.19.32-1.16.7.03.33.33.75.44 1.08.09.25.57.92 1.06 1.57h-8.25c-.05-.31.07-.61-.1-1.09-.25-.74 1.38-1.22 1.54-1.68.11-.31-.29-.89-.71-1.19zm-32.79 0c0 .23.01.48.03.74.04.72.14 1.54.1 2.53-.01.24-.02.46-.02.68l-1.69.01c.05-.64.11-1.24.14-1.59.01-.21.2-1.99-.48-1.61-.09.06-.19.15-.28.24l-.13.11c-.15.14-.25.19-.4-.01-.15-.18-.25-.41-.37-.61-.38-.61-.72.38-.84.62-.2.38-.43.73-.52 1.15-.1.46-.11.93-.42 1.31-.12.16-.17.05-.25-.06l-.09-.14c-.11-.16-.26-.3-.46-.34-.58-.11-.96.2-1.29.74l-.12.18-3.04.01c1.38-1.26 2.94-2.65 4.45-3.97zm-17.38 0a195.47 195.47 0 01-3.22 3.22c-.28.26-.53.5-.78.74h-2.12c.81-1 1.64-2.37 2.18-3.19.19-.31.37-.57.52-.77zm-7.04 0c-.02.14-.05.25-.07.32-.11.36-.29 1.62-.38 2.73 0 .06-.04.48-.04.91h-1.63c.14-.85.26-1.92.21-2.72-.02-.37.01-.8.08-1.25zm-6.14 0c-.34.26-.48.44-.69.83-.23.47-.83 2.21-1.13 3.13h-1.83c.37-.91.76-1.93 1.11-3.02.09-.29.17-.61.24-.94zm-16.33 0c-.2.16-.37.36-.53.66-.15.29-.21.54-.21.54s-.16.84-.24 1.49c-.09.73 1.08 1.02 1.79.89.38-.07.67-.32.95-.7.27-.38.55-.88.91-1.48.55-.91.37-1.17-.11-1.41l1.97.01c.11.89-.41 2.02-.75 2.69-.08.18-.3.32-.6.48-.3.16-.65.33-.96.53-.12.08-.23.16-.33.25l-3.99.01c-.15-.35-.32-.68-.54-.97-.04-.07-.09-.13-.12-.19-.22-.37-.52-1.5-.82-2.81h3.58zm-10.99 0c-.13.34-.2.68-.25 1-.1.65-.11 1.27-.23 1.87-.06.29 0 .67.13 1.09h-2.54v-.08c.02-1.16.45-1.33 1.11-2.09.31-.34.73-.82.19-1.22-.3-.22-.82 0-1.22.22-.42.25-.77.54-.77.54s-.42.39-.95.8c-.53.4-1.17.82-1.6.88-.41.06-.8-.03-1.19 0-.39.04-.76.22-1.2.82-.03.04-.05.08-.08.13h-2.05c0-.03 0-.05-.01-.08-.04-.19-.1-.37-.13-.56-.16-.76.08-1.18.83-1.5.59-.26 1.24-.38 1.86-.52 1.22-.26 1.82-.32 2.63-1.3z"/>
      <path d="M156.83 122.11c.09.19.29.32.66.36.68.08 1.25.16 1.73.14.49-.02.91-.15 1.28-.5h2.67c.35.19.4.42-.11.96-.18.2-.34.36-.46.48-.39.4-.45.57.16.87.68.33.87.52 1.59-.03.69-.53.86-.52 1.01-1.53.03-.24.12-.45.22-.65.02-.03.03-.07.04-.1h1.43c.01.01.02.02.03.04.34.48.66.24.96-.04h3.49c-1.4 1.27-4.19 3.65-4.8 3.87-.09.03-.22.06-.38.1h-12.73c-.2-.16-.41-.24-.55-.19-.36.13-.58.03-.57-.33 0-.18.23-.48.51-.8.13-.16.98-1.07.53-1.24-.3-.1-.98.2-1.21.35-.28.2-.73-1.24-.79-1.43-.03-.09.01-.19.13-.33zm-20.84 0c-.28.23-.55.47-.81.73-.61.6-1.11 1.24-1.42 2.04-.15.38-.2.77-.2 1.19h-5.68c1.71-1.5 3.37-2.92 4.65-3.97h3.46zm-15.81 0c-1.01.92-2.46 2.41-4 3.96h-3.42c.08-.1.14-.19.21-.27.71-.85 2.61-2.66 3.01-2.85.19-.09.71-.42 1.29-.84zm-10.45 0c-.05.4-.12.88-.19 1.38-.14.99-.28 2.03-.4 2.58h-1.83c.17-1.14.57-2.42.86-3.35.07-.24.11-.44.12-.61zm-5.55 0c-.3.17-.59.38-.82.56-.28.22-.5.43-.5.43s.67 1.01.92 1.52c.22.48.18.75-.41 1.18-.15.1-.27.19-.37.27h-2.3c.14-.67.25-1.42.41-2.13.16-.69.35-1.34.65-1.84h2.42zm-16.98 0c-.56.32-1.09.6-1.72.81-.7.22-.84.09-1.37.75-.56.69.09 1.8.81 1.73.34-.03.93-.36 1.5-.68.36-.21 1.1-.65 1.49-.72.68-.13 1.64.26 2.79 1.16.31.23.46.56.5.91h-1.97c-.19-.09-.41-.18-.66-.31-.45-.22-.69-.3-.9-.27-.11.02-.21.07-.32.14-.26.15-.49.28-.68.44h-3.58c-.3-1.33-.6-2.85-.79-3.96zm-8.9 0c-.11.18-.24.35-.38.51-.39.43-.58.68-.79.99-.21.32-.44.71-.92 1.42-.24.36-.41.71-.53 1.04h-5.47c.04-.06.09-.12.15-.19.83-1.11 2.69-2.09 3.68-2.34.83-.21 1.5-.61 2.26-1.43z"/>
      <path d="M173.04 118.14c.09.14.17.27.25.39.39.69-.2 2.12-1.34 3.2-.12.1-.26.23-.42.38h-3.49s.01-.01.01-.02l.17-.17c.38-.36.63-.35 1.13-.36.33-.02.74-.03 1.29-.15.91-.2.96-.75.85-1.51-.07-.54-.18-1.17-.38-1.76zm-5.77 0c.7.46.97 1.23 1.23 1.99.15.46.07.57-.36.67-.16.04-.52-.7-.57-.78-.23-.44-.53-1.03-.88-1.38-.32-.32-.51-.49-.94-.36-.62.18-.99.31-.31.86.44.35.91.66 1.31 1.07.4.42.36.71.28.98l-.06.21c-.07.26-.06.47.08.7h-1.43c.29-.57.57-.99-.31-1.4-1.16-.54-1.35-.6-1.67-.55-.17.01-.38.08-.57.14-.17.05-.33.11-.33.11s-.06.09-.12.2c-.22.37-.52 1.08.07 1.31.19.06.35.13.48.2l-2.67-.01c.02 0 .02-.01.03-.01.17-.17.35-.24.51-.3.16-.07.32-.13.43-.27.2-.3.18-.91-.21-2.53-.07-.3-.14-.58-.22-.85zm-13.24 0c.02.06.04.13.06.19.38 1.2.91.44 1.42-.01.06-.05.11-.1.16-.17l2.56-.01c.01.61-.11 1.06-.4 1.47-.3.42-1.33 1.82-1 2.5h-5.16c.02-.02.03-.04.05-.06.48-.49 1.59-1.03 1.9-1.56.42-.71.03-.97-.68-1.22a3.42 3.42 0 00-.59-.12c-.79-.11-1.41-.17-2.04-.76-.09-.08-.2-.16-.31-.25zm-11.65 0c-.42.22-.89.47-1.4.74-1.75.95-3.48 1.94-4.99 3.23h-3.46c1.06-.86 1.86-1.48 2.23-1.68l4.1-2.26c.01-.01.03-.02.05-.03zm-17.15 0c-2.18 1.63-4.25 3.22-5.05 3.96 0 .01-.01.01-.01.01h-2.91c.7-.51 1.49-1.16 1.91-1.71.39-.49 1.06-1.06 1.75-1.61.28-.22.56-.45.83-.65zm-16.95 0c-.13.28-.17.53 0 .67.36.28 1.12-.14 1.9-.67h3.79c.12.29.33.78.51 1.21.15.32.19.48-.14.57-.34.11-.52.17-.9.17-.22 0-.48 0-.79.04-.28.05-.45 0-.59-.14-.19-.19-.36-.56-.48-.8-.43-.83-.91-.28-1.37.06-.4.3-.39 1.38-.36 1.85 0 0-.04.42-.12 1.01h-1.44c.03-.35-.04-.59-.18-.78-.11-.13-.25-.24-.39-.34l-.23-.15c-.35-.26-.62-.55-1.08-.22-.21.14-.35.34-.51.53-.22.27-1.22.71-1.55.87-.05.03-.11.06-.17.09h-2.42c.16-.26.33-.47.55-.63 1.46-1.08 2.78-2.26 3.88-3.34zm-22.54 0c-.92.57-1.71 1.05-2.04 2.18-.03.13-.04.2-.04.2-.02.07-.14.38-.21.64-.1.39.29.59 1.14.47.86-.13 1.57-.64 2.36-.98.72-.32 1.51-.53 1.99-1.23.25-.36.08-.66-.24-.89-.19-.15-.41-.28-.64-.38l3.49-.01c-.03.04-.08.07-.14.11-.32.21-.69.34-1.02.53-.32.16-.26.39-.14.64.16.31.35.59.43.94.19.73-1.04 1.37-1.86 1.5-.4.06-.65.04-.86.04-.22 0-.42.01-.68.16-.03.02-.05.03-.08.05h-4.9c-.12-.68-.2-1.21-.22-1.44-.09-1.02.02-1.71.04-2.12.01-.18 0-.31-.05-.41zm-4.66 0c-.86.48-1.77 1.87-1.95 2.16-.06.09-.12.24-.18.4-.19.49-.38.97-.65 1.4h-2c.17-.17.33-.36.5-.57.52-.64 1.51-2.06 2.4-3.38z"/>
      <path d="M171.88 114.18c-.14.08-.29.15-.43.2-1.1.45-.62 1.17-.08 1.8.51.59 1.2 1.29 1.67 1.97l-1.93-.01c-.28-.82-.74-1.56-1.56-1.85-.4-.14-.65-.15-.99.09l-.17.12c-.11.08-.24.18-.42.28-.63.36-1.26-.47-1.47-1.27-.2-.78-.15-.89.4-.96.34-.05.58-.17.7-.37zm-7.46 0c.03.04.05.08.07.12.53.98.36 1.3-.17 2.15-.12.2-.25.39-.42.55l-.09.08c-.12.1-.18.18-.25.49-.04.16-.01.29.13.32.21.05.81-.23 1.02-.31.45-.17 1.08-.4 1.53-.13.22.13.44.35.89.6.05.03.1.06.14.09h-6.23c-.34-1.24-.71-2.27-1.02-3.09-.08-.22-.21-.54-.32-.87zm-7.07 0c.03.1.06.21.1.33.48 1.67.77 2.79.78 3.63h-2.56c.47-.69.35-2.3-.01-3.77a.902.902 0 00-.04-.19zm-6.39 0v.02c.01.04.02.09.02.16 0 .34.56 1.09 1.68 1.94 1 .77 1.06.88 1.36 1.84H150c-1.06-.75-2.99-1.28-3.98-1.25-.89.02-1.92.38-3.64 1.26l-3.48-.01c.94-.58 2.48-1.38 3.52-1.57.7-.13.89-.39.56-.69-.26-.24-.82-.46-1.32-.62-.93-.29-1.11-.27-1.93.04-.62.23-.8-.12-.49-1.07.01-.02.02-.04.03-.05zm-14.02 0c-.14.19-.29.39-.44.58-.07.09-.86 1.18-1.05.79-.15-.32-.11-.83.02-1.37zm-6.26 0c-1.32.93-3.44 2.46-5.45 3.96h-3.48c.39-.3.74-.57 1-.79.43-.37.97-.68 1.55-.97 1.08-.53 2.22-.96 3.2-1.69.22-.16.42-.33.69-.51zm-6.81 0c-1.09.47-2.4 1.16-3.13 1.6-.48.29-1.08.56-1.65.82-.57.26-1.11.51-1.47.76-.34.23-1.24.37-2.09.44-.83.07-1.66.09-1.66.09s.03.1.1.25h-3.79c.07-.04.13-.08.2-.13.44-.3.9-.64 1.34-.94.44-.3.85-.57 1.19-.72.79-.35 1.94-.51 2.78-.65 1.15-.18 2.46-.39 3.86-.84.49-.16.95-.4 1.38-.69h2.94zm-12.85 0c-1 .53-.24.83-.65 1.33-.26.33-.92 1.02-1.45 1.69-.11.13-.46.56-.64.95l-2.09-.01c1.18-1.16 2.11-2.2 2.68-2.85.39-.46.52-.83.52-1.12h1.63zm-25.59 0c-.59.64-1.27 1.68-1.1 2.33.22.89 1.92.74 2.24.14.29-.56 1.59-1.4 3.05-2.11.19-.1.48-.22.81-.36h5.32c-.92.32-1.9.64-2.9.92-2.84.76-3.09.66-3.27.72-.04.02-.07.03-.11.06l-.14.09c-.28.19-.34.44-.35.67-.01.19.03.44-.05.61-.13.33.72.34.85.35.52.04 1.08.06 1.58.22.31.1.34.2.19.33l-3.49-.01c-.18-.09-.37-.17-.56-.27-.69-.35-1.03-.18-1.62.19-.05.03-.1.06-.14.08h-3.67c-.07-.14-.23-.2-.55-.16-.14.02-.29.08-.44.16H79.2c.81-1.19 1.54-2.31 1.77-2.68.22-.37.75-.59 1.3-.75.28-.08 1.06-.25 1.28-.44.02-.03.06-.06.09-.09z"/>
      <path d="M153.04 110.21c.02.02.03.04.05.05.13.12.37.16.91.17 1.08.02 1.8.16 2.98.23 1.17.06 1.84.16 2.64.26.41.05.84-.01 1.09-.19.18-.13.25-.3.2-.52h1.82c.43.36.93.25 1.44 0h3.65c.01 0 .01 0 .02.01.37.24.57.27.92.18.15-.04.35-.11.62-.19h3.24c.34.31.53.8.68 1.42.28 1.16-.54 2.06-1.42 2.55h-4.27c.1-.18.12-.42.04-.7l-.17-.57c-.04-.16-.09-.35-.19-.77-.21-.84-.87-1.37-1.4-1.28-.39.06-.42.4-.6.67-.24.4-.67.38-1.09.35-.31-.01-.66-.11-.96.03-.07.04-.11.08-.14.16l-.04.12c-.08.19.4.7.48.8.28.33.61.74.88 1.19h-4.72c-.17-.47-.32-.99-.32-1.32.02-1.01-1.02-1.49-1.64-1.05 0-.04-.05-.05-.16.11-.03.04-.07.06-.1.08l-.14.07c-.1.04-.2.09-.27.23-.09.23-.05.71.28 1.88h-1.74c-.18-.69-.39-.99-.73-1.12-.19-.07-.4-.08-.66-.09-.26 0-.57.01-.94-.02-.77-.04-1.51-.02-2.04.57-.12.14-.32.34-.31.54l.03.12h-11.7c.39-.8 3.41-.5 4.14-.56.21-.02.33-.14.33-.31 0-.16-.1-.35-.28-.52-.36-.36-1.04-.7-1.99-.72-1.87-.03-2.86.08-3.56.82-.16.18-.39.49-.63.83-.11.14-.22.3-.33.46h-1.47c.18-.77.53-1.61.7-2.05.12-.34 0-.53-.3-.56-1.02-.09-3.67 1.54-4.41 2.05l-.79.56h-2.49c.11-.08.24-.17.38-.26.51-.33.69-.63.29-1.07l-.11-.12c-.2-.23-.25-.35-.61-.24-.21.07-.49.21-.88.38-.76.34-1.32.54-2.43.92-.27.1-.6.23-.95.39h-2.94c.72-.48 1.37-1.08 2-1.65.26-.24.45-.41.6-.5.57-.35 2.54-.37 3.3-.49.41-.07.64-.16.9-.31.25-.16.52-.37 1.03-.7.96-.6 2.53.62 3.69.42.71-.11 1.33-.31 1.72-.74zm-40.33 0c0 .05-.01.09-.01.13 0 .3.12.45.52.68.42.25 1.22-.17 2.09-.73.04-.03.09-.05.13-.08h4.45c-.23.22-.35.5-.43.8-.14.53-1.1.73-1.51.38-.26-.22-.77-.03-1.28.23-.53.26-1.12.63-1.56.88-.44.25-.6.36-.95.51-.36.15-.9.34-2.1.75-.48.16-.81.29-1.04.42h-1.63c-.01-.57-.56-.85-.81-.9-.3-.07-.59-1.09-.5-2.04.04-.48-.15-.71-.5-.76-.39-.05-.99.08-1.37.15-1.1.21-2.2.74-4.31 1.29-1.53.4-3.67 1.37-6.15 2.26h-5.32c2.1-.88 6.46-2.46 8.01-2.81.91-.21 1.8-.37 2.59-.57.63-.16 1.2-.35 1.68-.59zm-23.2 0c-.3.11-.66.26-1.08.47-1.4.67-1.88 1.33-2.09 1.89-.1.27-.13.51-.18.71-.04.2-.09.34-.22.43-.14.1-.32.26-.51.47h-1.79c.25-.25.52-.62.69-.96.18-.37.26-.8-.12-.93-.39-.13-.46-.24-.43-.53.03-.3.16-.77.26-1.55zM169.38 110.21c.27-.08.61-.18 1.06-.27 1.11-.23 1.76-.11 2.18.27zm-5.21 0c.51-.24 1.02-.6 1.47-.76 1.08-.35 1.44.25 2.19.76zm-23.57-3.96c-.77.42-1.46 1.47-1.38 2.05.13.81 1.37 2.36 2.3 1.46.16-.15.6-.51.72-.7.15-.23.24-.85.31-1.12.14-.67.2-.98.06-1.19-.07-.11-.18-.18-.33-.25-.12-.07-.27-.14-.46-.25h7.28c1.35.98 2.93.9 7.44.37 2.66-.32 3.9.14 4.59.82.7.7.8 1.57 1.27 2.36.1.17.21.31.33.41h-1.82c-.03-.13-.1-.27-.22-.42-.16-.19-.27-.36-.36-.5-.09-.14-.17-.26-.29-.36-.22-.19-.57-.27-1.33-.29-.76-.01-1.33.03-1.79.03-.39 0-1.04-.03-1.36-.31-.03-.03-.07-.07-.11-.1-.1-.05-.3-.05-.98-.04-.7.01-1.07.06-1.38.1-.56.05-1.1 0-1.66-.1l-.21-.04c-.36-.06-.47.03-.42.44.04.32.19.63.34.84.08.11.3.4.47.32.08-.04.38-.12.67-.15.82-.06.59.32.76.58h-18.87c.26-.28.42-.64.46-1.15.05-.63.16-.78.29-.84.04-.01.08-.02.13-.02l.16-.01c.12-.01.26-.02.42-.08.6-.21 1.41-1.02 1.64-1.66.03-.08.03-.15 0-.2zm-6.46 0c-.35.16-.46.52-.69.85-.28.41-1.39.73-1.92.18-.32-.33-.8-.27-1.32-.07-.54.2-1.16.56-1.81.88-.65.31-1.66.58-2.61.8-.95.22-1.83.39-2.19.5-.84.23-1.76.27-2.62.38-.52.07-.86.22-1.09.44h-4.45c.85-.56 1.8-1.27 2.63-1.78 1.74-1.06 2.36-1.26 4.91-1.29 1.27-.01 1.94-.07 2.67-.26.48-.13 1-.33 1.75-.63zm-21.3 0c-.07.19-.08.42-.07.67.03.55.15 1.23.11 1.99-.05.65-.14 1.03-.17 1.3h-10c.12-.07.24-.13.35-.21 1.09-.73 2.38-1.11 3.57-1.68.5-.24 1.08-.25 1.7-.22.64.03 1.28.1 1.91-.01.93-.14.84-1.05.58-1.84zm-22.75 0c.01.26.01.58-.05.99-.11.78.4.75 1 .6.68-.16 1.4-.43 2.12-.32.58.1.72-.01.84-.25l.08-.17c.15-.27.36-.44.64-.59.53-.27 1.12-.15 1.75.03.64.18 1.31.44 1.99.41.72-.03 1.65-.35 2.58-.7h6.31c-.4.42-1.06.69-2.13.43-1.29-.31-1.58-.22-2.05.39-.21.26-.7.38-1.32.49-.61.09-1.3.16-1.88.33-1.16.35-5.25 1.54-7.13 1.94-.46.1-.79.12-1.07.12-.29-.01-.52-.04-.78-.05-.37-.01-.79.05-1.48.31h-5.47l.03-.25c.18-1.83 1.28-2.06 2.99-2.36.5-.08 1.13-.66 1.3-1.35z"/>
      <path d="M152.44 102.28c.07.34.17.63.31.77.49.51 1.22 1.04 1.98 1.01.36-.02.89.02 1.31 0 .26-.01.83-.05.78-.45-.04-.24.05-.36.09-.58.05-.21-.07-.31-.45-.38-.4-.09-1.06.06-1.48.12-.53.06-.86.02-.89-.29-.01-.08-.03-.14-.05-.2h7.66c.34.33.78.53 1.44.44 1.24-.16 1.63-.02 1.72.2.11.25-.14.86-.19 1.13-.09.38-.37.41-.96.25-.59-.16-1.41-.5-2.45-.75-2.09-.49-3.59.78-5.54 1.08-2 .32-4.15-1.28-4.14-2.03 0-.1.02-.2.03-.32zm-4.93 0c-1.24.93-.55 1.86.82 3.28.26.27.51.5.77.69h-7.28c-.04-.02-.07-.04-.11-.06-.34-.21-.73-.15-1.11.06h-3.33c-.04-.1-.15-.16-.29-.19-.62-.16-1.87.04-2.51.11-.14.01-.24.04-.33.08h-6.74c.35-.14.76-.31 1.24-.49 1.49-.6 2.25-.9 2.73-1.16.49-.28.7-.51 1.11-.97.2-.23.39-.42.57-.59l.5-.46c.1-.1.2-.19.29-.3zm-21.04 0c-.16.03-.32.06-.49.09-1.27.2-1.7.19-2 .25-.38.07-.86.45-1.17.66-1.39.91-3.64 1.72-7.27 2.24-1.17.17-1.7.21-1.92.21.03-.07-.01-.1-.14-.07-.04.02-.07.03-.14.09-.28.1-.43.28-.5.5h-2.02c-.13-.4-.3-.76-.41-.99-.47-.99-2.52.2-2.88.75-.05.08-.11.16-.18.24h-6.31c.83-.32 1.67-.68 2.33-.87.75-.23.71-.49.16-.77-.5-.27-1.44-.62-2.52-1.15-2.17-1.06-2.42-1.13-3.53-.71-2.93 1.11-5.95 1.55-6.46 1.69-.54.14-.63.22-.86.74-.12.28-.11.52-.09.83 0 .07.01.15.02.24h-1.73c.1-.39.04-.81-.24-1.2-.5-.67-1.53-1.3-2.63-1.9-.54-.29-1.11-.58-1.64-.87z"/>
      <path d="M156.49 98.32c-.2.08-.39.18-.58.29-.91.55-1.15 1.02-1.14 1.46.01.42.25.79.24 1.21-.02.96 1.94.35 4.06-.84 1.58-.88 1.68.95 2.64 1.84h-7.67c-.01-.01-.01-.02-.02-.04-.19-.4-.2-.63-.14-1.11.34-1.03.44-1.77.39-2.23-.04-.32-.15-.54-.33-.58zm-18.52 0c-.14.1-.31.19-.39.15-.05-.02-.1-.07-.15-.15zm-51.64 0c.04.09.06.19.08.28.08.33.1.63.13.82.08.48 1.03.46 1.92.34.94-.13 3-.22 3.38.01.38.24.24.85.3 1.22.06.46.91 1.73 2.54.91 1.55-.78 3.23-1.67 3.45-2.22.2-.52.11-.73-.01-.9l-.08-.1c-.08-.1-.07-.23-.03-.36h1.77c-.64.71-.86 2.77.65 3.1.75.16 1.41.11 2-.01.58-.13 1.08-.32 1.49-.46.19-.07.51-.05.9 0 .91.12 2.94.63 3.6-.03.67-.68 1.01-.77 2.67-.74.82.01 1.19-.02 1.5-.15.15-.05.29-.14.46-.24.16-.1.36-.23.65-.38.59-.32 1.14-.69 1.62-.94.11-.06.22-.11.32-.16l.88.01c.15.29-.79.87-.26 1.13.52.26 5.12-.21 5.51-.9.04-.07.07-.15.09-.24l3.13.01c-.06.08-.1.17-.12.28-.09.41-.36 2.22.54 2.05.37-.07.63-.03.91-.07.89-.14 1.27-.92 1.97-1.13.35-.1 1.05-.15 1.42-.19.98-.11 1.74-.43 2.11-.94h3.62c.63 1.69 2.51 2.53 3.92 3.44.64.4.97.4 1.02-.03.05-.38-.14-1.13-.21-1.52-.16-.88-.14-1.31-.16-1.89h3.17c.06.07.12.14.19.19 1.41 1.24 2.41.64 3.11-.2l1.48.01c-.08.15-.18.29-.28.43-.29.37-.38.72-.4 1.01-.02.28.03.5.03.64 0 .1.06.17.14.2.15.06.41.05.58.05.1 0 .18 0 .24.01.28.06.71-.43 1.01-.53.26-.1.58-.9.84-1.81h3.7c-.04.01-.08.02-.12.04-.59.3-1.17.8-1.38 1.45-.03.1-.04.16-.04.16s-.01.64.04 1.33c.02.33.06.68.12.98h-.83c.11-.78.43-1.95-.5-2.22-.53-.16-.73.05-1.05.4-.55.61-1.05 1-1.81 1.38-.3.14-.54.29-.74.44h-13.67c.16-.18.3-.38.4-.62.3-.7.3-1.89-.39-1.9-.62-.01-.95.36-.96.97-.01.54-.83 1.11-1.44.83-.3-.14-.39-.43-.47-.68-.06-.21-.14-.51-.44-.32-.22.14-.73.5-1.5.87-.67.32-1.53.64-2.57.85H83.85c-.54-.29-1.05-.56-1.47-.84-1.49-.96-2.53-1.51-3.34-2.07-.47-.32-.85-.64-1.2-1.06z"/>
      <path d="M121.86 98.32c.13-.69-.49-1.65.51-2 1.15-.41 1.3.03 2.26.04.42.01 1.85.06 1.68.83-.12.58-.97.64-1.32 1.13zm-6.22 0c.33-.15.59-.19.79-.09.05.03.08.05.09.09zm50.57-3.97c.12.25.29.47.59.75l.38.36c.28.28.47.43.88.52.55.11.83-.17.93-.97.05-.35-.13-.53-.36-.66h2.89c-.44 1.06-.91 1.91-1.3 2.59-.61 1.08-2.82-.13-3.94-.89-.25-.17-.42-.57-.56-1.11-.04-.18-.09-.38-.13-.59zm-10.83 0c.2 1.5 1.86 1.19 3.27.71.51-.17.86-.41 1.1-.71h2.7c-.26 1.43-1.12 2.58-1.64 2.99-.12.1-.36.16-.7.21-.33.05-.75.09-1.21.15-.74.1-1.6.25-2.41.61l-2.55.01a.244.244 0 00-.12 0h-3.7c.16-.53.31-1.1.42-1.58.22-.98.67-1.75 1.16-2.39zm-6.21 0c-.04.12-.07.23-.09.36-.11.48-.18 1.03-.33 1.55-.23.85-.43 1.47-.78 2.06h-1.49c.26-.32.47-.66.65-.95.34-.55.62-1.49.9-2.42.06-.19.12-.39.18-.6zm-5.93 0c-.56 1.74-.6 3.23-.05 3.96l-3.18.01c0-.2-.01-.42-.02-.66-.04-.51-.18-.71-.41-.72a.803.803 0 00-.31.04l-.16.04c-.27.05-.36-.02-.46.31l-.05.18c-.06.24-.14.49-.41.66-.05.02-.13.09-.22.15h-.54c-.12-.19-.26-.56-.45-1.24-.28-.95-.04-1.26.21-1.56.07-.07.14-.15.2-.24.21-.29.25-.6.21-.93zm-9.22 0c.52.56.7 1.2.86 1.94.12.53.25 1.15.55 2 .01.01.01.02.01.03h-3.61c.23-.32.32-.72.21-1.19-.14-.58-.35-1.21-.54-1.78-.11-.37-.22-.71-.29-1zm-31.5 0c-.19.36-.74.42-.79.25-.02-.1-.19-.18-.44-.25zm-3.24 0c-.01 0-.01.02-.02.02-.17.22-.37.39-.42.68-.26 1.25 2.71 1.48.98 3.22-.02.01-.03.03-.04.04l-1.77.01c.06-.17.18-.32.28-.42l.08-.07c.12-.12.2-.29.25-.77.09-1.01-.56-1.09-.79-1.83-.1-.33-.2-.61-.28-.88zm-20.87 0c-.01.2.02.43.11.68.47 1.29 1.46 1.21 2.47 1.12.51-.05.85-.06 1.04-.02.29.06.15.21.04.34l-.19.21c-.14.15-.28.33-.35.49-.14.42.25.63 1.52.51.73-.07 1.33-.26 1.83-.36.49-.09.83-.07 1.06.25.19.24.31.5.39.75h-8.49c-.25-.29-.48-.62-.71-1.02-.76-1.38-.9-2.2-.46-2.95z"/>
      <path d="M148.22 94.36c.19-.64.42-1.35.71-1.86.64-1.15 2.64-2.09 4.14-1.88 1.48.2 2.32 1.56 2.29 3.36 0 .14.01.26.02.38h-3.68c.16-.22.33-.42.49-.61.17-.19.32-.32.47-.43.32-.24.8-.38.85-.86.03-.36-.31-.5-.7-.55-.4-.05-.92-.01-1.38.03-.97.08-1.15 1.07-1.78 1.58-.24.2-.38.49-.48.84zm18.73-3.97c0 .91.19 1.43.93 2.18.54.56.93.59 1.23.27.29-.33.49-1.05.62-1.46.14-.41.25-.72.42-.99h3.57c-.04.03-.09.06-.14.09l-.28.16c-.39.22-.81.51-.97 1.19-.22.95-.5 1.79-.81 2.53h-2.89c-.07-.05-.14-.08-.21-.12-.41-.21-.75-.38-.98-.82-.52-.98-.97-1.48-1.2-1.48-.1 0-.16.07-.2.15-.17.34-.14.99-.09 1.34.07.39.13.67.26.93h-.62c-.07-.4-.14-.82-.21-1.23-.2-1.23-.46-2.5-1.23-2.58-.94-.09-1.31.45-1.47 1.18-.14.72-.1 1.65-.2 2.42l-.03.2-2.7.01c.5-.65.48-1.61.44-2.96-.01-.37.03-.7.09-1.01zm-21.69 0c-.22.31-.41.62-.61.93-.62 1.03-1.1 2.07-1.41 3.04h-5.64l-.06-.36c-.15-.57-.39-.83-.61-1.02l-.14-.11c-.12-.09-.22-.18-.23-.33-.04-.47 1.12.16 1.22.22.19.11.31.25.41.44l.08.17c.1.22.21.44.52.46.4.04.47-.53.51-.79.08-.53.13-1.05.33-1.54.22-.53.17-.84-.11-1.02a.608.608 0 00-.18-.09zm-8.25 0c-.03.03-.07.06-.1.09-.44.43-.93 1.06-1.6 1.06-.77 0-1.8-.76-2.49.05-.13.15-.14.26-.1.44.04.16.11.4.15.82.06.67.66 1 1.09 1.43.02.02.05.05.06.07l-2.81.01c-.03-.17-.06-.32-.07-.45-.06-.9.21-1.81.45-2.54.12-.37.24-.69.3-.94 0-.02.01-.03.01-.04zm-7.04 0c-.06.1-.13.19-.19.28-.28.38-.5.52-.68.32-.22-.22-.46-.41-.7-.6zm-31.89 0c-.13.46-.02.97.6 1.39.73.5 1.38.59 1.93.61.32.01.94-.06 1.22.08.54.29.84 1.13.76 1.69-.01.08-.03.14-.07.2h-1.23c-.64-.17-1.77-.21-2.01-.01l-1.74.01c-.18-.61-.31-1.14-.32-1.92 0-.65.19-1.4.1-2.05zm-15.32 0c.09.5.12.9.01 1.05-.14.21-.39.45-.62.59-.25.16-.45.17-.55.04-.34-.44-.57-1.15-.85-1.65 0-.01-.01-.02-.02-.03zm-3.83 0c.01.47.24 1.11.32 1.49.16.83-.17.98-.56 1.64-.15.24-.26.51-.28.83l-1.74.01c.18-.32.46-.62.84-.93 1.36-1.15.84-1.87-.01-2.22-.2-.08-.39-.16-.56-.23-.33-.15-.59-.3-.68-.59z"/>
      <path d="M170.15 90.38c.31-.5.79-.85 1.84-1.3 1.61-.68 2.17.08 2.07.82-.03.23-.17.37-.34.49zm-9.87 0c.3-1.31 1.26-2.12 2.45-2.91 1.46-.96 4.33.21 4.28 1.44-.03.48-.05.88-.06 1.23v.25zm-33.11-3.96c-.01.03-.02.05-.02.07-.1.28.07.49.33.6.26.12.64.16 1.02.12.32-.02.54-.13.83-.25.17-.07.2-.07.24.08.05.22.09.35.24.43.16.09.55.15.74.17.81.14 1.58-.32 2.34-.98.12-.11.24-.19.35-.24h.51c.03.02.07.03.1.05l.17.09c.37.2.73.3 1.15.23.18-.02.3-.09.3-.09.05-.09.09-.18.13-.27l12.48-.01c-.02.03-.04.07-.06.1-.92 1.3-1.92 2.61-2.76 3.86h-5.92c-.3-.11-.74-.18-1.01-.23-.64-.13-.9-.13-1.32.23h-5.11c.06-.22.07-.43-.04-.54-.34-.35-.97-.95-1.39-.3-.14.21-.31.54-.5.84h-1.57c-.35-.27-.72-.55-1.02-.9-.31-.37-1.07-.17-1.47-.1-.59.11-1.1.16-1.33-.23-.38-.65-1.29-1.87-1.05-2.66 0-.02.01-.05.02-.07zm-33.15 0c-.2.68-.09 1.29 1.16 1.06 1.22-.22 1.78-.33 2.14-.35.38-.01.6.11.94.26.43.19.56.3.8.39.25.09.33.03.6-.16.36-.26.55-.83.72-1.2h.49c.01.04.02.08.03.13.02.12.03.27.02.46l-.02.67c-.02 1.47-1.02 1.51-1.59 1.5-.35-.01-1.03.54-1.23 1.21l-.76-.01c-.06-.47-.28-.88-.83-1.17-.64-.34-1.09-.4-1.53-.45-.21-.02-.42-.03-.66-.09-1.36-.28-1.87-1.13-1.64-2.24zm-16.52 0c.09.53.22.93.65 1.11.94.39 2.6.42 3.09.24.48-.17.95-.29 1.07.48.06.42.25 1.12.39 1.77.02.13.05.25.06.37l-2.03-.01c-.25-.34-1.47-.92-1.74-.36-.05.1-.07.22-.06.36h-2.67c-.04-.1-.04-.23-.02-.39.15-1.01.14-2.35.15-3.57zM138.81 62.63c-.05-.05-.09-.11-.13-.16-.23-.3-.42-.55-.57-.85-.07-.16-.24-.35-.42-.54-.12-.13-.92-.85-.91-.99.01-.01.04-.01.08-.01.7.06 1.67.21 2.03.75.29.44.9 1.17 1.22 1.8zm-2.6 0c-.06-.21-.14-.41-.18-.52-.15-.4-.67-.81-.69-1.17.06.02.1.04.14.07.2.13.51.38.91.62.38.25.54.38.66.58.07.12.14.26.21.42zm-17.21 0v-.02c.14-.6.29-.72 1.2-.49.22.06.57.1.77.19.13.06.27.19.42.32zm24.06-3.96c.05.04.1.08.14.12.68.64 2.18 2.56 2.94 3.84h-3.88v-.21c0-.43-.07-.93-.36-1.6-.33-.74-.86-1.52-1.51-2.15zm-9.2 0c.43.17.85.24.79.54-.04.21-.34.65-.44.87-.17.35-.33.33-.52.28l-.16-.04c-.05-.02-.11-.03-.17-.04-.28-.03-.62.15-.54.48.09.4.77.98 1.01 1.37.12.2.31.36.52.5h-3.71c-.1-.37-.53-.98-.7-1.19l.44-.46c.15-.15.28-.3.32-.38.07-.13.2-.25.29-.36.41-.44.89-.98.42-1.58zm-11.24 0c.04.16-.06.29-.35.32-.5.06-1.05-.02-1.56 0-1.13.04-1.37.55-2.02 1.27-.32.33-1.03 1.15-1.54.83-.17-.11-.33-.16-.48-.19-.14-.03-.36-.03-.48-.07.01-.07.04-.12.09-.18.11-.13.18-.27.25-.41.34-.65.6-.97 1.29-1.33.16-.09.3-.17.43-.24zm-22.92 0c.63.17 1.86.01 2.25.01.23.01.44.01.62-.02l12.57.01c-.11.3-.19.5-.19.5-.06.27-.44.38-.67.4-.64.06-1.46-.35-2.1-.48-.18-.04-.38-.11-.61-.16-.91-.23-1.64-.12-2.29.69-.49.62-1.25 1.5-1.98 2.41-.16.2-.32.4-.47.6h-1.43c.06-.08.13-.17.2-.27.36-.47.73-.99 1.05-1.41.31-.43.56-.77.66-.88.26-.25.4-.57.39-.8-.01-.27-.22-.39-.57-.27-.64.24-2.18.74-4.14.85-.98.05-1.86-.05-2.59-.17-.73-.13-1.3-.29-1.65-.35a6.86 6.86 0 00-1.13-.07c-.39 0-.8.01-1.26-.02-.23-.02-.4-.08-.55-.16-.16-.08-.3-.17-.46-.23-.32-.15-.7-.18-1.4.18-.81.42-2.78 2.09-4.48 3.6h-1.96c1.38-1.25 2.79-2.41 3.76-3.24.31-.25.59-.5.86-.72zM107.06 70.56c.68-.1 1.4-.12 2.16.01zm39.08-7.93c.25.41.41.75.45.97.09.48.46.89.88 1.31.92.92 1.55 1.48 1.77 2.86.09.52.15 1.02.33 1.52.15.38.34.79.55 1.27h-8.99c-.12-.53.09-.55.55-.5.52.05 1.19.46 1.65.42.29-.02.32-.27.29-.53-.04-.28-.14-.65-.2-1.06-.07-.55-.65-.96-1.05-1.28-.18-.15-.44-.38-.49-.61-.02-.12.02-.15.11-.15.1-.02.28.02.5.09.45.14 1.03.38 1.54.48 1.08.21.87-1.62.88-2.22 0-.35-.1-.52-.39-.58-.32-.06-.93 0-1.27 0-.61.01-.78-.07-.84-.21-.04-.08-.05-.17-.06-.32-.01-.14-.02-.31-.06-.51-.06-.31-.04-.63-.03-.95zm-6.03 0c.11.21.19.42.2.59.02.19.1.42.2.65.06.16.49 1.08.44 1.21-.01.01-.04.02-.12-.02-.31-.13-.45-.23-.61-.42-.24-.3-.46-.68-.67-1-.28-.42-.53-.74-.74-1.01zm-18.72 0c.14.13.27.26.36.34.84.83 2.36 1.96 3.71 1.46.8-.3 1.59-.62 2.39-.9.33-.11 1.01-.16 1.37-.21.18-.02 1.44-.15 1.44-.54.01-.05 0-.09-.02-.15h3.71c.5.32 1.17.53 1.62.74.13.06.25.06.31-.06.07-.13.01-.41-.07-.68h1.05c.1.24.19.5.28.69.38.92 1.04 2.03 1.2 3 .17 1 .72.26 1.42.55.2.08.29.13.29.23l-.08.09a.75.75 0 00-.22.53c0 .35.19.61.42.85.19.2.7.66.75.94-.13.03-.83-.33-.98-.38-.39-.14-1.02-.2-1.9-.04-.5.09-.55.53-.51 1.01l.06.46h-5.63c-.18-.19-.66-.69-.41-.89.54-.43 1.58-.09 2.17.08.76.22 1.77-.14 1.44-.84-.73-1.53-1.98-1.31-3.37-1.4-.16-.01-.94-.05-.96-.31-.01-.15.05-.21.17-.24.14-.05.36-.04.51-.04.38 0 .89 0 1.06-.44.31-.83.78-1.48-.56-1.81-.16-.04-.32-.1-.49-.18-.37-.18-.97-.6-1.37-.44-.07.03-.16.04-.27.06l-.35.05c-.23.03-.49.08-.64.19-.16.12-.1.95-.16 1.2-.36 1.25-5.56.82-5.59.81-1.45-.23-4.59-3.09-4.54-3.72zm-14.56 0c-.54.7-1.01 1.36-1.27 1.89-.6 1.22-1.29 2.37-2.02 3.29-.56.71-1.49 1.78-2.08 2.75h-1.38c.38-.8 1.03-1.79 2.2-3.41 2.2-3.07 2.35-3.47 3.12-4.52zm-17.36 0c-1.16 1.04-2.18 2-2.6 2.41-.26.26-.52.49-.75.69-.22.19-.42.37-.51.51-.39.57.87.48 1.04.48 1.97-.04 4.61.09 5.58 1.27.5.61.97 1.13 1.29 1.54.16.2.28.37.34.5.33.65-1.12.43-1.31.14-.35-.55-.48-1.05-1.21-1.25-.59-.15-3.28-1.01-3.66-.41-.34.56-.52 1 .58 2.06l-6.8-.01c.69-.97 1.26-2.11 1.67-2.98.65-1.38 2.49-3.25 4.38-4.95z"/>
      <path d="M106.6 55.61c-.14.34-.27.67-.38.96-.14.34-.72 1.64.28 1.23.22-.09.44-.14.65-.17.45-.07 1.2-.01 1.52-.36.06-.07.19-.19.21-.3l.01-.13c.04-.39.62-1.12.81-1.48.15-.3.2-.59-.13-.82a1.18 1.18 0 00-.51-.26l-.02-.09c-.03-.08-.04-.16-.07-.24-.17-.41-.55-.35-.91-.21-.77.3-.91.48-1.46 1.87zm11.65 3.06c.88-.5 1.23-.78 2.53-.86.97-.07 1.77.48 1.84.86zm-26.12 0c.55-.47 1-.87 1.29-1.17 1.75-1.74 4.39-3.55 6.82-4.23 2.43-.68 7.91-.93 12.5-.3.62.08 1-.21 1.35-.63.41-.47.72-1 1.18-1.43 1-.95 1.68-1.19 4.13-.97 1.23.12 1.69.21 2.03.43.16.11.3.25.49.45s.42.45.79.78c1.41 1.26 3.69 1.01 5.42.93 1.49-.06 1.55.11 2.61.96.6.47 1.14.69 1.81.81 1.73.31 3.48-.04 5.1.86.55.3 1 .71 1.48 1.1.56.45 1.42.88 2.05 1.23.72.4 1.43.8 1.88 1.18h-2.67c-.52-.51-1.12-.92-1.76-1.15-.72-.25-1.26-.36-1.75-.46-.49-.09-.98-.19-1.44-.37-1.04-.42-1.87-.61-2.87-.63-.66-.01-.73-.05-.87-.04l-.1.03c-.11.03-.16.11-.14.21.1.36.88.71 1.16.8.04.01.4.13.4.24-.04.04-.07.1-.08.18-.01.74.47 1.01.92 1.19h-2.45c-.03-.04-.06-.07-.09-.1-.78-.82-1.82-1.42-2.78-1.51-.23-.03-.45-.04-.65-.05-.45-.04-.99-.07-1.15-.59-.21-.69-1.27-1.65-2.34-1.04-.51.29-.97.64-1.33.88-.11.07-.56.38-.71.27-.13-.1-.17-.17-.18-.31-.02-.17 0-.43.01-.89.01-.45.17-.71.29-.88l.09-.12c.08-.12.12-.23-.02-.35-.3-.23-1.19-.03-1.12-.61.03-.23.27-.43.45-.56l.2-.16c.41-.33.17-.48-.24-.56-.48-.11-.82-.06-1.28.03-.31.06-.51.08-.74-.13-.11-.1-.19-.24-.27-.38l-.12-.22c-.31-.51-.67-.65-1.3-.55-1.08.17-1.55.68-2.23 1.44-.28.32-.61.72-1.02 1.19-.82.96-1.48 1.91-1.79 2.58-.18.37-.47 1.2.33 1.01.55-.14 1.18-.41 1.66-.55.25-.07.72-.22.64.23-.07.43-.27 1.04-.44 1.53-.05.15-.09.28-.13.39l-12.58.01c.16-.03.28-.06.34-.14.09-.1.59-.15.72-.17.2-.03.66-.09.55-.41-.08-.21-.17-.4-.25-.62-.06-.14-.31-.83-.18-.95l.16-.1c.17-.12.31-.27.42-.43.2-.29.46-.5.69-.75.5-.56-.49-.52-.78-.5-.12.01-.21.01-.4-.08-.46-.2-.86-.37-1.37-.23-.61.17-1.09.19-1.48.19-.19 0-.35.01-.49.02-.31.03-.45.18-.7.31-.4.2-.84.34-1.19.61-.15.11-.09.26.01.36.29.31 1.34.33 1.72.34.48.01-.09 1.43-.53 1.84 0 0-.57.39-.37.57.06.06.15.1.27.13zM87.7 72.55c-.41.11-.75.25-.8.7-.06.45.5 1.15.98 1.11.48-.04 1.08-.12 1.14-.62.05-.5-.07-.98-.37-1.09-.3-.1-.6-.21-.95-.1zm62.42-1.99c.12.28.24.57.37.9.28.8.57 1.78.74 3.07h-4.75c-.01-.07-.02-.13-.04-.21-.52-1.8-1.64-.21-1.76-1.15-.11-.91-.4-1.59-1.21-1.28-.49.18-.71.56-.84 1.03l-.03.15c-.05.15-.13.3-.19.46-.1.24-.24.64-.23.99l-1.65.01c.19-.23.38-.47.61-.68.83-.78.27-2.24.02-3.14l-.03-.15zm-12.13 0c.07.38.14.77.13 1.16l-.01.57c0 .12 0 .24.14.42.21.27.48.86.82.28.15-.25.26-.64.3-.95.1-.6.23-.89.84-1 .26-.05.31.08.29.4-.02.32-.12.77-.13 1.17-.01.55-.15.61-.39.99-.16.24-.23.51-.33.78l-.04.15h-6.43c-.18-.07-.28-.16-.22-.26.2-.39.95-.6 1.96-.51.51.05 1.05.16 1.45.18.38.01.72-.08.6-.52-.22-.76-.98-1.29-1.88-1.23-.43.03-.81.12-1.1.12-.28 0-.46-.09-.56-.41-.11-.41-.73-.98-1.02-1.29l-.05-.05zm-28.77 0c.53.09 1.08.25 1.66.49 2.39 1 3.82 2.35 3.78 2.75-.02.22 0 .55-.07.72l-.45.01c-.55-.43-1.5-1.5-3.48-1.76-2-.25-3.4-.21-4.05-.1-.65.11-1.49.47-1.44 1 .03.26.1.61.25.86h-3.02c.04-.71.1-1.31.15-1.47.13-.36.49-1.22 2.27-1.87.72-.26 1.46-.5 2.24-.63zm-7.76 0c-.21.36-.39.71-.48 1.02-.17.59-.18 1.4-.2 2.15 0 .22 0 .51-.01.8h-1.29c.05-.38.06-.83.09-1.46.03-1.01.12-1.66.51-2.5zm-13.2 0l.06.06c.29.27.55.41.79.48.22.07.43.08.64.13.37.08.74.26 1.21 1.28.36.75 2.04 1.33 2.09 1.7.02.1 0 .2-.03.32h-8.19c.04-.36.1-.72.15-1.08.1-.75.13-1.4-.22-1.83-.35-.41-.59-.55-.84-.55-.26.01-.55.16-.79.24-.35.11-.93.6-1.62 1.25-.62.57-1.33 1.27-2.08 1.97h-1.71l.8-.74c.85-.8 1.8-1.77 2.65-2.84.1-.13.2-.25.29-.39z"/>
      <path d="M151.23 74.53c.02.18.04.38.07.59.14 1.52.15 2.47.04 3.37h-1.32c.03-.21-.04-.43-.16-.71-.11-.26-.55-1.41-1.04-1.09-.13.09-.32.14-.49.18-.15.02-.3.04-.34.07-.34.41-.37.9-.32 1.33.01.07.02.15.02.23l-.95-.01c.06-.04.1-.09.13-.16.25-.53.65-2.26.01-3.01-.31-.36-.35-.51-.38-.68 0-.04-.01-.07-.02-.11zm-11.62 0l-.02.03c0 .05 0 .1.02.16l.06.29c.02.07.04.14.12.2l.12.01c.09-.04.18-.15.29-.28.11-.13.22-.27.33-.41h1.65c0 .25.08.48.3.61.61.34 2.16 2.19 2.44 2.72.13.24.49.5.87.63h-2.89c-.03-.25-.06-.46-.09-.65-.11-.69-.24-1.09-1.01-1.28-.9-.23-1.31-.29-1.67.03-.08.08-.14.12-.2.15l-.09.05-.09.05c-.34.25-.31 1.23-.25 1.57 0 .03.01.05.01.08h-6.43c-.08-.77-.32-1.33-1.28-1.14-.54.11-1.12.45-1.59.72-.31.18-.58.34-.82.43l-.72-.01c-.2-.06-.4-.15-.52-.25-.17-.13-.2-.23.11-.32.75-.21 2.22-.83 2.87-1.18.63-.34 1.83-.11 2.51-.03.33.05 1.04.26 1.64.33.57.06 1.16 0 .96-.65-.08-.28-.14-.51-.2-.7-.19-.65-.39-.84-1.13-.91-.18-.01-1.25-.07-1.73-.25zm-25.02 0c-.07.15-.19.2-.43.01-.01-.01-.02-.01-.02-.02zm-9.17 0c.14.24.36.39.68.31.65-.17 2.32-.39 3.02-.16.7.23.72.77.71 1.33-.01.55.26 1.08 1.06 1.41.74.3 1.44.63 1.44 1.07h-4.05c.05-.08.07-.19.06-.3-.04-.43.01-.66-.43-.71-.43-.05-1.44-.11-1.58.11-.09.16-.36.57-.25.9h-2.11c-.04-.1-.11-.2-.17-.27-.34-.35-1.43-.3-1.47-1.05-.03-.43.01-1.64.07-2.64zm-4.65 0c-.01.41-.04.84-.13 1.13-.16.53-.77 1.6-1.56 2.84l-1.68-.01c.35-.52.66-.99.89-1.35.83-1.28 1.09-1.77 1.19-2.61zm-7.75 0c-.11.37-.46.76-1.01.75-.38 0-1.38-.11-2.43-.16-1.05-.04-2.17-.01-2.79.26-1.23.53-1.1 1.35-.46 1.63.31.13.72.43.84.67.07.15.06.37-.86.29-.66-.06-1.5-.22-1.58-2-.01-.49.03-.96.1-1.44zm-13.59 0c-.1.11-.22.21-.33.31-1.27 1.18-2.51 2.4-3.71 3.65h-2.08c1.24-1.18 2.58-2.27 3.16-2.83.3-.29.73-.67 1.25-1.14z"/>
      <path d="M133.24 86.42c.16-.07.32-.07.51 0zm-32.86 0v-.02c.1-.22.38-.24.49.03zm39.14-7.93c.06.3.22.56.52.5.59-.11 1.67-.69 1.2.58-.25.69-.61 1.36-.85 1.92-.24.55-.4 1.04-.15 1.32.43.5.56 1.03 1.27.24.16-.18.3-.31.42-.41l.18-.14c.43-.36.53-.77.62-1.32.12-.67.22-.9.26-1.16.05-.27.04-.54-.05-1.27-.01-.09-.03-.17-.04-.26h2.89c.35.13.73.17.95 0h.95c0 .94-.66 2.07-.2 2.95.23.46.54.8.83.9.33.11.58-.08.66-.57.08-.48.04-.79-.01-1.04-.04-.24-.08-.42-.01-.67.09-.32.14-.37.36-.58.16-.17.31-.35.46-.52.15-.16.22-.32.24-.47h1.32c-.01.04-.01.07-.02.11-.13.94-.39 1.83-.78 3.27-.38 1.41-1.35 2.96-2.46 4.56l-12.48-.01c.14-.36.25-.75.31-1.12.05-.3.14-.75-.28-.78-.51-.05-.79.14-1.21.43-.18.12-.58.44-.76.51-.22.09-1.08-.75-.68-1.24.42-.52 2.25-.37 2.79-.95.29-.32.22-.53-.15-.63-.44-.13-1.22-.15-1.69-.18-.79-.06-1.2 0-1.5.14-.15.07-.28.15-.4.24-.5.37-.83.55-1.46.74-1.1.33-1.79.41-2.65 1.29-.07.07-.11.13-.11.13s-.45.93-.64 1.42h-3.62c.32-.7 2.26-.95 2.49-1.89.24-.97-.85-1.16-.83-2.13 0-.05 0-1.33.11-1.39.02.01.04.05.08.1.29.45.7 1.49 1.27 1.61.48.1 1.09.49 1.34-.22.22-.63.35-.82 1-1.38.65-.56 1.53-.95 2.41-1.18.22-.05.44-.09.64-.13.59-.11 1.08-.25 1.04-1.01-.01-.1-.01-.21-.02-.31zm-10.12 0c-.16.06-.3.1-.41.08-.1-.02-.21-.04-.32-.07zm-23.32 0c.05.11.14.22.3.31.62.32.68.16 1.11.12.33-.03.66-.17.79-.43h4.05c.01.04 0 .06 0 .1-.11.49-.49 1.07-1.73 1.17-1.24.1-2.9.01-3.81.33-.9.33-1.03.45-1 1.04.02.59.32.72.5.78.19.07.12.72-.4.59-.53-.14-.74-.14-1.02-.46-.27-.31-.29-1.18-.59-1.53-.3-.34-.81.15-.92-.35-.12-.5-.03-.84.26-.8.47.06.51-.47.35-.86zm-7 0c-.48.76-1.01 1.58-1.55 2.37-.7 1.05-1.4 2.05-1.92 2.81-.52.77-.89 1.3-.93 1.4-.02.04-.06.12-.11.21l-.2.35c-.13.25-.26.52-.35.8l-1.36-.01c.07-.34.2-.71.41-1.09.6-1.12 2.86-4.57 4.33-6.83zm-23.69 0c-.47.49-.93.98-1.39 1.47-.63.67-1.68 1.93.06 2.23 1.45.24 2.29.15 3.35.2.42.03.56.16.79.46.17.21.34.37.88.19.39-.13.71-.32 1.04-.56.22-.15.33-.2.49-.11.36.2.9.88.27 1.16-.7.32-1.78.73-2.35.72-.29-.01-.63-.05-.88-.04-.18 0-.38.19-.33.47.04.16.04.81.14 1.47.01.09.03.19.04.28l-1.11-.01c0-.24.01-.46.01-.69.03-1.42-.48-1.75-1.96-1.94-1.49-.2-2.45-.01-3.54-1.4-.5-.65.48-1.98 1.87-3.37.18-.18.36-.35.54-.53z"/>
    </g>
  </g>
</symbol>
</svg>
