<?xml version="1.0" encoding="UTF-8" standalone="no"?>
<!DOCTYPE svg PUBLIC "-//W3C//DTD SVG 1.1//EN" "http://www.w3.org/Graphics/SVG/1.1/DTD/svg11.dtd">
<svg version="1.1" xmlns="http://www.w3.org/2000/svg" xmlns:xlink="http://www.w3.org/1999/xlink">
    <symbol id="fau-logo" viewBox="0 0 273 115" >
	<title>Friedrich-Alexander-Universität Erlangen-Nürnberg</title>
	<g transform="matrix(1.25 0 0 -1.25 -73.5195 3365.164062)">
	  <path d="M266.49 2605.73 L210.33 2605.73 C213.78 2602.92 217.77 2600.8 222 2599.33 L254.78 2599.33 C259.03 2600.8 263.03 2602.92 266.49 2605.73 Z M110.21 2608.93 L134.55 2608.93 L134.59 2609.05 L134.52 2609.05 L136.53 2615.33 L112.63 2615.33 L110.21 2608.93 M109.09 2605.73 L106.67 2599.33 L131.47 2599.33 L133.58 2605.73 Z M58.82 2599.33 L82.06 2599.33 L82.06 2605.73 L58.82 2605.73 Z M58.82 2608.93 L82.06 2608.93 L82.06 2615.33 L58.82 2615.33 Z M58.82 2618.53 L82.06 2618.53 L82.06 2624.93 L58.82 2624.93 Z M58.82 2628.14 L82.06 2628.14 L82.06 2634.53 L58.82 2634.53 Z M58.82 2656.93 L82.06 2656.93 L82.06 2663.33 L58.82 2663.33 Z M58.82 2666.53 L82.06 2666.53 L82.06 2672.93 L58.82 2672.93 Z M58.82 2685.73 L129.85 2685.73 L129.85 2692.13 L58.82 2692.13 L58.82 2685.73 Z M58.82 2676.13 L129.85 2676.13 L129.85 2682.53 L58.82 2682.53 L58.82 2676.13 Z M151.29 2663.33 L130.33 2663.33 L127.9 2656.93 L149.32 2656.93 Z M138.52 2685.73 L167.45 2685.73 L164.97 2692.13 L140.95 2692.13 L138.52 2685.73 M134.98 2676.13 L171.07 2676.13 L168.59 2682.53 L137.4 2682.53 Z M154.25 2666.53 L174.69 2666.53 L172.21 2672.94 L133.87 2672.94 L131.44 2666.53 L152.19 2666.53 L153.09 2669.47 L153.35 2669.47 Z M157.12 2656.93 L178.31 2656.93 L175.83 2663.33 L155.15 2663.33 Z M159.99 2647.33 L181.93 2647.33 L179.45 2653.71 L158.02 2653.71 L159.99 2647.33 M162.85 2637.73 L185.55 2637.73 L183.07 2644.16 L160.89 2644.16 L162.85 2637.73 M117.28 2628.13 L189.17 2628.13 L186.69 2634.53 L119.71 2634.53 Z M113.74 2618.53 L192.79 2618.53 L190.31 2624.93 L116.17 2624.93 L113.74 2618.53 M172.09 2608.93 L196.41 2608.93 L193.93 2615.33 L169.95 2615.33 L172.09 2608.93 M200.03 2599.33 L197.55 2605.73 L172.99 2605.73 L175.1 2599.33 Z M199.05 2685.73 L222.29 2685.73 L222.29 2692.13 L199.05 2692.13 Z M199.05 2676.13 L222.29 2676.13 L222.29 2682.53 L199.05 2682.53 Z M199.05 2666.53 L222.29 2666.53 L222.29 2672.93 L199.05 2672.93 Z M199.05 2656.93 L222.29 2656.93 L222.29 2663.33 L199.05 2663.33 Z M199.05 2647.33 L222.29 2647.33 L222.29 2653.71 L199.05 2653.71 Z M199.05 2637.73 L222.29 2637.73 L222.29 2644.16 L199.05 2644.16 Z M199.24 2628.13 L222.73 2628.13 C222.43 2629.79 222.29 2631.56 222.29 2633.42 L222.29 2634.53 L199.05 2634.53 L199.05 2631.52 C199.05 2630.34 199.14 2629.23 199.24 2628.13 M201.31 2618.53 L227.82 2618.53 C225.75 2620.14 224.35 2622.33 223.47 2624.93 L199.62 2624.93 C200 2622.65 200.55 2620.5 201.31 2618.53 M274.2 2615.34 L202.63 2615.34 C203.88 2612.94 205.42 2610.82 207.17 2608.93 L269.66 2608.93 C271.41 2610.82 272.96 2612.94 274.2 2615.34 Z M277.22 2624.93 L253.35 2624.93 C252.47 2622.33 251.06 2620.14 248.99 2618.53 L275.52 2618.53 C276.28 2620.5 276.83 2622.65 277.22 2624.93 Z M254.54 2685.73 L277.78 2685.73 L277.78 2692.13 L254.54 2692.13 Z M254.54 2676.13 L277.78 2676.13 L277.78 2682.53 L254.54 2682.53 Z M254.54 2666.53 L277.78 2666.53 L277.78 2672.93 L254.54 2672.93 Z M254.54 2656.93 L277.78 2656.93 L277.78 2663.33 L254.54 2663.33 Z M254.54 2647.33 L277.78 2647.33 L277.78 2653.71 L254.54 2653.71 Z M254.54 2637.73 L277.78 2637.73 L277.78 2644.16 L254.54 2644.16 Z M277.78 2631.52 L277.78 2634.53 L254.54 2634.53 L254.54 2633.42 C254.54 2631.56 254.4 2629.79 254.11 2628.13 L277.6 2628.13 C277.69 2629.23 277.78 2630.34 277.78 2631.52 M58.82 2644.13 L58.82 2637.71 L143.58 2637.71 L145.55 2644.13 Z M58.82 2653.73 L58.82 2647.35 L146.45 2647.35 L148.42 2653.73 L58.82 2653.73"/>
	</g>
    </symbol>
</svg>