<svg width="216" height="42" xmlns="http://www.w3.org/2000/svg"><path fill="#0b3e75" d="M210.864 42.328c-.29.13-.58.19-.88.19-.47 0-.9-.08-1.27-.25a2.6 2.6 0 01-.95-.671c-.26-.29-.46-.631-.59-1.012-.139-.39-.209-.81-.209-1.251 0-.461.07-.892.21-1.282.13-.39.33-.731.59-1.032.26-.29.57-.52.95-.69.37-.161.8-.241 1.27-.241.31 0 .62.04.91.14.3.09.569.23.799.41.24.19.44.411.59.682.16.27.25.58.29.93h-1.29c-.08-.34-.24-.6-.47-.77-.23-.17-.51-.26-.83-.26-.31 0-.56.06-.78.18-.21.11-.38.27-.51.47-.13.2-.23.421-.29.671-.06.26-.09.521-.09.792 0 .26.03.51.09.75.06.241.16.461.29.662.13.19.3.35.51.47.22.11.47.17.78.17.45 0 .79-.11 1.03-.34.25-.22.39-.55.43-.981h-1.36v-1.012h2.58v3.325h-.86l-.14-.691c-.24.3-.5.52-.8.64zm-6.708-6.099c.28 0 .53.05.75.13.22.09.41.21.56.37.16.15.28.331.37.542.08.2.12.42.12.66 0 .361-.08.671-.23.932-.15.27-.4.47-.74.61v.01c.16.05.3.12.41.211.11.1.2.21.27.34.07.13.12.27.15.421.03.16.05.31.06.47.01.091.01.211.02.341 0 .13.02.27.03.41.01.131.04.261.07.391.03.12.08.22.14.31h-1.35c-.07-.19-.12-.43-.14-.7-.02-.27-.04-.52-.08-.771-.04-.32-.14-.561-.29-.711-.15-.14-.39-.22-.73-.22h-1.35v2.403h-1.35v-6.149zm-.48 2.784c.31 0 .54-.07.7-.21.15-.13.23-.36.23-.671 0-.3-.08-.511-.23-.651-.16-.13-.39-.2-.7-.2h-1.48v1.732zm-4.24-2.784v1.142h-3.239v1.312h2.98v1.051h-2.98v1.512h3.31v1.132h-4.66v-6.149zm-8.058 5.097c.13 0 .26-.01.38-.04.12-.02.22-.07.31-.13.1-.06.17-.14.22-.24.06-.1.09-.24.09-.4 0-.311-.09-.542-.27-.672-.18-.14-.41-.2-.71-.2h-1.47v1.682zm.09-5.097c.3 0 .56.03.8.08s.45.14.62.25c.17.12.31.28.4.471.1.2.14.44.14.721 0 .31-.07.571-.21.781-.14.2-.35.37-.62.511.38.1.66.29.85.57.18.271.28.602.28.982 0 .31-.06.581-.18.812-.13.22-.29.41-.49.55-.2.15-.44.25-.7.32-.26.07-.53.1-.8.1h-2.98V36.23zm-.17 2.494c.24 0 .44-.06.59-.17.16-.12.24-.311.24-.561 0-.15-.03-.26-.08-.361a.53.53 0 00-.21-.21.834.834 0 00-.29-.11c-.12-.02-.23-.03-.35-.03h-1.27v1.442zm-8.108-2.494l2.56 4.126h.02v-4.126h1.26v6.149h-1.35l-2.55-4.116h-.02v4.116h-1.26v-6.149zm-4.529 0c.27 0 .52.05.74.13.22.09.41.21.57.37.16.15.28.331.36.542.08.2.12.42.12.66 0 .361-.07.671-.22.932-.16.27-.4.47-.75.61v.01c.17.05.31.12.42.211.1.1.19.21.26.34.07.13.12.27.15.421.03.16.06.31.07.47 0 .091.01.211.01.341l.03.41c.02.131.04.261.07.391.03.12.08.22.15.31h-1.36c-.07-.19-.12-.43-.13-.7-.02-.27-.05-.52-.08-.771-.05-.32-.14-.561-.29-.711-.15-.14-.4-.22-.73-.22h-1.35v2.403h-1.36v-6.149zm-.48 2.784c.31 0 .54-.07.69-.21.16-.13.24-.36.24-.671 0-.3-.08-.511-.24-.651-.15-.13-.38-.2-.69-.2h-1.48v1.732zm-4.919 2.894c-.46.41-1.1.611-1.92.611-.83 0-1.479-.2-1.929-.6-.46-.401-.69-1.022-.69-1.863v-3.826h1.35v3.826c0 .17.02.33.05.49.02.16.09.3.18.43.09.121.22.221.38.301.16.07.38.11.66.11.48 0 .81-.1 1-.32.18-.21.27-.55.27-1.011v-3.826h1.35v3.826c0 .83-.23 1.452-.7 1.852zm-.45-6.369h-1.16v-1.001h1.16zm-1.77 0h-1.159v-1.001h1.16zm-7.638.691l2.56 4.126h.02v-4.126h1.27v6.149h-1.36l-2.55-4.116h-.02v4.116h-1.26v-6.149zm-2.889 4.326h-2.59v-1.051h2.59zm-7.968-4.326l2.57 4.126h.01v-4.126h1.269v6.149h-1.35l-2.56-4.116h-.01v4.116h-1.269v-6.149zm-2.75 0v1.142h-3.239v1.312h2.98v1.051h-2.98v1.512h3.31v1.132h-4.66v-6.149zm-7.708 6.099c-.29.13-.59.19-.89.19-.47 0-.89-.08-1.27-.25-.37-.16-.69-.38-.95-.671-.26-.29-.45-.631-.59-1.012-.14-.39-.21-.81-.21-1.251 0-.461.07-.892.21-1.282.14-.39.33-.731.59-1.032.26-.29.58-.52.95-.69.38-.161.8-.241 1.27-.241.32 0 .62.04.92.14.29.09.56.23.8.41.24.19.43.411.59.682.15.27.25.58.28.93h-1.29c-.08-.34-.23-.6-.46-.77-.23-.17-.51-.26-.84-.26-.3 0-.56.06-.77.18-.21.11-.39.27-.52.47-.13.2-.23.421-.29.671-.06.26-.09.521-.09.792 0 .26.03.51.09.75.07.241.16.461.29.662.13.19.31.35.52.47.21.11.47.17.77.17.45 0 .8-.11 1.04-.34.24-.22.38-.55.42-.981h-1.35v-1.012h2.58v3.325h-.86l-.14-.691c-.24.3-.51.52-.8.64zm-8.878-6.099l2.57 4.126h.01v-4.126h1.27v6.149h-1.35l-2.56-4.116h-.01v4.116h-1.27v-6.149zm-4.4 0l2.3 6.149h-1.4l-.47-1.372h-2.299l-.48 1.372h-1.36l2.33-6.149zm.08 3.775l-.779-2.263h-.01l-.8 2.263zm-7.338-3.775v5.017h2.99v1.132h-4.34v-6.149zm-4.369 0c.28 0 .53.05.75.13.22.09.41.21.57.37.15.15.27.331.36.542.08.2.12.42.12.66 0 .361-.08.671-.23.932-.15.27-.4.47-.74.61v.01c.17.05.3.12.41.211.11.1.2.21.27.34.07.13.12.27.15.421.03.16.05.31.06.47.01.091.01.211.02.341l.03.41c.01.131.04.261.07.391.03.12.08.22.14.31h-1.35c-.07-.19-.12-.43-.14-.7-.02-.27-.04-.52-.07-.771-.05-.32-.15-.561-.3-.711-.15-.14-.39-.22-.73-.22h-1.35v2.403h-1.349v-6.149zm-.48 2.784c.31 0 .54-.07.7-.21.15-.13.23-.36.23-.671 0-.3-.08-.511-.23-.651-.16-.13-.39-.2-.7-.2h-1.48v1.732zm-4.149-2.784v1.142h-3.239v1.312h2.97v1.051h-2.97v1.512h3.31v1.132h-4.66v-6.149zM161.865 28.067v-1.142h5.029v1.142h-1.84v5.007h-1.35v-5.007zm-2.17-1.142l2.3 6.15h-1.4l-.46-1.363h-2.3l-.48 1.362h-1.359l2.32-6.149zm.08 3.776l-.77-2.253h-.02l-.8 2.253zm.68-4.457h-1.16v-1.011h1.16zm-1.77 0h-1.16v-1.011h1.16zm-7.628 1.823v-1.142h5.029v1.142h-1.84v5.007h-1.35v-5.007zm-1.08 5.007h-1.35v-6.149h1.35zm-6.278-1.512c.07.14.17.26.3.35.12.09.27.15.43.201.17.04.34.06.52.06.12 0 .25-.01.39-.03.13-.02.26-.06.38-.12.12-.05.22-.13.3-.23.08-.1.12-.23.12-.381a.56.56 0 00-.15-.41c-.11-.1-.25-.19-.42-.261-.17-.07-.37-.13-.59-.18-.21-.05-.43-.11-.66-.17-.23-.06-.45-.13-.67-.21-.22-.08-.41-.191-.58-.321-.18-.13-.32-.3-.42-.501-.11-.19-.16-.43-.16-.711 0-.32.07-.59.2-.831.14-.23.31-.42.53-.581.22-.15.46-.27.74-.34.27-.08.55-.11.82-.11.33 0 .63.03.93.1.29.08.56.19.789.35.23.16.41.37.54.62.14.251.2.552.2.902h-1.3c-.02-.18-.05-.33-.12-.45a.643.643 0 00-.26-.28c-.11-.071-.23-.121-.38-.151a2.185 2.185 0 00-.78-.01.788.788 0 00-.52.34c-.06.08-.08.19-.08.32 0 .121.02.221.06.301.05.07.14.14.27.2.14.07.32.13.56.19.24.06.55.151.94.241.11.03.27.07.47.13.21.06.41.15.61.29.2.13.37.301.52.522.15.23.22.51.22.85 0 .281-.05.542-.16.782-.11.25-.27.45-.49.63-.21.171-.48.311-.8.411-.32.09-.69.14-1.1.14-.34 0-.67-.04-.99-.12-.31-.09-.6-.22-.84-.39-.24-.18-.44-.41-.58-.681-.14-.28-.21-.611-.21-.982h1.31c0 .2.04.381.11.521zm-4.18-4.637a2 2 0 01.75.14c.22.09.4.211.56.361.16.16.28.34.36.541.09.2.13.42.13.66 0 .361-.08.672-.23.932-.15.27-.4.471-.74.611v.01c.16.05.3.12.41.21.11.1.2.21.27.341.06.13.11.27.15.43.03.15.05.311.06.461.01.1.01.21.02.34 0 .141.01.271.03.411.01.14.03.27.07.39.03.121.07.231.14.311h-1.35c-.08-.19-.12-.42-.14-.69-.02-.271-.04-.531-.08-.782-.04-.32-.14-.55-.29-.7-.15-.151-.39-.231-.73-.231h-1.349v2.403h-1.35v-6.149zm-.48 2.785c.31 0 .54-.07.7-.21.15-.131.23-.361.23-.672 0-.29-.08-.51-.23-.64-.16-.14-.39-.211-.7-.211h-1.479v1.733zm-4.148-2.785v1.142h-3.24v1.312h2.97v1.052h-2.97v1.512h3.31v1.131h-4.66v-6.149zm-9.148 6.15l-1.99-6.15h1.39l1.36 4.327h.02l1.379-4.327h1.4l-2.04 6.15zm-2.96 0h-1.35v-6.15h1.35zm-6.698-6.15l2.559 4.126h.02v-4.126h1.26v6.15h-1.35l-2.55-4.117h-.02v4.116h-1.27v-6.149zm-3.56 5.689c-.47.4-1.11.6-1.93.6-.829 0-1.479-.2-1.929-.6-.46-.4-.69-1.022-.69-1.863v-3.826h1.36v3.826c0 .17.01.33.04.49.03.161.09.301.18.431.09.12.22.22.38.3.17.08.39.111.66.111.48 0 .81-.1 1-.32.18-.21.27-.551.27-1.012v-3.826h1.35v3.826c0 .831-.23 1.452-.69 1.863zM214.533 17.512c.28 0 .52.04.74.13.23.09.41.21.57.37.16.15.28.331.36.541.09.2.13.42.13.661 0 .36-.08.671-.23.932-.15.27-.4.47-.74.61v.01c.16.05.3.12.41.21.11.1.2.211.27.341.06.13.11.27.14.42.04.161.06.311.07.472.01.1.01.21.02.34 0 .13.01.27.03.41.01.14.03.271.07.391.03.12.07.23.14.31h-1.35c-.08-.19-.12-.42-.14-.69-.02-.27-.04-.531-.08-.781-.04-.32-.14-.551-.29-.701-.15-.15-.39-.23-.73-.23h-1.35v2.403h-1.349v-6.15zm-.48 2.784c.31 0 .54-.07.7-.21.15-.14.23-.361.23-.671 0-.3-.08-.511-.23-.651-.16-.13-.39-.2-.7-.2h-1.48v1.732zm-4.109-2.784v1.141h-3.239v1.312h2.97v1.052h-2.97v1.512h3.31v1.132h-4.66v-6.15zm-8.488 0c.4 0 .77.06 1.11.19.34.13.63.31.88.57.25.251.45.562.59.942.14.38.21.831.21 1.342 0 .44-.06.861-.17 1.232-.12.38-.29.711-.52.991-.24.27-.53.491-.87.641-.35.16-.76.24-1.23.24h-2.65v-6.148zm-.09 5.017c.19 0 .38-.04.56-.1.19-.06.35-.17.49-.31.15-.15.26-.341.35-.571.08-.24.13-.531.13-.862 0-.31-.03-.59-.09-.84-.06-.251-.16-.472-.3-.642-.14-.18-.32-.32-.55-.41-.22-.1-.5-.14-.83-.14h-.97v3.875zm-7.848-5.017l2.57 4.126h.01v-4.126h1.269v6.149h-1.35l-2.56-4.116h-.01v4.116h-1.269v-6.15zm-4.44 0l2.3 6.149h-1.4l-.47-1.372h-2.289l-.48 1.372h-1.36l2.32-6.15zm.08 3.775l-.769-2.263h-.02l-.8 2.263zm-9.947-3.775h1.57l1.2 1.963 1.25-1.963h1.479l-1.97 2.934 2.14 3.215h-1.61l-1.34-2.123-1.37 2.123h-1.509l2.14-3.215zm-1.04 0v1.141h-3.24v1.312h2.97v1.052h-2.97v1.512h3.31v1.132h-4.659v-6.15zm-8.658 0v5.017h2.99v1.132h-4.34v-6.15zm-4.579 0l2.29 6.149h-1.4l-.46-1.372h-2.3l-.48 1.372h-1.36l2.32-6.15zm.08 3.775l-.78-2.263h-.02l-.8 2.263zm-4.439.551h-2.59v-1.051h2.59zm-7.948-4.326v2.363h2.48v-2.363h1.349v6.149h-1.35v-2.654h-2.48v2.654h-1.349v-6.15zm-4.1 1.642c-.08-.13-.19-.24-.31-.34-.12-.1-.25-.17-.4-.23-.15-.05-.31-.08-.48-.08-.31 0-.559.06-.769.18-.22.11-.39.27-.52.47-.13.2-.23.42-.29.671-.06.26-.09.52-.09.791 0 .25.03.511.09.751s.16.461.29.661c.13.19.3.35.52.471.21.11.47.17.77.17.41 0 .73-.12.97-.38.23-.25.37-.581.42-.992h1.31c-.03.38-.12.731-.27 1.042-.14.31-.33.57-.56.79-.24.221-.52.381-.83.502-.31.11-.66.17-1.04.17-.47 0-.89-.08-1.27-.25-.37-.16-.69-.381-.95-.671-.26-.29-.46-.621-.59-1.012-.14-.39-.21-.811-.21-1.252 0-.46.07-.891.21-1.282.13-.39.33-.73.59-1.031.26-.29.58-.52.95-.691.38-.16.8-.25 1.27-.25.34 0 .66.05.96.15.3.1.57.24.81.43.24.18.43.411.59.691.15.27.25.591.29.942h-1.31c-.02-.15-.07-.29-.15-.42zm-5.388 4.507h-1.36v-6.15h1.36zm-4.51-6.15c.27 0 .52.04.74.13.22.091.41.211.57.371.15.15.27.331.36.541.08.2.12.42.12.661 0 .36-.07.671-.23.932-.15.27-.4.47-.74.61v.01c.17.05.3.12.41.21.11.1.2.211.27.341.07.13.12.27.15.42.03.161.05.311.06.472.01.1.02.21.02.34l.03.41c.02.14.04.271.07.391.03.12.08.23.14.31h-1.35c-.07-.19-.12-.42-.14-.69-.01-.27-.04-.531-.07-.781-.05-.32-.15-.551-.3-.701-.14-.15-.39-.23-.73-.23h-1.349v2.403h-1.35v-6.15zm-.49 2.785c.31 0 .55-.07.7-.21.16-.14.23-.361.23-.671 0-.3-.07-.511-.23-.651-.15-.13-.39-.2-.7-.2h-1.469v1.732zm-6.708-2.784c.4 0 .77.06 1.11.19.34.13.63.31.88.57.25.251.45.562.59.942.14.38.21.831.21 1.342 0 .44-.06.861-.17 1.232-.12.38-.29.711-.52.991-.24.27-.52.491-.87.641-.35.16-.76.24-1.23.24h-2.65v-6.148zm-.09 5.017c.19 0 .38-.04.57-.1.18-.06.34-.17.49-.31.14-.15.25-.341.34-.571.09-.24.13-.531.13-.862 0-.31-.03-.59-.09-.84-.06-.251-.16-.472-.3-.642-.14-.18-.32-.32-.54-.41-.23-.1-.51-.14-.84-.14h-.97v3.875zm-3.879-5.017v1.141h-3.24v1.312h2.98v1.052h-2.98v1.512h3.31v1.132h-4.659v-6.15zm-6.139 6.149h-1.35v-6.15h1.35zm-4.639-6.15c.28 0 .53.04.75.13.22.091.41.211.56.371.16.15.28.331.37.541.08.2.12.42.12.661 0 .36-.08.671-.23.932-.15.27-.4.47-.74.61v.01c.16.05.3.12.41.21.11.1.2.211.27.341.07.13.12.27.15.42.03.161.05.311.06.472.01.1.01.21.02.34l.03.41c.01.14.04.271.07.391.03.12.08.23.14.31h-1.35c-.07-.19-.12-.42-.14-.69-.02-.27-.04-.531-.08-.781-.04-.32-.14-.551-.29-.701-.15-.15-.39-.23-.73-.23h-1.35v2.403h-1.349v-6.15zm-.48 2.785c.31 0 .54-.07.7-.21.15-.14.23-.361.23-.671 0-.3-.08-.511-.23-.651-.16-.13-.39-.2-.7-.2h-1.48v1.732zm-3.919-2.784v1.141h-2.969v1.412h2.57v1.052h-2.57v2.544h-1.35v-6.15z"/><g><path fill="#004171" d="M0 2.896h32.137V0H0zm93.975 36.209H68.554c1.565 1.267 3.375 2.226 5.285 2.887h14.833c1.918-.66 3.738-1.62 5.303-2.887zM23.25 37.648h11.014l.018-.054h-.027l.914-2.833H24.344zm-.497 1.457l-1.104 2.887H32.87l.959-2.887zM0 41.992h10.516v-2.896H0zm0-4.344h10.516v-2.896H0zm0-4.344h10.516v-2.896H0zm0-4.344h10.516v-2.896H0zm0-13.032h10.516v-2.896H0zm0-4.344h10.516V8.688H0zM0 7.24h32.137V4.344H0zm41.838 5.792h-9.484l-1.095 2.896h9.692zM36.064 2.896H49.16L48.037 0H37.16zM34.462 7.24h16.336l-1.132-2.896H35.557zm8.716 4.344h9.258l-1.123-2.896H33.956l-1.095 2.896h9.384l.408-1.321h.117zm1.303 4.344h9.593l-1.122-2.896h-9.358zm1.294 4.344h9.937l-1.122-2.878h-9.702zm1.303 4.344H57.35l-1.131-2.905H46.182zM26.453 28.96h32.535l-1.122-2.887H27.557zm-1.602 4.344h35.775l-1.122-2.887H25.946zm26.408 4.344h11.005l-1.122-2.887h-10.86zm12.643 4.344l-1.122-2.887H51.666l.95 2.887zM63.45 2.896h10.516V0H63.45zm0 4.344h10.516V4.344H63.45zm0 4.344h10.516V8.688H63.45zm0 4.344h10.516v-2.896H63.45zm0 4.344h10.516v-2.878H63.45zm0 4.344h10.516v-2.905H63.45zm.09 4.344h10.625a14.283 14.283 0 01-.19-2.39v-.497H63.45v1.358c0 .533.045 1.031.09 1.529zm.941 4.344h11.991c-.932-.724-1.565-1.71-1.963-2.887H63.712c.172 1.032.416 2 .77 2.887zm32.978 1.448H65.07a13.47 13.47 0 002.055 2.896h28.281a12.87 12.87 0 002.054-2.896zm1.367-4.335H88.029c-.398 1.177-1.04 2.163-1.982 2.887h12.01c.344-.887.597-1.855.769-2.887zM88.563 2.896H99.08V0H88.563zm0 4.344H99.08V4.344H88.563zm0 4.344H99.08V8.688H88.563zm0 4.344H99.08v-2.896H88.563zm0 4.344H99.08v-2.878H88.563zm0 4.344H99.08v-2.905H88.563zm10.516 2.815v-1.358H88.563v.498c0 .841-.063 1.647-.199 2.389h10.634c.045-.498.081-.996.081-1.53zM0 21.72v2.914h38.354l.896-2.914zm0-4.344v2.887h39.657l.887-2.887z"/></g></svg>