<svg width="216" height="42" xmlns="http://www.w3.org/2000/svg">
  <g id="Einrichtungsname" transform="matrix(.99978 0 0 1.00146 -24.625 -28.375)">
    <path fill="#0b3e75" d="M235.54 70.6c-.29.13-.58.19-.88.19-.47 0-.9-.08-1.27-.25a2.6 2.6 0 01-.95-.67c-.26-.29-.46-.63-.59-1.01-.14-.39-.21-.81-.21-1.25 0-.46.07-.89.21-1.28.13-.39.33-.73.59-1.03.26-.29.57-.52.95-.69.37-.16.8-.24 1.27-.24.31 0 .62.04.91.14.3.09.57.23.8.41.24.19.44.41.59.68.16.27.25.58.29.93h-1.29c-.08-.34-.24-.6-.47-.77-.23-.17-.51-.26-.83-.26-.31 0-.56.06-.78.18-.21.11-.38.27-.51.47-.13.2-.23.42-.29.67-.06.26-.09.52-.09.79 0 .26.03.51.09.75s.16.46.29.66c.13.19.3.35.51.47.22.11.47.17.78.17.45 0 .79-.11 1.03-.34.25-.22.39-.55.43-.98h-1.36v-1.01h2.58v3.32h-.86l-.14-.69c-.24.3-.5.52-.8.64zm-6.71-6.09c.28 0 .53.05.75.13.22.09.41.21.56.37.16.15.28.33.37.54.08.2.12.42.12.66 0 .36-.08.67-.23.93-.15.27-.4.47-.74.61v.01c.16.05.3.12.41.21.11.1.2.21.27.34.07.13.12.27.15.42.03.16.05.31.06.47.01.09.01.21.02.34 0 .13.02.27.03.41.01.13.04.26.07.39.03.12.08.22.14.31h-1.35c-.07-.19-.12-.43-.14-.7-.02-.27-.04-.52-.08-.77-.04-.32-.14-.56-.29-.71-.15-.14-.39-.22-.73-.22h-1.35v2.4h-1.35v-6.14zm-.48 2.78c.31 0 .54-.07.7-.21.15-.13.23-.36.23-.67 0-.3-.08-.51-.23-.65-.16-.13-.39-.2-.7-.2h-1.48v1.73zm-4.24-2.78v1.14h-3.24v1.31h2.98v1.05h-2.98v1.51h3.31v1.13h-4.66v-6.14zm-8.06 5.09c.13 0 .26-.01.38-.04.12-.02.22-.07.31-.13.1-.06.17-.14.22-.24.06-.1.09-.24.09-.4 0-.31-.09-.54-.27-.67-.18-.14-.41-.2-.71-.2h-1.47v1.68zm.09-5.09c.3 0 .56.03.8.08s.45.14.62.25c.17.12.31.28.4.47.1.2.14.44.14.72 0 .31-.07.57-.21.78-.14.2-.35.37-.62.51.38.1.66.29.85.57.18.27.28.6.28.98 0 .31-.06.58-.18.81-.13.22-.29.41-.49.55-.2.15-.44.25-.7.32-.26.07-.53.1-.8.1h-2.98v-6.14zm-.17 2.49c.24 0 .44-.06.59-.17.16-.12.24-.31.24-.56 0-.15-.03-.26-.08-.36a.53.53 0 00-.21-.21.835.835 0 00-.29-.11c-.12-.02-.23-.03-.35-.03h-1.27V67zm-8.11-2.49l2.56 4.12h.02v-4.12h1.26v6.14h-1.35l-2.55-4.11h-.02v4.11h-1.26v-6.14zm-4.53 0c.27 0 .52.05.74.13.22.09.41.21.57.37.16.15.28.33.36.54.08.2.12.42.12.66 0 .36-.07.67-.22.93-.16.27-.4.47-.75.61v.01c.17.05.31.12.42.21.1.1.19.21.26.34.07.13.12.27.15.42.03.16.06.31.07.47 0 .09.01.21.01.34l.03.41c.02.13.04.26.07.39.03.12.08.22.15.31h-1.36c-.07-.19-.12-.43-.13-.7-.02-.27-.05-.52-.08-.77-.05-.32-.14-.56-.29-.71-.15-.14-.4-.22-.73-.22h-1.35v2.4h-1.36v-6.14zm-.48 2.78c.31 0 .54-.07.69-.21.16-.13.24-.36.24-.67 0-.3-.08-.51-.24-.65-.15-.13-.38-.2-.69-.2h-1.48v1.73zm-4.92 2.89c-.46.41-1.1.61-1.92.61-.83 0-1.48-.2-1.93-.6-.46-.4-.69-1.02-.69-1.86v-3.82h1.35v3.82c0 .17.02.33.05.49.02.16.09.3.18.43.09.12.22.22.38.3.16.07.38.11.66.11.48 0 .81-.1 1-.32.18-.21.27-.55.27-1.01v-3.82h1.35v3.82c0 .83-.23 1.45-.7 1.85zm-.45-6.36h-1.16v-1h1.16zm-1.77 0h-1.16v-1h1.16zm-7.64.69l2.56 4.12h.02v-4.12h1.27v6.14h-1.36l-2.55-4.11h-.02v4.11h-1.26v-6.14zm-2.89 4.32h-2.59v-1.05h2.59zm-7.97-4.32l2.57 4.12h.01v-4.12h1.27v6.14h-1.35l-2.56-4.11h-.01v4.11h-1.27v-6.14zm-2.75 0v1.14h-3.24v1.31h2.98v1.05h-2.98v1.51h3.31v1.13h-4.66v-6.14zm-7.71 6.09c-.29.13-.59.19-.89.19-.47 0-.89-.08-1.27-.25-.37-.16-.69-.38-.95-.67-.26-.29-.45-.63-.59-1.01-.14-.39-.21-.81-.21-1.25 0-.46.07-.89.21-1.28.14-.39.33-.73.59-1.03.26-.29.58-.52.95-.69.38-.16.8-.24 1.27-.24.32 0 .62.04.92.14.29.09.56.23.8.41.24.19.43.41.59.68.15.27.25.58.28.93h-1.29c-.08-.34-.23-.6-.46-.77-.23-.17-.51-.26-.84-.26-.3 0-.56.06-.77.18-.21.11-.39.27-.52.47-.13.2-.23.42-.29.67-.06.26-.09.52-.09.79 0 .26.03.51.09.75.07.24.16.46.29.66.13.19.31.35.52.47.21.11.47.17.77.17.45 0 .8-.11 1.04-.34.24-.22.38-.55.42-.98h-1.35v-1.01h2.58v3.32h-.86l-.14-.69c-.24.3-.51.52-.8.64zm-8.88-6.09l2.57 4.12h.01v-4.12h1.27v6.14h-1.35l-2.56-4.11h-.01v4.11h-1.27v-6.14zm-4.4 0l2.3 6.14h-1.4l-.47-1.37h-2.3l-.48 1.37h-1.36l2.33-6.14zm.08 3.77l-.78-2.26h-.01l-.8 2.26zm-7.34-3.77v5.01h2.99v1.13h-4.34v-6.14zm-4.37 0c.28 0 .53.05.75.13.22.09.41.21.57.37.15.15.27.33.36.54.08.2.12.42.12.66 0 .36-.08.67-.23.93-.15.27-.4.47-.74.61v.01c.17.05.3.12.41.21.11.1.2.21.27.34.07.13.12.27.15.42.03.16.05.31.06.47.01.09.01.21.02.34l.03.41c.01.13.04.26.07.39.03.12.08.22.14.31h-1.35c-.07-.19-.12-.43-.14-.7-.02-.27-.04-.52-.07-.77-.05-.32-.15-.56-.3-.71-.15-.14-.39-.22-.73-.22h-1.35v2.4h-1.35v-6.14zm-.48 2.78c.31 0 .54-.07.7-.21.15-.13.23-.36.23-.67 0-.3-.08-.51-.23-.65-.16-.13-.39-.2-.7-.2h-1.48v1.73zm-4.15-2.78v1.14h-3.24v1.31h2.97v1.05h-2.97v1.51h3.31v1.13h-4.66v-6.14z" id="Erlangen-Nuernberg"/>
    <path fill="#0b3e75" d="M186.53 56.36v-1.14h5.03v1.14h-1.84v5h-1.35v-5zm-2.17-1.14l2.3 6.14h-1.4L184.8 60h-2.3l-.48 1.36h-1.36l2.32-6.14zm.08 3.77l-.77-2.25h-.02l-.8 2.25zm.68-4.45h-1.16v-1.01h1.16zm-1.77 0h-1.16v-1.01h1.16zm-7.63 1.82v-1.14h5.03v1.14h-1.84v5h-1.35v-5zm-1.08 5h-1.35v-6.14h1.35zm-6.28-1.51c.07.14.17.26.3.35.12.09.27.15.43.2.17.04.34.06.52.06.12 0 .25-.01.39-.03.13-.02.26-.06.38-.12.12-.05.22-.13.3-.23.08-.1.12-.23.12-.38a.56.56 0 00-.15-.41c-.11-.1-.25-.19-.42-.26-.17-.07-.37-.13-.59-.18-.21-.05-.43-.11-.66-.17-.23-.06-.45-.13-.67-.21-.22-.08-.41-.19-.58-.32-.18-.13-.32-.3-.42-.5-.11-.19-.16-.43-.16-.71 0-.32.07-.59.2-.83.14-.23.31-.42.53-.58.22-.15.46-.27.74-.34.27-.08.55-.11.82-.11.33 0 .63.03.93.1.29.08.56.19.79.35.23.16.41.37.54.62.14.25.2.55.2.9h-1.3c-.02-.18-.05-.33-.12-.45a.643.643 0 00-.26-.28 1.08 1.08 0 00-.38-.15 2.19 2.19 0 00-.78-.01.79.79 0 00-.52.34c-.06.08-.08.19-.08.32 0 .12.02.22.06.3.05.07.14.14.27.2.14.07.32.13.56.19.24.06.55.15.94.24.11.03.27.07.47.13a2 2 0 01.61.29c.2.13.37.3.52.52.15.23.22.51.22.85 0 .28-.05.54-.16.78-.11.25-.27.45-.49.63-.21.17-.48.31-.8.41-.32.09-.69.14-1.1.14-.34 0-.67-.04-.99-.12-.31-.09-.6-.22-.84-.39-.24-.18-.44-.41-.58-.68-.14-.28-.21-.61-.21-.98h1.31c0 .2.04.38.11.52zm-4.18-4.63c.28 0 .52.05.75.14.22.09.4.21.56.36.16.16.28.34.36.54.09.2.13.42.13.66 0 .36-.08.67-.23.93-.15.27-.4.47-.74.61v.01c.16.05.3.12.41.21.11.1.2.21.27.34.06.13.11.27.15.43.03.15.05.31.06.46.01.1.01.21.02.34 0 .14.01.27.03.41.01.14.03.27.07.39.03.12.07.23.14.31h-1.35c-.08-.19-.12-.42-.14-.69-.02-.27-.04-.53-.08-.78-.04-.32-.14-.55-.29-.7-.15-.15-.39-.23-.73-.23h-1.35v2.4h-1.35v-6.14zM163.7 58c.31 0 .54-.07.7-.21.15-.13.23-.36.23-.67 0-.29-.08-.51-.23-.64-.16-.14-.39-.21-.7-.21h-1.48V58zm-4.15-2.78v1.14h-3.24v1.31h2.97v1.05h-2.97v1.51h3.31v1.13h-4.66v-6.14zm-9.15 6.14l-1.99-6.14h1.39l1.36 4.32h.02l1.38-4.32h1.4l-2.04 6.14zm-2.96 0h-1.35v-6.14h1.35zm-6.7-6.14l2.56 4.12h.02v-4.12h1.26v6.14h-1.35l-2.55-4.11h-.02v4.11h-1.27v-6.14zm-3.56 5.68c-.47.4-1.11.6-1.93.6-.83 0-1.48-.2-1.93-.6-.46-.4-.69-1.02-.69-1.86v-3.82h1.36v3.82c0 .17.01.33.04.49.03.16.09.3.18.43.09.12.22.22.38.3.17.08.39.11.66.11.48 0 .81-.1 1-.32.18-.21.27-.55.27-1.01v-3.82h1.35v3.82c0 .83-.23 1.45-.69 1.86z" id="Universitaet"/>
    <path fill="#0b3e75" d="M239.21 45.82c.28 0 .52.04.74.13.23.09.41.21.57.37.16.15.28.33.36.54.09.2.13.42.13.66 0 .36-.08.67-.23.93-.15.27-.4.47-.74.61v.01c.16.05.3.12.41.21.11.1.2.21.27.34.06.13.11.27.14.42.04.16.06.31.07.47.01.1.01.21.02.34 0 .13.01.27.03.41.01.14.03.27.07.39.03.12.07.23.14.31h-1.35c-.08-.19-.12-.42-.14-.69-.02-.27-.04-.53-.08-.78-.04-.32-.14-.55-.29-.7-.15-.15-.39-.23-.73-.23h-1.35v2.4h-1.35v-6.14zm-.48 2.78c.31 0 .54-.07.7-.21.15-.14.23-.36.23-.67 0-.3-.08-.51-.23-.65-.16-.13-.39-.2-.7-.2h-1.48v1.73zm-4.11-2.78v1.14h-3.24v1.31h2.97v1.05h-2.97v1.51h3.31v1.13h-4.66v-6.14zm-8.49 0c.4 0 .77.06 1.11.19.34.13.63.31.88.57.25.25.45.56.59.94.14.38.21.83.21 1.34 0 .44-.06.86-.17 1.23-.12.38-.29.71-.52.99-.24.27-.53.49-.87.64-.35.16-.76.24-1.23.24h-2.65v-6.14zm-.09 5.01c.19 0 .38-.04.56-.1.19-.06.35-.17.49-.31.15-.15.26-.34.35-.57.08-.24.13-.53.13-.86 0-.31-.03-.59-.09-.84s-.16-.47-.3-.64c-.14-.18-.32-.32-.55-.41-.22-.1-.5-.14-.83-.14h-.97v3.87zm-7.85-5.01l2.57 4.12h.01v-4.12h1.27v6.14h-1.35l-2.56-4.11h-.01v4.11h-1.27v-6.14zm-4.44 0l2.3 6.14h-1.4l-.47-1.37h-2.29l-.48 1.37h-1.36l2.32-6.14zm.08 3.77l-.77-2.26h-.02l-.8 2.26zm-9.95-3.77h1.57l1.2 1.96 1.25-1.96h1.48l-1.97 2.93 2.14 3.21h-1.61l-1.34-2.12-1.37 2.12h-1.51l2.14-3.21zm-1.04 0v1.14h-3.24v1.31h2.97v1.05h-2.97v1.51h3.31v1.13h-4.66v-6.14zm-8.66 0v5.01h2.99v1.13h-4.34v-6.14zm-4.58 0l2.29 6.14h-1.4l-.46-1.37h-2.3l-.48 1.37h-1.36l2.32-6.14zm.08 3.77l-.78-2.26h-.02l-.8 2.26zm-4.44.55h-2.59v-1.05h2.59zm-7.95-4.32v2.36h2.48v-2.36h1.35v6.14h-1.35v-2.65h-2.48v2.65h-1.35v-6.14zm-4.1 1.64c-.08-.13-.19-.24-.31-.34-.12-.1-.25-.17-.4-.23a1.51 1.51 0 00-.48-.08c-.31 0-.56.06-.77.18-.22.11-.39.27-.52.47-.13.2-.23.42-.29.67-.06.26-.09.52-.09.79 0 .25.03.51.09.75s.16.46.29.66c.13.19.3.35.52.47.21.11.47.17.77.17.41 0 .73-.12.97-.38.23-.25.37-.58.42-.99h1.31a2.9 2.9 0 01-.27 1.04c-.14.31-.33.57-.56.79-.24.22-.52.38-.83.5-.31.11-.66.17-1.04.17-.47 0-.89-.08-1.27-.25-.37-.16-.69-.38-.95-.67-.26-.29-.46-.62-.59-1.01-.14-.39-.21-.81-.21-1.25 0-.46.07-.89.21-1.28.13-.39.33-.73.59-1.03.26-.29.58-.52.95-.69.38-.16.8-.25 1.27-.25.34 0 .66.05.96.15.3.1.57.24.81.43.24.18.43.41.59.69.15.27.25.59.29.94h-1.31a1.06 1.06 0 00-.15-.42zm-5.39 4.5h-1.36v-6.14h1.36zm-4.51-6.14c.27 0 .52.04.74.13.22.09.41.21.57.37.15.15.27.33.36.54.08.2.12.42.12.66 0 .36-.07.67-.23.93-.15.27-.4.47-.74.61v.01c.17.05.3.12.41.21.11.1.2.21.27.34.07.13.12.27.15.42.03.16.05.31.06.47.01.1.02.21.02.34l.03.41c.02.14.04.27.07.39.03.12.08.23.14.31h-1.35c-.07-.19-.12-.42-.14-.69-.01-.27-.04-.53-.07-.78-.05-.32-.15-.55-.3-.7-.14-.15-.39-.23-.73-.23h-1.35v2.4h-1.35v-6.14zm-.49 2.78c.31 0 .55-.07.7-.21.16-.14.23-.36.23-.67 0-.3-.07-.51-.23-.65-.15-.13-.39-.2-.7-.2h-1.47v1.73zm-6.71-2.78c.4 0 .77.06 1.11.19.34.13.63.31.88.57.25.25.45.56.59.94.14.38.21.83.21 1.34 0 .44-.06.86-.17 1.23-.12.38-.29.71-.52.99-.24.27-.52.49-.87.64-.35.16-.76.24-1.23.24h-2.65v-6.14zm-.09 5.01c.19 0 .38-.04.57-.1.18-.06.34-.17.49-.31.14-.15.25-.34.34-.57.09-.24.13-.53.13-.86 0-.31-.03-.59-.09-.84s-.16-.47-.3-.64c-.14-.18-.32-.32-.54-.41-.23-.1-.51-.14-.84-.14h-.97v3.87zm-3.88-5.01v1.14h-3.24v1.31h2.98v1.05h-2.98v1.51h3.31v1.13h-4.66v-6.14zm-6.14 6.14h-1.35v-6.14h1.35zm-4.64-6.14c.28 0 .53.04.75.13.22.09.41.21.56.37.16.15.28.33.37.54.08.2.12.42.12.66 0 .36-.08.67-.23.93-.15.27-.4.47-.74.61v.01c.16.05.3.12.41.21.11.1.2.21.27.34.07.13.12.27.15.42.03.16.05.31.06.47.01.1.01.21.02.34l.03.41c.01.14.04.27.07.39.03.12.08.23.14.31h-1.35c-.07-.19-.12-.42-.14-.69-.02-.27-.04-.53-.08-.78-.04-.32-.14-.55-.29-.7-.15-.15-.39-.23-.73-.23h-1.35v2.4h-1.35v-6.14zm-.48 2.78c.31 0 .54-.07.7-.21.15-.14.23-.36.23-.67 0-.3-.08-.51-.23-.65-.16-.13-.39-.2-.7-.2h-1.48v1.73zm-3.92-2.78v1.14h-2.97v1.41h2.57v1.05h-2.57v2.54h-1.35v-6.14z" id="Friedrich-Alexander"/>
  </g>
  <g id="FAU" transform="matrix(.905 0 0 -.905 22.195 2225.661)">
    <g id="Pfadgruppe">
      <path fill="#004171" d="M2.82 2377.66h35.51v3.2H2.82zm103.84-40.01H78.57c1.73-1.4 3.73-2.46 5.84-3.19h16.39c2.12.73 4.13 1.79 5.86 3.19zm-78.15 1.61h12.17l.02.06h-.03l1.01 3.13H29.72zm-.55-1.61l-1.22-3.19h12.4l1.06 3.19zm-25.14-3.19h11.62v3.2H2.82zm0 4.8h11.62v3.2H2.82zm0 4.8h11.62v3.2H2.82zm0 4.8h11.62v3.2H2.82zm0 14.4h11.62v3.2H2.82zm0 4.8h11.62v3.2H2.82zm0 4.8h35.51v3.2H2.82zm46.23-6.4H38.57l-1.21-3.2h10.71zm-6.38 11.2h14.47l-1.24 3.2H43.88zm-1.77-4.8h18.05l-1.25 3.2H42.11zm9.63-4.8h10.23l-1.24 3.2H40.34l-1.21-3.2H49.5l.45 1.46h.13zm1.44-4.8h10.6l-1.24 3.2H50.99zm1.43-4.8h10.98l-1.24 3.18H52.42zm1.44-4.8h11.35l-1.25 3.21H53.85zm-22.79-4.8H68l-1.24 3.19H33.27zm-1.77-4.8h39.53l-1.24 3.19H31.49zm29.18-4.8h12.16l-1.24 3.19h-12zm13.97-4.8l-1.24 3.19H59.91l1.05-3.19zm-.5 43.2h11.62v3.2H72.93zm0-4.8h11.62v3.2H72.93zm0-4.8h11.62v3.2H72.93zm0-4.8h11.62v3.2H72.93zm0-4.8h11.62v3.18H72.93zm0-4.8h11.62v3.21H72.93zm.1-4.8h11.74c-.14.82-.21 1.71-.21 2.64v.55H72.93v-1.5c0-.59.05-1.14.1-1.69zm1.04-4.8h13.25c-1.03.8-1.73 1.89-2.17 3.19H73.22c.19-1.14.46-2.21.85-3.19zm36.44-1.6H74.72c.63-1.2 1.4-2.26 2.27-3.2h31.25c.88.94 1.65 2 2.27 3.2zm1.51 4.79h-11.93c-.44-1.3-1.15-2.39-2.19-3.19h13.27c.38.98.66 2.05.85 3.19zm-11.34 30.41h11.62v3.2h-11.62zm0-4.8h11.62v3.2h-11.62zm0-4.8h11.62v3.2h-11.62zm0-4.8h11.62v3.2h-11.62zm0-4.8h11.62v3.18h-11.62zm0-4.8h11.62v3.21h-11.62zm11.62-3.11v1.5h-11.62v-.55c0-.93-.07-1.82-.22-2.64h11.75c.05.55.09 1.1.09 1.69zm-109.48 6.31v-3.22H45.2l.99 3.22zm0 4.8v-3.19h43.82l.98 3.19z" transform="translate(-27.345 78.434)" id="Logo"/>
    </g>
  </g>
</svg>
