<?xml version="1.0" encoding="UTF-8" standalone="no"?>
<!DOCTYPE svg PUBLIC "-//W3C//DTD SVG 1.1//EN" "http://www.w3.org/Graphics/SVG/1.1/DTD/svg11.dtd">
<svg version="1.1" xmlns="http://www.w3.org/2000/svg" xmlns:xlink="http://www.w3.org/1999/xlink">
    <symbol id="fau-logo" viewBox="0 0 216 42" >
	<title>Friedrich-Alexander-Universität Erlangen-Nürnberg</title>
	<g id="fau-logo-logopart" transform="matrix(0.905 0 0 -0.905 22.195295 2225.661132)">
	    <g id="Logo" transform="matrix(1 0 0 1 -27.345197 78.434082)">
	      <path fill="currentColor" d="M2.82 2377.66 L38.33 2377.66 L38.33 2380.86 L2.82 2380.86 Z M106.66 2337.65 L78.57 2337.65 C80.3 2336.25 82.3 2335.19 84.41 2334.46 L100.8 2334.46 C102.92 2335.19 104.93 2336.25 106.66 2337.65 Z M28.51 2339.26 L40.68 2339.26 L40.7 2339.32 L40.67 2339.32 L41.68 2342.45 L29.72 2342.45 Z M27.96 2337.65 L26.74 2334.46 L39.14 2334.46 L40.2 2337.65 Z M2.82 2334.46 L14.44 2334.46 L14.44 2337.66 L2.82 2337.66 Z M2.82 2339.26 L14.44 2339.26 L14.44 2342.46 L2.82 2342.46 Z M2.82 2344.06 L14.44 2344.06 L14.44 2347.26 L2.82 2347.26 Z M2.82 2348.86 L14.44 2348.86 L14.44 2352.06 L2.82 2352.06 Z M2.82 2363.26 L14.44 2363.26 L14.44 2366.46 L2.82 2366.46 Z M2.82 2368.06 L14.44 2368.06 L14.44 2371.26 L2.82 2371.26 Z M2.82 2372.86 L38.33 2372.86 L38.33 2376.06 L2.82 2376.06 Z M49.05 2366.46 L38.57 2366.46 L37.36 2363.26 L48.07 2363.26 Z M42.67 2377.66 L57.14 2377.66 L55.9 2380.86 L43.88 2380.86 Z M40.9 2372.86 L58.95 2372.86 L57.7 2376.06 L42.11 2376.06 Z M50.53 2368.06 L60.76 2368.06 L59.52 2371.26 L40.34 2371.26 L39.13 2368.06 L49.5 2368.06 L49.95 2369.52 L50.08 2369.52 Z M51.97 2363.26 L62.57 2363.26 L61.33 2366.46 L50.99 2366.46 Z M53.4 2358.46 L64.38 2358.46 L63.14 2361.64 L52.42 2361.64 Z M54.84 2353.66 L66.19 2353.66 L64.94 2356.87 L53.85 2356.87 Z M32.05 2348.86 L68 2348.86 L66.76 2352.05 L33.27 2352.05 Z M30.28 2344.06 L69.81 2344.06 L68.57 2347.25 L31.49 2347.25 Z M59.46 2339.26 L71.62 2339.26 L70.38 2342.45 L58.38 2342.45 Z M73.43 2334.46 L72.19 2337.65 L59.91 2337.65 L60.96 2334.46 Z M72.93 2377.66 L84.55 2377.66 L84.55 2380.86 L72.93 2380.86 Z M72.93 2372.86 L84.55 2372.86 L84.55 2376.06 L72.93 2376.06 Z M72.93 2368.06 L84.55 2368.06 L84.55 2371.26 L72.93 2371.26 Z M72.93 2363.26 L84.55 2363.26 L84.55 2366.46 L72.93 2366.46 Z M72.93 2358.46 L84.55 2358.46 L84.55 2361.64 L72.93 2361.64 Z M72.93 2353.66 L84.55 2353.66 L84.55 2356.87 L72.93 2356.87 Z M73.03 2348.86 L84.77 2348.86 C84.63 2349.68 84.56 2350.57 84.56 2351.5 L84.56 2352.05 L72.93 2352.05 L72.93 2350.55 C72.93 2349.96 72.98 2349.41 73.03 2348.86 Z M74.07 2344.06 L87.32 2344.06 C86.29 2344.86 85.59 2345.95 85.15 2347.25 L73.22 2347.25 C73.41 2346.11 73.68 2345.04 74.07 2344.06 Z M110.51 2342.46 L74.72 2342.46 C75.35 2341.26 76.12 2340.2 76.99 2339.26 L108.24 2339.26 C109.12 2340.2 109.89 2341.26 110.51 2342.46 Z M112.02 2347.25 L100.09 2347.25 C99.65 2345.95 98.94 2344.86 97.9 2344.06 L111.17 2344.06 C111.55 2345.04 111.83 2346.11 112.02 2347.25 Z M100.68 2377.66 L112.3 2377.66 L112.3 2380.86 L100.68 2380.86 Z M100.68 2372.86 L112.3 2372.86 L112.3 2376.06 L100.68 2376.06 Z M100.68 2368.06 L112.3 2368.06 L112.3 2371.26 L100.68 2371.26 Z M100.68 2363.26 L112.3 2363.26 L112.3 2366.46 L100.68 2366.46 Z M100.68 2358.46 L112.3 2358.46 L112.3 2361.64 L100.68 2361.64 Z M100.68 2353.66 L112.3 2353.66 L112.3 2356.87 L100.68 2356.87 Z M112.3 2350.55 L112.3 2352.05 L100.68 2352.05 L100.68 2351.5 C100.68 2350.57 100.61 2349.68 100.46 2348.86 L112.21 2348.86 C112.26 2349.41 112.3 2349.96 112.3 2350.55 Z M2.82 2356.86 L2.82 2353.64 L45.2 2353.64 L46.19 2356.86 Z M2.82 2361.66 L2.82 2358.47 L46.64 2358.47 L47.62 2361.66 Z"/>
	    </g>
	</g>
    </symbol>
</svg>


