<svg version="1.1" xmlns="http://www.w3.org/2000/svg" xmlns:xlink="http://www.w3.org/1999/xlink" x="0px" y="0px"
	 viewBox="0 0 90 87.41" style="enable-background:new 0 0 90 87.41;" xml:space="preserve">
	<path d="M80.83,72.82c0,3.55-2.88,6.43-6.43,6.43c-3.55,0-6.43-2.88-6.43-6.43c0-3.55,2.88-6.43,6.43-6.43
		C77.95,66.39,80.83,69.27,80.83,72.82 M90,80.99V29.56c0,0,0-6.43-6.43-6.43H72.58v20.41c0,6.43-6.43,6.43-6.43,6.43H23.85
		c-6.43,0-6.43-6.43-6.43-6.43V23.13H6.43c0,0-6.43,0-6.43,6.43v51.43c0,0,0,6.43,6.43,6.43h77.14C83.57,87.41,90,87.41,90,80.99"/>
	<path d="M66.47,36.51V6.43c0,0,0-6.43-6.43-6.43H29.96c0,0-6.43,0-6.43,6.43v30.08c0,0,0,6.43,6.43,6.43h30.08
		C60.04,42.94,66.47,42.94,66.47,36.51"/>
</svg>
