<svg version="1.1" xmlns="http://www.w3.org/2000/svg" xmlns:xlink="http://www.w3.org/1999/xlink" x="0px" y="0px"
	 viewBox="0 0 84.5 81" style="enable-background:new 0 0 84.5 81;" xml:space="preserve">
<g>
	<path d="M82.6,50.6H69.9V12.3c0-8.6-7.4-11.8-11.3-12.3c-0.1,0-0.2,0-0.3,0H13.7C5.9,0,0,6.1,0,18c0,1,0.8,1.9,1.9,1.9h12.7v30.7
		H1.9c-1,0-1.9,0.8-1.9,1.9v23.9C0,78.9,2,81,4.5,81h78.1c1,0,1.9-0.8,1.9-1.9c0,0,0,0,0,0V52.5C84.5,51.4,83.7,50.6,82.6,50.6
		C82.6,50.6,82.6,50.6,82.6,50.6z M3.8,14.6c0-5.5,4.1-10.9,9.9-10.9H52c-2.2,3.8-3.7,8-4.1,12.4H3.8C3.8,16.1,3.8,18.5,3.8,14.6z
		 M18.3,19.9h31.2c1,0,1.8-0.7,1.9-1.7c0.3-3.7,2.3-14.2,6.9-14.4c1,0.2,7.9,1.5,7.9,8.5v38.3H18.3V19.9z M80.7,77.2H4.5
		c-0.4,0-0.8-0.3-0.8-0.8v-22h77V77.2z"/>
	<path d="M30.7,65.8c0,1,0.8,1.9,1.9,1.9H69c1,0,1.9-0.8,1.9-1.9c0-1-0.8-1.9-1.9-1.9H32.6C31.6,63.9,30.7,64.7,30.7,65.8z"/>
	<path d="M21.6,63.9h-6.7c-1,0-1.9,0.8-1.9,1.9c0,1,0.8,1.9,1.9,1.9h6.7c1,0,1.9-0.8,1.9-1.9C23.5,64.7,22.6,63.9,21.6,63.9z"/>
</g>
</svg>
