<svg version="1.1" xmlns="http://www.w3.org/2000/svg" xmlns:xlink="http://www.w3.org/1999/xlink" x="0px" y="0px"
	 viewBox="0 0 69.3 75.6" style="enable-background:new 0 0 69.3 75.6;" xml:space="preserve">
<g>
	<path d="M4.6,75.6h19.5c1,0,1.9-0.8,1.9-1.9V49.2h17.3v24.6c0,1,0.8,1.9,1.9,1.9h19.5c2.6,0,4.7-2.1,4.7-4.7V33.9
		c0-2.1-0.8-4.1-2.3-5.6L39,1.6c-2.5-2.4-6.4-2.4-8.9,0L2.3,28.2C0.8,29.7,0,31.8,0,33.9v37.1C-0.1,73.5,2.1,75.6,4.6,75.6z
		 M3.7,33.9c0-1.1,0.5-2.2,1.2-2.9L32.7,4.3c1-1,2.6-1,3.7,0L64.3,31c0.8,0.8,1.2,1.9,1.2,2.9v37.1c0,0.6-0.4,0.9-0.9,0.9H47V47.3
		c0-1-0.8-1.9-1.9-1.9h-21c-1,0-1.9,0.8-1.9,1.9v24.6H4.6c-0.6,0-0.9-0.4-0.9-0.9V33.9z"/>
</g>
</svg>
