<svg version="1.1" xmlns="http://www.w3.org/2000/svg" xmlns:xlink="http://www.w3.org/1999/xlink" x="0px" y="0px"
	 viewBox="0 0 75.6 58.1" style="enable-background:new 0 0 75.6 58.1;" xml:space="preserve">
<g>
	<path d="M63.4,0h-51C5.5,0,0,5.5,0,12.3v33.5c0,6.8,5.5,12.3,12.3,12.3h50.9c6.8,0,12.3-5.5,12.3-12.3V12.3C75.7,5.5,70.2,0,63.4,0
		z M12.3,3.9h50.9c3.5,0,6.5,2.1,7.9,5.2l-29,21.7c-2.5,1.9-6,1.9-8.6,0.1L4.6,9.1C5.8,6,8.8,3.9,12.3,3.9z M71.8,45.9
		c0,4.7-3.8,8.4-8.4,8.4h-51c-4.7,0-8.4-3.8-8.4-8.4V13.5l27.4,20.6c1.9,1.5,4.3,2.1,6.6,2.1c2.3,0,4.7-0.8,6.7-2.2l27.3-20.5V45.9z
		"/>
</g>
</svg>
