<svg version="1.1" xmlns="http://www.w3.org/2000/svg" xmlns:xlink="http://www.w3.org/1999/xlink" x="0px" y="0px"
	 viewBox="0 0 88.13 61.06" style="enable-background:new 0 0 88.13 61.06;" xml:space="preserve">
	<path d="M81.83,8.59L61.06,26.41L81.83,44.6l6.29,5.54V8.18c0-1.51-0.41-2.9-1.07-4.09C87.06,4.09,81.83,8.59,81.83,8.59z"/>
	<path d="M86.8,57.35l-4.97-4.37L56.24,30.56l-4.31,3.68c-2.27,1.95-5.07,2.9-7.87,2.9s-5.57-0.94-7.87-2.9l-4.31-3.68L6.29,52.97
		l-4.97,4.37c1.48,2.23,4,3.71,6.86,3.71h71.76C82.81,61.06,85.32,59.58,86.8,57.35L86.8,57.35z"/>
	<path d="M27.07,26.41L6.29,8.59l-5.22-4.5C0.41,5.29,0,6.67,0,8.18v41.92l6.29-5.51C6.29,44.6,27.07,26.41,27.07,26.41z"/>
	<path d="M33.68,23.79c0.19,0.13,0.41,0.31,0.57,0.5l6.04,5.16c2.17,1.86,5.35,1.86,7.55,0l6.04-5.16c0.16-0.19,0.38-0.38,0.57-0.5
		l20.4-17.5l7.05-6.04C81.26,0.09,80.64,0,79.94,0H8.18C7.49,0,6.86,0.09,6.23,0.25l7.05,6.04C13.28,6.29,33.68,23.79,33.68,23.79z"
		/>
</svg>
