<svg version="1.1" xmlns="http://www.w3.org/2000/svg" xmlns:xlink="http://www.w3.org/1999/xlink" x="0px" y="0px"
	 viewBox="0 0 53.72 89.07" style="enable-background:new 0 0 53.72 89.07;" xml:space="preserve">
<path d="M46.53,0H7.21C3.22,0,0,3.23,0,7.21v74.65c0,3.99,3.23,7.21,7.21,7.21h39.31c3.99,0,7.21-3.23,7.21-7.21V7.21
	C53.74,3.23,50.5,0,46.53,0z M26.87,84.45c-2.65,0-4.79-2.14-4.79-4.79s2.14-4.81,4.79-4.81s4.79,2.14,4.79,4.79
	S29.52,84.45,26.87,84.45z M46.27,70.69H7.47V8.73h38.8C46.27,8.73,46.27,70.69,46.27,70.69z"/>
</svg>
