<svg version="1.1" xmlns="http://www.w3.org/2000/svg" xmlns:xlink="http://www.w3.org/1999/xlink" x="0px" y="0px"
	 viewBox="0 0 55.6 81.5" style="enable-background:new 0 0 55.6 81.5;" xml:space="preserve">
<path d="M48.3,0H7.2C3.2,0,0,3.2,0,7.2v67c0,4,3.2,7.2,7.2,7.2h41.1c4,0,7.2-3.2,7.2-7.2v-67C55.6,3.2,52.3,0,48.3,0z M51.6,74.2
	c0,1.8-1.5,3.2-3.2,3.2H7.2C5.5,77.5,4,76,4,74.2l0-7.8h47.6L51.6,74.2z M51.6,11.8L51.6,11.8l0,50.6H4V11.8V7.2C4,5.5,5.5,4,7.2,4
	h41.1c1.8,0,3.2,1.5,3.2,3.2V11.8z"/>
<circle cx="27.8" cy="71.9" r="3.2"/>
</svg>
