<svg version="1.1" focusable="false" xmlns="http://www.w3.org/2000/svg" xmlns:xlink="http://www.w3.org/1999/xlink"
	 x="0px" y="0px" viewBox="0 0 76 95.36" style="enable-background:new 0 0 76 95.36;" xml:space="preserve">
<path d="M51,2.7c-0.76-0.86-1.85-1.34-3-1.34H10c-5.52,0-10,4.48-10,10v74c0,5.52,4.48,10,10,10h56c5.52,0,10-4.48,10-10v-53
	c0-0.98-0.35-1.93-1-2.66L51,2.7z M54,18.13l7.32,8.23H54V18.13z M66,87.36H10c-1.1,0-2-0.9-2-2v-74c0-1.1,0.9-2,2-2h36v18
	c0,3.87,3.13,7,7,7h15v51C68,86.46,67.1,87.36,66,87.36z"/>
<path d="M55,44.36H17c-2.21,0-4,1.79-4,4s1.79,4,4,4h38c2.21,0,4-1.79,4-4S57.21,44.36,55,44.36z"/>
<path d="M55,57.86H17c-2.21,0-4,1.79-4,4c0,2.21,1.79,4,4,4h38c2.21,0,4-1.79,4-4C59,59.65,57.21,57.86,55,57.86z"/>
<path d="M55,71.36H17c-2.21,0-4,1.79-4,4s1.79,4,4,4h38c2.21,0,4-1.79,4-4S57.21,71.36,55,71.36z"/>
<path d="M17,35.36h18c2.21,0,4-1.79,4-4s-1.79-4-4-4H17c-2.21,0-4,1.79-4,4S14.79,35.36,17,35.36z"/>
</svg>
