<svg version="1.1" xmlns="http://www.w3.org/2000/svg" xmlns:xlink="http://www.w3.org/1999/xlink" x="0px" y="0px"
	 viewBox="0 0 74.1 96.1" style="enable-background:new 0 0 74.1 96.1;" xml:space="preserve">
<path d="M25.5,0h45.8c1.6,0,2.8,1.3,2.8,2.8v90.5c0,1.6-1.3,2.8-2.8,2.8H2.8c-1.6,0-2.8-1.3-2.8-2.8V25.5c0-0.8,0.3-1.5,0.8-2
	L23.5,0.8C24,0.3,24.7,0,25.5,0z M28.5,7.5v19.3c0,1.6-1.3,2.7-2.7,2.7H6.5V90h61V7.5H28.5z M9.7,23.6h13v-13L9.7,23.6z M56.9,76.5
	c1.7,0,3,1.5,3,3.2s-1.4,3.2-3,3.2H17.1c-1.7,0-3-1.5-3-3.2s1.4-3.2,3-3.2H56.9z M56.9,65.1c1.7,0,3,1.5,3,3.2s-1.4,3.2-3,3.2H17.1
	c-1.7,0-3-1.5-3-3.2s1.4-3.2,3-3.2H56.9z M56.9,53.7c1.7,0,3,1.5,3,3.2s-1.4,3.2-3,3.2H17.1c-1.7,0-3-1.5-3-3.2s1.4-3.2,3-3.2H56.9z
	 M56.9,42.4c1.7,0,3,1.5,3,3.2s-1.4,3.2-3,3.2H17.1c-1.7,0-3-1.5-3-3.2s1.4-3.2,3-3.2H56.9z M56.9,31c1.7,0,3,1.5,3,3.2
	s-1.4,3.2-3,3.2H39.4c-1.7,0-3-1.5-3-3.2s1.4-3.2,3-3.2H56.9z"/>
</svg>
