<svg version="1.1" focusable="false" xmlns="http://www.w3.org/2000/svg" xmlns:xlink="http://www.w3.org/1999/xlink"
	 x="0px" y="0px" viewBox="0 0 80.6 74.84" style="enable-background:new 0 0 80.6 74.84;" xml:space="preserve">
<style type="text/css">
	.st0{fill-rule:evenodd;clip-rule:evenodd;}
</style>
<path class="st0" d="M8.64,0C3.87,0,0,3.87,0,8.64v23.03c0,4.77,3.87,8.64,8.64,8.64h23.03c4.77,0,8.64-3.87,8.64-8.64V8.64
	C40.3,3.87,36.43,0,31.66,0H8.64z M48.93,0c-1.59,0-2.88,1.29-2.88,2.88s1.29,2.88,2.88,2.88h28.78c1.59,0,2.88-1.29,2.88-2.88
	S79.31,0,77.72,0H48.93z M8.64,5.76h23.03c1.59,0,2.88,1.29,2.88,2.88v13.93l-13.11-7.87c-0.81-0.41-1.76-0.41-2.57,0L5.76,22.56
	V8.64C5.76,7.05,7.05,5.76,8.64,5.76z M48.93,11.51c-1.59,0-2.88,1.29-2.88,2.88s1.29,2.88,2.88,2.88h28.78
	c1.59,0,2.88-1.29,2.88-2.88s-1.29-2.88-2.88-2.88H48.93z M48.93,23.03c-1.59,0-2.88,1.29-2.88,2.88s1.29,2.88,2.88,2.88h28.78
	c1.59,0,2.88-1.29,2.88-2.88s-1.29-2.88-2.88-2.88H48.93z M48.93,34.54c-1.59,0-2.88,1.29-2.88,2.88c0,1.59,1.29,2.88,2.88,2.88
	h28.78c1.59,0,2.88-1.29,2.88-2.88c0-1.59-1.29-2.88-2.88-2.88H48.93z M2.88,46.06C1.29,46.06,0,47.35,0,48.93
	c0,1.59,1.29,2.88,2.88,2.88h74.84c1.59,0,2.88-1.29,2.88-2.88c0-1.59-1.29-2.88-2.88-2.88H2.88z M2.88,57.57
	C1.29,57.57,0,58.86,0,60.45c0,1.59,1.29,2.88,2.88,2.88h74.84c1.59,0,2.88-1.29,2.88-2.88c0-1.59-1.29-2.88-2.88-2.88H2.88z
	 M2.88,69.08C1.29,69.08,0,70.37,0,71.96c0,1.59,1.29,2.88,2.88,2.88h74.84c1.59,0,2.88-1.29,2.88-2.88c0-1.59-1.29-2.88-2.88-2.88
	H2.88z"/>
</svg>
