<svg version="1.1" xmlns="http://www.w3.org/2000/svg" xmlns:xlink="http://www.w3.org/1999/xlink" x="0px" y="0px"
	 viewBox="0 0 87.93 79.89" style="enable-background:new 0 0 87.93 79.89;" xml:space="preserve">
<g>
	<path d="M78.66,26.31H54.15V9.14C54.15,4.03,50-0.12,44.89-0.12H9.27C4.15-0.12,0.01,4.03,0,9.14v22.28
		c-0.01,1.84,0.54,3.65,1.59,5.17c3.39,6.61,19.54,16.52,19.71,16.67c0.23,0.14,0.49,0.22,0.76,0.22c0.34,0,0.68-0.13,0.94-0.35
		c0.48-0.41,0.64-1.08,0.41-1.66c-1.29-3.51-2.27-7.12-2.94-10.79h13.3v17.18c0.01,5.11,4.15,9.25,9.27,9.25h24.42
		c-0.66,3.68-1.65,7.29-2.94,10.79c-0.23,0.58-0.06,1.24,0.41,1.64c0.26,0.22,0.59,0.35,0.94,0.35c0.27,0,0.53-0.08,0.76-0.22
		C66.8,79.56,82.95,69.61,86.34,63c1.04-1.52,1.6-3.32,1.59-5.17V35.57C87.92,30.46,83.77,26.31,78.66,26.31z M28.53,37.73h-9.81
		c-0.43,0-0.84,0.19-1.12,0.51c-0.28,0.33-0.41,0.76-0.34,1.19c0.51,3.04,1.19,6.05,2.04,9.02c-5.08-3.44-13.08-9.34-15.08-13.14
		c-0.04-0.1-0.1-0.2-0.16-0.29c-0.74-1.05-1.13-2.31-1.13-3.6V9.14c0.01-3.49,2.84-6.32,6.33-6.33h35.62
		c3.49,0.01,6.32,2.84,6.33,6.33v17.17h-8.18c-2.8,0-5.45,1.27-7.21,3.45c-2.1,0-4.16-0.5-6.02-1.47c2.74-3.1,4.36-7.04,4.58-11.17
		h1.85c0.81,0,1.47-0.66,1.47-1.47c0-0.81-0.66-1.47-1.47-1.47H28.6V9.54c0-0.81-0.66-1.47-1.47-1.47s-1.47,0.66-1.47,1.47v4.6
		h-7.65c-0.81,0-1.47,0.66-1.47,1.47c0,0.81,0.66,1.47,1.47,1.47c0,0,0,0,0,0h13.42c-0.21,3.4-1.55,6.63-3.8,9.19l-0.23,0.22
		c-1.63-1.6-2.89-3.54-3.67-5.68c-0.29-0.76-1.14-1.14-1.9-0.84c-0.76,0.29-1.14,1.14-0.84,1.9c0.88,2.38,2.24,4.55,3.99,6.37
		c-2.14,1.08-4.52,1.61-6.92,1.54l0,0c-0.81,0-1.47,0.66-1.47,1.47s0.66,1.47,1.47,1.47c3.29,0.1,6.54-0.76,9.35-2.48
		c2.07,1.31,4.42,2.11,6.86,2.32c-0.33,0.94-0.5,1.94-0.5,2.94v2.16L28.53,37.73z M84.99,57.85c0,1.29-0.39,2.54-1.13,3.6
		c-0.06,0.08-0.11,0.18-0.15,0.28c-2,3.8-10.01,9.72-15.09,13.22c0.85-2.96,1.54-5.97,2.04-9.02c0.07-0.43-0.06-0.86-0.34-1.19
		c-0.28-0.33-0.69-0.51-1.12-0.51H43.04c-3.49,0-6.32-2.82-6.33-6.31V35.57c0.01-3.49,2.84-6.32,6.33-6.33h35.62
		c3.49,0.01,6.32,2.84,6.33,6.33V57.85z M62.27,35.26L62.27,35.26c-0.06-0.12-0.13-0.24-0.22-0.34c0,0,0-0.1-0.1-0.15
		c-0.05-0.04-0.11-0.07-0.16-0.1c-0.09-0.08-0.2-0.15-0.31-0.21l0,0c-0.08-0.01-0.16-0.01-0.23,0c-0.1-0.01-0.21-0.01-0.31,0
		c-0.13,0.01-0.26,0.03-0.38,0.07h-0.16l0,0c-0.14,0.06-0.27,0.14-0.38,0.23l-0.1,0.07l-0.12,0.18c-0.08,0.1-0.15,0.2-0.21,0.31l0,0
		l-8.81,22.03c-0.3,0.75,0.07,1.61,0.82,1.91c0,0,0,0,0,0c0.17,0.07,0.36,0.11,0.54,0.1c0.6,0,1.14-0.37,1.37-0.93l2.55-6.42h9.76
		l2.57,6.42c0.22,0.56,0.76,0.93,1.37,0.93c0.19,0,0.37-0.03,0.54-0.1c0.75-0.3,1.12-1.15,0.82-1.91c0,0,0,0,0,0L62.27,35.26z
		 M57.18,49.02l3.71-9.27l3.7,9.27H57.18z"/>
</g>
</svg>
