<svg version="1.1" focusable="false" xmlns="http://www.w3.org/2000/svg" xmlns:xlink="http://www.w3.org/1999/xlink"
	 x="0px" y="0px" viewBox="0 0 81.41 81.31" style="enable-background:new 0 0 81.41 81.31;" xml:space="preserve">
<g>
	<path d="M79.76,15.97L65.35,1.56c-1.08-1.11-2.6-1.67-4.14-1.54L40.07,1.56c-1.25,0.1-2.43,0.64-3.32,1.51L1.56,38.18
		C0.55,39.16-0.01,40.51,0,41.92c0,1.4,0.55,2.75,1.54,3.75l34.14,34.11c2.07,2.03,5.38,2.03,7.44,0l35.13-35.11
		c0.91-0.92,1.45-2.14,1.51-3.42l1.64-21.24C81.48,18.49,80.88,17.01,79.76,15.97z M73.51,40.53L39.4,74.75L6.57,41.92L40.79,7.71
		l20.47-1.59L75.2,20.07L73.51,40.53z M58.92,22.4c2.07,2.02,5.37,2.02,7.44,0c2.09-2.06,2.12-5.42,0.07-7.51s-5.42-2.12-7.51-0.07
		s-2.12,5.42-0.07,7.51C58.88,22.35,58.9,22.38,58.92,22.4z"/>
</g>
</svg>
