<svg version="1.1" focusable="false" xmlns="http://www.w3.org/2000/svg" xmlns:xlink="http://www.w3.org/1999/xlink"
	 x="0px" y="0px" viewBox="0 0 88.1 85.6" style="enable-background:new 0 0 88.1 85.6;" xml:space="preserve">
<path d="M84,62.3c-7.5-4.8-14.4-7.7-21.3-8.9c-2.7-0.5-5.5,0.4-7.5,2.3l-4.3,4c-0.3,0.3-0.8,0.4-1.2,0.2c-4.9-2.8-9.5-6.3-13.6-10.4
	c-3.1-3.1-5.9-6.6-8.3-10.2c-0.3-0.4-0.2-1,0.1-1.3l4.6-4.9c1.9-2,2.7-4.8,2.3-7.5c-1.2-6.9-4.1-13.8-8.9-21.3
	c-2.1-3.4-6.2-4.9-10-3.7C12.6,1.4,9.2,3.5,5.9,6.5c-4,3.6-6.2,9-5.8,14.5c1,14.9,8.6,30.2,21.4,43.1c13.9,13.9,30.5,21.5,46.2,21.5
	c1.4,0,2.8-0.1,4.2-0.2c5.8-0.5,10.9-3.7,13.7-8.6c0.9-1.5,1.6-3.1,2.1-4.6C88.9,68.5,87.4,64.4,84,62.3z M83.3,70.9
	c-0.4,1.2-0.9,2.4-1.7,3.6c-2.1,3.5-5.9,5.9-10.1,6.3c-15.6,1.4-32.6-5.9-46.8-20c-12-12-19.2-26.3-20.1-40.1C4.4,16.6,6,12.6,9,9.9
	c2.8-2.5,5.6-4.3,8.4-5.1c0.4-0.1,0.7-0.2,1.1-0.2c1.4,0,2.8,0.7,3.5,2c4.4,6.9,7.1,13.4,8.2,19.6c0.2,1.3-0.2,2.6-1.1,3.6l-4.6,4.9
	c-1.8,1.9-2,4.8-0.6,7.1c2.6,3.9,5.6,7.6,8.9,10.9c4.4,4.4,9.3,8.2,14.6,11.2c2.1,1.2,4.8,0.9,6.7-0.8l4.3-4c1-0.9,2.3-1.3,3.6-1.1
	c6.3,1.1,12.7,3.8,19.6,8.2C83.1,67.2,83.9,69.1,83.3,70.9z"/>
</svg>
