<svg aria-hidden="true" focusable="false" version="1.1" xmlns="http://www.w3.org/2000/svg" xmlns:xlink="http://www.w3.org/1999/xlink" x="0px" y="0px"
	 viewBox="0 0 88.13 96.18" style="enable-background:new 0 0 88.13 96.18;" xml:space="preserve">
	<g>
		<path d="M31.55,23.7c1.08,5.51-1.29,7.18-1.29,7.18l-6.93,4.35c-2.76,1.64-1.26,5.06-1.26,5.06
			c10.82,23.49,22.79,30.56,27.15,33.69c3.15,2.27,5.07,0.65,5.07,0.65l8.92-7.44c3.17-3.1,5.58-0.97,5.58-0.97l17.6,13.15
			c2.99,2.1,1.65,6.36-0.51,10.03c-2.13,3.63-13.7,8.29-24.75,6.3c-11.06-1.99-31.45-11.18-44.89-31.34
			C2.67,44.01,1.33,31.51,1.33,31.51c-5.75-18.52,9-28.38,9-28.38c11.61-7.32,17.04,0.48,17.04,0.48S30.47,18.18,31.55,23.7z"/>
	</g>
</svg>
